<svg id="Layer_1" xmlns="http://www.w3.org/2000/svg" viewBox="0 0 256 256"><style>.st0{fill:#8d2ad4}.st1{fill:#5fed76}.st2{fill:#5fe8b5}.st3{fill:#13b6be}.st4{fill:#25c8fe}.st5{fill:#6ad968}.st6{fill:#85f1b2}.st7{fill:#122251}</style><g id="Layer_4"><g id="XMLID_1_"><path class="st0" d="M233.6 173.7c0 2.1-.2 4.1-.5 6-21.5 5.2-37.1-11.4-37.1-11.4 3.8-4.1 7.3-8.5 10.3-13.3 3.6-5.8 6.8-12 9.2-18.5 11 8.8 18.1 22.3 18.1 37.2z"/><path class="st1" d="M196.2 168.5s15.5 16.6 37.1 11.4c-1.4 10.6-6.3 20.2-13.6 27.5-6.5 6.5-14.7 11-23.8 12.9 1.1-4.9 1.6-9 1.6-14.4 0-11.2-2.7-21.8-7.6-31.1 2-2.1 4.2-4.1 6.3-6.3z"/><path class="st2" d="M190.2 59.7c6.2-1.4 11.7-3.9 15.2-8.7 10.1 15.2 16.1 33.3 16.1 52.9 0 11.5-2.1 22.6-5.8 32.8-2.4 6.5-5.5 12.8-9.2 18.5l-.2-.2c-2.4.3-4.6.3-6.9.3-10.6 0-20.7-2.7-29.4-7.4-19.3-10.4-32.2-30.8-32.2-54.3 0-2.8.2-5.7.6-8.5 1.4-10.6 5.5-20.2 11.7-28.4-.5.2 22.6 6.8 40.1 3z"/><path class="st3" d="M206.1 155.1l.2.2c-3 4.7-6.5 9.2-10.3 13.3-2.1 2.2-4.1 4.3-6.3 6.3-5.5-10.6-13.6-19.4-23.7-25.9l3.6-.8c8.7 4.7 18.8 7.4 29.4 7.4 2.6-.2 4.8-.2 7.1-.5z"/><path class="st4" d="M197.3 205.9c0 5.2-.3 9.5-1.6 14.4-3.2.6-6.3.9-9.6.9H63.9c-1.1-4.9-1.7-9.9-1.7-15.3 0-9.5 1.9-18.6 5.5-26.7 16.1 12.6 36.5 20 58.4 20 24.5 0 46.7-9.3 63.6-24.5 4.9 9.4 7.6 20 7.6 31.2z"/><path class="st0" d="M189.6 32.9c6 5.4 11.4 11.4 15.8 18.2-3.5 4.7-9 7.4-15.2 8.7-17.4 3.8-40.4-2.8-40.4-2.8 9.3-12.7 23.5-21.6 39.8-24.1z"/><path class="st5" d="M166.2 148.9c9.9 6.5 18.2 15.3 23.7 25.9-16.9 15.2-39.1 24.5-63.6 24.5-22.1 0-42.3-7.4-58.4-20 5.8-13.4 15.8-24.6 28.4-31.9 9.9-5.7 21.3-9 33.6-9 13.2-.1 25.7 3.7 36.3 10.5z"/><path class="st3" d="M169.7 148l-3.6.8c-10.6-6.8-23-10.6-36.5-10.6-12.3 0-23.7 3.3-33.6 9l-.5-.8c22.3-12.6 38.2-34.9 42.3-61.2-.3 2.8-.6 5.7-.6 8.5.3 23.5 13.4 43.8 32.5 54.3zm-31.4-87.5c-.9-6.6-2.5-13.1-4.9-19.3 20.7-9.8 33.1-23.5 33.1-23.5 8.5 3.9 16.3 9.2 23.2 15.3-16.3 2.5-30.3 11.4-39.8 24-6.2 8.1-10.3 17.8-11.7 28.4.6-4.3.9-8.7.9-13.3-.1-4-.4-7.8-.8-11.6z"/><path class="st5" d="M166.4 17.6s-12.5 13.7-33.1 23.5c-4.6-12-12-22.7-21.2-31.6 4.6-.6 9.3-.9 14-.9 14.4 0 28.1 3.3 40.3 9z"/><path class="st6" d="M107.2 49.6c9.6-1.7 18.5-4.7 26-8.5 2.4 6.2 4.1 12.6 4.9 19.3.5 3.8.8 7.6.8 11.5 0 4.6-.3 9-.9 13.3-4.1 26.2-20.2 48.6-42.3 61.2-12.5 7.1-26.8 11-42.1 11-2.1 0-4.1 0-6-.2l-.2.2c-4.4-6.5-8.1-13.4-10.7-20.8-3.8-10.3-5.8-21.3-5.8-32.8 0-22.7 7.9-43.6 21.3-60-.1.1 19.4 12 55 5.8z"/><path class="st5" d="M112.1 9.7c9.3 8.7 16.6 19.4 21.2 31.6-7.6 3.6-16.4 6.8-26 8.5-3.3-10.9-9-22.7-18.5-33.5 7.3-3.1 15.2-5.4 23.3-6.6z"/><path class="st3" d="M95.6 146.5l.5.8c-12.6 7.3-22.6 18.5-28.4 31.9-3.5-2.7-6.8-5.7-9.9-8.8-3.8-3.9-7.3-8.2-10.4-12.8l.2-.2c2.1.2 3.9.2 6 .2 15.2 0 29.6-4.1 42-11.1z"/><path class="st5" d="M88.8 16.2c9.5 10.6 15.2 22.4 18.5 33.5C71.6 55.9 52.2 44 52.2 44c9.7-12.1 22.3-21.7 36.6-27.8z"/><path class="st1" d="M62.2 205.9c0 5.2.6 10.4 1.7 15.3-19.6-.8-36.3-13.9-42.5-31.6 28.1 3.2 36.3-19.3 36.3-19.3 3.2 3.2 6.5 6.2 9.9 8.8-3.5 8.2-5.4 17.2-5.4 26.8z"/><path class="st0" d="M47.3 157.4c3.2 4.6 6.6 8.8 10.4 12.8 0 0-8.2 22.6-36.3 19.3-1.7-4.9-2.7-10.3-2.7-15.8 0-7.6 1.7-14.5 4.9-20.8s7.6-11.8 13.1-16.3c2.6 7.4 6.2 14.5 10.6 20.8z"/><path class="st7" d="M126.1 204c-22.6 0-43.8-7.3-61.3-21.1-3.4-2.6-6.8-5.7-10.4-9.2-4-4.2-7.7-8.7-11-13.4-4.7-6.9-8.5-14.3-11.3-21.9-4.1-11-6.1-22.6-6.1-34.4 0-23.3 7.7-45.1 22.4-63 10-12.5 23.3-22.5 38.4-29 7.5-3.3 15.8-5.6 24.5-7 4.8-.7 9.8-1 14.8-1 14.8 0 29.4 3.3 42.3 9.5 8.6 4 16.8 9.4 24.3 16 6.3 5.4 11.8 11.8 16.4 18.9 11 16.6 16.9 35.8 16.9 55.5 0 11.8-2.1 23.4-6.1 34.5-2.4 6.6-5.8 13.3-9.6 19.4-3 4.8-6.6 9.4-10.8 13.9-2.1 2.3-4.3 4.4-6.6 6.6-18.5 16.6-42.2 25.7-66.8 25.7zm0-190.5c-4.6 0-9.1.3-13.4.9-7.9 1.2-15.3 3.3-22.1 6.3-13.7 5.9-25.8 15-34.8 26.2-13.3 16.2-20.3 35.9-20.3 57 0 10.7 1.9 21.2 5.5 31.2 2.5 6.9 5.9 13.5 10.2 19.8 3 4.3 6.3 8.4 9.9 12.2 3.2 3.2 6.3 6 9.4 8.4 15.9 12.5 35.1 19.1 55.5 19.1 22.3 0 43.7-8.3 60.5-23.3 2.1-1.9 4-3.9 6-6 3.7-4 7-8.3 9.7-12.6 3.5-5.5 6.5-11.5 8.7-17.6 3.7-10 5.6-20.5 5.6-31.2 0-17.9-5.3-35.2-15.3-50.3-4.2-6.4-9.1-12.1-14.8-17-6.9-6.1-14.3-11-22.1-14.6-11.6-5.6-24.8-8.5-38.2-8.5z"/><path class="st7" d="M16.8 191.1c-2-5.5-3-11.4-3-17.4 0-8.1 1.8-15.8 5.4-23 3.5-7 8.3-13 14.4-17.8l5.9 7.4c-5 4-8.9 8.9-11.8 14.7-2.9 5.8-4.4 12.1-4.4 18.7 0 4.9.8 9.7 2.4 14.2l-8.9 3.2zm169.3 34.8H63.7c-21-.8-39.8-14.8-46.7-34.7l8.9-3.1c5.7 16.3 21 27.7 38.1 28.4h122.1c3 0 5.8-.3 8.7-.9 8-1.7 15.5-5.7 21.4-11.6 6.6-6.6 11-15.4 12.2-24.7.3-1.8.4-3.6.4-5.4 0-13-5.9-25.2-16.2-33.4l5.9-7.4c12.6 10 19.8 24.9 19.8 40.8 0 2.3-.2 4.6-.5 6.8-1.5 11.2-6.8 21.9-14.9 30-7.3 7.3-16.3 12.2-26.2 14.2-3.6.7-7 1-10.6 1zm-74.5-133h-.6c-2.6-.3-4.5-2.6-4.2-5.2 0-.3 1.8-17.1-4.2-36.6C99 39 93.1 28.3 85.1 19.3c-1.7-2-1.5-5 .4-6.7s5-1.5 6.7.4c8.8 10 15.4 21.9 19.4 35.2 6.7 21.5 4.7 39.7 4.6 40.4-.2 2.5-2.2 4.3-4.6 4.3z"/><path class="st7" d="M87.1 56.1c-23.8 0-36.9-7.7-37.5-8.2l4.9-8.1c.2.1 18.6 10.8 51.8 5.1 8.7-1.6 17.3-4.4 24.7-8.1 19.7-9.3 31.6-22.3 31.8-22.5l7 6.4c-.5.6-13.3 14.5-34.6 24.6-8.3 4.1-17.4 7.1-27.2 8.9-7.7 1.4-14.6 1.9-20.9 1.9z"/><path class="st7" d="M53.5 162.3c-2.1 0-4.3 0-6.4-.2-2.6-.2-4.5-2.5-4.3-5.1.2-2.6 2.5-4.6 5.1-4.3 1.7.1 3.6.1 5.6.1 14.1 0 27.8-3.6 39.8-10.4 21.3-12.1 36.2-33.8 40-57.9.6-4 .9-8.2.9-12.5 0-3.3-.2-6.8-.8-10.9-.7-5.9-2.3-12-4.6-18.1-4.3-11.5-11-21.5-20-29.8l-.3-.3c-1.9-1.8-1.9-4.8 0-6.7 1.8-1.9 4.8-1.9 6.7 0l.2.2c9.9 9.2 17.4 20.4 22.2 33.3 2.6 6.8 4.4 13.7 5.2 20.4.6 4.5.8 8.3.8 12.1 0 4.8-.3 9.5-1 14-4.2 26.9-20.9 51.1-44.6 64.7-13.4 7.4-28.8 11.4-44.5 11.4z"/><path class="st7" d="M199.2 160.1c-11.1 0-22-2.8-31.6-8-21.4-11.6-34.7-34-34.7-58.5 0-3.5.2-6.5.7-9.3 1.5-11 5.7-21.3 12.6-30.5 10.5-14 25.7-23.2 42.8-25.8 2.6-.4 5 1.4 5.4 4 .4 2.6-1.4 5-4 5.4-14.7 2.3-27.7 10.1-36.7 22.2-5.9 7.8-9.5 16.6-10.8 26.2-.4 2.4-.6 5-.6 7.9 0 21 11.4 40.2 29.7 50.1 8.2 4.5 17.6 6.8 27.1 6.8 2.3 0 4.3 0 6.3-.3 2.6-.3 5 1.5 5.3 4.1.3 2.6-1.5 5-4.1 5.3-2.5.4-4.9.4-7.4.4z"/><path class="st7" d="M59.3 222.1c-1.2-5.4-1.9-10.9-1.9-16.4 0-10.1 2.1-20 5.9-28.6 6.2-14.2 17-26.4 30.4-34 11.2-6.4 23.3-9.6 36-9.6 13.7 0 27.2 3.9 39 11.3 10.8 7 19.6 16.6 25.4 27.7 5.3 10.1 8.1 21.6 8.1 33.3 0 4.6-.2 9.7-1.7 15.5l-9.2-2.4c1.2-4.6 1.4-8.6 1.4-13.2 0-10.3-2.4-20-7-28.9-5.1-9.7-12.7-18-22.1-24.1-10.2-6.4-22-9.8-33.9-9.8-11 0-21.5 2.8-31.3 8.4-11.6 6.7-21 17.2-26.4 29.7-3.4 7.5-5.1 16-5.1 24.8 0 4.7.5 9.5 1.6 14.3l-9.2 2z"/><path class="st7" d="M224.8 185.6c-18.8 0-31.4-13.2-32-13.9l6.9-6.5c.6.6 14 14.5 32.5 10l.5-.1h.6c-.4 0-1.7.1-2.9 1.2l6.7 6.7c-.6.6-1.6 1.3-3.1 1.5-3.2.8-6.3 1.1-9.2 1.1zm-198 8.9c-1.9 0-3.9-.1-5.9-.4l1.1-9.4c23.9 2.8 31-15.4 31.3-16.2l8.9 3.3c-3 8.3-14.1 22.7-35.4 22.7zM177.9 65.6c-14.8 0-28.8-4-29.6-4.2l2.6-9.1c.2.1 22.1 6.3 38.1 2.8 5.9-1.4 9.9-3.6 12.3-6.8.1-.2.2-.3.3-.5l.1-.1s-.2.2-.3.6l9 3c-.3 1-.9 1.8-1.2 2.2l-.3.4c-3.8 5.2-9.6 8.6-17.9 10.5-4.2.9-8.7 1.2-13.1 1.2z"/><path class="st7" d="M178 108.7c-2.4 0-4.4-1.8-4.7-4.2-3.2-26.1 12.4-46.8 13.1-47.7 1.6-2.1 4.6-2.5 6.6-.9 2.1 1.6 2.5 4.6.9 6.6-.2.2-13.9 18.6-11.2 40.7.3 2.6-1.5 5-4.1 5.3-.2.1-.4.2-.6.2zm31.6-9.8h-.3c-2.6-.2-4.6-2.4-4.4-5.1 0-.5 0-3.5-3-4.8-2.7-1.1-4.8 1.8-4.9 1.9-1.5 2.1-4.5 2.6-6.6 1.1-2.1-1.5-2.6-4.5-1.1-6.6 2.2-3.1 8.5-8.2 16.2-5.1 7.5 3.2 9.1 10.4 8.8 14.2-.1 2.5-2.2 4.4-4.7 4.4zm-36.9-15.7l-9.2-2.2c0-.1.3-2.2-2.1-4.5-1.9-1.9-6.2-.8-7.2-.5-2.5.9-5.2-.4-6.1-2.8-.9-2.5.4-5.2 2.8-6.1 3.9-1.4 12-2.5 17.1 2.7 6.2 6.1 4.9 12.7 4.7 13.4z"/><path class="st7" d="M178.3 123.3c-.9 0-1.8-.1-2.7-.2-8-1.3-12.6-7.9-13.1-8.7-1.4-2.2-.8-5.1 1.3-6.6 2.2-1.4 5.1-.9 6.5 1.3.1.1 2.8 4 6.8 4.6 2.5.4 5.2-.6 8.1-2.8 2.1-1.6 5-1.3 6.6.8 1.6 2.1 1.3 5-.8 6.6-4.1 3.4-8.4 5-12.7 5zm-114.5-38c-.3 0-.5 0-.8-.1-2.6-.4-4.3-2.9-3.9-5.4.6-3.8 4-11.3 12.3-12.3 7.8-.9 12.9 3.6 14.8 6.4 1.4 2.2.8 5.1-1.4 6.6-2.2 1.4-5.1.8-6.6-1.4-.1-.2-2-2.6-5.8-2.2-3.4.4-4.1 4.4-4.1 4.4-.3 2.4-2.3 4-4.5 4zM125 73.6h-.4c-2.6-.2-4.6-2.5-4.4-5.1.1-.9.9-9.3 7-12.8 2.5-1.5 6.8-2.6 13 .4h.1c2 .6 3.4 2.4 3.4 4.5 0 2.6-2.1 4.7-4.7 4.7-1.5 0-2.5-.6-2.9-.8-1.8-.9-3.3-1.1-4.1-.7-1.3.8-2.2 3.8-2.3 5.3-.2 2.6-2.2 4.5-4.7 4.5zm14-17.7zm-31.7 53.3c-8.5 0-15.7-3.4-16.2-3.7-2.3-1.2-3.3-4-2.2-6.3 1.2-2.3 4-3.3 6.3-2.2.2.1 14.8 7 23.3-1.7 1.8-1.9 4.8-1.9 6.7-.1 1.9 1.8 1.9 4.8.1 6.7-5.4 5.6-12 7.3-18 7.3zm-14 61.8c-.9 0-1.8-.3-2.6-.8-2.2-1.5-2.8-4.4-1.3-6.6 2.5-3.7 9.8-9.7 19.9-6.1 2.5.9 3.8 3.6 2.9 6-.9 2.5-3.6 3.7-6 2.9-5.8-2-8.7 2.2-8.8 2.4-1.1 1.5-2.6 2.2-4.1 2.2zm34.1-2.5c-2.4 0-4.4-1.8-4.7-4.2-1.4-12-7.4-18.7-7.4-18.8-1.8-1.9-1.7-4.9.2-6.7 1.9-1.8 4.9-1.7 6.7.2.3.4 8.2 8.9 9.9 24.2.3 2.6-1.6 4.9-4.2 5.2-.2.1-.4.1-.5.1zm27.9-7.3c-1.1 0-2.3-.4-3.2-1.3-3-2.7-6.3-.5-7.2.2-2 1.6-5 1.3-6.6-.7s-1.3-5 .7-6.6c3.6-2.9 12.2-6.7 19.6.2 1.9 1.8 2 4.8.3 6.7-1.1 1-2.3 1.5-3.6 1.5zM128 185.6c-5.2 0-9.6-1.1-10.5-1.3-2.5-.7-4.1-3.2-3.4-5.8.7-2.5 3.2-4 5.8-3.4 3.8 1 12.7 2 16-1 1.9-1.7 4.9-1.6 6.7.4 1.7 1.9 1.6 4.9-.4 6.7-3.8 3.4-9.4 4.4-14.2 4.4zm-1.9 67.8c-2.6 0-4.7-2.1-4.7-4.7v-25.9c0-2.6 2.1-4.7 4.7-4.7s4.7 2.1 4.7 4.7v25.9c0 2.6-2.1 4.7-4.7 4.7z"/></g></g></svg>