<svg width="428" height="207" viewBox="0 0 428 207" xmlns="http://www.w3.org/2000/svg"><title>logo-top</title><g fill="none"><path d="M253 77c0 .9-.1 1.8-.2 2.7-9.6 2.3-16.6-5.1-16.6-5.1 1.7-1.8 3.2-3.8 4.6-5.9 1.7-2.6 3-5.4 4.1-8.3 5 3.9 8.1 9.9 8.1 16.6z" fill="#8D2AD4"/><path d="M236.3 74.6s6.9 7.4 16.6 5.1c-.6 4.8-2.8 9-6 12.3-2.9 2.9-6.6 4.9-10.7 5.8.5-2.2.7-4 .7-6.4 0-5-1.2-9.7-3.4-13.9.9-1 1.9-1.9 2.8-2.9z" fill="#5FED76"/><path d="M233.6 25.9c2.8-.6 5.2-1.8 6.8-3.9 4.5 6.8 7.2 14.9 7.2 23.7 0 5.2-.9 10.1-2.6 14.7-1.1 2.9-2.5 5.7-4.1 8.3l-.1-.1c-1 .1-2.1.2-3.1.2-4.8 0-9.2-1.2-13.2-3.3-8.6-4.7-14.4-13.8-14.4-24.3 0-1.3.1-2.6.3-3.8.6-4.7 2.5-9.1 5.2-12.7-.1 0 10.2 2.9 18 1.2z" fill="#5FE8B5"/><path d="M240.7 68.6c-1.3 2.2-2.8 4.1-4.5 6-.9 1-1.9 1.9-2.9 2.8-2.5-4.7-6.1-8.7-10.6-11.6l1.6-.4c3.9 2.1 8.4 3.3 13.2 3.3 1.2.1 2.2 0 3.2-.1z" fill="#13B6BE"/><path d="M236.8 91.3c0 2.4-.2 4.2-.7 6.4-1.4.3-2.8.4-4.3.4h-54.7c-.5-2.2-.8-4.5-.8-6.8 0-4.3.9-8.3 2.5-12 7.2 5.6 16.3 9 26.2 9 11 0 20.9-4.1 28.5-10.9 2.1 4.2 3.3 8.9 3.3 13.9z" fill="#25C8FE"/><path d="M233.3 13.9c2.7 2.4 5.1 5.1 7.1 8.1-1.6 2.1-4 3.3-6.8 3.9-7.8 1.7-18.1-1.2-18.1-1.2 4.2-5.7 10.5-9.6 17.8-10.8z" fill="#8D2AD4"/><path d="M222.8 65.8c4.4 2.9 8.1 6.8 10.6 11.6-7.5 6.8-17.5 10.9-28.5 10.9-9.9 0-18.9-3.3-26.2-9 2.6-6 7.1-11 12.7-14.3 4.4-2.5 9.6-4 15-4 6.1.1 11.7 1.8 16.4 4.8z" fill="#6AD968"/><path d="M224.5 65.4l-1.6.4c-4.7-3-10.3-4.8-16.3-4.8-5.5 0-10.6 1.5-15 4l-.2-.3c10-5.6 17.1-15.6 19-27.4-.2 1.2-.3 2.5-.3 3.8-.1 10.6 5.8 19.7 14.4 24.3z" fill="#13B6BE"/><path d="M210.4 26.3c-.4-3-1.2-5.9-2.2-8.6C217.4 13.3 223 7.1 223 7.1c3.8 1.8 7.3 4.1 10.4 6.8-7.3 1.1-13.6 5.1-17.8 10.8-2.7 3.6-4.6 8-5.2 12.7.3-1.9.5-3.9.5-5.9-.2-1.8-.3-3.5-.5-5.2z" fill="#13B6BE"/><path d="M222.9 7.1s-5.6 6.2-14.8 10.6c-2.1-5.4-5.3-10.2-9.5-14.1 2-.3 4.1-.5 6.3-.5 6.5 0 12.6 1.4 18 4z" fill="#6AD968"/><path d="M196.5 21.4c4.3-.7 8.2-2.1 11.7-3.8 1.1 2.7 1.8 5.6 2.2 8.6.2 1.7.3 3.4.3 5.2 0 2-.2 4-.5 5.9-1.8 11.7-9 21.7-19 27.4-5.6 3.2-12 5-18.9 5-.9 0-1.8 0-2.7-.1-2-2.9-3.6-6-4.8-9.3-1.7-4.6-2.6-9.5-2.6-14.7 0-10.2 3.6-19.5 9.5-26.8.1.1 8.8 5.4 24.8 2.6z" fill="#85F1B2"/><path d="M198.7 3.5c4.1 3.9 7.4 8.7 9.5 14.1-3.4 1.6-7.3 3-11.7 3.8-1.5-4.9-4-10.2-8.2-14.9 3.2-1.4 6.7-2.4 10.4-3z" fill="#6AD968"/><path d="M191.3 64.8l.2.3c-5.6 3.2-10.1 8.2-12.7 14.3-1.6-1.2-3.1-2.6-4.4-4-1.7-1.8-3.3-3.7-4.6-5.7.9.1 1.8.1 2.7.1 6.8-.1 13.2-1.9 18.8-5z" fill="#13B6BE"/><path d="M188.2 6.5c4.2 4.7 6.8 10 8.2 14.9-16 2.8-24.7-2.6-24.7-2.6 4.5-5.3 10.1-9.6 16.5-12.3z" fill="#6AD968"/><path d="M176.3 91.3c0 2.4.3 4.6.8 6.8-8.8-.4-16.2-6.2-19-14.1 12.6 1.4 16.3-8.7 16.3-8.7 1.4 1.4 2.9 2.8 4.4 4-1.6 3.7-2.5 7.8-2.5 12z" fill="#5FED76"/><path d="M169.7 69.7c1.4 2 2.9 3.9 4.6 5.7 0 0-3.7 10.1-16.3 8.7-.8-2.2-1.2-4.6-1.2-7 0-3.4.8-6.5 2.2-9.4 1.4-2.8 3.4-5.3 5.9-7.2 1.2 3.2 2.8 6.3 4.8 9.2z" fill="#8D2AD4"/><g fill="#122251"><path d="M204.9 90.4c-10.1 0-19.5-3.3-27.5-9.4-1.6-1.3-3.2-2.7-4.7-4.2-1.8-1.8-3.4-3.9-4.9-6-2.1-3-3.8-6.3-5-9.8-1.8-4.9-2.7-10.1-2.7-15.4 0-10.2 3.5-20.3 10-28.2 4.6-5.7 10.5-10.1 17.2-13 3.5-1.5 7.2-2.5 10.9-3.1 2.2-.3 4.4-.5 6.6-.5 6.6 0 13 1.4 18.9 4.2 4 1.9 7.6 4.3 10.9 7.2 2.8 2.5 5.3 5.4 7.4 8.5 4.9 7.4 7.5 16 7.5 24.8 0 5.3-.9 10.5-2.7 15.4-1.1 3-2.6 6-4.3 8.7-1.4 2.2-3 4.3-4.8 6.2-.9 1-1.9 2-3 3-8.1 7.6-18.7 11.6-29.8 11.6zm0-85.2c-2 0-4 .1-6 .4-3.4.5-6.7 1.4-9.9 2.8-6.1 2.6-11.4 6.6-15.6 11.8-5.8 7.2-9 16.2-9 25.5 0 4.8.8 9.5 2.5 13.9 1.1 3.1 2.7 6.1 4.5 8.8 1.3 1.9 2.8 3.7 4.4 5.4 1.3 1.4 2.7 2.6 4.2 3.8 7.2 5.6 15.8 8.5 24.9 8.5 10 0 19.6-3.7 27.1-10.4 1-.9 1.9-1.8 2.7-2.7 1.6-1.7 3.1-3.6 4.3-5.6 1.6-2.5 2.9-5.1 3.9-7.9 1.6-4.5 2.5-9.1 2.5-13.9 0-8-2.4-15.8-6.8-22.5-1.9-2.8-4.1-5.4-6.7-7.7-2.9-2.6-6.3-4.8-9.8-6.5-5.4-2.4-11.2-3.7-17.2-3.7z"/><path d="M156.1 84.7c-.9-2.5-1.3-5.1-1.3-7.8 0-3.6.8-7.1 2.4-10.3 1.5-3.1 3.8-5.8 6.4-8l2.6 3.3c-2.2 1.8-4 4-5.3 6.5-1.3 2.6-2 5.5-2 8.4 0 2.2.4 4.3 1.1 6.3l-3.9 1.6zm75.7 15.6H177c-9.4-.4-17.8-6.7-20.9-15.5l4-1.4c2.6 7.3 9.5 12.4 17.1 12.7h54.7c1.3 0 2.6-.1 3.8-.4 3.6-.7 7-2.5 9.6-5.2 3-3 4.9-6.9 5.4-11 .1-.8.2-1.6.2-2.4 0-5.8-2.6-11.3-7.3-14.9l2.6-3.3c5.6 4.5 8.9 11.1 8.9 18.3 0 1.1-.1 2-.2 3-.6 5-3 9.8-6.6 13.5-3.2 3.2-7.3 5.4-11.8 6.4-1.5 0-3.1.2-4.7.2zm-33.3-59.5h-.2c-1.2-.1-2-1.2-1.9-2.3 0-.1.8-7.6-1.9-16.4-1.7-5.4-4.3-10.2-7.8-14.1-.8-.9-.7-2.2.2-3 .9-.8 2.2-.7 3 .2 3.9 4.4 6.9 9.7 8.7 15.7 2.9 9.6 2.1 17.7 2 18.1-.2 1-1.1 1.8-2.1 1.8z"/><path d="M187.5 24.3c-10.7 0-16.5-3.5-16.8-3.7l2.2-3.6-1.1 1.8 1.1-1.8c.1 0 8.3 4.9 23.2 2.3 3.7-.6 7.5-1.9 11.1-3.6 8.7-4.2 14.1-10 14.1-10.1l3.1 2.8c-.2.3-6 6.5-15.4 11-4 1.9-8.1 3.2-12.2 4-3.4.7-6.5.9-9.3.9z"/><path d="M172.4 71.8c-1 0-1.9 0-2.8-.1-1.2-.1-2-1.1-2-2.3.1-1.2 1.1-2.1 2.3-2 .8.1 1.7.1 2.5.1 6.3 0 12.4-1.6 17.8-4.7 9.7-5.5 16.2-14.9 17.9-25.9.3-1.8.4-3.7.4-5.6 0-1.6-.1-3.3-.3-4.9-.4-2.8-1.1-5.5-2.1-8.2-1.9-5-5-9.5-8.9-13.2l-.1-.1c-.8-.7-.9-2-.3-2.9.7-.9 2-1.1 3-.4l.1.1.1.1c4.4 4.1 7.9 9.3 10 14.9 1.1 2.9 1.9 6 2.3 9.1.2 1.8.4 3.6.4 5.4 0 2.1-.2 4.2-.5 6.3-1.9 12.2-9.2 22.8-20 28.9-5.9 3.6-12.8 5.4-19.8 5.4z"/><path d="M237.6 70.9c-4.9 0-9.8-1.2-14.2-3.6-9.6-5.2-15.6-15.2-15.6-26.1 0-1.4.1-2.7.3-4.1.7-4.9 2.6-9.7 5.6-13.7 4.7-6.3 11.5-10.4 19.2-11.6 1.2-.2 2.2.6 2.4 1.8.2 1.2-.6 2.2-1.8 2.4-6.6 1-12.4 4.6-16.4 9.9-2.6 3.4-4.2 7.5-4.8 11.7-.2 1.2-.2 2.4-.2 3.5 0 9.3 5.1 17.9 13.3 22.4 3.7 2 7.9 3.1 12.1 3.1 1 0 1.9-.1 2.9-.2 1.2-.1 2.2.7 2.3 1.9.1 1.2-.7 2.2-1.9 2.3-.9.2-2.1.3-3.2.3z"/><path d="M175.6 99.7l-.5-.4-.1-.6c-.5-2.4-.8-4.8-.8-7.3 0-4.4.9-8.8 2.6-12.8 2.8-6.4 7.6-11.8 13.6-15.3 4.9-2.8 10.4-4.3 16.1-4.3 6.2 0 12.2 1.8 17.4 5.1 4.8 3.1 8.7 7.4 11.3 12.4 2.4 4.6 3.6 9.7 3.6 14.9 0 2.6-.2 4.6-.7 6.9l-4.1-1c.5-2 .6-3.6.6-5.9 0-4.6-1.1-8.9-3.1-12.9-2.3-4.4-5.7-8.1-9.8-10.8-4.5-2.9-9.8-4.4-15.2-4.4-4.9 0-9.8 1.3-14 3.7a28.288 28.288 0 0 0-14.1 24.4c0 1.9.2 3.9.6 5.7l.2.2v.9h-2.1l-1.5 1.5z"/><path d="M249 82.2c-8.4 0-14-5.9-14.3-6.2l3.1-2.9c.3.3 6.3 6.5 14.5 4.5l.2-.1.9 4.1h-.2c-1.4.5-2.8.6-4.2.6zm-88.6 4.1c-.8 0-1.7 0-2.6-.2l.2-2.1v-2.1h.2c10.7 1.2 13.9-6.9 14-7.3l4 1.5c-1.2 3.7-6.2 10.2-15.8 10.2zm67.7-57.7c-6.6 0-12.9-1.8-13.2-1.9l1.2-4.1c.1 0 9.9 2.8 17.1 1.2 2.6-.6 4.4-1.6 5.5-3.1.1-.1.2-.3.3-.4l3.6 2.2c-.2.3-.3.5-.5.7-1.7 2.4-4.4 3.9-8 4.7-2 .5-4 .7-6 .7z"/><path d="M228.1 47.8c-1.1 0-2-.8-2.1-1.9-1.4-11.7 5.6-20.9 5.9-21.3.7-.9 2-1.1 3-.4.9.7 1.1 2 .4 3-.1.1-6.2 8.3-5 18.2.1 1.2-.7 2.2-1.9 2.4h-.3zm14.1-4.3h-.2c-1.2-.1-2-1.1-2-2.3 0-.2 0-1.6-1.3-2.1-1.1-.5-2 .6-2.2.8-.7.9-2 1.2-2.9.5-.9-.7-1.2-2-.5-2.9 1-1.4 3.8-3.7 7.3-2.3 3.3 1.4 4 4.6 3.9 6.3 0 1.1-1 2-2.1 2zm-16.4-7.1l-4.1-1v.1c0-.1.1-1-.9-2.1-.8-.8-2.6-.4-3.2-.2-1.1.4-2.3-.2-2.7-1.3-.4-1.1.1-2.3 1.2-2.7 1.8-.7 5.3-1.1 7.7 1.2 2.7 2.8 2.1 5.7 2 6z"/><path d="M228.3 54.4c-.4 0-.8 0-1.2-.1-3.6-.6-5.6-3.6-5.9-3.9-.6-1-.4-2.3.6-2.9 1-.6 2.3-.4 2.9.6 0 .1 1.2 1.8 3.1 2.1 1.1.2 2.3-.2 3.6-1.3.9-.7 2.3-.6 3 .4.7.9.6 2.3-.4 3-1.9 1.3-3.8 2.1-5.7 2.1zM177 37.3h-.4c-1.1-.2-1.9-1.3-1.7-2.4.3-1.8 1.8-5.1 5.5-5.5 3.4-.4 5.8 1.6 6.6 2.8.7 1 .4 2.3-.6 2.9-1 .7-2.3.4-2.9-.6-.1-.1-.9-1.2-2.6-1-1.4.2-1.8 2-1.8 2.1-.2 1-1.1 1.7-2.1 1.7zm27.5-5.1h-.2c-1.2-.1-2-1.1-1.9-2.3 0-.4.4-4.2 3.2-5.7 1.1-.6 3-1.1 5.8.2.1.1.2.1.4.2h.1c1 .5 1.4 1.8.9 2.9-.5 1-1.8 1.4-2.9.9h-.1s-.1 0-.1-.1h-.1c-.8-.4-1.5-.5-1.8-.3-.6.3-1 1.6-1 2.4-.3.9-1.3 1.8-2.3 1.8zm-8 15.9c-3.8 0-7-1.5-7.2-1.7-1-.5-1.5-1.8-1-2.8.5-1 1.8-1.5 2.8-1 .1.1 6.6 3.1 10.4-.8.8-.8 2.2-.9 3 0 .8.8.9 2.2 0 3-2.4 2.5-5.3 3.3-8 3.3zm-6.3 27.6c-.4 0-.8-.1-1.2-.3-1-.6-1.3-2-.6-2.9 1.1-1.7 4.4-4.4 8.9-2.7 1.1.4 1.7 1.6 1.3 2.7-.4 1.1-1.6 1.7-2.7 1.3-2.6-.9-3.9 1-3.9 1.1-.4.5-1.1.8-1.8.8zm15.3-1.1c-1.1 0-2-.8-2.1-1.9-.6-5.4-3.3-8.3-3.3-8.4-.8-.9-.7-2.2.1-3 .9-.8 2.2-.8 3 .1.1.2 3.7 4 4.4 10.8.1 1.2-.7 2.2-1.9 2.3 0 .1-.1.1-.2.1zm6.5-3.2c-.6 0-1.2-.3-1.6-.8-.7-.9-.6-2.2.3-3 1.6-1.3 5.5-2.9 8.8.1.9.8.9 2.1.1 3-.8.9-2.1.9-3 .1-.2-.1-1.5-1.3-3.2.1-.5.3-.9.5-1.4.5zm-6.2 10.8c-2.3 0-4.3-.5-4.7-.6-1.1-.3-1.8-1.5-1.5-2.6.3-1.1 1.5-1.8 2.6-1.5 1.7.4 5.7.9 7.1-.4.9-.8 2.2-.7 3 .1.8.9.7 2.2-.1 3-1.8 1.6-4.2 2-6.4 2zm-.9 30.4c-1.2 0-2.1-.9-2.1-2.1V99c0-1.2.9-2.1 2.1-2.1 1.2 0 2.1.9 2.1 2.1v11.5c0 1.1-.9 2.1-2.1 2.1zM2.8 116.3l.6.1h4.9l.5-.1c1.7.4 2.6 1.2 2.6 2.6-.3 1.7-1.1 2.6-2.5 2.6h-.5v39.2h.8c1.1 0 1.9.8 2.2 2.5v.1c-.3 1.6-1.1 2.5-2.5 2.5H2.7c-1.6-.3-2.5-1.1-2.5-2.5v-.1c.3-1.7 1.1-2.5 2.2-2.5h.8v-39.2h-.5c-1.4 0-2.3-.9-2.5-2.7v-.1c.2-1.2 1-2 2.6-2.4zm17.7.5h.5c1.5.3 2.3 1 2.3 2.1v41.9h21.1c1.4 0 2.2.9 2.5 2.7-.5 1.5-1.3 2.3-2.5 2.3H20.8c-1.3 0-2.1-.9-2.5-2.6v-43.5c.2-2 .9-2.9 2.2-2.9zm34.1 0h.5c1.5.3 2.3 1 2.3 2.1v41.9h21.1c1.4 0 2.2.9 2.5 2.7-.5 1.5-1.3 2.3-2.5 2.3H54.9c-1.3 0-2.1-.9-2.5-2.6v-43.5c.2-2 .9-2.9 2.2-2.9zm34.8-.5l.6.1h4.9l.5-.1c1.7.4 2.6 1.2 2.6 2.6-.3 1.7-1.1 2.6-2.5 2.6H95v39.2h.8c1.1 0 1.9.8 2.2 2.5v.1c-.3 1.6-1.1 2.5-2.5 2.5h-6.2c-1.6-.3-2.5-1.1-2.5-2.5v-.1c.3-1.7 1.1-2.5 2.2-2.5h.8v-39.2h-.5c-1.4 0-2.3-.9-2.5-2.7v-.1c.1-1.2.9-2 2.6-2.4zm40.4.4c5.1 0 9.8 1.5 14.2 4.6.3.7.5 1.2.5 1.5v.3c0 1.5-.9 2.3-2.7 2.5h-.1l-4.5-2.3c-3-1-5.5-1.4-7.4-1.4-6.1 0-11.4 2.8-15.9 8.4-2.2 3.8-3.3 7.4-3.3 11 0 7.2 3.4 12.9 10.1 17.1 3 1.5 6 2.3 8.9 2.3h.4c3.8 0 7.6-1.2 11.5-3.6h.8c1.5.3 2.3 1.1 2.3 2.3v.4c0 1.8-2.9 3.6-8.6 5.3-1.8.5-3.7.8-5.7.8h-.6c-8.1 0-14.9-3.7-20.3-11.2-2.6-4.3-3.9-8.8-3.9-13.3 0-8.5 3.9-15.4 11.6-20.8 4.1-2.7 8.4-3.9 12.7-3.9zm40.9.1h.5c1.1 0 2 .9 2.8 2.6 1.3 1.4 10.6 13.4 28.1 35.9.2 0 .3.1.3.4l.1.1h.1v-36.7c.3-1.5 1.1-2.3 2.3-2.3h.4c1.3 0 2.1.8 2.3 2.4v43.9c0 1.4-.9 2.3-2.7 2.6-1 0-2.5-1.5-4.5-4.5l-26.9-34.3v36.4c0 1.3-.8 2-2.5 2.3-1.3 0-2.1-.9-2.5-2.6v-43.4c.2-1.8 1-2.8 2.2-2.8zm60.7.1c1.6 0 2.7 1.6 3.5 4.8 10.3 26.9 15.6 40.7 15.7 41.3v.4c0 1.3-.8 2-2.4 2.3h-.1c-1.5 0-2.6-1.5-3.2-4.4l-5.8-15h-15l-7 18.6c-.7.5-1.3.8-1.8.8h-.3c-1.6-.3-2.4-1.1-2.4-2.4v-.1l4.4-11.8c7.6-19.9 11.8-30.9 12.4-33.1.5-.9 1.3-1.4 2-1.4zm0 9.8l-5.4 14.6h11v-.1l-5.5-14.5h-.1zm25.3-10h10.8c4.6 0 8.3 2.4 11.2 7.2.9 1.9 1.4 3.8 1.4 5.8v.5c0 4.5-2.2 8.2-6.6 11.1l-1.3.6c7.8 13.5 11.8 20.4 11.8 20.7v.6c0 1.3-.8 2-2.5 2.3h-.1c-1.2 0-2.5-1.5-3.9-4.4L266.9 143h-7.3v20.2c0 1.3-.8 2-2.5 2.3h-.1c-1.3 0-2.1-.9-2.5-2.6v-43.6c.2-1.6.9-2.6 2.2-2.6zm2.9 4.9v16.6h7.3c4.1 0 6.8-2.2 8-6.6l.1-1.1v-1c0-3.2-1.8-5.7-5.4-7.4-1-.3-2.6-.5-4.8-.5h-5.2zm30.4-4.9h10.8c4.6 0 8.3 2.4 11.2 7.2.9 1.9 1.4 3.8 1.4 5.8v.5c0 4.5-2.2 8.2-6.6 11.1l-1.3.6c7.8 13.5 11.8 20.4 11.8 20.7v.6c0 1.3-.8 2-2.5 2.3h-.1c-1.2 0-2.5-1.5-3.9-4.4L300.2 143h-7.3v20.2c0 1.3-.8 2-2.5 2.3h-.1c-1.3 0-2.1-.9-2.5-2.6v-43.6c.3-1.6 1-2.6 2.2-2.6zm2.9 4.9v16.6h7.3c4.1 0 6.8-2.2 8-6.6l.1-1.1v-1c0-3.2-1.8-5.7-5.4-7.4-1-.3-2.6-.5-4.8-.5h-5.2zm45.9-4.7c1.6 0 2.7 1.6 3.5 4.8 10.3 26.9 15.6 40.7 15.7 41.3v.4c0 1.3-.8 2-2.4 2.3h-.1c-1.5 0-2.6-1.5-3.2-4.4l-5.8-15h-15l-7 18.6c-.7.5-1.3.8-1.8.8h-.3c-1.6-.3-2.4-1.1-2.4-2.4v-.1l4.4-11.8c7.6-19.9 11.8-30.9 12.4-33.1.5-.9 1.3-1.4 2-1.4zm0 9.8l-5.4 14.6h11v-.1l-5.5-14.5h-.1zm25.3-10h10.8c4.6 0 8.3 2.4 11.2 7.2.9 1.9 1.4 3.8 1.4 5.8v.5c0 4.5-2.2 8.2-6.6 11.1l-1.3.6c7.8 13.5 11.8 20.4 11.8 20.7v.6c0 1.3-.8 2-2.5 2.3h-.1c-1.2 0-2.5-1.5-3.9-4.4L374.3 143H367v20.2c0 1.3-.8 2-2.5 2.3h-.1c-1.3 0-2.1-.9-2.5-2.6v-43.6c.2-1.6.9-2.6 2.2-2.6zm2.9 4.9v16.6h7.3c4.1 0 6.8-2.2 8-6.6l.1-1.1v-1c0-3.2-1.8-5.7-5.4-7.4-1-.3-2.6-.5-4.8-.5H367zm31.4-5.1l.6.1h25.4l.5-.1c1.5 0 2.3.9 2.6 2.8-.3 1.6-1.3 2.4-2.8 2.4H401v17.5h15.5l1.8-.1c1.2 0 1.9.9 2.3 2.6 0 1.1-.7 2-2.1 2.6l-2.6-.1h-15v16.6h24.4c1.2 0 1.9.9 2.2 2.7-.5 1.5-1.2 2.3-2.3 2.3h-26.9c-1.6-.3-2.5-1.1-2.5-2.5v-44.2c.2-1.6 1.1-2.5 2.5-2.5v-.1h.1zm-263.6 63.8c-.8 0-1.4-.6-1.4-1.4 0-.8.6-1.4 1.4-1.4H153c.8 0 1.4.6 1.4 1.4 0 .8-.6 1.4-1.4 1.4h-7.6v25c0 .8-.6 1.5-1.5 1.5s-1.5-.6-1.5-1.5v-25h-7.6zm23.8 26.2c-.8 0-1.5-.6-1.5-1.5v-26c0-.8.6-1.5 1.5-1.5h13.8c.7 0 1.3.6 1.3 1.3 0 .7-.6 1.3-1.3 1.3h-12.3v10.3h9.4c.7 0 1.3.6 1.3 1.3 0 .7-.6 1.3-1.3 1.3h-9.4v10.6h12.8c.7 0 1.3.6 1.3 1.3 0 .7-.6 1.3-1.3 1.3h-14.3v.3zm24.6-1.2c0 .8-.6 1.5-1.5 1.5s-1.5-.6-1.5-1.5V179c0-.8.6-1.5 1.5-1.5h8.5c4.8 0 8.2 3.6 8.2 8.2 0 4.4-3 8-7.7 8.2l7.9 10.5c.2.3.3.6.3.9 0 .8-.6 1.5-1.5 1.5-.4 0-.9-.2-1.2-.7l-8.7-12.2h-4.3v11.4zm0-14h7.2c3 0 5.2-2.4 5.2-5.5 0-3.2-2.2-5.5-5.3-5.5h-7v11h-.1zm25.1 6.6l-3.1 7.9c-.2.6-.7 1-1.4 1-.8 0-1.5-.7-1.5-1.5 0-.2 0-.5.1-.6l10.5-26.5c.2-.5.6-1 1.4-1 .7 0 1.2.5 1.4 1l10.5 26.5c.1.2.1.5.1.6 0 .8-.6 1.5-1.5 1.5-.7 0-1.2-.4-1.4-1l-3.1-7.9h-12zm6-15.8l-5.1 13.1h10.2l-5.1-13.1zm20.4 23.2c0 .8-.6 1.5-1.5 1.5-.8 0-1.5-.6-1.5-1.5V179c0-.8.6-1.5 1.5-1.5h8.5c4.6 0 8.2 2.7 8.2 8.4 0 5.6-3.5 8.4-8.2 8.4h-7.1v11h.1zm0-13.6h6.7c3.5 0 5.7-2 5.7-5.8s-2.2-5.7-5.7-5.7h-6.7v11.5zm22.5 13.6c0 .8-.6 1.5-1.5 1.5-.8 0-1.5-.7-1.5-1.5v-26.7c0-.8.6-1.5 1.5-1.5.8 0 1.5.7 1.5 1.5v26.7zm10.6-7.4l-3.1 7.9c-.2.6-.7 1-1.4 1-.8 0-1.5-.7-1.5-1.5 0-.2 0-.5.1-.6l10.5-26.5c.2-.5.6-1 1.4-1 .7 0 1.2.5 1.4 1l10.5 26.5c.1.2.1.5.1.6 0 .8-.6 1.5-1.5 1.5-.7 0-1.2-.4-1.4-1l-3.1-7.9h-12zm6-15.8l-5.1 13.1h10.2l-5.1-13.1z"/></g></g></svg>