<svg width="531" height="93" viewBox="0 0 531 93" xmlns="http://www.w3.org/2000/svg"><title>logo</title><g fill="none"><path d="M82.2 63.2c0 .8 0 1.5-.2 2.2-8 1.9-13.7-4.2-13.7-4.2 1.4-1.5 2.7-3.2 3.8-4.9 1.4-2.1 2.5-4.4 3.4-6.9 4.1 3.3 6.7 8.3 6.7 13.8z" fill="#8D2AD4"/><path d="M68.3 61.2s5.8 6.1 13.7 4.2c-.5 3.9-2.3 7.5-5 10.2-2.4 2.4-5.4 4.1-8.9 4.8.4-1.8.6-3.4.6-5.3 0-4.2-1-8.1-2.8-11.5.9-.8 1.7-1.6 2.4-2.4z" fill="#5FED76"/><path d="M66.1 20.9c2.3-.5 4.3-1.5 5.6-3.2 3.8 5.6 5.9 12.4 5.9 19.6 0 4.3-.8 8.4-2.1 12.1-.9 2.4-2 4.7-3.4 6.9H72c-.8.1-1.7.1-2.6.1-3.9 0-7.7-1-10.9-2.8-7.1-3.9-12-11.4-12-20.1 0-1.1.1-2.1.2-3.2.5-3.9 2.1-7.5 4.3-10.5.1.1 8.7 2.5 15.1 1.1z" fill="#5FE8B5"/><path d="M72 56.3c-1 1.8-2.3 3.4-3.7 4.9-.7.8-1.5 1.6-2.4 2.3-2-3.9-5.1-7.2-8.7-9.6l1.3-.3c3.2 1.8 7 2.8 10.9 2.8.9 0 1.8 0 2.6-.1z" fill="#13B6BE"/><path d="M68.8 75.1c0 2-.1 3.5-.6 5.3-1.1.2-2.3.4-3.5.4H19.3c-.4-1.8-.6-3.7-.6-5.7 0-3.5.7-6.9 2-9.9 6 4.7 13.5 7.4 21.7 7.4 9.1 0 17.3-3.4 23.6-9 1.7 3.4 2.8 7.3 2.8 11.5z" fill="#25C8FE"/><path d="M65.9 11c2.2 2 4.2 4.2 5.8 6.7-1.3 1.7-3.3 2.7-5.6 3.2-6.4 1.4-15-1-15-1 3.5-4.7 8.7-8 14.8-8.9z" fill="#8D2AD4"/><path d="M57.2 54c3.7 2.4 6.7 5.7 8.7 9.6-6.3 5.6-14.5 9-23.6 9-8.2 0-15.7-2.8-21.7-7.4 2.2-5 5.9-9.1 10.5-11.8 3.7-2.1 7.9-3.3 12.5-3.3 5.1-.1 9.7 1.4 13.6 3.9z" fill="#6AD968"/><path d="M58.5 53.7l-1.3.3c-3.9-2.5-8.5-3.9-13.5-3.9-4.5 0-8.8 1.2-12.5 3.3l-.2-.3c8.2-4.7 14.2-13 15.7-22.7-.1 1-.2 2.1-.2 3.2.1 8.7 4.9 16.2 12 20.1zM46.9 21.2c-.3-2.5-1-4.9-1.8-7.2 7.6-3.7 12.3-8.7 12.3-8.7 3.1 1.5 6 3.4 8.6 5.7-6 .9-11.3 4.2-14.7 8.9-2.3 3-3.8 6.6-4.3 10.5.2-1.6.4-3.2.4-4.9-.2-1.4-.3-2.9-.5-4.3z" fill="#13B6BE"/><path d="M57.3 5.3S52.7 10.4 45 14c-1.7-4.5-4.4-8.4-7.9-11.7 1.7-.2 3.4-.4 5.2-.4 5.4.1 10.5 1.3 15 3.4z" fill="#6AD968"/><path d="M35.4 17.2c3.6-.6 6.8-1.8 9.7-3.1.9 2.3 1.5 4.7 1.8 7.2.2 1.4.3 2.8.3 4.3 0 1.7-.1 3.3-.4 4.9-1.5 9.7-7.5 18-15.7 22.7-4.6 2.6-9.9 4.1-15.6 4.1-.7 0-1.5 0-2.2-.1-1.6-2.4-3-5-4-7.7-1.4-3.8-2.1-7.9-2.1-12.1 0-8.4 3-16.2 7.9-22.2-.1-.1 7.1 4.3 20.3 2z" fill="#85F1B2"/><path d="M37.2 2.4c3.4 3.2 6.1 7.2 7.9 11.7-2.8 1.4-6.1 2.5-9.7 3.1-1.2-4.1-3.3-8.4-6.8-12.4 2.7-1.1 5.6-2 8.6-2.4z" fill="#6AD968"/><path d="M31.1 53.1l.2.3c-4.7 2.7-8.4 6.8-10.5 11.8-1.3-1-2.5-2.1-3.7-3.3-1.4-1.5-2.7-3-3.8-4.7.7.1 1.5.1 2.2.1 5.6-.1 11-1.6 15.6-4.2z" fill="#13B6BE"/><path d="M28.6 4.8c3.5 3.9 5.6 8.3 6.8 12.4C22.2 19.5 15 15.1 15 15.1c3.6-4.5 8.2-8 13.6-10.3z" fill="#6AD968"/><path d="M18.7 75.1c0 1.9.2 3.8.6 5.7-7.3-.3-13.4-5.1-15.8-11.7C13.9 70.3 17 61.9 17 61.9c1.1 1.2 2.4 2.3 3.7 3.3-1.3 3-2 6.4-2 9.9z" fill="#5FED76"/><path d="M13.2 57.2c1.1 1.7 2.4 3.3 3.8 4.7 0 0-3.1 8.4-13.5 7.2-.6-1.8-1-3.8-1-5.8 0-2.8.7-5.4 1.8-7.8 1.2-2.3 2.8-4.4 4.9-6 1 2.7 2.4 5.3 4 7.7z" fill="#8D2AD4"/><g fill="#122251"><path d="M42.4 74.4c-8.3 0-16.2-2.7-22.7-7.8-1.4-1.1-2.7-2.2-3.9-3.5-1.5-1.5-2.8-3.2-4-4.9-1.7-2.5-3.1-5.2-4.2-8.1-1.5-4.1-2.2-8.4-2.2-12.7 0-8.5 2.9-16.8 8.3-23.3C17.5 9.4 22.4 5.7 28 3.3c2.9-1.2 5.9-2.1 9.1-2.6 1.8-.3 3.6-.4 5.4-.4 5.5 0 10.8 1.2 15.7 3.5 3.3 1.5 6.3 3.5 9 5.9 2.3 2.1 4.4 4.5 6.1 7.1 4.1 6.1 6.2 13.2 6.2 20.6 0 4.4-.8 8.7-2.3 12.7-.9 2.5-2.1 5-3.6 7.2-1.2 1.8-2.5 3.6-4 5.1-.8.8-1.6 1.7-2.5 2.5-6.8 6.1-15.6 9.5-24.7 9.5zm0-70.6c-1.6 0-3.3.1-4.9.4-2.8.4-5.6 1.2-8.2 2.3-5 2.1-9.5 5.5-12.9 9.7-4.8 5.9-7.5 13.4-7.5 21.1 0 4 .7 7.8 2 11.5.9 2.6 2.2 5 3.8 7.3 1.1 1.6 2.3 3.1 3.7 4.5 1.1 1.1 2.3 2.2 3.5 3.1 5.9 4.6 13 7.1 20.6 7.1 8.3 0 16.3-3.1 22.4-8.6.8-.7 1.6-1.5 2.2-2.2 1.3-1.4 2.5-3 3.6-4.7 1.3-2 2.4-4.2 3.2-6.5 1.4-3.7 2-7.6 2-11.5 0-6.7-2-13.1-5.7-18.6-1.6-2.4-3.4-4.5-5.6-6.4-2.4-2.2-5.2-4-8.2-5.4-4.3-2.1-9.1-3.1-14-3.1z"/><path d="M1.9 69.6C1.2 67.5.8 65.4.8 63.2c0-3 .7-5.9 2-8.5 1.3-2.5 3.1-4.8 5.3-6.6l2.2 2.7c-1.8 1.5-3.3 3.3-4.4 5.4-1.1 2.2-1.6 4.5-1.6 7 0 1.8.3 3.6.9 5.3l-3.3 1.1z"/><path d="M64.6 82.5H19.2C11.4 82.2 4.5 77 1.9 69.6l3.3-1.2c2.1 6 7.8 10.2 14.2 10.5h45.3c1.1 0 2.2-.1 3.2-.3 3-.6 5.8-2.1 8-4.3 2.5-2.5 4.1-5.7 4.5-9.1.1-.7.1-1.3.1-2 0-4.8-2.2-9.3-6-12.4l2.2-2.8c4.7 3.7 7.3 9.2 7.3 15.1 0 .9-.1 1.7-.2 2.5-.5 4.2-2.5 8.1-5.5 11.2-2.7 2.7-6.1 4.5-9.7 5.3-1.3.3-2.6.4-4 .4zM37 33.2h-.2c-1-.1-1.7-1-1.5-1.9 0-.1.7-6.3-1.6-13.6-1.4-4.5-3.5-8.4-6.5-11.7-.6-.7-.6-1.8.1-2.5.7-.6 1.8-.6 2.5.1 3.3 3.7 5.7 8 7.2 13 2.4 8 1.7 14.7 1.7 15-.1 1-.8 1.6-1.7 1.6z"/><path d="M28 19.6c-8.8 0-13.7-2.9-13.9-3l1.8-3-.9 1.5.9-1.5c.1 0 6.9 4 19.2 1.9 3.1-.5 6.2-1.5 9.2-3C51.5 9 56 4.2 56 4.2l2.6 2.4c-.2.2-4.9 5.4-12.8 9.1-3.3 1.6-6.7 2.7-10.1 3.3-2.9.4-5.4.6-7.7.6z"/><path d="M15.5 59c-.8 0-1.6 0-2.4-.1-1-.1-1.7-.9-1.6-1.9.1-1 .9-1.7 1.9-1.6.7 0 1.4.1 2.1.1 5.2 0 10.3-1.3 14.8-3.9 8-4.6 13.4-12.4 14.8-21.4.2-1.5.4-3.1.4-4.6 0-1.3-.1-2.7-.3-4-.3-2.3-.9-4.6-1.7-6.8-1.6-4.1-4.1-7.9-7.4-11l-.1-.1c-.7-.6-.8-1.6-.2-2.4.6-.8 1.7-.9 2.5-.3l.1.1.1.1c3.6 3.4 6.5 7.7 8.3 12.3.9 2.4 1.6 5 1.9 7.6.2 1.5.3 3 .3 4.5 0 1.7-.1 3.5-.4 5.2C47 40.9 41 49.7 32 54.7 26.9 57.5 21.2 59 15.5 59z"/><path d="M69.4 58.2c-4.1 0-8.1-1-11.7-3-7.9-4.3-12.9-12.6-12.9-21.6 0-1.1.1-2.3.2-3.4.6-4.1 2.2-8 4.7-11.3 3.9-5.2 9.5-8.6 15.9-9.6 1-.1 1.9.5 2 1.5.1 1-.5 1.9-1.5 2-5.5.9-10.3 3.8-13.6 8.2-2.1 2.8-3.5 6.2-4 9.7-.1 1-.2 2-.2 2.9 0 7.7 4.2 14.9 11 18.6 3.1 1.7 6.5 2.5 10.1 2.5.8 0 1.6 0 2.4-.1 1-.1 1.8.6 1.9 1.6.1 1-.6 1.8-1.6 1.9-.8 0-1.7.1-2.7.1z"/><path d="M18.1 82l-.4-.4-.1-.5c-.5-2-.7-4-.7-6 0-3.7.7-7.3 2.2-10.6 2.3-5.3 6.3-9.8 11.3-12.6 4-2.3 8.7-3.6 13.3-3.6 5.1 0 10.1 1.5 14.4 4.2 4 2.5 7.2 6.1 9.4 10.2 2 3.8 3 8 3 12.3 0 2.2-.2 3.8-.6 5.7l-3.4-.8c.4-1.6.5-3 .5-4.9 0-3.8-.9-7.4-2.6-10.7-1.9-3.6-4.7-6.7-8.1-8.9-3.7-2.4-8.1-3.7-12.6-3.7-4.1 0-8.1 1.1-11.6 3.1-4.3 2.5-7.8 6.4-9.8 11-1.3 2.9-1.9 6-1.9 9.2 0 1.6.2 3.2.5 4.8l.2.1v.8h-1.8L18.1 82z"/><path d="M78.9 67.6c-6.9 0-11.6-4.9-11.8-5.2l2.6-2.4c.2.2 5.2 5.4 12 3.7h.2l.7 3.4h-.2c-1.2.4-2.4.5-3.5.5zM5.5 70.9c-.7 0-1.4 0-2.1-.1l.2-1.7v-1.8h.2c8.8 1 11.5-5.7 11.6-6l3.3 1.2c-1.2 3.1-5.3 8.4-13.2 8.4zm56.1-47.8c-5.5 0-10.7-1.5-10.9-1.5l1-3.4c.1 0 8.2 2.3 14.1 1 2.1-.5 3.7-1.3 4.6-2.6.1-.1.2-.2.2-.3l3 1.8c-.1.2-.3.4-.4.6-1.4 1.9-3.7 3.3-6.7 3.9-1.6.4-3.3.5-4.9.5z"/><path d="M61.6 39.1c-.9 0-1.6-.7-1.7-1.5-1.1-9.7 4.6-17.3 4.9-17.7.6-.8 1.7-.9 2.5-.3.8.6.9 1.7.3 2.5-.1.1-5.2 6.9-4.2 15.1.1 1-.6 1.8-1.5 1.9h-.3zm11.7-3.6h-.1c-1-.1-1.7-.9-1.6-1.9 0-.2 0-1.3-1.1-1.8-.9-.4-1.7.5-1.8.7-.6.8-1.7 1-2.4.4-.8-.6-1-1.6-.4-2.4.8-1.2 3.1-3.1 6-1.9 2.8 1.2 3.3 3.9 3.2 5.3-.2.9-.9 1.6-1.8 1.6zm-13.6-5.9l-3.4-.8v.1c0-.1.1-.9-.8-1.7-.7-.7-2.2-.3-2.6-.2-.9.3-1.9-.1-2.2-1-.3-.9.1-1.9 1-2.2 1.4-.5 4.4-1 6.4 1 2.1 2.2 1.6 4.6 1.6 4.8z"/><path d="M61.7 44.5c-.3 0-.7 0-1-.1-3-.5-4.7-3-4.9-3.2-.5-.8-.3-1.9.5-2.4s1.9-.3 2.4.5c0 0 1 1.5 2.5 1.7.9.1 1.9-.2 3-1 .8-.6 1.9-.5 2.5.3.6.8.5 1.9-.3 2.5-1.5 1.1-3.1 1.7-4.7 1.7zM19.3 30.4H19c-.9-.2-1.6-1.1-1.4-2 .3-1.5 1.5-4.2 4.6-4.6 2.8-.3 4.8 1.3 5.5 2.3.5.8.3 1.9-.5 2.4s-1.9.3-2.4-.5c-.1-.1-.8-1-2.1-.8-1.2.1-1.5 1.6-1.5 1.7-.4.9-1.1 1.5-1.9 1.5zM42 26.1h-.1c-1-.1-1.7-.9-1.6-1.9 0-.3.3-3.5 2.6-4.8.9-.5 2.5-.9 4.8.2.1 0 .2.1.3.2h.1c.9.5 1.2 1.5.7 2.4-.5.9-1.5 1.2-2.4.7h-.1s-.1 0-.1-.1h-.1c-.7-.3-1.2-.4-1.5-.3-.5.3-.8 1.3-.9 2-.1.9-.8 1.6-1.7 1.6zm-6.6 13.2c-3.2 0-5.8-1.3-6-1.4-.9-.4-1.2-1.5-.8-2.4.4-.9 1.5-1.2 2.3-.8.1 0 5.5 2.6 8.6-.6.7-.7 1.8-.7 2.5 0s.7 1.8 0 2.5c-2 2.1-4.4 2.7-6.6 2.7zm-5.2 22.9c-.3 0-.7-.1-1-.3-.8-.5-1-1.6-.5-2.4.9-1.4 3.6-3.6 7.4-2.2.9.3 1.4 1.3 1 2.3-.3.9-1.3 1.4-2.3 1-2.1-.8-3.2.8-3.2.9-.3.4-.8.7-1.4.7zm12.7-1c-.9 0-1.6-.7-1.7-1.6-.5-4.4-2.7-6.9-2.8-6.9-.7-.7-.6-1.8.1-2.5s1.8-.6 2.5.1c.1.1 3 3.3 3.7 8.9.1 1-.6 1.8-1.5 1.9-.2.1-.3.1-.3.1zm5.3-2.6c-.5 0-1-.2-1.4-.6-.6-.8-.5-1.9.3-2.5 1.3-1.1 4.5-2.4 7.3.1.7.7.8 1.8.1 2.5-.7.7-1.8.8-2.5.1-.1-.1-1.3-1.1-2.7.1-.3.1-.7.3-1.1.3zm-5.1 9c-1.9 0-3.6-.4-3.9-.5-.9-.2-1.5-1.2-1.3-2.1.2-.9 1.2-1.5 2.1-1.3 1.4.4 4.7.7 5.9-.4.7-.7 1.8-.6 2.5.1s.6 1.8-.1 2.5c-1.4 1.3-3.4 1.7-5.2 1.7zm-.7 25.1c-1 0-1.8-.8-1.8-1.8v-9.6c0-1 .8-1.8 1.8-1.8s1.8.8 1.8 1.8v9.6c-.1 1-.9 1.8-1.8 1.8z"/></g><path d="M105.8 26.4l.6.1h4.9l.5-.1c1.7.4 2.6 1.2 2.6 2.6-.3 1.7-1.1 2.6-2.5 2.6h-.5v39.2h.8c1.1 0 1.9.8 2.2 2.5v.1c-.3 1.6-1.1 2.5-2.5 2.5h-6.2c-1.6-.3-2.5-1.1-2.5-2.5v-.1c.3-1.7 1.1-2.5 2.2-2.5h.8V31.6h-.5c-1.4 0-2.3-.9-2.5-2.7v-.1c.2-1.2 1-1.9 2.6-2.4zm17.7.5h.5c1.5.3 2.3 1 2.3 2.1v41.9h21.1c1.4 0 2.2.9 2.5 2.7-.5 1.5-1.3 2.3-2.5 2.3h-23.6c-1.3 0-2.1-.9-2.5-2.6V29.8c.2-2 .9-2.9 2.2-2.9zm34.1 0h.5c1.5.3 2.3 1 2.3 2.1v41.9h21.1c1.4 0 2.2.9 2.5 2.7-.5 1.5-1.3 2.3-2.5 2.3h-23.6c-1.3 0-2.1-.9-2.5-2.6V29.8c.2-2 .9-2.9 2.2-2.9zm34.8-.5l.6.1h4.9l.5-.1c1.7.4 2.6 1.2 2.6 2.6-.3 1.7-1.1 2.6-2.5 2.6h-.5v39.2h.8c1.1 0 1.9.8 2.2 2.5v.1c-.3 1.6-1.1 2.5-2.5 2.5h-6.2c-1.6-.3-2.5-1.1-2.5-2.5v-.1c.3-1.7 1.1-2.5 2.2-2.5h.8V31.6h-.5c-1.4 0-2.3-.9-2.5-2.7v-.1c.1-1.2.9-1.9 2.6-2.4zm40.4.4c5.1 0 9.8 1.5 14.2 4.6.3.7.5 1.2.5 1.5v.3c0 1.5-.9 2.3-2.7 2.5h-.1l-4.5-2.3c-3-1-5.5-1.4-7.4-1.4-6.1 0-11.4 2.8-15.9 8.4-2.2 3.8-3.3 7.4-3.3 11 0 7.2 3.4 12.9 10.1 17.1 3 1.5 6 2.3 8.9 2.3h.4c3.8 0 7.6-1.2 11.5-3.6h.8c1.5.3 2.3 1.1 2.3 2.3v.4c0 1.8-2.9 3.6-8.6 5.3-1.8.5-3.7.8-5.7.8h-.6c-8.1 0-14.9-3.7-20.3-11.2-2.6-4.3-3.9-8.8-3.9-13.3 0-8.5 3.9-15.4 11.6-20.8 4.1-2.7 8.4-3.9 12.7-3.9zm40.9.2h.5c1.1 0 2 .9 2.8 2.6 1.3 1.4 10.6 13.4 28.1 35.9.2 0 .3.1.3.4l.1.1h.1V29.3c.3-1.5 1.1-2.3 2.3-2.3h.4c1.3 0 2.1.8 2.3 2.4v43.9c0 1.4-.9 2.3-2.7 2.6-1 0-2.5-1.5-4.5-4.5L276.5 37v36.4c0 1.3-.8 2-2.5 2.3-1.3 0-2.1-.9-2.5-2.6V29.7c.2-1.8 1-2.7 2.2-2.7zm60.7.1c1.6 0 2.7 1.6 3.5 4.8 10.3 26.9 15.6 40.7 15.7 41.3v.4c0 1.3-.8 2-2.4 2.3h-.1c-1.5 0-2.6-1.5-3.2-4.4l-5.8-15h-15l-7 18.6c-.7.5-1.3.8-1.8.8h-.3c-1.6-.3-2.4-1.1-2.4-2.4v-.1l4.4-11.8c7.6-19.9 11.8-30.9 12.4-33.1.5-1 1.3-1.4 2-1.4zm0 9.7L329 51.4h11v-.1l-5.5-14.5h-.1zm25.3-10h10.8c4.6 0 8.3 2.4 11.2 7.2.9 1.9 1.4 3.8 1.4 5.8v.5c0 4.5-2.2 8.2-6.6 11.1l-1.3.6C383 65.5 387 72.4 387 72.7v.6c0 1.3-.8 2-2.5 2.3h-.1c-1.2 0-2.5-1.5-3.9-4.4l-10.6-18.1h-7.3v20.2c0 1.3-.8 2-2.5 2.3h-.1c-1.3 0-2.1-.9-2.5-2.6V29.4c.2-1.6.9-2.6 2.2-2.6zm2.9 4.9v16.6h7.3c4.1 0 6.8-2.2 8-6.6l.1-1.1v-1c0-3.2-1.8-5.7-5.4-7.4-1-.3-2.6-.5-4.8-.5h-5.2zm30.4-4.9h10.8c4.6 0 8.3 2.4 11.2 7.2.9 1.9 1.4 3.8 1.4 5.8v.5c0 4.5-2.2 8.2-6.6 11.1l-1.3.6c7.8 13.5 11.8 20.4 11.8 20.7v.6c0 1.3-.8 2-2.5 2.3h-.1c-1.2 0-2.5-1.5-3.9-4.4l-10.6-18.1h-7.3v20.2c0 1.3-.8 2-2.5 2.3h-.1c-1.3 0-2.1-.9-2.5-2.6V29.4c.3-1.6 1-2.6 2.2-2.6zm2.9 4.9v16.6h7.3c4.1 0 6.8-2.2 8-6.6l.1-1.1v-1c0-3.2-1.8-5.7-5.4-7.4-1-.3-2.6-.5-4.8-.5h-5.2zm45.9-4.6c1.6 0 2.7 1.6 3.5 4.8 10.3 26.9 15.6 40.7 15.7 41.3v.4c0 1.3-.8 2-2.4 2.3h-.1c-1.5 0-2.6-1.5-3.2-4.4l-5.8-15h-15l-7 18.6c-.7.5-1.3.8-1.8.8h-.3c-1.6-.3-2.4-1.1-2.4-2.4v-.1l4.4-11.8c7.6-19.9 11.8-30.9 12.4-33.1.5-1 1.3-1.4 2-1.4zm0 9.7l-5.4 14.6h11v-.1l-5.5-14.5h-.1zm25.3-10h10.8c4.6 0 8.3 2.4 11.2 7.2.9 1.9 1.4 3.8 1.4 5.8v.5c0 4.5-2.2 8.2-6.6 11.1l-1.3.6c7.8 13.5 11.8 20.4 11.8 20.7v.6c0 1.3-.8 2-2.5 2.3h-.1c-1.2 0-2.5-1.5-3.9-4.4l-10.6-18.1H470v20.2c0 1.3-.8 2-2.5 2.3h-.1c-1.3 0-2.1-.9-2.5-2.6V29.4c.2-1.6.9-2.6 2.2-2.6zm2.9 4.9v16.6h7.3c4.1 0 6.8-2.2 8-6.6l.1-1.1v-1c0-3.2-1.8-5.7-5.4-7.4-1-.3-2.6-.5-4.8-.5H470zm31.4-5.1l.6.1h25.4l.5-.1c1.5 0 2.3.9 2.6 2.8-.3 1.6-1.3 2.4-2.8 2.4H504v17.5h15.5l1.8-.1c1.2 0 1.9.9 2.3 2.6 0 1.1-.7 2-2.1 2.6l-2.6-.1h-15v16.6h24.4c1.2 0 1.9.9 2.2 2.7-.5 1.5-1.2 2.3-2.3 2.3h-26.9c-1.6-.3-2.5-1.1-2.5-2.5V29.2c.2-1.6 1.1-2.5 2.5-2.5v-.1h.1z" fill="#122251"/></g></svg>