<svg xmlns="http://www.w3.org/2000/svg" viewBox="0 0 792 612"><style>.st0{fill:#fff}.st1{fill:none;stroke:#fff;stroke-miterlimit:10}.st2{fill:#8d2ad4}.st3{fill:#5fed76}.st4{fill:#5fe8b5}.st5{fill:#13b6be}.st6{fill:#25c8fe}.st7{fill:#6ad968}.st8{fill:#85f1b2}.st10,.st9{fill:none;stroke:#122251;stroke-width:6;stroke-miterlimit:10}.st10{stroke-linecap:round}</style><g id="Layer_4"><path class="st0" d="M451.7 262.3c-.2-4.5-7.2-4.5-7 0 1.1 25.6 1.7 51.3 1.7 76.9-9.2-24.7-17.8-49.5-25.8-74.6-.6-2-2.4-2.6-4-2.4-1.8 0-3.6 1.1-3.6 3.4-.1 30.6 1.4 61.2 4.4 91.6.4 4.4 7.4 4.5 7 0-2.3-23.7-3.7-47.5-4.2-71.3 7.9 23.8 16.4 47.4 25.4 70.9.4 1 1.1 1.7 1.9 2 2 1.6 5.8.8 5.9-2.6.2-31.2-.3-62.5-1.7-93.9zm45.3 90.4l-5.1-23.4c.3 0 .5-.1.8-.1 4.4-.5 4.5-7.5 0-7-.7.1-1.5.2-2.2.3-4.3-19.8-8.7-39.6-13-59.4-.5-2.3-2.5-2.9-4.2-2.3-1.5.2-3 1.3-3.3 3.3l-8.1 61.2h-.5c-4.3.3-4.5 6.9-.4 7l-3 22.8c-.6 4.5 6.4 4.4 7 0 1-7.8 2-15.5 3.1-23.3 5.7-.5 11.3-1 16.9-1.6 1.8 8.2 3.6 16.3 5.4 24.5.8 4.3 7.6 2.4 6.6-2zm-28.1-28.1c1.9-14.1 3.7-28.2 5.6-42.3 3 13.6 6 27.3 8.9 40.9-4.8.6-9.6 1-14.5 1.4zM616 352.7l-5.1-23.4c.3 0 .5-.1.8-.1 4.4-.5 4.5-7.5 0-7-.7.1-1.5.2-2.2.3-4.3-19.8-8.7-39.6-13-59.4-.5-2.3-2.5-2.9-4.2-2.3-1.5.2-3 1.3-3.3 3.3l-8.1 61.2h-.5c-4.3.3-4.5 6.9-.4 7l-3 22.8c-.6 4.5 6.4 4.4 7 0 1-7.8 2-15.5 3.1-23.3 5.7-.5 11.3-1 16.9-1.6 1.8 8.2 3.6 16.3 5.4 24.5.9 4.3 7.6 2.4 6.6-2zm-28.1-28.1c1.9-14.1 3.7-28.2 5.6-42.3 3 13.6 6 27.3 8.9 40.9-4.8.6-9.6 1-14.5 1.4zm-51.4 33.7c-6-12.6-11.7-25.3-16.9-38.3 8.2-12.6 16.4-26.7 13-42.3-2.8-12.5-14.6-21.9-27.6-19.2-.3.1-.6.2-.8.3-1.3.4-2.3 1.5-2.3 3.2-.5 31.9-.3 63.8.7 95.7.1 4.5 7.1 4.5 7 0-.9-30.9-1.1-61.8-.7-92.6 10.8-.9 17.6 10.4 17.6 20.3-.1 12-7.1 22.5-13.5 32.1-.6.8-.7 1.7-.5 2.4-.1.5 0 1 .2 1.6 5.5 13.6 11.5 27.1 17.8 40.4 1.9 4 7.9.5 6-3.6zm37.7 0c-6-12.6-11.7-25.3-16.9-38.3 8.2-12.6 16.4-26.7 13-42.3-2.8-12.5-14.6-21.9-27.6-19.2-.3.1-.6.2-.8.3-1.3.4-2.3 1.5-2.3 3.2-.5 31.9-.3 63.8.7 95.7.1 4.5 7.1 4.5 7 0-.9-30.9-1.1-61.8-.7-92.6 10.8-.9 17.6 10.4 17.6 20.3-.1 12-7.1 22.5-13.5 32.1-.6.8-.7 1.7-.5 2.4-.1.5 0 1 .2 1.6 5.5 13.6 11.5 27.1 17.8 40.4 1.9 4 7.9.5 6-3.6zm79.2 0c-6-12.6-11.7-25.3-16.9-38.3 8.2-12.6 16.4-26.7 13-42.3-2.8-12.5-14.6-21.9-27.6-19.2-.3.1-.6.2-.8.3-1.3.4-2.3 1.5-2.3 3.2-.5 31.9-.3 63.8.7 95.7.1 4.5 7.1 4.5 7 0-.9-30.9-1.1-61.8-.7-92.6 10.8-.9 17.6 10.4 17.6 20.3-.1 12-7.1 22.5-13.5 32.1-.6.8-.7 1.7-.5 2.4-.1.5 0 1 .2 1.6 5.5 13.6 11.5 27.1 17.8 40.4 1.9 4 8 .5 6-3.6zm29.3-4.4c-5.8.7-11.7.9-17.5.6-.4-8.5-.7-17.1-.9-25.6 3.9-.1 7.8-.4 11.7-1 1.9-.3 2.9-2.6 2.4-4.3-.5-2-2.4-2.7-4.3-2.4-3.3.5-6.7.7-10.1.8-.5-17.8-.8-35.6-.9-53.4 6.5-.5 13-.7 19.6-.4 4.5.2 4.5-6.8 0-7-7.4-.3-14.7-.1-22 .6-.2 0-.5.1-.7.1-1.9-.2-3.9.9-3.9 3.3.1 30.8.8 61.6 2.2 92.3.1 1.5.9 2.5 2 3 .5.5 1.2.8 2.1.8 6.8.5 13.6.4 20.3-.4 4.4-.5 4.4-7.5 0-7zm-564.5 3.4c-1.8-30.6-2.5-61.2-2.3-91.8.1 0 .3 0 .4-.1 2.1-.4 3.3-3 2.8-4.9-.6-2.2-2.8-3.2-4.9-2.8-1.9.4-3.5.6-5.5.7-2.1.2-4.1 1.7-4 4 .1 1.8 1.4 3.7 3.2 4-.2 30.3.5 60.7 2.3 90.9-1.9.4-3.5 1.8-3.5 3.9 0 2 1.8 4.2 4 4 2.2-.2 4.5-.2 6.7-.1s4-1.9 4-4c.1-1.9-1.3-3.4-3.2-3.8zm88.8 0c-1.8-30.6-2.5-61.2-2.3-91.8.1 0 .3 0 .4-.1 2.1-.4 3.3-3 2.8-4.9-.6-2.2-2.8-3.2-4.9-2.8-1.9.4-3.5.6-5.5.7-2.1.2-4.1 1.7-4 4 .1 1.8 1.4 3.7 3.2 4-.2 30.3.5 60.7 2.3 90.9-1.9.4-3.5 1.8-3.5 3.9 0 2 1.8 4.2 4 4 2.2-.2 4.5-.2 6.7-.1s4-1.9 4-4c.1-1.9-1.4-3.4-3.2-3.8zm-53.7-2.5c-4.4.5-8.8.9-13.2 1.1-2.5-31.4-3.6-62.9-3.5-94.4 0-5.1-8-5.2-8 0-.2 32.6 1.1 65.2 3.7 97.8 0 .5.2.9.3 1.3.1 1.9 1.4 3.6 3.8 3.5 5.6-.2 11.2-.6 16.8-1.2 5.1-.7 5.2-8.7.1-8.1zm33.5 0c-4.4.5-8.8.9-13.2 1.1-2.5-31.4-3.6-62.9-3.5-94.4 0-5.1-8-5.2-8 0-.2 32.6 1.1 65.2 3.7 97.8 0 .5.2.9.3 1.3.1 1.9 1.4 3.6 3.8 3.5 5.6-.2 11.2-.6 16.8-1.2 5.1-.7 5.2-8.7.1-8.1zm68.1 1.7c-8.1 1.2-17.4-.6-22.7-7.3-6.1-7.7-6.4-19.8-6.4-29.2 0-10.1 1.5-20.2 4.5-29.8 2.4-7.5 8-24.6 18.2-23.8 5.1.4 5.1-7.6 0-8-12.3-1-19.7 13.3-23.6 22.9-5.1 12.8-7.4 26.8-7.2 40.5.2 11.7 1.4 26.2 10.4 34.8 7.7 7.4 18.7 9.1 28.9 7.6 5.1-.8 3-8.5-2.1-7.7z"/><g id="XMLID_1_"><path class="st2" d="M400.2 316.2c0 1.3-.1 2.6-.3 3.8-13.6 3.3-23.5-7.2-23.5-7.2 2.4-2.6 4.6-5.4 6.5-8.4 2.3-3.7 4.3-7.6 5.8-11.7 7 5.5 11.5 14.1 11.5 23.5z"/><path class="st3" d="M376.5 312.9s9.8 10.5 23.5 7.2c-.9 6.7-4 12.8-8.6 17.4-4.1 4.1-9.3 7-15.1 8.2.7-3.1 1-5.7 1-9.1 0-7.1-1.7-13.8-4.8-19.7 1.3-1.3 2.7-2.6 4-4z"/><path class="st4" d="M372.7 244c3.9-.9 7.4-2.5 9.6-5.5 6.4 9.6 10.2 21.1 10.2 33.5 0 7.3-1.3 14.3-3.7 20.8-1.5 4.1-3.5 8.1-5.8 11.7l-.1-.1c-1.5.2-2.9.2-4.4.2-6.7 0-13.1-1.7-18.6-4.7-12.2-6.6-20.4-19.5-20.4-34.4 0-1.8.1-3.6.4-5.4.9-6.7 3.5-12.8 7.4-18-.3.1 14.3 4.3 25.4 1.9z"/><path class="st5" d="M382.8 304.4l.1.1c-1.9 3-4.1 5.8-6.5 8.4-1.3 1.4-2.6 2.7-4 4-3.5-6.7-8.6-12.3-15-16.4l2.3-.5c5.5 3 11.9 4.7 18.6 4.7 1.6-.1 3-.1 4.5-.3z"/><path class="st6" d="M377.2 336.6c0 3.3-.2 6-1 9.1-2 .4-4 .6-6.1.6h-77.4c-.7-3.1-1.1-6.3-1.1-9.7 0-6 1.2-11.8 3.5-16.9 10.2 8 23.1 12.7 37 12.7 15.5 0 29.6-5.9 40.3-15.5 3.1 5.9 4.8 12.6 4.8 19.7z"/><path class="st2" d="M372.3 227c3.8 3.4 7.2 7.2 10 11.5-2.2 3-5.7 4.7-9.6 5.5-11 2.4-25.6-1.8-25.6-1.8 5.9-8 14.9-13.6 25.2-15.2z"/><path class="st7" d="M357.5 300.5c6.3 4.1 11.5 9.7 15 16.4-10.7 9.6-24.8 15.5-40.3 15.5-14 0-26.8-4.7-37-12.7 3.7-8.5 10-15.6 18-20.2 6.3-3.6 13.5-5.7 21.3-5.7 8.4 0 16.3 2.4 23 6.7z"/><path class="st5" d="M359.7 299.9l-2.3.5c-6.7-4.3-14.6-6.7-23.1-6.7-7.8 0-15 2.1-21.3 5.7l-.3-.5c14.1-8 24.2-22.1 26.8-38.8-.2 1.8-.4 3.6-.4 5.4.2 14.9 8.5 27.8 20.6 34.4zm-19.9-55.4c-.6-4.2-1.6-8.3-3.1-12.2 13.1-6.2 21-14.9 21-14.9 5.4 2.5 10.3 5.8 14.7 9.7-10.3 1.6-19.2 7.2-25.2 15.2-3.9 5.1-6.5 11.3-7.4 18 .4-2.7.6-5.5.6-8.4-.1-2.6-.3-5-.6-7.4z"/><path class="st7" d="M357.6 217.3s-7.9 8.7-21 14.9c-2.9-7.6-7.6-14.4-13.4-20 2.9-.4 5.9-.6 8.9-.6 9.1 0 17.8 2.1 25.5 5.7z"/><path class="st8" d="M320.1 237.6c6.1-1.1 11.7-3 16.5-5.4 1.5 3.9 2.6 8 3.1 12.2.3 2.4.5 4.8.5 7.3 0 2.9-.2 5.7-.6 8.4-2.6 16.6-12.8 30.8-26.8 38.8-7.9 4.5-17 7-26.7 7-1.3 0-2.6 0-3.8-.1l-.1.1c-2.8-4.1-5.1-8.5-6.8-13.2-2.4-6.5-3.7-13.5-3.7-20.8 0-14.4 5-27.6 13.5-38 0 .1 12.4 7.6 34.9 3.7z"/><path class="st7" d="M323.2 212.3c5.9 5.5 10.5 12.3 13.4 20-4.8 2.3-10.4 4.3-16.5 5.4-2.1-6.9-5.7-14.4-11.7-21.2 4.7-2 9.7-3.4 14.8-4.2z"/><path class="st5" d="M312.8 299l.3.5c-8 4.6-14.3 11.7-18 20.2-2.2-1.7-4.3-3.6-6.3-5.6-2.4-2.5-4.6-5.2-6.6-8.1l.1-.1c1.3.1 2.5.1 3.8.1 9.7 0 18.8-2.6 26.7-7z"/><path class="st7" d="M308.5 216.4c6 6.7 9.6 14.2 11.7 21.2-22.6 3.9-34.9-3.6-34.9-3.6 6.1-7.6 14.1-13.7 23.2-17.6z"/><path class="st3" d="M291.6 336.6c0 3.3.4 6.6 1.1 9.7-12.4-.5-23-8.8-26.9-20 17.8 2 23-12.2 23-12.2 2 2 4.1 3.9 6.3 5.6-2.3 5.1-3.5 10.8-3.5 16.9z"/><path class="st2" d="M282.2 305.9c2 2.9 4.2 5.6 6.6 8.1 0 0-5.2 14.3-23 12.2-1.1-3.1-1.7-6.5-1.7-10 0-4.8 1.1-9.2 3.1-13.2s4.8-7.5 8.3-10.3c1.6 4.7 3.9 9.2 6.7 13.2z"/><path class="st9" d="M382.2 238.5c6.4 9.6 10.2 21.1 10.2 33.5 0 7.3-1.3 14.3-3.7 20.8-1.5 4.1-3.5 8.1-5.8 11.7-1.9 3-4.1 5.8-6.5 8.4-1.3 1.4-2.6 2.7-4 4-10.7 9.6-24.8 15.5-40.3 15.5-14 0-26.8-4.7-37-12.7-2.2-1.7-4.3-3.6-6.3-5.6-2.4-2.5-4.6-5.2-6.6-8.1-2.8-4.1-5.1-8.5-6.8-13.2-2.4-6.5-3.7-13.5-3.7-20.8 0-14.4 5-27.6 13.5-38 6.1-7.6 14.1-13.6 23.2-17.5 4.6-2 9.6-3.4 14.8-4.2 2.9-.4 5.9-.6 8.9-.6 9.1 0 17.8 2 25.5 5.7 5.4 2.5 10.3 5.8 14.7 9.7 3.8 3.3 7.1 7.1 9.9 11.4z"/><path class="st9" d="M265.7 326.2c-1.1-3.1-1.7-6.5-1.7-10 0-4.8 1.1-9.2 3.1-13.2s4.8-7.5 8.3-10.3m113.4.1c6.9 5.5 11.4 14 11.4 23.5 0 1.3-.1 2.6-.3 3.8-.9 6.7-4 12.8-8.6 17.4-4.1 4.1-9.3 7-15.1 8.2-2 .4-4 .6-6.1.6h-77.4c-12.4-.5-23-8.8-26.9-20"/><path class="st10" d="M322.9 262s1.3-11.2-2.8-24.4c-2.1-6.9-5.7-14.4-11.7-21.2"/><path class="st9" d="M285.2 234s12.3 7.5 34.9 3.6c6.1-1.1 11.7-3 16.5-5.4 13.1-6.2 21-14.9 21-14.9"/><path class="st10" d="M323.1 212.2l.1.1c5.9 5.5 10.5 12.3 13.4 20 1.5 3.9 2.6 8 3.1 12.2.3 2.4.5 4.8.5 7.3 0 2.9-.2 5.7-.6 8.4-2.6 16.6-12.8 30.8-26.8 38.8-7.9 4.5-17 7-26.7 7-1.3 0-2.6 0-3.8-.1m100.5-1.5c-1.5.2-2.9.2-4.4.2-6.7 0-13.1-1.7-18.6-4.7-12.2-6.6-20.4-19.5-20.4-34.4 0-1.8.1-3.6.4-5.4.9-6.7 3.5-12.8 7.4-18 6-8 14.9-13.6 25.2-15.2"/><path class="st9" d="M292.7 346.2c-.7-3.1-1.1-6.4-1.1-9.7 0-6 1.2-11.8 3.5-16.9 3.7-8.5 10-15.6 18-20.2 6.3-3.6 13.5-5.7 21.3-5.7 8.5 0 16.4 2.5 23.1 6.7 6.3 4.1 11.5 9.7 15 16.4 3.1 5.9 4.8 12.6 4.8 19.7 0 3.3-.2 6-1 9.1m.2-32.7s9.8 10.5 23.5 7.2c.1 0 .2 0 .3-.1m-111.5-6s-5.2 14.3-23 12.2m81.2-84s14.6 4.2 25.6 1.8c3.9-.9 7.4-2.5 9.6-5.5.2-.3.4-.5.5-.8"/><path class="st10" d="M372.7 244s-9.6 12.5-7.7 28m9.6-10s2.7-3.8 6.7-2.2c4 1.7 3.7 6 3.7 6m-36.1-14.3s4.9-1.8 7.7 1 2.1 5.7 2.1 5.7m-1.1 18.8s5.5 8.3 13.8 1.8m-78.8-21.6s.8-4.8 5.2-5.3 6.5 2.7 6.5 2.7m27.1-4.8s.7-9.1 8.4-5.4c.2.1.3.2.5.2m-29 25.7s11.2 5.5 18.2-1.7m-18.2 42.9s3.2-4.8 9.1-2.7m7-12.5s4.5 4.8 5.5 13.6m9.2-4.6s4.5-3.7 8.5 0M327.4 320s8.9 2.3 12.9-1.3m-8.2 45v-16.4"/></g></g><path class="st0" d="M177.3 375.5c-5.6-.1-11.1.1-16.7.6-3.8.4-3.8 6.4 0 6 1.8-.2 3.5-.3 5.3-.4-.3 6.8-.3 13.5.2 20.3.3 3.8 6.3 3.9 6 0-.5-6.8-.5-13.7-.2-20.5h5.4c3.9.1 3.9-5.9 0-6zm22.4 23.5c-1.7 0-3.8.3-5.6.2-.2-1.7-.2-3.5-.1-5.3 2 0 3.9-.3 5.8-.8 3.7-1 2.2-6.8-1.6-5.8-1.3.3-2.7.5-4 .6 0-2.6.1-5.3.1-7.9l4.3.5c1.6.2 3-1.5 3-3 0-1.8-1.4-2.8-3-3-2.2-.3-4.4-.5-6.7-.8-1.1-.1-2.1.6-2.6 1.6-.6.5-1 1.2-1 2.2-.2 7.5-.8 15.3-.2 22.8.5 6.4 6.3 4.9 11.4 4.9 4-.2 4-6.2.2-6.2zm36.5 1.2c-2.2-3.1-4.3-6.2-6.5-9.3 3.5-2.3 5.7-5.7 4-10.2-2.6-7.2-11.4-10.3-17.2-4.8l-.3.3a81083793595747900 81083793595747900 0 0 1 5.4 26.2c0-2.7-.1-5.5-.1-8.2.9-.2 1.8-.4 2.7-.7 2.3 3.3 4.6 6.5 6.8 9.8 2.2 3 7.5 0 5.2-3.1zm-14.8-12.1c0-2.8-.1-5.7-.1-8.5 2.6-1.7 6.6.3 6.9 3.5.3 2.6-3.9 4.3-6.8 5zm387.5 12.1c-2.2-3.1-4.3-6.2-6.5-9.3 3.5-2.3 5.7-5.7 4-10.2-2.6-7.2-11.4-10.3-17.2-4.8l-.3.3a81083793595747900 81083793595747900 0 0 1 5.4 26.2c0-2.7-.1-5.5-.1-8.2.9-.2 1.8-.4 2.7-.7 2.3 3.3 4.6 6.5 6.8 9.8 2.2 3 7.4 0 5.2-3.1zm-14.8-12.1c0-2.8-.1-5.7-.1-8.5 2.6-1.7 6.6.3 6.9 3.5.3 2.6-3.9 4.3-6.8 5zm-323.3 12.3c-3.2-7.6-5.8-16.3-10.3-23.3-1.1-1.7-4.2-2.2-5.2 0-3.5 8-7 16-10.5 23.9-1.5 3.5 3.6 6.6 5.2 3l2.7-6.1c3.2-.5 6.4-.7 9.6-.6.3 0 .6 0 .8-.1.6 1.6 1.2 3.2 1.9 4.7 1.5 3.6 7.3 2.1 5.8-1.5zm-15.3-8.8c.9-2.1 1.8-4.1 2.7-6.2.9 1.9 1.8 3.9 2.6 6-1.7-.1-3.5 0-5.3.2zm189 8.5c-3.2-7.6-5.8-16.3-10.3-23.3-1.1-1.7-4.2-2.2-5.2 0-3.5 8-7 16-10.5 23.9-1.5 3.5 3.6 6.6 5.2 3l2.7-6.1c3.2-.5 6.4-.7 9.6-.6.3 0 .6 0 .8-.1.6 1.6 1.2 3.2 1.9 4.7 1.5 3.6 7.3 2 5.8-1.5zm-15.3-8.9c.9-2.1 1.8-4.1 2.7-6.2.9 1.9 1.8 3.9 2.6 6-1.8 0-3.5.1-5.3.2zm149.6 8.9c-3.2-7.6-5.8-16.3-10.3-23.3-1.1-1.7-4.2-2.2-5.2 0-3.5 8-7 16-10.5 23.9-1.5 3.5 3.6 6.6 5.2 3l2.7-6.1c3.2-.5 6.4-.7 9.6-.6.3 0 .6 0 .8-.1.6 1.6 1.2 3.2 1.9 4.7 1.5 3.6 7.3 2 5.8-1.5zm-15.3-8.9c.9-2.1 1.8-4.1 2.7-6.2.9 1.9 1.8 3.9 2.6 6-1.7 0-3.5.1-5.3.2zm-265.4-8.8c-.4-3.3-3.4-5.7-6.3-6.9-3-1.3-6.1-1.1-8.7.6-1.3.2-2.5 1.1-2.5 2.9.1 7.3 0 14.7-.3 22-.2 3.9 5.8 3.9 6 0 .1-2.3.2-4.5.2-6.8 5.7-.7 12.3-5.4 11.6-11.8zm-6.7 2.5c-1.1 1.8-2.9 2.9-4.9 3.3V381c1.2-.7 2.6-.2 3.7.5 1.6.9 2.2 1.8 1.2 3.4zm24-6.9c.1-3.9-5.9-3.9-6 0-.2 7.3-.1 14.7.3 22 .2 3.8 6.2 3.9 6 0-.4-7.3-.5-14.7-.3-22zm38.5 22c-3.4-8-7.4-15.7-11.8-23.2-1.2-1.9-4-1.9-5.2 0-4.7 7.8-8.3 16.1-10.9 24.8-1.1 3.7 4.7 5.3 5.8 1.6.7-2.3 1.5-4.6 2.3-6.8 3.8-.2 7.6-.4 11.3-.6 1.1 2.4 2.3 4.8 3.3 7.3 1.6 3.4 6.7.4 5.2-3.1zm-17.2-9.8c.9-2 1.9-3.9 2.9-5.9 1 1.8 2 3.7 3 5.6-2 .1-4 .2-5.9.3zm63.9-8.9h6.7c3.9 0 3.9-6 0-6H398c-1.1 0-1.8.5-2.3 1.1-.6.5-1 1.2-1 2.2-.3 7.7 0 15.3.7 23 .4 3.8 6.4 3.8 6 0-.3-2.9-.5-5.8-.6-8.7 1.9-.1 3.7-.2 5.6-.3 3.8-.2 3.9-6.2 0-6-1.9.1-3.8.2-5.8.3-.1-1.8 0-3.7 0-5.6zm79.7-1.8c-.4-1.7-1.7-2.3-3-2.1-1-.2-2.1.2-2.8 1.5-2.4 4.5-4.8 8.9-7.2 13.4-2-4.5-3.8-9.1-5.5-13.7-.3-.8-.8-1.3-1.3-1.6-1.5-1.4-4.4-1.4-4.9 1.2-1.7 8.2-3 16.5-3.8 24.8-.4 3.8 5.6 3.8 6 0 .5-4.6 1.1-9.2 1.9-13.8 1.5 3.7 3.1 7.4 4.8 11 .8 1.8 2.5 1.9 3.8 1.1.7-.1 1.4-.6 1.9-1.4 2-3.7 4-7.5 6-11.2.8 4.9 1.3 9.9 1.4 15 .1 3.9 6.1 3.9 6 0-.4-8.2-1.4-16.2-3.3-24.2zm19.3-1.5c-.3-3.8-6.3-3.9-6 0 .5 7.6.7 15.1.4 22.7-.2 3.9 5.8 3.9 6 0 .2-7.6.1-15.2-.4-22.7zm25.8 19.5l-8.1.6c-.3-6.5-.3-13-.1-19.5.1-3.9-5.9-3.9-6 0-.2 7.6-.1 15.2.3 22.7.1 1.5 1.3 3.1 3 3l11-.9c3.7-.2 3.7-6.2-.1-5.9zm16.9-18.5c-.2-3.8-6.2-3.9-6 0 .4 7.2.5 14.4.3 21.7-.1 3.9 5.9 3.9 6 0 .2-7.3.1-14.5-.3-21.7z" id="Layer_5"/></svg>