<svg id="Layer_1" xmlns="http://www.w3.org/2000/svg" viewBox="0 0 256 256"><style>.st0{fill:#f44545}.st1{fill:#a82727}</style><path class="st0" d="M216.3 96.7c0-50.3-40.7-91-91-91s-91 40.7-91 91c0 21.5 7.5 41.3 20 56.9h-.1l71.1 99.1 71.1-99.1h-.1c12.5-15.6 20-35.4 20-56.9zm-91 26c-14.4 0-26-11.6-26-26s11.6-26 26-26 26 11.6 26 26c0 14.3-11.6 26-26 26z"/><path class="st1" d="M125.3 44.7c-28.7 0-52 23.3-52 52s23.3 52 52 52 52-23.3 52-52-23.2-52-52-52zm0 78c-14.4 0-26-11.6-26-26s11.6-26 26-26 26 11.6 26 26c0 14.3-11.6 26-26 26z"/></svg>