<svg id="Layer_1" xmlns="http://www.w3.org/2000/svg" viewBox="0 0 256 256"><style>.st0{fill:#6ccba8}</style><g id="Layer_4"><path class="st0" d="M69 105.3c-1.9.1-3.6 1.6-3.6 3.6v4.4c0 1.9 1.6 3.7 3.6 3.6 1.9-.1 3.6-1.6 3.6-3.6v-4.4c0-1.9-1.7-3.7-3.6-3.6zm33.5-.4c-2 .1-3.5 1.6-3.6 3.6-.1 1.9-.2 3.7-.3 5.6-.1 1.9 1.7 3.7 3.6 3.6 2-.1 3.5-1.6 3.6-3.6.1-1.9.2-3.7.3-5.6.1-1.9-1.7-3.7-3.6-3.6zm18.2 5.5c-.4-4.5-7.5-4.6-7.1 0 .5 6.3.4 12.6-.3 18.9-.6 4.6 6.6 4.5 7.1 0 .7-6.3.8-12.6.3-18.9zm-3.3-22.8H113c-1.9 0-3.7 1.6-3.6 3.6.1 1.9 1.6 3.6 3.6 3.6h4.4c1.9 0 3.7-1.6 3.6-3.6s-1.6-3.6-3.6-3.6zm.9-8.7c-2.1-6.9-7.4-12.3-14.3-14.4-4.4-1.4-6.3 5.5-1.9 6.9 4.5 1.4 7.9 4.9 9.3 9.4 1.4 4.4 8.3 2.5 6.9-1.9zm-29.1.2c-5.2 11.1-19 15.7-30.5 15.1-4.6-.2-4.6 6.9 0 7.1 13.8.6 30.5-5.4 36.7-18.7 1.9-4-4.2-7.7-6.2-3.5zM92 55.8C80.3 49.4 61.5 51 50.4 58c-13.2 8.4-17.2 24.2-15.7 38.9.4 4.5 7.6 4.6 7.1 0-1.2-12.1 1.1-25.8 12.2-32.7 8.9-5.6 25-7.4 34.4-2.2 4 2.2 7.6-4 3.6-6.2zm-28.9 88.1c-5.8-2.7-7-9.3-8.6-14.9-.1-2-1.8-4.2-4.5-3.8-9 1.3-7.8-13.5-2.2-12.8 4.5.6 4.5-6.6 0-7.1-7.7-1-12.2 9.2-11.5 15.6.7 6.6 5.8 10.7 11.7 11.3 2.1 7.1 4.3 14.6 11.5 18 4.1 1.7 7.7-4.4 3.6-6.3zm-36.8-39.5c-3.9 5.9-5.2 14.3-.1 19.9 3.1 3.4 8.1-1.7 5.1-5.1-2.8-3.1-.6-8.3 1.3-11.2 2.4-3.9-3.7-7.4-6.3-3.6zM48 170.5c-10.1 4.2-20.9-1.3-25.4-10.9-4.4-9.4-.9-19.8 6.9-26.2 3.5-2.9-1.5-8-5.1-5.1-10.3 8.5-13.9 23.1-7.8 35.2 6 11.9 20.5 19.2 33.3 13.9 4.2-1.8 2.4-8.7-1.9-6.9zm19.1-12c-1.4-1.3-3.7-1.4-5.1 0-.7.8-1.5 1.5-2.3 2.2-.2.2-.4.3-.6.5 0 0-.3.2-.4.3-.1.1-.3.3-.4.3-.3.2-.5.4-.8.5-1.5 1.1-2.4 3.2-1.3 4.9 1 1.5 3.2 2.4 4.9 1.3 2.1-1.5 4.1-3.1 5.9-4.9 1.5-1.4 1.6-3.8.1-5.1zm37.2-17.8c-2.2 5.2-9.7 7.3-14.8 8.2-6 1.1-11.9.4-17.7-1.5-4.4-1.4-6.3 5.5-1.9 6.9 7.6 2.5 15.5 2.9 23.3 1.1 6.4-1.5 14.5-4.6 17.3-11.1 1.8-4.1-4.4-7.8-6.2-3.6zm-10.7-14.8c-3.6 2-9.8 3.3-13-.1-3.1-3.4-8.1 1.7-5.1 5.1 5.4 5.9 15.2 4.8 21.6 1.3 4.2-2.4.6-8.5-3.5-6.3zm35.9 45.8c-5.3-6.5-11.6-12-18.7-16.5-3.9-2.4-7.5 3.7-3.6 6.2 6.6 4.1 12.3 9.3 17.2 15.4 3 3.5 8-1.6 5.1-5.1zm-13.9 4.8c-3.4-3.1-8.5 1.9-5.1 5.1 2 1.8 4 3.8 5.2 6.3 2 4.2-.2 5.8-2.1 9.1-2.1 3.7-1 8.5-.9 12.7.1 4.6 7.3 4.6 7.1 0-.1-2.3-.1-4.6-.2-6.9-.2-3.3-.9-1 .9-2.9s3-4.6 3.2-7.1c.7-6.5-3.7-12.2-8.1-16.3zm-42.5 34.8c-1.9-5.9-3.7-11.8-5.4-17.7-1.3-4.4-8.2-2.5-6.9 1.9 1.7 5.9 3.5 11.8 5.4 17.7 1.4 4.3 8.3 2.5 6.9-1.9zm-18.4 6.9c-5.7-7.5-3.7-22.2-2.5-31 .6-4.5-6.6-4.5-7.1 0-1.3 10.2-3.1 25.9 3.5 34.6 2.7 3.6 8.9.1 6.1-3.6zm59.2 2.8c-12.6 3.9-25.5 4.6-38.4 1.8-4.5-1-6.4 5.9-1.9 6.9 14.1 3 28.4 2.5 42.2-1.8 4.4-1.4 2.5-8.3-1.9-6.9zm46.3-52.6c-.2-1.1-.3-2.9-.1-3.9.3-1.8-.5-3.9-2.5-4.4-1.7-.4-4.1.5-4.4 2.5-.4 2.6-.4 5.1.1 7.7.4 1.8 2.6 3.1 4.4 2.5 1.9-.6 3-2.4 2.5-4.4zm26.9-5.2c0-1.9-1.6-3.7-3.6-3.6-1.9.1-3.6 1.6-3.6 3.6s.1 4 .1 5.9 1.6 3.7 3.6 3.6c1.9-.1 3.6-1.6 3.6-3.6s-.1-3.9-.1-5.9zM174.4 176c-2.9.9-5.7 1-8.6.1-4.4-1.2-6.3 5.7-1.9 6.9 4.1 1.1 8.3 1.1 12.4-.1 4.4-1.3 2.5-8.2-1.9-6.9zm22.7-28.8c-12.5-14.7-33.5-15.9-48.2-3.7-3.5 2.9 1.5 8 5.1 5.1 11.8-9.8 28.3-7.8 38.1 3.7 2.9 3.4 8-1.6 5-5.1zm-44 47.8c-13.2-8.5-12-25.5-5.9-38.1 2-4.1-4.1-7.7-6.2-3.6-7.9 16.2-8.3 37.1 8.4 47.8 4 2.5 7.6-3.6 3.7-6.1zm50.5-35.3c-1.7-4.2-8.6-2.4-6.9 1.9 5 12.6 2.4 25.9-7.4 35.4-3.3 3.2 1.7 8.2 5.1 5.1 11.4-11.2 15.1-27.5 9.2-42.4zm-23.9 49.8c-6.4 2.7-13.4 2.1-18.9-2.3-3.5-2.9-8.6 2.1-5.1 5.1 7.3 6 17 7.9 25.8 4.2 4.3-1.8 2.5-8.7-1.8-7zm-37.4-7.4c-6.7 3.5-12.1 9.1-15.3 15.9-2 4.1 4.2 7.8 6.2 3.6 2.8-5.8 7-10.3 12.7-13.3 4.1-2.2.5-8.4-3.6-6.2zm-13 22.5c-1.7-.5-4.1.6-4.4 2.5-.4 2.4-.7 4.8-.7 7.3-.1 1.9 1.7 3.6 3.6 3.6 2 0 3.5-1.6 3.6-3.6 0-1.8.2-3.6.5-5.4.2-1.9-.6-3.8-2.6-4.4zm78.6-5.5c-.3 5.4-7.6 5.5-10.8 2.8-3.7-3.1-2.5-8.8 1.9-10.4 4.3-1.5 2.5-8.4-1.9-6.9-9.8 3.5-12.9 16.1-4.4 22.9 8.1 6.5 21.7 2.8 22.3-8.4.4-4.6-6.8-4.5-7.1 0z"/><path class="st0" d="M218.6 210.1c-2.4-4.6-6.2-8.4-10.7-10.9-4-2.2-7.7 4-3.6 6.2 3.6 1.9 6.3 4.7 8.2 8.3 2 4.1 8.2.5 6.1-3.6zm15.6-42.3c-2 11.5-6.4 22-13.2 31.5-2.7 3.8 3.5 7.3 6.2 3.6 7.1-10 11.8-21.2 13.9-33.2.8-4.5-6.1-6.5-6.9-1.9zm4.8-13.3c-3.8-18.1-12.2-34.7-24.2-48.8-3-3.5-8 1.6-5.1 5.1 11.3 13.1 18.8 28.7 22.4 45.6.9 4.5 7.8 2.6 6.9-1.9zm-117.2-22.2c-4.5.6-4.5 7.8 0 7.1 6.2-.8 9.7 7 8.3 12.1-1.2 4.4 5.7 6.3 6.9 1.9 2.5-9.1-4.4-22.6-15.2-21.1zm14.4-23.3c-4.3 4.9-7.6 10.3-10.1 16.3-.7 1.8.8 3.9 2.5 4.4 2 .6 3.7-.7 4.4-2.5 2-4.8 4.9-9.3 8.3-13.2 3-3.4-2-8.4-5.1-5zm16.6-39c-.4-2.2-.3-4.4-.1-6.6.2-1.9-1.8-3.6-3.6-3.6-2.1 0-3.4 1.6-3.6 3.6-.3 2.9-.1 5.7.3 8.5.3 1.9 2.7 3 4.4 2.5 2.1-.6 2.9-2.5 2.6-4.4zm33.3-6c-.4-1.9-2.6-3-4.4-2.5-1.9.5-2.9 2.5-2.5 4.4.3 1.4.4 2.9.1 4.3-.4 1.9.6 3.9 2.5 4.4 1.8.5 4-.6 4.4-2.5.5-2.7.5-5.4-.1-8.1zm-14.7 15.9c-3.1 1.2-9.1 2.7-11.6-.4-2.9-3.6-7.9 1.5-5.1 5.1 4.1 5.2 13.1 4.4 18.6 2.2 4.2-1.6 2.4-8.5-1.9-6.9zm50.1-16c-3-9.3-15.1-11.6-20.5-3.3-2.5 3.9 3.7 7.4 6.2 3.6 2.1-3.2 6.2-1.6 7.4 1.5 1 2.4-1 10.8-5.1 8.9s-7.8 4.2-3.6 6.2c9.9 4.7 18.5-7.7 15.6-16.9zm-7.8-22.1c-1-1.7-3.2-2.2-4.9-1.3-2.5 1.4-4.8 3.1-6.9 5.1-1.4 1.3-1.3 3.7 0 5.1 1.4 1.4 3.7 1.3 5.1 0 1.7-1.6 3.3-2.8 5.4-4 1.7-1 2.3-3.3 1.3-4.9zm-15-.1c-5.8-7.8-17.4-9.7-26.6-10.8-11.1-1.3-22.4.8-31.7 7.1-3.8 2.6-.2 8.8 3.6 6.2 7.2-4.9 15.3-6.8 23.9-6.5 6.7.3 20.1 1.6 24.6 7.6 2.7 3.7 8.9.1 6.2-3.6z"/><path class="st0" d="M204.4 31.8c-12.6-16.9-39.2-18.2-57.6-11.8-4.3 1.5-2.5 8.4 1.9 6.9 14.9-5.2 38.9-5.7 49.5 8.5 2.8 3.7 9 .1 6.2-3.6zm-71.7 20.6c-3.3 11.8-3.7 23.8-1.2 35.8.9 4.5 7.8 2.6 6.9-1.9-2.2-10.8-1.7-21.4 1.2-32 1.2-4.5-5.7-6.4-6.9-1.9zm51.4 49.2c-13.3 9-29.9 6.8-40.4-5.4-3-3.5-8 1.6-5.1 5.1 12.4 14.5 33.3 17.2 49 6.6 3.9-2.7.3-8.9-3.5-6.3zM202 84.3c-2-.6-3.7.7-4.4 2.5-1.1 2.9-2.8 5.4-5 7.6-3.3 3.2 1.8 8.3 5.1 5.1 3.1-3.1 5.3-6.7 6.9-10.7.6-1.9-.8-4-2.6-4.5z"/></g></svg>