<svg id="Layer_1" xmlns="http://www.w3.org/2000/svg" viewBox="0 0 256 256"><style>.st0{fill:#ebbe78}</style><g id="Layer_3_1_"><path class="st0" d="M101.7 80.5c-4.1-.7-8.1 1.7-8.8 5.9-.7 3.8 1 8.2 4.7 9.8.9.4 1.9.6 2.8.6.7.1 1.3 0 2-.1 3.9-.7 6.7-4.2 6.6-8.2-.2-4-3.3-7.3-7.3-8zm53.8 0c-4.1-.7-8.1 1.7-8.8 5.9-.7 3.8 1 8.2 4.7 9.8.9.4 1.9.6 2.8.6.7.1 1.3 0 2-.1 3.9-.7 6.7-4.2 6.6-8.2-.2-4-3.3-7.3-7.3-8zM135 99.9c-3.6 3.9-11.2 1.3-14.9-1-3.9-2.5-7.5 3.7-3.6 6.2 6.5 4.1 17.7 6.2 23.6-.1 3.1-3.4-1.9-8.5-5.1-5.1zm-30.7-55.1c-1.7 7.3-5.5 13.4-11.2 18.2-3.5 2.9 1.5 8 5.1 5.1 6.6-5.5 11.2-12.9 13.1-21.3.9-4.6-6-6.5-7-2zm16.8 0c-1.7 7.3-5.5 13.4-11.2 18.2-3.5 2.9 1.5 8 5.1 5.1 6.6-5.5 11.2-12.9 13.1-21.3.9-4.6-6-6.5-7-2zm18.3 1.4c-1.7 7.3-5.5 13.4-11.2 18.2-3.5 2.9 1.5 8 5.1 5.1 6.6-5.5 11.2-12.9 13.1-21.3.9-4.6-6-6.5-7-2zm17.6 0c-1.7 7.3-5.5 13.4-11.2 18.2-3.5 2.9 1.5 8 5.1 5.1 6.6-5.5 11.2-12.9 13.1-21.3.9-4.6-6-6.5-7-2zm24.9 6.8c-2.1-4.1-8.3-.5-6.2 3.6 1.4 2.7 1.8 5.6 1.2 8.6-.9 4.5 5.9 6.4 6.9 1.9 1.1-4.9.5-9.7-1.9-14.1zM72.6 54.5c-.8 4.1-.8 8.1-.2 12.2.3 1.9 2.7 3 4.4 2.5 2-.6 2.8-2.5 2.5-4.4-.4-2.8-.3-5.7.2-8.4.9-4.5-6-6.4-6.9-1.9zM174 33.7c-8.5-16.9-27-25.2-45.3-25.1-18.2.1-40.6 6.3-49.3 23.8-2 4.1 4.1 7.7 6.2 3.6 7.6-15.3 27.4-20.2 43.2-20.3 16-.1 31.7 6.8 39.1 21.5 2 4.2 8.1.6 6.1-3.5zm38-2.6c-7-12.3-23.2-21.5-37.2-16.1-4.2 1.6-2.4 8.6 1.9 6.9 11.1-4.3 23.6 3.1 29.1 12.8 5.9 10.4 3.5 23.3-5.2 31.2-3.4 3.1 1.7 8.2 5.1 5.1 11-10.2 13.7-26.9 6.3-39.9zm-9.8 47.1c-4.6 2.8-11.9 3.9-14.8-1.8-2.1-4.1-8.3-.5-6.2 3.6 4.7 9.1 16.7 9.2 24.5 4.3 4.1-2.3.5-8.5-3.5-6.1zM79.8 15.4c-14.3-3.2-32.3 5.9-38.1 19.3-5.5 12.6-4.2 30.1 7.1 39.1 3.6 2.8 8.6-2.2 5.1-5.1-8.7-7-9.9-20-6.1-29.9 4.1-10.7 18.8-19 30.2-16.5 4.3 1 6.3-5.8 1.8-6.9zM68.6 77.2C64.4 83.8 56.4 84 50 80.7c-4.1-2.1-7.7 4.1-3.6 6.2 10 5.1 22.1 3.9 28.4-6.1 2.5-3.9-3.7-7.4-6.2-3.6z"/><path class="st0" d="M176.8 76.8c-.2-4.6-7.3-4.6-7.1 0 .5 12.1 2.3 28.9-7.1 38.2-9 9-24.2 11.3-36.5 11.4-12.1.1-24.4-3.1-32.9-12-10.5-10.8-7.6-24.7-8.1-38.4-.2-4.6-7.3-4.6-7.1 0 .6 15.7-1.9 30.3 9.6 42.9 9.8 10.7 24.4 14.9 38.6 14.8s31.1-3.1 41.5-13.5c10.9-11.1 9.7-29 9.1-43.4zm-30.9 60.3c-1-4.5-7.9-2.6-6.9 1.9 1.8 7.5-6.7 11.8-13 11.2-7.2-.7-10.1-6.3-11.4-12.7-.9-4.5-7.8-2.6-6.9 1.9 2.2 11 9.9 19.1 21.7 18 10.3-1.1 19-9.6 16.5-20.3z"/><path class="st0" d="M169.2 166.5c-2.4-10.6-6.3-20.8-7.5-31.7-.5-4.5-7.7-4.6-7.1 0 1.1 10.1 4.2 19.6 6.8 29.4 2.8 10.8 3.1 21.2 2.8 32.2-9.2 7.4-20.7 11.2-32.5 11.9-11.3.7-25.2-.2-35-6.7-10.4-6.9-7-24.5-4.3-34.8 2.7-10.6 6.7-20.7 7.2-31.8.2-4.6-6.9-4.6-7.1 0-.7 14.6-7.7 27.9-9.2 42.4-1.3 12.5-.2 24.8 11.6 31.5 11.2 6.3 26.3 7.5 38.9 6.4 13.3-1.2 25.6-5.7 35.9-14.2.5-.4.8-.8 1-1.3.3-.5.5-1.1.5-1.8.3-10.7.3-21.1-2-31.5z"/><path class="st0" d="M88.2 133.5c3.2-3.3-1.8-8.3-5.1-5.1-11.6 11.8-16.8 27.8-14.9 44.1-3.1 3.9-4.7 9-2.4 13.8 2.3 4.8 7.7 7 12.7 5.4 4.4-1.4 2.5-8.3-1.9-6.9-4.7 1.5-5.4-3.8-3.7-6.9 1-1.9 2.2-2.2 2.6-4.3.3-2.1-.6-4.9-.7-7.1 0-2.2.1-4.5.4-6.7 1.3-10 5.9-19.1 13-26.3zm78.2 0c-3.2-3.3 1.8-8.3 5.1-5.1 11.6 11.8 16.8 27.8 14.9 44.1 3.1 3.9 4.7 9 2.4 13.8-2.3 4.8-7.7 7-12.7 5.4-4.4-1.4-2.5-8.3 1.9-6.9 4.7 1.5 5.4-3.8 3.7-6.9-1-1.9-2.2-2.2-2.6-4.3-.3-2.1.6-4.9.7-7.1 0-2.2-.1-4.5-.4-6.7-1.3-10-5.9-19.1-13-26.3zm-53.5 85.2c-.5-4.5-7.6-4.6-7.1 0 .6 5.4.7 10.9-.3 16.3-.5 2.9-.6 3.1-3.6 3.4-1.6.2-6.9.2-8-1.5-.7-1.1 1.1-3.7 1.5-4.9.6-2.1.6-2.8.1-4.9-1.4-5.3-3.1-9.2-2.1-14.9.7-4.5-6.2-6.4-6.9-1.9-.6 3.9-.8 7.5-.2 11.4.6 3.7 2.2 6.4 1.6 10-1.3 6.6-1.5 10.2 5.8 12.8 4.8 1.7 13.2 2.3 16.9-2 4.3-5.4 3-17.6 2.3-23.8zm28.3 0c.5-4.5 7.6-4.6 7.1 0-.6 5.4-.7 10.9.3 16.3.5 2.9.6 3.1 3.6 3.4 1.6.2 6.9.2 8-1.5.7-1.1-1.1-3.7-1.5-4.9-.6-2.1-.6-2.8-.1-4.9 1.4-5.3 3.1-9.2 2.1-14.9-.7-4.5 6.2-6.4 6.9-1.9.6 3.9.8 7.5.2 11.4-.6 3.7-2.2 6.4-1.6 10 1.3 6.6 1.5 10.2-5.8 12.8-4.8 1.7-13.2 2.3-16.9-2-4.2-5.4-3-17.6-2.3-23.8z"/></g></svg>