<svg id="Layer_1" xmlns="http://www.w3.org/2000/svg" viewBox="0 0 229.7 240"><style>.st0{display:none}.st1{display:inline}.st2{fill:#82bdeb}.st3{fill:#6ccba8}.st4{fill:#c564eb}.st5{fill:#ebbe78}</style><g id="Layer_1_1_" class="st0"><g class="st1"><path class="st2" d="M112.1 44.3c-1.2 11.3-11.3 18.9-22.4 18.2-10.3-.7-20-8.5-19.2-19.4.4-4.6-6.8-4.6-7.1 0C62.2 58 75.8 68.9 89.7 69.7c15.3.8 28-10.3 29.5-25.4.5-4.6-6.6-4.5-7.1 0z"/><path class="st2" d="M104.4 37.8c-1-3.9-6.4-2.9-7 .4-1.5 1.1-4.9 1.5-6.2 1.5-2.4-.1-4.5-1-5.8-3.1-2.5-3.9-8.7-.3-6.2 3.6 3.1 4.9 8.5 7.2 14.3 6.5 4.4-.7 12.3-3.2 10.9-8.9zm9.6-25.4C96 3.2 74.2 10 65.4 28.5c-2 4.1 4.2 7.8 6.2 3.6 7-14.9 23.9-21.1 38.8-13.5 4 2.1 7.7-4.1 3.6-6.2zm3.1-9c-4.3 1.5-2.5 8.4 1.9 6.9 14.2-4.9 35.3 5.4 35.6 21.8.1 4.6 7.2 4.6 7.1 0-.4-20.9-25.9-35.1-44.6-28.7z"/><path class="st2" d="M147.8 34c-5.3-8-14.3-12.7-23.9-11.9-4.5.4-4.6 7.5 0 7.1 7.1-.6 13.8 2.3 17.7 8.3 2.6 4 8.8.4 6.2-3.5zm10.9 4.2c-3.2 6.4-7.2 11.4-14.2 13.6-6.5 2-13.4 1.2-20-.1-4.5-.9-6.4 6-1.9 6.9 17.7 3.5 33.6.4 42.3-16.8 2-4.1-4.2-7.7-6.2-3.6zm13.6-1.4c-.1.2-.2.3-.3.5-.4.7-.5 1.4-.5 2-1.1 4.1-3.3 7.5-6.5 10.3-3.5 3 1.6 8.1 5.1 5.1 4.5-4 7.6-9.3 8.7-15.2.8-3.7-4.4-6.4-6.5-2.7zm-9.4 27.3c-.2 6.1-.3 12.2-.5 18.2-.1 4.6 7 4.6 7.1 0 .2-6.1.3-12.2.5-18.2.2-4.6-7-4.6-7.1 0zM60.2 50.5c-2.3-3-2.7-7.3-1-10.7 2-4.1-4.2-7.7-6.2-3.6-3.2 6.6-2.3 13.7 2.1 19.4 2.9 3.6 7.9-1.5 5.1-5.1zm6.6 12.9c-.3-4.6-7.4-4.6-7.1 0 .4 6.6.7 13.2 1.1 19.8.3 4.6 7.4 4.6 7.1 0-.3-6.6-.7-13.2-1.1-19.8zm110.9 15.2c-4-2.2-7.7 4-3.6 6.2 10.9 5.8 9.5 24.5-3.1 27-4.5.9-2.6 7.8 1.9 6.9 18.7-3.8 20.9-31.4 4.8-40.1z"/><path class="st2" d="M176.3 96.7c0-1.9-1.6-3.7-3.6-3.6-1.9.1-3.6 1.6-3.6 3.6v4.8c0 1.9 1.6 3.7 3.6 3.6 1.9-.1 3.6-1.6 3.6-3.6v-4.8zM59.4 114.8c-14.9-2.1-20.1-25.8-4-30.3 4.4-1.2 2.5-8.1-1.9-6.9-22.5 6.2-18.3 41 4 44 4.5.8 6.4-6.1 1.9-6.8z"/><path class="st2" d="M61.3 100.5c0-.2-.1-.3-.1-.4v-.2c0-.4-.1-.8-.1-1.2 0-.8 0-1.6.1-2.4.2-1.9-1.8-3.7-3.6-3.6-2.1.1-3.4 1.6-3.6 3.6-.2 2.1 0 4.1.3 6.1.3 1.8 2.7 3 4.4 2.5 2.1-.6 3-2.4 2.6-4.4zm26.2-17.3c-6.7.2-12.2 3.8-13.1 10.7-.6 4.5 6.6 4.5 7.1 0 .6-4.6 12-5.2 12-.4-.1 4.6 7.1 4.6 7.1 0 .1-7.2-6.7-10.5-13.1-10.3zm68.4 9.2c-.7-6.1-5.3-10.8-11.7-10.6-6.3.2-11 5.4-12.5 11.2-1.1 4.5 5.8 6.4 6.9 1.9.6-2.5 2.1-5.2 4.8-5.8 2.4-.6 5 .8 5.3 3.3.5 4.5 7.7 4.5 7.2 0zm-35.1 4.3c-.2-4.6-7.3-4.6-7.1 0 .2 3.4.3 6.9.5 10.3.2 4.6 7.3 4.6 7.1 0-.2-3.5-.4-6.9-.5-10.3zm.5 26.8c-.6-.1-2 .1-2.1.1h-3.1c-2.4 0-4.7-.2-7.1-.5-4.5-.6-6.4 6.3-1.9 6.9 4.4.6 8.9.9 13.3.7 3.1-.2 7.2-.7 7-4.7-.1-3.4-4.2-4.2-6.1-2.5zm-9.3 17.6c-14.4.5-28-3.9-39.5-12.6-3.7-2.8-7.2 3.4-3.6 6.2 12.4 9.4 27.5 14.1 43.1 13.6 4.6-.2 4.7-7.3 0-7.2zm47.2-13.2c-9.7 8.9-22.1 13.3-35.2 12.9-4.6-.1-4.6 7 0 7.1 15 .5 29.2-4.9 40.3-15 3.3-3-1.7-8.1-5.1-5zm-24.9 34.5c-11 4.4-22.7 3.8-33-2.2-4-2.3-7.6 3.9-3.6 6.2 11.8 6.8 25.8 8 38.5 2.9 4.2-1.7 2.4-8.6-1.9-6.9zm-52.5-2.7c-8.6 2.7-19 5.7-26 11.6-7.3 6.2-11 17.1-13.1 26.1-1.1 4.5 5.8 6.4 6.9 1.9 1.8-7.8 4.9-18 11.6-23.1 6.3-4.8 15-7.2 22.5-9.6 4.3-1.4 2.5-8.3-1.9-6.9z"/><path class="st2" d="M61.4 205c-3.2 0-7 0-9.5-2.3-3.3-3.1-8.4 1.9-5.1 5.1 4 3.8 9.3 4.3 14.5 4.4 4.7 0 4.7-7.1.1-7.2zm5.9-3.1c-1.2 10.6-1.9 21.2-2.2 31.8-.1 4.6 7 4.6 7.1 0 .3-10.6 1-21.3 2.2-31.8.6-4.5-6.6-4.5-7.1 0zM50 218.3c.1-4.6-7-4.6-7.1 0-.1 3.6 0 7.1.3 10.7.3 4.6 7.5 4.6 7.1 0-.2-3.6-.3-7.1-.3-10.7zm101.4-58.6c8.6 2.7 19 5.7 26 11.6 7.3 6.2 11 17.1 13.1 26.1 1.1 4.5-5.8 6.4-6.9 1.9-1.8-7.8-4.9-18-11.6-23.1-6.3-4.8-15-7.2-22.5-9.6-4.3-1.4-2.5-8.3 1.9-6.9z"/><path class="st2" d="M171.8 205c3.2 0 7 0 9.5-2.3 3.3-3.1 8.4 1.9 5.1 5.1-4 3.8-9.3 4.3-14.5 4.4-4.6 0-4.6-7.1-.1-7.2zm-5.9-3.1c1.2 10.6 1.9 21.2 2.2 31.8.1 4.6-7 4.6-7.1 0-.3-10.6-1-21.3-2.2-31.8-.6-4.5 6.6-4.5 7.1 0zm17.3 16.4c-.1-4.6 7-4.6 7.1 0 .1 3.6 0 7.1-.3 10.7-.3 4.6-7.5 4.6-7.1 0 .2-3.6.3-7.1.3-10.7z"/></g></g><g id="Layer_4"><path class="st3" d="M56.5 98.4c-1.9.1-3.6 1.6-3.6 3.6v4.4c0 1.9 1.6 3.7 3.6 3.6 1.9-.1 3.6-1.6 3.6-3.6V102c0-1.9-1.7-3.7-3.6-3.6zM90 98c-2 .1-3.5 1.6-3.6 3.6-.1 1.9-.2 3.7-.3 5.6-.1 1.9 1.7 3.7 3.6 3.6 2-.1 3.5-1.6 3.6-3.6.1-1.9.2-3.7.3-5.6.1-1.9-1.7-3.7-3.6-3.6zm18.2 5.5c-.4-4.5-7.5-4.6-7.1 0 .5 6.3.4 12.6-.3 18.9-.6 4.6 6.6 4.5 7.1 0 .7-6.3.8-12.6.3-18.9zm-3.3-22.8h-4.4c-1.9 0-3.7 1.6-3.6 3.6.1 1.9 1.6 3.6 3.6 3.6h4.4c1.9 0 3.7-1.6 3.6-3.6s-1.6-3.6-3.6-3.6zm.9-8.7c-2.1-6.9-7.4-12.3-14.3-14.4-4.4-1.4-6.3 5.5-1.9 6.9 4.5 1.4 7.9 4.9 9.3 9.4 1.4 4.4 8.3 2.5 6.9-1.9zm-29.1.2c-5.2 11.1-19 15.7-30.5 15.1-4.6-.2-4.6 6.9 0 7.1C60 95 76.7 89 82.9 75.7c1.9-4-4.2-7.7-6.2-3.5zm2.8-23.3c-11.7-6.4-30.5-4.8-41.6 2.2C24.7 59.5 20.7 75.3 22.2 90c.4 4.5 7.6 4.6 7.1 0-1.2-12.1 1.1-25.8 12.2-32.7 8.9-5.6 25-7.4 34.4-2.2 4 2.2 7.6-4 3.6-6.2zM50.6 137c-5.8-2.7-7-9.3-8.6-14.9-.1-2-1.8-4.2-4.5-3.8-9 1.3-7.8-13.5-2.2-12.8 4.5.6 4.5-6.6 0-7.1-7.7-1-12.2 9.2-11.5 15.6.7 6.6 5.8 10.7 11.7 11.3 2.1 7.1 4.3 14.6 11.5 18 4.1 1.7 7.7-4.4 3.6-6.3zM13.8 97.5c-3.9 5.9-5.2 14.3-.1 19.9 3.1 3.4 8.1-1.7 5.1-5.1-2.8-3.1-.6-8.3 1.3-11.2 2.4-3.9-3.7-7.4-6.3-3.6zm21.7 66.1c-10.1 4.2-20.9-1.3-25.4-10.9-4.4-9.4-.9-19.8 6.9-26.2 3.5-2.9-1.5-8-5.1-5.1-10.3 8.5-13.9 23.1-7.8 35.2 6 11.9 20.5 19.2 33.3 13.9 4.2-1.8 2.4-8.7-1.9-6.9zm19.1-12c-1.4-1.3-3.7-1.4-5.1 0-.7.8-1.5 1.5-2.3 2.2-.2.2-.4.3-.6.5 0 0-.3.2-.4.3-.1.1-.3.3-.4.3-.3.2-.5.4-.8.5-1.5 1.1-2.4 3.2-1.3 4.9 1 1.5 3.2 2.4 4.9 1.3 2.1-1.5 4.1-3.1 5.9-4.9 1.5-1.4 1.6-3.8.1-5.1zm37.2-17.8c-2.2 5.2-9.7 7.3-14.8 8.2-6 1.1-11.9.4-17.7-1.5-4.4-1.4-6.3 5.5-1.9 6.9 7.6 2.5 15.5 2.9 23.3 1.1 6.4-1.5 14.5-4.6 17.3-11.1 1.8-4.1-4.4-7.8-6.2-3.6zM81.1 119c-3.6 2-9.8 3.3-13-.1-3.1-3.4-8.1 1.7-5.1 5.1 5.4 5.9 15.2 4.8 21.6 1.3 4.2-2.4.6-8.5-3.5-6.3zm35.9 45.8c-5.3-6.5-11.6-12-18.7-16.5-3.9-2.4-7.5 3.7-3.6 6.2 6.6 4.1 12.3 9.3 17.2 15.4 3 3.5 8-1.6 5.1-5.1zm-13.9 4.8c-3.4-3.1-8.5 1.9-5.1 5.1 2 1.8 4 3.8 5.2 6.3 2 4.2-.2 5.8-2.1 9.1-2.1 3.7-1 8.5-.9 12.7.1 4.6 7.3 4.6 7.1 0-.1-2.3-.1-4.6-.2-6.9-.2-3.3-.9-1 .9-2.9s3-4.6 3.2-7.1c.7-6.5-3.7-12.2-8.1-16.3zm-42.5 34.8c-1.9-5.9-3.7-11.8-5.4-17.7-1.3-4.4-8.2-2.5-6.9 1.9 1.7 5.9 3.5 11.8 5.4 17.7 1.4 4.3 8.3 2.5 6.9-1.9zm-18.4 6.9c-5.7-7.5-3.7-22.2-2.5-31 .6-4.5-6.6-4.5-7.1 0-1.3 10.2-3.1 25.9 3.5 34.6 2.7 3.6 8.9.1 6.1-3.6zm59.2 2.8c-12.6 3.9-25.5 4.6-38.4 1.8-4.5-1-6.4 5.9-1.9 6.9 14.1 3 28.4 2.5 42.2-1.8 4.4-1.4 2.5-8.3-1.9-6.9zm46.3-52.6c-.2-1.1-.3-2.9-.1-3.9.3-1.8-.5-3.9-2.5-4.4-1.7-.4-4.1.5-4.4 2.5-.4 2.6-.4 5.1.1 7.7.4 1.8 2.6 3.1 4.4 2.5 1.9-.6 3-2.4 2.5-4.4zm26.9-5.2c0-1.9-1.6-3.7-3.6-3.6-1.9.1-3.6 1.6-3.6 3.6s.1 4 .1 5.9 1.6 3.7 3.6 3.6c1.9-.1 3.6-1.6 3.6-3.6s-.1-3.9-.1-5.9zm-12.7 12.8c-2.9.9-5.7 1-8.6.1-4.4-1.2-6.3 5.7-1.9 6.9 4.1 1.1 8.3 1.1 12.4-.1 4.4-1.3 2.5-8.2-1.9-6.9zm22.7-28.8c-12.5-14.7-33.5-15.9-48.2-3.7-3.5 2.9 1.5 8 5.1 5.1 11.8-9.8 28.3-7.8 38.1 3.7 2.9 3.4 8-1.6 5-5.1zm-44 47.8c-13.2-8.5-12-25.5-5.9-38.1 2-4.1-4.1-7.7-6.2-3.6-7.9 16.2-8.3 37.1 8.4 47.8 4 2.5 7.6-3.6 3.7-6.1zm50.5-35.3c-1.7-4.2-8.6-2.4-6.9 1.9 5 12.6 2.4 25.9-7.4 35.4-3.3 3.2 1.7 8.2 5.1 5.1 11.4-11.2 15.1-27.5 9.2-42.4zm-23.9 49.8c-6.4 2.7-13.4 2.1-18.9-2.3-3.5-2.9-8.6 2.1-5.1 5.1 7.3 6 17 7.9 25.8 4.2 4.3-1.8 2.5-8.7-1.8-7zm-37.4-7.4c-6.7 3.5-12.1 9.1-15.3 15.9-2 4.1 4.2 7.8 6.2 3.6 2.8-5.8 7-10.3 12.7-13.3 4.1-2.2.5-8.4-3.6-6.2zm-13 22.5c-1.7-.5-4.1.6-4.4 2.5-.4 2.4-.7 4.8-.7 7.3-.1 1.9 1.7 3.6 3.6 3.6 2 0 3.5-1.6 3.6-3.6 0-1.8.2-3.6.5-5.4.2-1.9-.6-3.8-2.6-4.4zm78.6-5.5c-.3 5.4-7.6 5.5-10.8 2.8-3.7-3.1-2.5-8.8 1.9-10.4 4.3-1.5 2.5-8.4-1.9-6.9-9.8 3.5-12.9 16.1-4.4 22.9 8.1 6.5 21.7 2.8 22.3-8.4.4-4.6-6.8-4.5-7.1 0z"/><path class="st3" d="M206.1 203.2c-2.4-4.6-6.2-8.4-10.7-10.9-4-2.2-7.7 4-3.6 6.2 3.6 1.9 6.3 4.7 8.2 8.3 2 4.1 8.2.5 6.1-3.6zm15.6-42.3c-2 11.5-6.4 22-13.2 31.5-2.7 3.8 3.5 7.3 6.2 3.6 7.1-10 11.8-21.2 13.9-33.2.8-4.5-6.1-6.5-6.9-1.9zm4.8-13.3c-3.8-18.1-12.2-34.7-24.2-48.8-3-3.5-8 1.6-5.1 5.1 11.3 13.1 18.8 28.7 22.4 45.6.9 4.5 7.8 2.6 6.9-1.9zm-117.2-22.2c-4.5.6-4.5 7.8 0 7.1 6.2-.8 9.7 7 8.3 12.1-1.2 4.4 5.7 6.3 6.9 1.9 2.5-9.1-4.4-22.6-15.2-21.1zm14.4-23.3c-4.3 4.9-7.6 10.3-10.1 16.3-.7 1.8.8 3.9 2.5 4.4 2 .6 3.7-.7 4.4-2.5 2-4.8 4.9-9.3 8.3-13.2 3-3.4-2-8.4-5.1-5zm16.6-39c-.4-2.2-.3-4.4-.1-6.6.2-1.9-1.8-3.6-3.6-3.6-2.1 0-3.4 1.6-3.6 3.6-.3 2.9-.1 5.7.3 8.5.3 1.9 2.7 3 4.4 2.5 2.1-.6 2.9-2.5 2.6-4.4zm33.3-6c-.4-1.9-2.6-3-4.4-2.5-1.9.5-2.9 2.5-2.5 4.4.3 1.4.4 2.9.1 4.3-.4 1.9.6 3.9 2.5 4.4 1.8.5 4-.6 4.4-2.5.5-2.7.5-5.4-.1-8.1zM158.9 73c-3.1 1.2-9.1 2.7-11.6-.4-2.9-3.6-7.9 1.5-5.1 5.1 4.1 5.2 13.1 4.4 18.6 2.2 4.2-1.6 2.4-8.5-1.9-6.9zM209 57c-3-9.3-15.1-11.6-20.5-3.3-2.5 3.9 3.7 7.4 6.2 3.6 2.1-3.2 6.2-1.6 7.4 1.5 1 2.4-1 10.8-5.1 8.9s-7.8 4.2-3.6 6.2c9.9 4.7 18.5-7.7 15.6-16.9zm-7.8-22.1c-1-1.7-3.2-2.2-4.9-1.3-2.5 1.4-4.8 3.1-6.9 5.1-1.4 1.3-1.3 3.7 0 5.1 1.4 1.4 3.7 1.3 5.1 0 1.7-1.6 3.3-2.8 5.4-4 1.7-1 2.3-3.3 1.3-4.9zm-15-.1c-5.8-7.8-17.4-9.7-26.6-10.8-11.1-1.3-22.4.8-31.7 7.1-3.8 2.6-.2 8.8 3.6 6.2 7.2-4.9 15.3-6.8 23.9-6.5 6.7.3 20.1 1.6 24.6 7.6 2.7 3.7 8.9.1 6.2-3.6z"/><path class="st3" d="M191.9 24.9C179.3 8 152.7 6.7 134.3 13.1c-4.3 1.5-2.5 8.4 1.9 6.9 14.9-5.2 38.9-5.7 49.5 8.5 2.8 3.7 9 .1 6.2-3.6zm-71.7 20.6c-3.3 11.8-3.7 23.8-1.2 35.8.9 4.5 7.8 2.6 6.9-1.9-2.2-10.8-1.7-21.4 1.2-32 1.2-4.5-5.7-6.4-6.9-1.9zm51.4 49.2c-13.3 9-29.9 6.8-40.4-5.4-3-3.5-8 1.6-5.1 5.1 12.4 14.5 33.3 17.2 49 6.6 3.9-2.7.3-8.9-3.5-6.3zm17.9-17.3c-2-.6-3.7.7-4.4 2.5-1.1 2.9-2.8 5.4-5 7.6-3.3 3.2 1.8 8.3 5.1 5.1 3.1-3.1 5.3-6.7 6.9-10.7.6-1.9-.8-4-2.6-4.5z"/></g><g id="Layer_2" class="st0"><g class="st1"><path class="st4" d="M51.8 81.7c-4.4-4.4-11.5-4.4-16.1-.2-3.4 3.1 1.7 8.2 5.1 5.1 1.7-1.6 4.4-1.4 6 .2 3.2 3.2 8.3-1.9 5-5.1zm31.5-2.1c-4.8-5.4-12.7-4.3-16.8 1.2-1.2 1.5-.2 4 1.3 4.9 1.8 1.1 3.7.3 4.9-1.3 1.5-2 4.2-1.4 5.6.3 3.1 3.4 8.1-1.7 5-5.1zM66.6 98.5c-3.7 1.9-8 2.1-11.8.4-4.2-1.9-7.8 4.3-3.6 6.2 6.3 2.8 12.9 2.7 19-.4 4.1-2.1.5-8.3-3.6-6.2zm21.6-5c-.1-4.6-7.3-4.6-7.1 0 .1 4.1-.1 8.1-.6 12.2-.3 1.9 1.8 3.6 3.6 3.6 2.1 0 3.3-1.7 3.6-3.6.4-4.1.6-8.1.5-12.2zM86 38.7c-6-9.4-17.5-8.1-27-6.2-11 2.3-21.7 6.8-30.8 13.4-7.3 5.3-15.8 12.9-10.8 22.6 2.1 4.1 8.2.5 6.2-3.6-3.3-6.5 8.9-13.5 13.1-16.1 5.8-3.6 12.1-6.3 18.7-8.1 6-1.7 13.9-3.9 20-1.9 8.9 3 8.2 15.3 3.3 21.4-2.8 3.6 2.2 8.6 5.1 5.1 5.8-7.5 7.6-18.1 2.2-26.6z"/><path class="st4" d="M43.7 64.1c.6.8-.1-.1-.2-.3-.1-.2-.3-.5-.4-.7 0-.1-.1-.2-.1-.2-.1-.3-.2-.6-.3-1-.4-1.8-2.6-3.1-4.4-2.5-1.9.6-2.9 2.4-2.5 4.4.5 2 1.5 3.8 2.8 5.4.5.7 1.7 1 2.5 1 .9 0 1.9-.4 2.5-1 .6-.7 1.1-1.6 1-2.5.1-1-.3-1.8-.9-2.6zM55 61.9c0-.1-.2-.5-.3-.7-.1-.2-.2-.4-.2-.6-.2-.6-.4-1.3-.6-2-.5-1.8-2.6-3.1-4.4-2.5-1.9.6-3 2.5-2.5 4.4.4 1.7 1.1 3.4 1.9 5 .8 1.7 3.3 2.3 4.9 1.3 1.6-1.1 2.1-3.1 1.2-4.9zm12.2-1.2c.3.6-.1-.2-.1-.4-.1-.4-.2-.7-.3-1.1-.2-.7-.3-1.4-.4-2.1-.3-1.9-2.7-3-4.4-2.5-2 .7-2.8 2.4-2.5 4.4.3 1.9.9 3.6 1.6 5.3.7 1.7 3.4 2.2 4.9 1.3 1.7-1.2 2-3.1 1.2-4.9zM24.7 96.5c-3.3 1.6-7.2.1-8.1-3.6-.4-1.5-.1-3 .4-4.5.2-.6 2.1-4.5 2.9-4.4 4.5 1 6.4-5.9 1.9-6.9-8.4-1.8-13.9 10.1-12.3 17.1 1.9 8.6 11.2 12 18.7 8.3 4.2-1.8.6-8-3.5-6zm50.1 14.8c-6.4 3-13.3 4.5-20.3 4.1-6.2-.4-15.2-1.8-18.6-7.6-2.3-4-8.5-.4-6.2 3.6 9.1 15.5 35.2 12.5 48.7 6.1 4.2-2 .6-8.1-3.6-6.2z"/><path class="st4" d="M64.9 128.3c-6 1.3-15 2.4-19.5-2.8-3-3.5-8 1.6-5.1 5.1 6.2 7.3 18 6.5 26.4 4.6 4.6-1 2.7-7.9-1.8-6.9zm-34.1 25.1c-5.7-.3-16.5-4.3-12.5-11.5 2.8-5 8.4-9.3 12.9-12.8 3.6-2.8-1.5-7.8-5.1-5.1-4.3 3.3-8.2 7-11.7 11.2-2.5 3.1-6.5 7.1-5.3 11.4 2.5 8.7 13.5 13.3 21.6 13.8 4.7.5 4.6-6.7.1-7zm51.9-17.1c-1.1-4.5-8-2.6-6.9 1.9 3.2 13 6.2 26.3 2.4 39.5-1.3 4.4 5.6 6.3 6.9 1.9 4.1-14.5 1-29.1-2.4-43.3zm-7.6 48.6c-8.6 1-17.5 1.5-26.2.5-4.7-.5-11.5-1.3-13.5-6.1-1.6-3.7-1.1-9.3-.7-13.2.4-4.6-6.8-4.6-7.1 0-.4 5.3-.4 11.5 1.4 16.7 1.5 4.3 5.2 6.3 9.3 7.7 11.5 4 25.1 3 36.9 1.7 4.5-.6 4.5-7.8-.1-7.3zm-40.4 41c-1.8-9.6-2.1-19.1-1.1-28.8.5-4.6-6.7-4.5-7.1 0-1.1 10.3-.5 20.5 1.4 30.7.8 4.5 7.7 2.6 6.8-1.9zm28.8-25.1c-2.6 1.8-5.2 3.6-7.7 5.4-1.4 1-1.9 2.3-1.6 4 1.1 6.6-1.2 13.2-.6 19.8.4 4.5 7.5 4.6 7.1 0-.5-6.4 1.1-12.7.7-19 1.9-1.4 3.8-2.7 5.8-4.1 3.6-2.5.1-8.7-3.7-6.1zm21.6-4.8c-1-4.5-7.9-2.6-6.9 1.9 2.3 9.7 1.6 19.5.9 29.4-.3 4.6 6.8 4.6 7.1 0 .8-10.6 1.3-21-1.1-31.3zm-63.6-11.6c-9.8-4.3-10.3-14.1-5.9-22.8 2.1-4.1-4.1-7.7-6.2-3.6-6 11.8-5 26.7 8.5 32.6 4.2 1.8 7.8-4.4 3.6-6.2zm76.2-41c-1.9-6.5-5.5-12.4-10.5-17-3.4-3.1-8.4 1.9-5.1 5.1 4.1 3.8 7.1 8.4 8.7 13.8 1.3 4.4 8.2 2.5 6.9-1.9zm3 21.2c-.6-4.5-7.7-4.6-7.1 0 .5 4.2.7 8.3-1.1 12.2-1.5 3.2-3.9 5.8-6.2 8.5-3 3.5 2 8.5 5.1 5.1 6.6-8 10.6-15.1 9.3-25.8zM131 12.8c-2-4.7-7-7.1-12.1-6.3-3.7.6-6.6 2.7-8.7 5.4-2.2-3.3-5.2-5.8-9.8-6.3C94 4.9 88 8.8 86.1 15.1c-2.1 6.9 2 13.7 7.1 18.1 4 3.4 13.3 9.4 18.8 8.8 1.6-.2 2.7-1 3.2-2.2 10.2-4.7 21.1-14.8 15.8-27zm-6.3 8.8c-1.7 6.3-7.7 10-13.4 12.2-.5.2-.9.5-1.2.8-2.6-.7-5.8-2.8-7.6-3.8-3-1.7-6-3.9-7.9-6.8-2.4-3.7-2.5-9.4 2.5-11s7.8 3 9.4 6.9c1.3 3.1 5.6 2.9 6.8.7.3-.3.6-.7.8-1.1 1.2-2.7 3.7-6.3 7.2-5.9 3.9.4 4.2 4.9 3.4 8zm57.4 88.1c-4.9 7.1-13.2 10.3-21.5 11-7.9.6-18.5.6-25.4-4-6.8-4.6-8-13.8-8.3-21.3-.3-8.5.7-16.9 2.8-25.1 3 2.7 7.1 4.4 11.7 5.3 4.5.9 6.4-6 1.9-6.9-5.6-1.1-10.7-2.6-11.4-9.2-.7-6.2 2.7-11.5 9.1-12.4 4.5-.6 2.6-7.5-1.9-6.9-9.4 1.3-15 10.2-14.3 19.3.1 1.8.5 3.3.9 4.8-1.1.2-2.1 1-2.5 2.4-4.5 16.8-8.8 47.1 10 57.1 8.6 4.6 20.8 5 30.3 3.7 10-1.3 18.9-5.8 24.7-14.2 2.6-3.8-3.5-7.4-6.1-3.6z"/><path class="st4" d="M161.7 66.2c-5.3 0-9.9-3.2-10.6-8.7-.7-5.2 2.6-8.7 6.4-11.8 3.5-2.9-1.5-8-5.1-5.1-6.2 5.1-10.3 12.3-7.9 20.6 2.3 7.6 9.4 12.1 17.2 12.1 4.6.1 4.6-7.1 0-7.1z"/><path class="st4" d="M178.9 67.8c-4.3-2.6-8.7-6.3-8.7-11.8 0-5.2 3.5-9.3 7.4-12.3 3.6-2.9-1.5-7.9-5.1-5.1-5.9 4.6-10.1 11.4-9.4 19.1.7 7.3 6.1 12.6 12.1 16.2 4.1 2.5 7.7-3.7 3.7-6.1z"/><path class="st4" d="M220.7 84.8c-15.6-2.8-8.4-20.9-14.6-31-5.8-9.5-17.8-10.7-27.5-7.4-4.3 1.5-2.5 8.4 1.9 6.9 6-2.1 13.1-2.6 17.9 2.2 4.7 4.7 3.6 12.1 4.4 18.1 1.2 9.2 6.7 16.4 16.1 18.1 4.4.8 6.3-6.1 1.8-6.9zm-5 11.3c-1.6 3.9-6.2 6.2-10.3 5.4-4.5-.9-6.4 6-1.9 6.9 8.2 1.6 15.9-2.7 19.1-10.4 1.8-4.2-5.1-6.1-6.9-1.9zm-13.4-3.9c-1.9-6.8-9.2-10.4-15.7-8.2-4.3 1.5-2.5 8.4 1.9 6.9 2.8-.9 6.2 0 6.9 3.3.7 3.1-3.9 3.8-6 4.2-4.5 1-2.6 7.9 1.9 6.9 6.3-1.5 13.1-5.5 11-13.1zm-62.6-3.6c-2.1-.7-4.4-1-6.6-.9-1.9.1-3.7 1.6-3.6 3.6.1 1.9 1.6 3.7 3.6 3.6 1.9-.1 2.9.1 4.7.7s4-.7 4.4-2.5c.5-2.1-.6-3.8-2.5-4.5zm35.3 2.2c-2.7-4-9.1-2.9-13.1-2.1-4.5 1-2.6 7.9 1.9 6.9 1.2-.3 2.3-.4 3.5-.4.6 0 1.7-.1 2.3 0 2.8 2.3 7.7-1 5.4-4.4zm-16.9 14.9c-.5-1.7-2.6-3.2-4.4-2.5-2.4 1-4.6 1.3-7.1.6-4.4-1.2-6.3 5.7-1.9 6.9 3.6 1 7.5.9 10.9-.6 1.7-.7 3-2.3 2.5-4.4zm14.9 24.1c-6.9 2.8-13.9 3.3-21.1 1.4-4.4-1.2-6.3 5.7-1.9 6.9 8.3 2.2 16.9 1.8 24.9-1.4 4.2-1.7 2.4-8.7-1.9-6.9z"/><path class="st4" d="M186.4 155.9c-.7-4.5-7.6-2.6-6.9 1.9 1.4 9.1 2.3 18.3 2.7 27.4-.1 0-.2 0-.3.1-8 3.2-16.4 5.1-25.1 4.4-4.4-.4-8.9-1.5-12.9-3.3-1.7-.8-3.5-1.6-5-2.8-3.4-2.7-2.1-4.5-1.2-8 1.5-5.5 5.5-10.8 1.8-16-2.9-4.1-7.3-6.3-5.2-12.2 1.3-3.6 5.1-6.8 7.4-9.9 2.7-3.7-3.5-7.3-6.2-3.6-5.2 7.1-12.7 14-7.2 23.3 1.1 1.9 2.7 3.3 4 5 2 2.9.7 4.5-.3 7.6-1.3 3.9-3.6 9.8-2.2 14 2.5 7.6 15.4 11.3 22.3 12.5 10.8 1.9 21.6-.1 31.7-4 .9-.4 1.5-.9 1.9-1.6 1.9.2 3.9-1 3.8-3.4-.5-10.6-1.5-21-3.1-31.4zm12.5-10.4c-2.4-6.9-6.6-12.5-12.5-16.8-3.7-2.7-7.3 3.5-3.6 6.2 4.3 3.1 7.5 7.5 9.2 12.5 1.5 4.4 8.4 2.5 6.9-1.9z"/><path class="st4" d="M200.6 152.9c-1.6-4.3-8.5-2.4-6.9 1.9 3.5 9.4 4.5 19.1 2.7 29.1-.8 4.5 6.1 6.4 6.9 1.9 2.1-11.2 1.3-22.3-2.7-32.9zm-.4 38.8c-2-.5-3.7.7-4.4 2.5-.3.8-1 1.8-2 2-.4.1-1.4-.1-1.4-.7-.4-4.5-7.5-4.6-7.1 0 .4 4.4 3.8 7.9 8.4 7.8 4.4 0 7.6-3.4 9-7.2.6-1.8-.8-3.9-2.5-4.4zm-5.5 35.3c-1-6.2-2-12.5-3-18.7-.7-4.5-7.6-2.6-6.9 1.9 1 6.2 2 12.5 3 18.7.7 4.5 7.6 2.6 6.9-1.9zm-64.8-33.9c-5.8 11.1-9.2 23-10.3 35.5-.4 4.6 6.7 4.6 7.1 0 1-11.2 4.1-21.9 9.3-31.9 2.2-4.1-3.9-7.7-6.1-3.6zm-9.6-32.5c-3.3 9.9-5.5 23-.5 32.7 2.1 4.1 8.3.5 6.2-3.6-4-7.8-1.4-19.4 1.3-27.2 1.4-4.3-5.5-6.2-7-1.9z"/></g></g><g id="Layer_3" class="st0"><g class="st1"><path class="st5" d="M89 72.9c-4.1-.7-8.1 1.7-8.8 5.9-.7 3.8 1 8.2 4.7 9.8.9.4 1.9.6 2.8.6.7.1 1.3 0 2-.1 3.9-.7 6.7-4.2 6.6-8.2-.2-4-3.3-7.3-7.3-8zm53.8 0c-4.1-.7-8.1 1.7-8.8 5.9-.7 3.8 1 8.2 4.7 9.8.9.4 1.9.6 2.8.6.7.1 1.3 0 2-.1 3.9-.7 6.7-4.2 6.6-8.2-.2-4-3.3-7.3-7.3-8zm-20.5 19.4c-3.6 3.9-11.2 1.3-14.9-1-3.9-2.5-7.5 3.7-3.6 6.2 6.5 4.1 17.7 6.2 23.6-.1 3.1-3.4-1.9-8.5-5.1-5.1zM91.6 37.2c-1.7 7.3-5.5 13.4-11.2 18.2-3.5 2.9 1.5 8 5.1 5.1 6.6-5.5 11.2-12.9 13.1-21.3.9-4.6-6-6.5-7-2zm16.8 0c-1.7 7.3-5.5 13.4-11.2 18.2-3.5 2.9 1.5 8 5.1 5.1 6.6-5.5 11.2-12.9 13.1-21.3.9-4.6-6-6.5-7-2zm18.3 1.4c-1.7 7.3-5.5 13.4-11.2 18.2-3.5 2.9 1.5 8 5.1 5.1 6.6-5.5 11.2-12.9 13.1-21.3.9-4.6-6-6.5-7-2zm17.6 0c-1.7 7.3-5.5 13.4-11.2 18.2-3.5 2.9 1.5 8 5.1 5.1 6.6-5.5 11.2-12.9 13.1-21.3.9-4.6-6-6.5-7-2zm24.9 6.8c-2.1-4.1-8.3-.5-6.2 3.6 1.4 2.7 1.8 5.6 1.2 8.6-.9 4.5 5.9 6.4 6.9 1.9 1.1-4.9.5-9.7-1.9-14.1zM59.9 46.9c-.8 4.1-.8 8.1-.2 12.2.3 1.9 2.7 3 4.4 2.5 2-.6 2.8-2.5 2.5-4.4-.4-2.8-.3-5.7.2-8.4.9-4.5-6-6.4-6.9-1.9zm101.4-20.8C152.8 9.2 134.3.9 116 1c-18.2.1-40.6 6.3-49.3 23.8-2 4.1 4.1 7.7 6.2 3.6 7.6-15.3 27.4-20.2 43.2-20.3 16-.1 31.7 6.8 39.1 21.5 2 4.2 8.1.6 6.1-3.5zm38-2.6c-7-12.3-23.2-21.5-37.2-16.1-4.2 1.6-2.4 8.6 1.9 6.9 11.1-4.3 23.6 3.1 29.1 12.8 5.9 10.4 3.5 23.3-5.2 31.2-3.4 3.1 1.7 8.2 5.1 5.1 11-10.2 13.7-26.9 6.3-39.9zm-9.8 47.1c-4.6 2.8-11.9 3.9-14.8-1.8-2.1-4.1-8.3-.5-6.2 3.6 4.7 9.1 16.7 9.2 24.5 4.3 4.1-2.3.5-8.5-3.5-6.1zM67.1 7.8C52.8 4.6 34.8 13.7 29 27.1c-5.5 12.6-4.2 30.1 7.1 39.1 3.6 2.8 8.6-2.2 5.1-5.1-8.7-7-9.9-20-6.1-29.9 4.1-10.7 18.8-19 30.2-16.5 4.3 1 6.3-5.8 1.8-6.9zM55.9 69.6c-4.2 6.6-12.2 6.8-18.6 3.5-4.1-2.1-7.7 4.1-3.6 6.2 10 5.1 22.1 3.9 28.4-6.1 2.5-3.9-3.7-7.4-6.2-3.6z"/><path class="st5" d="M164.1 69.2c-.2-4.6-7.3-4.6-7.1 0 .5 12.1 2.3 28.9-7.1 38.2-9 9-24.2 11.3-36.5 11.4-12.1.1-24.4-3.1-32.9-12C70 96 72.9 82.1 72.4 68.4c-.2-4.6-7.3-4.6-7.1 0 .6 15.7-1.9 30.3 9.6 42.9 9.8 10.7 24.4 14.9 38.6 14.8 14.2-.1 31.1-3.1 41.5-13.5 10.9-11.1 9.7-29 9.1-43.4zm-30.9 60.3c-1-4.5-7.9-2.6-6.9 1.9 1.8 7.5-6.7 11.8-13 11.2-7.2-.7-10.1-6.3-11.4-12.7-.9-4.5-7.8-2.6-6.9 1.9 2.2 11 9.9 19.1 21.7 18 10.3-1.1 19-9.6 16.5-20.3z"/><path class="st5" d="M156.5 158.9c-2.4-10.6-6.3-20.8-7.5-31.7-.5-4.5-7.7-4.6-7.1 0 1.1 10.1 4.2 19.6 6.8 29.4 2.8 10.8 3.1 21.2 2.8 32.2-9.2 7.4-20.7 11.2-32.5 11.9-11.3.7-25.2-.2-35-6.7-10.4-6.9-7-24.5-4.3-34.8 2.7-10.6 6.7-20.7 7.2-31.8.2-4.6-6.9-4.6-7.1 0-.7 14.6-7.7 27.9-9.2 42.4-1.3 12.5-.2 24.8 11.6 31.5 11.2 6.3 26.3 7.5 38.9 6.4 13.3-1.2 25.6-5.7 35.9-14.2.5-.4.8-.8 1-1.3.3-.5.5-1.1.5-1.8.3-10.7.3-21.1-2-31.5z"/><path class="st5" d="M75.5 125.9c3.2-3.3-1.8-8.3-5.1-5.1-11.6 11.8-16.8 27.8-14.9 44.1-3.1 3.9-4.7 9-2.4 13.8 2.3 4.8 7.7 7 12.7 5.4 4.4-1.4 2.5-8.3-1.9-6.9-4.7 1.5-5.4-3.8-3.7-6.9 1-1.9 2.2-2.2 2.6-4.3.3-2.1-.6-4.9-.7-7.1 0-2.2.1-4.5.4-6.7 1.3-10 5.9-19.1 13-26.3zm78.2 0c-3.2-3.3 1.8-8.3 5.1-5.1 11.6 11.8 16.8 27.8 14.9 44.1 3.1 3.9 4.7 9 2.4 13.8s-7.7 7-12.7 5.4c-4.4-1.4-2.5-8.3 1.9-6.9 4.7 1.5 5.4-3.8 3.7-6.9-1-1.9-2.2-2.2-2.6-4.3-.3-2.1.6-4.9.7-7.1 0-2.2-.1-4.5-.4-6.7-1.3-10-5.9-19.1-13-26.3zm-53.5 85.2c-.5-4.5-7.6-4.6-7.1 0 .6 5.4.7 10.9-.3 16.3-.5 2.9-.6 3.1-3.6 3.4-1.6.2-6.9.2-8-1.5-.7-1.1 1.1-3.7 1.5-4.9.6-2.1.6-2.8.1-4.9-1.4-5.3-3.1-9.2-2.1-14.9.7-4.5-6.2-6.4-6.9-1.9-.6 3.9-.8 7.5-.2 11.4.6 3.7 2.2 6.4 1.6 10-1.3 6.6-1.5 10.2 5.8 12.8 4.8 1.7 13.2 2.3 16.9-2 4.3-5.4 3-17.6 2.3-23.8zm28.3 0c.5-4.5 7.6-4.6 7.1 0-.6 5.4-.7 10.9.3 16.3.5 2.9.6 3.1 3.6 3.4 1.6.2 6.9.2 8-1.5.7-1.1-1.1-3.7-1.5-4.9-.6-2.1-.6-2.8-.1-4.9 1.4-5.3 3.1-9.2 2.1-14.9-.7-4.5 6.2-6.4 6.9-1.9.6 3.9.8 7.5.2 11.4-.6 3.7-2.2 6.4-1.6 10 1.3 6.6 1.5 10.2-5.8 12.8-4.8 1.7-13.2 2.3-16.9-2-4.2-5.4-3-17.6-2.3-23.8z"/></g></g></svg>