<svg id="Layer_1" xmlns="http://www.w3.org/2000/svg" viewBox="0 0 256 256"><style>.st0{fill:#82bdeb}</style><g id="Layer_1_2_"><path class="st0" d="M124.9 52c-1.2 11.3-11.3 18.9-22.4 18.2-10.3-.7-20-8.5-19.2-19.4.4-4.6-6.8-4.6-7.1 0-1.2 14.9 12.4 25.8 26.3 26.6 15.3.8 28-10.3 29.5-25.4.5-4.6-6.6-4.5-7.1 0z"/><path class="st0" d="M117.2 45.5c-1-3.9-6.4-2.9-7 .4-1.5 1.1-4.9 1.5-6.2 1.5-2.4-.1-4.5-1-5.8-3.1-2.5-3.9-8.7-.3-6.2 3.6 3.1 4.9 8.5 7.2 14.3 6.5 4.4-.7 12.3-3.2 10.9-8.9zm9.6-25.4c-18-9.2-39.8-2.4-48.6 16.1-2 4.1 4.2 7.8 6.2 3.6 7-14.9 23.9-21.1 38.8-13.5 4 2.1 7.7-4.1 3.6-6.2zm3.1-9c-4.3 1.5-2.5 8.4 1.9 6.9 14.2-4.9 35.3 5.4 35.6 21.8.1 4.6 7.2 4.6 7.1 0-.4-20.9-25.9-35.1-44.6-28.7z"/><path class="st0" d="M160.6 41.7c-5.3-8-14.3-12.7-23.9-11.9-4.5.4-4.6 7.5 0 7.1 7.1-.6 13.8 2.3 17.7 8.3 2.6 4 8.8.4 6.2-3.5zm10.9 4.2c-3.2 6.4-7.2 11.4-14.2 13.6-6.5 2-13.4 1.2-20-.1-4.5-.9-6.4 6-1.9 6.9 17.7 3.5 33.6.4 42.3-16.8 2-4.1-4.2-7.7-6.2-3.6zm13.6-1.4c-.1.2-.2.3-.3.5-.4.7-.5 1.4-.5 2-1.1 4.1-3.3 7.5-6.5 10.3-3.5 3 1.6 8.1 5.1 5.1 4.5-4 7.6-9.3 8.7-15.2.8-3.7-4.4-6.4-6.5-2.7zm-9.4 27.3c-.2 6.1-.3 12.2-.5 18.2-.1 4.6 7 4.6 7.1 0 .2-6.1.3-12.2.5-18.2.2-4.6-7-4.6-7.1 0zM73 58.2c-2.3-3-2.7-7.3-1-10.7 2-4.1-4.2-7.7-6.2-3.6-3.2 6.6-2.3 13.7 2.1 19.4 2.9 3.6 7.9-1.5 5.1-5.1zm6.6 12.9c-.3-4.6-7.4-4.6-7.1 0 .4 6.6.7 13.2 1.1 19.8.3 4.6 7.4 4.6 7.1 0-.3-6.6-.7-13.2-1.1-19.8zm110.9 15.2c-4-2.2-7.7 4-3.6 6.2 10.9 5.8 9.5 24.5-3.1 27-4.5.9-2.6 7.8 1.9 6.9 18.7-3.8 20.9-31.4 4.8-40.1z"/><path class="st0" d="M189.1 104.4c0-1.9-1.6-3.7-3.6-3.6-1.9.1-3.6 1.6-3.6 3.6v4.8c0 1.9 1.6 3.7 3.6 3.6 1.9-.1 3.6-1.6 3.6-3.6v-4.8zM72.2 122.5c-14.9-2.1-20.1-25.8-4-30.3 4.4-1.2 2.5-8.1-1.9-6.9-22.5 6.2-18.3 41 4 44 4.5.8 6.4-6.1 1.9-6.8z"/><path class="st0" d="M74.1 108.2c0-.2-.1-.3-.1-.4v-.2c0-.4-.1-.8-.1-1.2 0-.8 0-1.6.1-2.4.2-1.9-1.8-3.7-3.6-3.6-2.1.1-3.4 1.6-3.6 3.6-.2 2.1 0 4.1.3 6.1.3 1.8 2.7 3 4.4 2.5 2.1-.6 3-2.4 2.6-4.4zm26.2-17.3c-6.7.2-12.2 3.8-13.1 10.7-.6 4.5 6.6 4.5 7.1 0 .6-4.6 12-5.2 12-.4-.1 4.6 7.1 4.6 7.1 0 .1-7.2-6.7-10.5-13.1-10.3zm68.4 9.2c-.7-6.1-5.3-10.8-11.7-10.6-6.3.2-11 5.4-12.5 11.2-1.1 4.5 5.8 6.4 6.9 1.9.6-2.5 2.1-5.2 4.8-5.8 2.4-.6 5 .8 5.3 3.3.5 4.5 7.7 4.5 7.2 0zm-35.1 4.3c-.2-4.6-7.3-4.6-7.1 0 .2 3.4.3 6.9.5 10.3.2 4.6 7.3 4.6 7.1 0-.2-3.5-.4-6.9-.5-10.3zm.5 26.8c-.6-.1-2 .1-2.1.1h-3.1c-2.4 0-4.7-.2-7.1-.5-4.5-.6-6.4 6.3-1.9 6.9 4.4.6 8.9.9 13.3.7 3.1-.2 7.2-.7 7-4.7-.1-3.4-4.2-4.2-6.1-2.5zm-9.3 17.6c-14.4.5-28-3.9-39.5-12.6-3.7-2.8-7.2 3.4-3.6 6.2 12.4 9.4 27.5 14.1 43.1 13.6 4.6-.2 4.7-7.3 0-7.2zm47.2-13.2c-9.7 8.9-22.1 13.3-35.2 12.9-4.6-.1-4.6 7 0 7.1 15 .5 29.2-4.9 40.3-15 3.3-3-1.7-8.1-5.1-5zm-24.9 34.5c-11 4.4-22.7 3.8-33-2.2-4-2.3-7.6 3.9-3.6 6.2 11.8 6.8 25.8 8 38.5 2.9 4.2-1.7 2.4-8.6-1.9-6.9zm-52.5-2.7c-8.6 2.7-19 5.7-26 11.6-7.3 6.2-11 17.1-13.1 26.1-1.1 4.5 5.8 6.4 6.9 1.9 1.8-7.8 4.9-18 11.6-23.1 6.3-4.8 15-7.2 22.5-9.6 4.3-1.4 2.5-8.3-1.9-6.9z"/><path class="st0" d="M74.2 212.7c-3.2 0-7 0-9.5-2.3-3.3-3.1-8.4 1.9-5.1 5.1 4 3.8 9.3 4.3 14.5 4.4 4.7 0 4.7-7.1.1-7.2zm5.9-3.1c-1.2 10.6-1.9 21.2-2.2 31.8-.1 4.6 7 4.6 7.1 0 .3-10.6 1-21.3 2.2-31.8.6-4.5-6.6-4.5-7.1 0zM62.8 226c.1-4.6-7-4.6-7.1 0-.1 3.6 0 7.1.3 10.7.3 4.6 7.5 4.6 7.1 0-.2-3.6-.3-7.1-.3-10.7zm101.4-58.6c8.6 2.7 19 5.7 26 11.6 7.3 6.2 11 17.1 13.1 26.1 1.1 4.5-5.8 6.4-6.9 1.9-1.8-7.8-4.9-18-11.6-23.1-6.3-4.8-15-7.2-22.5-9.6-4.3-1.4-2.5-8.3 1.9-6.9z"/><path class="st0" d="M184.6 212.7c3.2 0 7 0 9.5-2.3 3.3-3.1 8.4 1.9 5.1 5.1-4 3.8-9.3 4.3-14.5 4.4-4.6 0-4.6-7.1-.1-7.2zm-5.9-3.1c1.2 10.6 1.9 21.2 2.2 31.8.1 4.6-7 4.6-7.1 0-.3-10.6-1-21.3-2.2-31.8-.6-4.5 6.6-4.5 7.1 0zM196 226c-.1-4.6 7-4.6 7.1 0 .1 3.6 0 7.1-.3 10.7-.3 4.6-7.5 4.6-7.1 0 .2-3.6.3-7.1.3-10.7z"/></g></svg>