<svg id="Layer_1" xmlns="http://www.w3.org/2000/svg" viewBox="0 0 256 256"><style>.st0{fill:#c564eb}</style><g id="Layer_2_1_"><path class="st0" d="M64.6 89.4c-4.4-4.4-11.5-4.4-16.1-.2-3.4 3.1 1.7 8.2 5.1 5.1 1.7-1.6 4.4-1.4 6 .2 3.2 3.2 8.3-1.9 5-5.1zm31.5-2.1c-4.8-5.4-12.7-4.3-16.8 1.2-1.2 1.5-.2 4 1.3 4.9 1.8 1.1 3.7.3 4.9-1.3 1.5-2 4.2-1.4 5.6.3 3.1 3.4 8.1-1.7 5-5.1zm-16.7 18.9c-3.7 1.9-8 2.1-11.8.4-4.2-1.9-7.8 4.3-3.6 6.2 6.3 2.8 12.9 2.7 19-.4 4.1-2.1.5-8.3-3.6-6.2zm21.6-5c-.1-4.6-7.3-4.6-7.1 0 .1 4.1-.1 8.1-.6 12.2-.3 1.9 1.8 3.6 3.6 3.6 2.1 0 3.3-1.7 3.6-3.6.4-4.1.6-8.1.5-12.2zm-2.2-54.8c-6-9.4-17.5-8.1-27-6.2-11 2.3-21.7 6.8-30.8 13.4-7.3 5.3-15.8 12.9-10.8 22.6 2.1 4.1 8.2.5 6.2-3.6-3.3-6.5 8.9-13.5 13.1-16.1 5.8-3.6 12.1-6.3 18.7-8.1 6-1.7 13.9-3.9 20-1.9 8.9 3 8.2 15.3 3.3 21.4-2.8 3.6 2.2 8.6 5.1 5.1 5.8-7.5 7.6-18.1 2.2-26.6z"/><path class="st0" d="M56.5 71.8c.6.8-.1-.1-.2-.3-.1-.2-.3-.5-.4-.7 0-.1-.1-.2-.1-.2-.1-.3-.2-.6-.3-1-.4-1.8-2.6-3.1-4.4-2.5-1.9.6-2.9 2.4-2.5 4.4.5 2 1.5 3.8 2.8 5.4.5.7 1.7 1 2.5 1 .9 0 1.9-.4 2.5-1 .6-.7 1.1-1.6 1-2.5.1-1-.3-1.8-.9-2.6zm11.3-2.2c0-.1-.2-.5-.3-.7-.1-.2-.2-.4-.2-.6-.2-.6-.4-1.3-.6-2-.5-1.8-2.6-3.1-4.4-2.5-1.9.6-3 2.5-2.5 4.4.4 1.7 1.1 3.4 1.9 5 .8 1.7 3.3 2.3 4.9 1.3 1.6-1.1 2.1-3.1 1.2-4.9zM80 68.4c.3.6-.1-.2-.1-.4-.1-.4-.2-.7-.3-1.1-.2-.7-.3-1.4-.4-2.1-.3-1.9-2.7-3-4.4-2.5-2 .7-2.8 2.4-2.5 4.4.3 1.9.9 3.6 1.6 5.3.7 1.7 3.4 2.2 4.9 1.3 1.7-1.2 2-3.1 1.2-4.9zm-42.5 35.8c-3.3 1.6-7.2.1-8.1-3.6-.4-1.5-.1-3 .4-4.5.2-.6 2.1-4.5 2.9-4.4 4.5 1 6.4-5.9 1.9-6.9-8.4-1.8-13.9 10.1-12.3 17.1 1.9 8.6 11.2 12 18.7 8.3 4.2-1.8.6-8-3.5-6zM87.6 119c-6.4 3-13.3 4.5-20.3 4.1-6.2-.4-15.2-1.8-18.6-7.6-2.3-4-8.5-.4-6.2 3.6 9.1 15.5 35.2 12.5 48.7 6.1 4.2-2 .6-8.1-3.6-6.2z"/><path class="st0" d="M77.7 136c-6 1.3-15 2.4-19.5-2.8-3-3.5-8 1.6-5.1 5.1 6.2 7.3 18 6.5 26.4 4.6 4.6-1 2.7-7.9-1.8-6.9zm-34.1 25.1c-5.7-.3-16.5-4.3-12.5-11.5 2.8-5 8.4-9.3 12.9-12.8 3.6-2.8-1.5-7.8-5.1-5.1-4.3 3.3-8.2 7-11.7 11.2-2.5 3.1-6.5 7.1-5.3 11.4 2.5 8.7 13.5 13.3 21.6 13.8 4.7.5 4.6-6.7.1-7zM95.5 144c-1.1-4.5-8-2.6-6.9 1.9 3.2 13 6.2 26.3 2.4 39.5-1.3 4.4 5.6 6.3 6.9 1.9 4.1-14.5 1-29.1-2.4-43.3zm-7.6 48.6c-8.6 1-17.5 1.5-26.2.5-4.7-.5-11.5-1.3-13.5-6.1-1.6-3.7-1.1-9.3-.7-13.2.4-4.6-6.8-4.6-7.1 0-.4 5.3-.4 11.5 1.4 16.7 1.5 4.3 5.2 6.3 9.3 7.7 11.5 4 25.1 3 36.9 1.7 4.5-.6 4.5-7.8-.1-7.3zm-40.4 41c-1.8-9.6-2.1-19.1-1.1-28.8.5-4.6-6.7-4.5-7.1 0-1.1 10.3-.5 20.5 1.4 30.7.8 4.5 7.7 2.6 6.8-1.9zm28.8-25.1c-2.6 1.8-5.2 3.6-7.7 5.4-1.4 1-1.9 2.3-1.6 4 1.1 6.6-1.2 13.2-.6 19.8.4 4.5 7.5 4.6 7.1 0-.5-6.4 1.1-12.7.7-19 1.9-1.4 3.8-2.7 5.8-4.1 3.6-2.5.1-8.7-3.7-6.1zm21.6-4.8c-1-4.5-7.9-2.6-6.9 1.9 2.3 9.7 1.6 19.5.9 29.4-.3 4.6 6.8 4.6 7.1 0 .8-10.6 1.3-21-1.1-31.3zm-63.6-11.6c-9.8-4.3-10.3-14.1-5.9-22.8 2.1-4.1-4.1-7.7-6.2-3.6-6 11.8-5 26.7 8.5 32.6 4.2 1.8 7.8-4.4 3.6-6.2zm76.2-41c-1.9-6.5-5.5-12.4-10.5-17-3.4-3.1-8.4 1.9-5.1 5.1 4.1 3.8 7.1 8.4 8.7 13.8 1.3 4.4 8.2 2.5 6.9-1.9zm3 21.2c-.6-4.5-7.7-4.6-7.1 0 .5 4.2.7 8.3-1.1 12.2-1.5 3.2-3.9 5.8-6.2 8.5-3 3.5 2 8.5 5.1 5.1 6.6-8 10.6-15.1 9.3-25.8zm30.3-151.8c-2-4.7-7-7.1-12.1-6.3-3.7.6-6.6 2.7-8.7 5.4-2.2-3.3-5.2-5.8-9.8-6.3-6.4-.7-12.4 3.2-14.3 9.5-2.1 6.9 2 13.7 7.1 18.1 4 3.4 13.3 9.4 18.8 8.8 1.6-.2 2.7-1 3.2-2.2 10.2-4.7 21.1-14.8 15.8-27zm-6.3 8.8c-1.7 6.3-7.7 10-13.4 12.2-.5.2-.9.5-1.2.8-2.6-.7-5.8-2.8-7.6-3.8-3-1.7-6-3.9-7.9-6.8-2.4-3.7-2.5-9.4 2.5-11s7.8 3 9.4 6.9c1.3 3.1 5.6 2.9 6.8.7.3-.3.6-.7.8-1.1 1.2-2.7 3.7-6.3 7.2-5.9 3.9.4 4.2 4.9 3.4 8zm57.4 88.1c-4.9 7.1-13.2 10.3-21.5 11-7.9.6-18.5.6-25.4-4-6.8-4.6-8-13.8-8.3-21.3-.3-8.5.7-16.9 2.8-25.1 3 2.7 7.1 4.4 11.7 5.3 4.5.9 6.4-6 1.9-6.9-5.6-1.1-10.7-2.6-11.4-9.2-.7-6.2 2.7-11.5 9.1-12.4 4.5-.6 2.6-7.5-1.9-6.9-9.4 1.3-15 10.2-14.3 19.3.1 1.8.5 3.3.9 4.8-1.1.2-2.1 1-2.5 2.4-4.5 16.8-8.8 47.1 10 57.1 8.6 4.6 20.8 5 30.3 3.7 10-1.3 18.9-5.8 24.7-14.2 2.6-3.8-3.5-7.4-6.1-3.6z"/><path class="st0" d="M174.5 73.9c-5.3 0-9.9-3.2-10.6-8.7-.7-5.2 2.6-8.7 6.4-11.8 3.5-2.9-1.5-8-5.1-5.1-6.2 5.1-10.3 12.3-7.9 20.6 2.3 7.6 9.4 12.1 17.2 12.1 4.6.1 4.6-7.1 0-7.1z"/><path class="st0" d="M191.7 75.5c-4.3-2.6-8.7-6.3-8.7-11.8 0-5.2 3.5-9.3 7.4-12.3 3.6-2.9-1.5-7.9-5.1-5.1-5.9 4.6-10.1 11.4-9.4 19.1.7 7.3 6.1 12.6 12.1 16.2 4.1 2.5 7.7-3.7 3.7-6.1z"/><path class="st0" d="M233.5 92.5c-15.6-2.8-8.4-20.9-14.6-31-5.8-9.5-17.8-10.7-27.5-7.4-4.3 1.5-2.5 8.4 1.9 6.9 6-2.1 13.1-2.6 17.9 2.2 4.7 4.7 3.6 12.1 4.4 18.1 1.2 9.2 6.7 16.4 16.1 18.1 4.4.8 6.3-6.1 1.8-6.9zm-5 11.3c-1.6 3.9-6.2 6.2-10.3 5.4-4.5-.9-6.4 6-1.9 6.9 8.2 1.6 15.9-2.7 19.1-10.4 1.8-4.2-5.1-6.1-6.9-1.9zm-13.4-3.9c-1.9-6.8-9.2-10.4-15.7-8.2-4.3 1.5-2.5 8.4 1.9 6.9 2.8-.9 6.2 0 6.9 3.3.7 3.1-3.9 3.8-6 4.2-4.5 1-2.6 7.9 1.9 6.9 6.3-1.5 13.1-5.5 11-13.1zm-62.6-3.6c-2.1-.7-4.4-1-6.6-.9-1.9.1-3.7 1.6-3.6 3.6.1 1.9 1.6 3.7 3.6 3.6 1.9-.1 2.9.1 4.7.7s4-.7 4.4-2.5c.5-2.1-.6-3.8-2.5-4.5zm35.3 2.2c-2.7-4-9.1-2.9-13.1-2.1-4.5 1-2.6 7.9 1.9 6.9 1.2-.3 2.3-.4 3.5-.4.6 0 1.7-.1 2.3 0 2.8 2.3 7.7-1 5.4-4.4zm-16.9 14.9c-.5-1.7-2.6-3.2-4.4-2.5-2.4 1-4.6 1.3-7.1.6-4.4-1.2-6.3 5.7-1.9 6.9 3.6 1 7.5.9 10.9-.6 1.7-.7 3-2.3 2.5-4.4zm14.9 24.1c-6.9 2.8-13.9 3.3-21.1 1.4-4.4-1.2-6.3 5.7-1.9 6.9 8.3 2.2 16.9 1.8 24.9-1.4 4.2-1.7 2.4-8.7-1.9-6.9z"/><path class="st0" d="M199.2 163.6c-.7-4.5-7.6-2.6-6.9 1.9 1.4 9.1 2.3 18.3 2.7 27.4-.1 0-.2 0-.3.1-8 3.2-16.4 5.1-25.1 4.4-4.4-.4-8.9-1.5-12.9-3.3-1.7-.8-3.5-1.6-5-2.8-3.4-2.7-2.1-4.5-1.2-8 1.5-5.5 5.5-10.8 1.8-16-2.9-4.1-7.3-6.3-5.2-12.2 1.3-3.6 5.1-6.8 7.4-9.9 2.7-3.7-3.5-7.3-6.2-3.6-5.2 7.1-12.7 14-7.2 23.3 1.1 1.9 2.7 3.3 4 5 2 2.9.7 4.5-.3 7.6-1.3 3.9-3.6 9.8-2.2 14 2.5 7.6 15.4 11.3 22.3 12.5 10.8 1.9 21.6-.1 31.7-4 .9-.4 1.5-.9 1.9-1.6 1.9.2 3.9-1 3.8-3.4-.5-10.6-1.5-21-3.1-31.4zm12.5-10.4c-2.4-6.9-6.6-12.5-12.5-16.8-3.7-2.7-7.3 3.5-3.6 6.2 4.3 3.1 7.5 7.5 9.2 12.5 1.5 4.4 8.4 2.5 6.9-1.9z"/><path class="st0" d="M213.4 160.6c-1.6-4.3-8.5-2.4-6.9 1.9 3.5 9.4 4.5 19.1 2.7 29.1-.8 4.5 6.1 6.4 6.9 1.9 2.1-11.2 1.3-22.3-2.7-32.9zm-.4 38.8c-2-.5-3.7.7-4.4 2.5-.3.8-1 1.8-2 2-.4.1-1.4-.1-1.4-.7-.4-4.5-7.5-4.6-7.1 0 .4 4.4 3.8 7.9 8.4 7.8 4.4 0 7.6-3.4 9-7.2.6-1.8-.8-3.9-2.5-4.4zm-5.5 35.3c-1-6.2-2-12.5-3-18.7-.7-4.5-7.6-2.6-6.9 1.9 1 6.2 2 12.5 3 18.7.7 4.5 7.6 2.6 6.9-1.9zm-64.8-33.9c-5.8 11.1-9.2 23-10.3 35.5-.4 4.6 6.7 4.6 7.1 0 1-11.2 4.1-21.9 9.3-31.9 2.2-4.1-3.9-7.7-6.1-3.6zm-9.6-32.5c-3.3 9.9-5.5 23-.5 32.7 2.1 4.1 8.3.5 6.2-3.6-4-7.8-1.4-19.4 1.3-27.2 1.4-4.3-5.5-6.2-7-1.9z"/></g></svg>