<?xml version="1.0" encoding="utf-8"?>
<!-- Generator: Adobe Illustrator 21.0.2, SVG Export Plug-In . SVG Version: 6.00 Build 0)  -->
<svg version="1.1" id="Layer_1" xmlns="http://www.w3.org/2000/svg" xmlns:xlink="http://www.w3.org/1999/xlink" x="0px" y="0px"
	 viewBox="0 0 256 256" style="enable-background:new 0 0 256 256;" xml:space="preserve">
<style type="text/css">
	.st0{fill:#8D2AD4;}
	.st1{fill:#5FED76;}
	.st2{fill:#5FE8B5;}
	.st3{fill:#13B6BE;}
	.st4{fill:#25C8FE;}
	.st5{fill:#6AD968;}
	.st6{fill:#85F1B2;}
	.st7{fill:#122251;}
</style>
<g id="Layer_4">
	<g>
		<g>
			<g>
				<g id="XMLID_1_">
					<g>
						<g>
							<path class="st0" d="M233.6,173.7c0,2.1-0.2,4.1-0.5,6c-21.5,5.2-37.1-11.4-37.1-11.4c3.8-4.1,7.3-8.5,10.3-13.3
								c3.6-5.8,6.8-12,9.2-18.5l0,0C226.5,145.3,233.6,158.8,233.6,173.7z"/>
						</g>
						<g>
							<path class="st1" d="M196.2,168.5c0,0,15.5,16.6,37.1,11.4c-1.4,10.6-6.3,20.2-13.6,27.5c-6.5,6.5-14.7,11-23.8,12.9
								c1.1-4.9,1.6-9,1.6-14.4c0-11.2-2.7-21.8-7.6-31.1C191.9,172.7,194.1,170.7,196.2,168.5z"/>
						</g>
						<g>
							<path class="st2" d="M190.2,59.7c6.2-1.4,11.7-3.9,15.2-8.7c10.1,15.2,16.1,33.3,16.1,52.9c0,11.5-2.1,22.6-5.8,32.8
								c-2.4,6.5-5.5,12.8-9.2,18.5l-0.2-0.2c-2.4,0.3-4.6,0.3-6.9,0.3c-10.6,0-20.7-2.7-29.4-7.4c-19.3-10.4-32.2-30.8-32.2-54.3
								c0-2.8,0.2-5.7,0.6-8.5c1.4-10.6,5.5-20.2,11.7-28.4C149.6,56.9,172.7,63.5,190.2,59.7z"/>
						</g>
						<g>
							<path class="st3" d="M206.1,155.1l0.2,0.2c-3,4.7-6.5,9.2-10.3,13.3c-2.1,2.2-4.1,4.3-6.3,6.3c-5.5-10.6-13.6-19.4-23.7-25.9
								l3.6-0.8c8.7,4.7,18.8,7.4,29.4,7.4C201.6,155.4,203.8,155.4,206.1,155.1z"/>
						</g>
						<g>
							<path class="st4" d="M197.3,205.9c0,5.2-0.3,9.5-1.6,14.4c-3.2,0.6-6.3,0.9-9.6,0.9H66c-0.8,0-1.4,0-2.1,0
								c-1.1-4.9-1.7-9.9-1.7-15.3c0-9.5,1.9-18.6,5.5-26.7c16.1,12.6,36.5,20,58.4,20c24.5,0,46.7-9.3,63.6-24.5
								C194.6,184.1,197.3,194.7,197.3,205.9z"/>
						</g>
						<g>
							<path class="st0" d="M189.6,32.9c6,5.4,11.4,11.4,15.8,18.2c-3.5,4.7-9,7.4-15.2,8.7c-17.4,3.8-40.4-2.8-40.4-2.8
								C159.1,44.3,173.3,35.4,189.6,32.9z"/>
						</g>
						<g>
							<path class="st5" d="M166.2,148.9c9.9,6.5,18.2,15.3,23.7,25.9c-16.9,15.2-39.1,24.5-63.6,24.5c-22.1,0-42.3-7.4-58.4-20
								c5.8-13.4,15.8-24.6,28.4-31.9c9.9-5.7,21.3-9,33.6-9C143.1,138.3,155.6,142.1,166.2,148.9z"/>
						</g>
						<g>
							<path class="st3" d="M169.7,148l-3.6,0.8c-10.6-6.8-23-10.6-36.5-10.6c-12.3,0-23.7,3.3-33.6,9l-0.5-0.8
								c22.3-12.6,38.2-34.9,42.3-61.2l0,0c-0.3,2.8-0.6,5.7-0.6,8.5C137.5,117.2,150.6,137.5,169.7,148z"/>
						</g>
						<g>
							<path class="st3" d="M138.3,60.5c-0.9-6.6-2.5-13.1-4.9-19.3c20.7-9.8,33.1-23.5,33.1-23.5c8.5,3.9,16.3,9.2,23.2,15.3
								c-16.3,2.5-30.3,11.4-39.8,24c-6.2,8.1-10.3,17.8-11.7,28.4l0,0c0.6-4.3,0.9-8.7,0.9-13.3C139,68.1,138.7,64.3,138.3,60.5z"
								/>
						</g>
						<g>
							<path class="st5" d="M166.4,17.6c0,0-12.5,13.7-33.1,23.5c-4.6-12-12-22.7-21.2-31.6c4.6-0.6,9.3-0.9,14-0.9
								C140.5,8.6,154.2,11.9,166.4,17.6z"/>
						</g>
						<g>
							<path class="st6" d="M107.2,49.6c9.6-1.7,18.5-4.7,26-8.5c2.4,6.2,4.1,12.6,4.9,19.3c0.5,3.8,0.8,7.6,0.8,11.5
								c0,4.6-0.3,9-0.9,13.3c-4.1,26.2-20.2,48.6-42.3,61.2c-12.5,7.1-26.8,11-42.1,11c-2.1,0-4.1,0-6-0.2l-0.2,0.2
								c-4.4-6.5-8.1-13.4-10.7-20.8c-3.8-10.3-5.8-21.3-5.8-32.8c0-22.7,7.9-43.6,21.3-60C52.1,43.9,71.6,55.8,107.2,49.6z"/>
						</g>
						<g>
							<path class="st5" d="M112.1,9.7c9.3,8.7,16.6,19.4,21.2,31.6c-7.6,3.6-16.4,6.8-26,8.5c-3.3-10.9-9-22.7-18.5-33.5
								C96.1,13.2,104,10.9,112.1,9.7z"/>
						</g>
						<g>
							<path class="st3" d="M95.6,146.5l0.5,0.8c-12.6,7.3-22.6,18.5-28.4,31.9c-3.5-2.7-6.8-5.7-9.9-8.8
								c-3.8-3.9-7.3-8.2-10.4-12.8l0.2-0.2c2.1,0.2,3.9,0.2,6,0.2C68.8,157.6,83.2,153.5,95.6,146.5z"/>
						</g>
						<g>
							<path class="st5" d="M88.8,16.2c9.5,10.6,15.2,22.4,18.5,33.5c-35.7,6.2-55.1-5.7-55.1-5.7C61.9,31.9,74.5,22.3,88.8,16.2z"
								/>
						</g>
						<g>
							<path class="st1" d="M62.2,205.9c0,5.2,0.6,10.4,1.7,15.3c-19.6-0.8-36.3-13.9-42.5-31.6c28.1,3.2,36.3-19.3,36.3-19.3
								c3.2,3.2,6.5,6.2,9.9,8.8C64.1,187.3,62.2,196.3,62.2,205.9z"/>
						</g>
						<g>
							<path class="st0" d="M47.3,157.4c3.2,4.6,6.6,8.8,10.4,12.8c0,0-8.2,22.6-36.3,19.3l0,0c-1.7-4.9-2.7-10.3-2.7-15.8
								c0-7.6,1.7-14.5,4.9-20.8s7.6-11.8,13.1-16.3C39.3,144,42.9,151.1,47.3,157.4z"/>
						</g>
					</g>
					<g>
						<g>
							<path class="st7" d="M126.1,204c-22.6,0-43.8-7.3-61.3-21.1c-3.4-2.6-6.8-5.7-10.4-9.2c-4-4.2-7.7-8.7-11-13.4
								c-4.7-6.9-8.5-14.3-11.3-21.9c-4.1-11-6.1-22.6-6.1-34.4c0-23.3,7.7-45.1,22.4-63c10-12.5,23.3-22.5,38.4-29
								c7.5-3.3,15.8-5.6,24.5-7c4.8-0.7,9.8-1,14.8-1c14.8,0,29.4,3.3,42.3,9.5c8.6,4,16.8,9.4,24.3,16
								c6.3,5.4,11.8,11.8,16.4,18.9c11,16.6,16.9,35.8,16.9,55.5c0,11.8-2.1,23.4-6.1,34.5c-2.4,6.6-5.8,13.3-9.6,19.4
								c-3,4.8-6.6,9.4-10.8,13.9c-2.1,2.3-4.3,4.4-6.6,6.6C174.4,194.9,150.7,204,126.1,204z M126.1,13.5c-4.6,0-9.1,0.3-13.4,0.9
								c-7.9,1.2-15.3,3.3-22.1,6.3c-13.7,5.9-25.8,15-34.8,26.2c-13.3,16.2-20.3,35.9-20.3,57c0,10.7,1.9,21.2,5.5,31.2
								c2.5,6.9,5.9,13.5,10.2,19.8c3,4.3,6.3,8.4,9.9,12.2c3.2,3.2,6.3,6,9.4,8.4c15.9,12.5,35.1,19.1,55.5,19.1
								c22.3,0,43.7-8.3,60.5-23.3c2.1-1.9,4-3.9,6-6c3.7-4,7-8.3,9.7-12.6c3.5-5.5,6.5-11.5,8.7-17.6c3.7-10,5.6-20.5,5.6-31.2
								c0-17.9-5.3-35.2-15.3-50.3l0,0c-4.2-6.4-9.1-12.1-14.8-17c-6.9-6.1-14.3-11-22.1-14.6C152.7,16.4,139.5,13.5,126.1,13.5z"/>
						</g>
						<g>
							<path class="st7" d="M16.8,191.1c-2-5.5-3-11.4-3-17.4c0-8.1,1.8-15.8,5.4-23c3.5-7,8.3-13,14.4-17.8l5.9,7.4
								c-5,4-8.9,8.9-11.8,14.7c-2.9,5.8-4.4,12.1-4.4,18.7c0,4.9,0.8,9.7,2.4,14.2L16.8,191.1z"/>
						</g>
						<g>
							<path class="st7" d="M186.1,225.9l-122.4,0c-21-0.8-39.8-14.8-46.7-34.7l8.9-3.1c5.7,16.3,21,27.7,38.1,28.4h122.1
								c3,0,5.8-0.3,8.7-0.9c8-1.7,15.5-5.7,21.4-11.6c6.6-6.6,11-15.4,12.2-24.7c0.3-1.8,0.4-3.6,0.4-5.4c0-13-5.9-25.2-16.2-33.4
								l5.9-7.4c12.6,10,19.8,24.9,19.8,40.8c0,2.3-0.2,4.6-0.5,6.8c-1.5,11.2-6.8,21.9-14.9,30c-7.3,7.3-16.3,12.2-26.2,14.2
								C193.1,225.6,189.7,225.9,186.1,225.9z"/>
						</g>
						<g>
							<path class="st7" d="M111.6,92.9c-0.2,0-0.4,0-0.6,0c-2.6-0.3-4.5-2.6-4.2-5.2c0-0.3,1.8-17.1-4.2-36.6
								C99,39,93.1,28.3,85.1,19.3c-1.7-2-1.5-5,0.4-6.7s5-1.5,6.7,0.4c8.8,10,15.4,21.9,19.4,35.2c6.7,21.5,4.7,39.7,4.6,40.4
								C116,91.1,114,92.9,111.6,92.9z"/>
						</g>
						<g>
							<path class="st7" d="M87.1,56.1c-23.8,0-36.9-7.7-37.5-8.2l4.9-8.1c0.2,0.1,18.6,10.8,51.8,5.1c8.7-1.6,17.3-4.4,24.7-8.1
								c19.7-9.3,31.6-22.3,31.8-22.5l7,6.4c-0.5,0.6-13.3,14.5-34.6,24.6c-8.3,4.1-17.4,7.1-27.2,8.9
								C100.3,55.6,93.4,56.1,87.1,56.1z"/>
						</g>
						<g>
							<path class="st7" d="M53.5,162.3c-2.1,0-4.3,0-6.4-0.2c-2.6-0.2-4.5-2.5-4.3-5.1c0.2-2.6,2.5-4.6,5.1-4.3
								c1.7,0.1,3.6,0.1,5.6,0.1c14.1,0,27.8-3.6,39.8-10.4c21.3-12.1,36.2-33.8,40-57.9c0.6-4,0.9-8.2,0.9-12.5
								c0-3.3-0.2-6.8-0.8-10.9c-0.7-5.9-2.3-12-4.6-18.1c-4.3-11.5-11-21.5-20-29.8l-0.3-0.3c-1.9-1.8-1.9-4.8,0-6.7
								c1.8-1.9,4.8-1.9,6.7,0l0.2,0.2c9.9,9.2,17.4,20.4,22.2,33.3c2.6,6.8,4.4,13.7,5.2,20.4c0.6,4.5,0.8,8.3,0.8,12.1
								c0,4.8-0.3,9.5-1,14c-4.2,26.9-20.9,51.1-44.6,64.7C84.6,158.3,69.2,162.3,53.5,162.3z"/>
						</g>
						<g>
							<path class="st7" d="M199.2,160.1c-11.1,0-22-2.8-31.6-8c-21.4-11.6-34.7-34-34.7-58.5c0-3.5,0.2-6.5,0.7-9.3
								c1.5-11,5.7-21.3,12.6-30.5c10.5-14,25.7-23.2,42.8-25.8c2.6-0.4,5,1.4,5.4,4c0.4,2.6-1.4,5-4,5.4
								c-14.7,2.3-27.7,10.1-36.7,22.2c-5.9,7.8-9.5,16.6-10.8,26.2c-0.4,2.4-0.6,5-0.6,7.9c0,21,11.4,40.2,29.7,50.1
								c8.2,4.5,17.6,6.8,27.1,6.8c2.3,0,4.3,0,6.3-0.3c2.6-0.3,5,1.5,5.3,4.1c0.3,2.6-1.5,5-4.1,5.3
								C204.1,160.1,201.7,160.1,199.2,160.1z"/>
						</g>
						<g>
							<path class="st7" d="M59.3,222.1c-1.2-5.4-1.9-10.9-1.9-16.4c0-10.1,2.1-20,5.9-28.6c6.2-14.2,17-26.4,30.4-34
								c11.2-6.4,23.3-9.6,36-9.6c13.7,0,27.2,3.9,39,11.3c10.8,7,19.6,16.6,25.4,27.7c5.3,10.1,8.1,21.6,8.1,33.3
								c0,4.6-0.2,9.7-1.7,15.5l-9.2-2.4c1.2-4.6,1.4-8.6,1.4-13.2c0-10.3-2.4-20-7-28.9c-5.1-9.7-12.7-18-22.1-24.1
								c-10.2-6.4-22-9.8-33.9-9.8c-11,0-21.5,2.8-31.3,8.4c-11.6,6.7-21,17.2-26.4,29.7c-3.4,7.5-5.1,16-5.1,24.8
								c0,4.7,0.5,9.5,1.6,14.3L59.3,222.1z"/>
						</g>
						<g>
							<path class="st7" d="M224.8,185.6c-18.8,0-31.4-13.2-32-13.9l6.9-6.5c0.6,0.6,14,14.5,32.5,10l0.5-0.1h0.6
								c-0.4,0-1.7,0.1-2.9,1.2l6.7,6.7c-0.6,0.6-1.6,1.3-3.1,1.5C230.8,185.3,227.7,185.6,224.8,185.6z"/>
						</g>
						<g>
							<path class="st7" d="M26.8,194.5c-1.9,0-3.9-0.1-5.9-0.4l1.1-9.4c23.9,2.8,31-15.4,31.3-16.2l8.9,3.3
								C59.2,180.1,48.1,194.5,26.8,194.5z"/>
						</g>
						<g>
							<path class="st7" d="M177.9,65.6c-14.8,0-28.8-4-29.6-4.2l2.6-9.1c0.2,0.1,22.1,6.3,38.1,2.8c5.9-1.4,9.9-3.6,12.3-6.8
								c0.1-0.2,0.2-0.3,0.3-0.5l0.1-0.1c0,0-0.2,0.2-0.3,0.6l9,3c-0.3,1-0.9,1.8-1.2,2.2l-0.3,0.4c-3.8,5.2-9.6,8.6-17.9,10.5
								C186.8,65.3,182.3,65.6,177.9,65.6z"/>
						</g>
						<g>
							<path class="st7" d="M178,108.7c-2.4,0-4.4-1.8-4.7-4.2c-3.2-26.1,12.4-46.8,13.1-47.7c1.6-2.1,4.6-2.5,6.6-0.9
								c2.1,1.6,2.5,4.6,0.9,6.6c-0.2,0.2-13.9,18.6-11.2,40.7c0.3,2.6-1.5,5-4.1,5.3C178.4,108.6,178.2,108.7,178,108.7z"/>
						</g>
						<g>
							<path class="st7" d="M209.6,98.9c-0.1,0-0.2,0-0.3,0c-2.6-0.2-4.6-2.4-4.4-5.1c0-0.5,0-3.5-3-4.8c-2.7-1.1-4.8,1.8-4.9,1.9
								c-1.5,2.1-4.5,2.6-6.6,1.1c-2.1-1.5-2.6-4.5-1.1-6.6c2.2-3.1,8.5-8.2,16.2-5.1c7.5,3.2,9.1,10.4,8.8,14.2
								C214.2,97,212.1,98.9,209.6,98.9z"/>
						</g>
						<g>
							<path class="st7" d="M172.7,83.2l-9.2-2.2c0-0.1,0.3-2.2-2.1-4.5c-1.9-1.9-6.2-0.8-7.2-0.5c-2.5,0.9-5.2-0.4-6.1-2.8
								c-0.9-2.5,0.4-5.2,2.8-6.1c3.9-1.4,12-2.5,17.1,2.7C174.2,75.9,172.9,82.5,172.7,83.2z"/>
						</g>
						<g>
							<path class="st7" d="M178.3,123.3c-0.9,0-1.8-0.1-2.7-0.2c-8-1.3-12.6-7.9-13.1-8.7c-1.4-2.2-0.8-5.1,1.3-6.6
								c2.2-1.4,5.1-0.9,6.5,1.3c0.1,0.1,2.8,4,6.8,4.6c2.5,0.4,5.2-0.6,8.1-2.8c2.1-1.6,5-1.3,6.6,0.8c1.6,2.1,1.3,5-0.8,6.6
								C186.9,121.7,182.6,123.3,178.3,123.3z"/>
						</g>
						<g>
							<path class="st7" d="M63.8,85.3c-0.3,0-0.5,0-0.8-0.1c-2.6-0.4-4.3-2.9-3.9-5.4c0.6-3.8,4-11.3,12.3-12.3
								c7.8-0.9,12.9,3.6,14.8,6.4c1.4,2.2,0.8,5.1-1.4,6.6c-2.2,1.4-5.1,0.8-6.6-1.4c-0.1-0.2-2-2.6-5.8-2.2
								c-3.4,0.4-4.1,4.4-4.1,4.4C68,83.7,66,85.3,63.8,85.3z"/>
						</g>
						<g>
							<path class="st7" d="M125,73.6c-0.1,0-0.2,0-0.4,0c-2.6-0.2-4.6-2.5-4.4-5.1c0.1-0.9,0.9-9.3,7-12.8c2.5-1.5,6.8-2.6,13,0.4
								c0,0,0.1,0,0.1,0c2,0.6,3.4,2.4,3.4,4.5c0,2.6-2.1,4.7-4.7,4.7c-1.5,0-2.5-0.6-2.9-0.8c-1.8-0.9-3.3-1.1-4.1-0.7
								c-1.3,0.8-2.2,3.8-2.3,5.3C129.5,71.7,127.5,73.6,125,73.6z M139,55.9C139,55.9,139,55.9,139,55.9
								C139,55.9,139,55.9,139,55.9z"/>
						</g>
						<g>
							<path class="st7" d="M107.3,109.2c-8.5,0-15.7-3.4-16.2-3.7c-2.3-1.2-3.3-4-2.2-6.3c1.2-2.3,4-3.3,6.3-2.2
								c0.2,0.1,14.8,7,23.3-1.7c1.8-1.9,4.8-1.9,6.7-0.1c1.9,1.8,1.9,4.8,0.1,6.7C119.9,107.5,113.3,109.2,107.3,109.2z"/>
						</g>
						<g>
							<path class="st7" d="M93.3,171c-0.9,0-1.8-0.3-2.6-0.8c-2.2-1.5-2.8-4.4-1.3-6.6c2.5-3.7,9.8-9.7,19.9-6.1
								c2.5,0.9,3.8,3.6,2.9,6c-0.9,2.5-3.6,3.7-6,2.9c-5.8-2-8.7,2.2-8.8,2.4C96.3,170.3,94.8,171,93.3,171z"/>
						</g>
						<g>
							<path class="st7" d="M127.4,168.5c-2.4,0-4.4-1.8-4.7-4.2c-1.4-12-7.4-18.7-7.4-18.8c-1.8-1.9-1.7-4.9,0.2-6.7
								c1.9-1.8,4.9-1.7,6.7,0.2c0.3,0.4,8.2,8.9,9.9,24.2c0.3,2.6-1.6,4.9-4.2,5.2C127.7,168.5,127.5,168.5,127.4,168.5z"/>
						</g>
						<g>
							<path class="st7" d="M155.3,161.2c-1.1,0-2.3-0.4-3.2-1.3c-3-2.7-6.3-0.5-7.2,0.2c-2,1.6-5,1.3-6.6-0.7s-1.3-5,0.7-6.6
								c3.6-2.9,12.2-6.7,19.6,0.2c1.9,1.8,2,4.8,0.3,6.7C157.8,160.7,156.6,161.2,155.3,161.2z"/>
						</g>
						<g>
							<path class="st7" d="M128,185.6c-5.2,0-9.6-1.1-10.5-1.3c-2.5-0.7-4.1-3.2-3.4-5.8c0.7-2.5,3.2-4,5.8-3.4l0,0
								c3.8,1,12.7,2,16-1c1.9-1.7,4.9-1.6,6.7,0.4c1.7,1.9,1.6,4.9-0.4,6.7C138.4,184.6,132.8,185.6,128,185.6z"/>
						</g>
						<g>
							<path class="st7" d="M126.1,253.4c-2.6,0-4.7-2.1-4.7-4.7v-25.9c0-2.6,2.1-4.7,4.7-4.7c2.6,0,4.7,2.1,4.7,4.7v25.9
								C130.8,251.3,128.7,253.4,126.1,253.4z"/>
						</g>
					</g>
				</g>
			</g>
		</g>
	</g>
</g>
<g id="Layer_5">
</g>
</svg>
