<?xml version="1.0" encoding="UTF-8"?>
<svg width="428px" height="207px" viewBox="0 0 428 207" version="1.1" xmlns="http://www.w3.org/2000/svg" xmlns:xlink="http://www.w3.org/1999/xlink">
    <!-- Generator: Sketch 49.3 (51167) - http://www.bohemiancoding.com/sketch -->
    <title>logo-top</title>
    <desc>Created with Sketch.</desc>
    <defs></defs>
    <g id="Page-1" stroke="none" stroke-width="1" fill="none" fill-rule="evenodd">
        <g id="Artboard" fill-rule="nonzero">
            <g id="logo-top">
                <path d="M253,77 C253,77.9 252.9,78.8 252.8,79.7 C243.2,82 236.2,74.6 236.2,74.6 C237.9,72.8 239.4,70.8 240.8,68.7 C242.5,66.1 243.8,63.3 244.9,60.4 C249.9,64.3 253,70.3 253,77 Z" id="Shape" fill="#8D2AD4"></path>
                <path d="M236.3,74.6 C236.3,74.6 243.2,82 252.9,79.7 C252.3,84.5 250.1,88.7 246.9,92 C244,94.9 240.3,96.9 236.2,97.8 C236.7,95.6 236.9,93.8 236.9,91.4 C236.9,86.4 235.7,81.7 233.5,77.5 C234.4,76.5 235.4,75.6 236.3,74.6 Z" id="Shape" fill="#5FED76"></path>
                <path d="M233.6,25.9 C236.4,25.3 238.8,24.1 240.4,22 C244.9,28.8 247.6,36.9 247.6,45.7 C247.6,50.9 246.7,55.8 245,60.4 C243.9,63.3 242.5,66.1 240.9,68.7 L240.8,68.6 C239.8,68.7 238.7,68.8 237.7,68.8 C232.9,68.8 228.5,67.6 224.5,65.5 C215.9,60.8 210.1,51.7 210.1,41.2 C210.1,39.9 210.2,38.6 210.4,37.4 C211,32.7 212.9,28.3 215.6,24.7 C215.5,24.7 225.8,27.6 233.6,25.9 Z" id="Shape" fill="#5FE8B5"></path>
                <path d="M240.7,68.6 C239.4,70.8 237.9,72.7 236.2,74.6 C235.3,75.6 234.3,76.5 233.3,77.4 C230.8,72.7 227.2,68.7 222.7,65.8 L224.3,65.4 C228.2,67.5 232.7,68.7 237.5,68.7 C238.7,68.8 239.7,68.7 240.7,68.6 Z" id="Shape" fill="#13B6BE"></path>
                <path d="M236.8,91.3 C236.8,93.7 236.6,95.5 236.1,97.7 C234.7,98 233.3,98.1 231.8,98.1 L178,98.1 C177.7,98.1 177.4,98.1 177.1,98.1 C176.6,95.9 176.3,93.6 176.3,91.3 C176.3,87 177.2,83 178.8,79.3 C186,84.9 195.1,88.3 205,88.3 C216,88.3 225.9,84.2 233.5,77.4 C235.6,81.6 236.8,86.3 236.8,91.3 Z" id="Shape" fill="#25C8FE"></path>
                <path d="M233.3,13.9 C236,16.3 238.4,19 240.4,22 C238.8,24.1 236.4,25.3 233.6,25.9 C225.8,27.6 215.5,24.7 215.5,24.7 C219.7,19 226,15.1 233.3,13.9 Z" id="Shape" fill="#8D2AD4"></path>
                <path d="M222.8,65.8 C227.2,68.7 230.9,72.6 233.4,77.4 C225.9,84.2 215.9,88.3 204.9,88.3 C195,88.3 186,85 178.7,79.3 C181.3,73.3 185.8,68.3 191.4,65 C195.8,62.5 201,61 206.4,61 C212.5,61.1 218.1,62.8 222.8,65.8 Z" id="Shape" fill="#6AD968"></path>
                <path d="M224.5,65.4 L222.9,65.8 C218.2,62.8 212.6,61 206.6,61 C201.1,61 196,62.5 191.6,65 L191.4,64.7 C201.4,59.1 208.5,49.1 210.4,37.3 C210.2,38.5 210.1,39.8 210.1,41.1 C210,51.7 215.9,60.8 224.5,65.4 Z" id="Shape" fill="#13B6BE"></path>
                <path d="M210.4,26.3 C210,23.3 209.2,20.4 208.2,17.7 C217.4,13.3 223,7.1 223,7.1 C226.8,8.9 230.3,11.2 233.4,13.9 C226.1,15 219.8,19 215.6,24.7 C212.9,28.3 211,32.7 210.4,37.4 C210.7,35.5 210.9,33.5 210.9,31.5 C210.7,29.7 210.6,28 210.4,26.3 Z" id="Shape" fill="#13B6BE"></path>
                <path d="M222.9,7.1 C222.9,7.1 217.3,13.3 208.1,17.7 C206,12.3 202.8,7.5 198.6,3.6 C200.6,3.3 202.7,3.1 204.9,3.1 C211.4,3.1 217.5,4.5 222.9,7.1 Z" id="Shape" fill="#6AD968"></path>
                <path d="M196.5,21.4 C200.8,20.7 204.7,19.3 208.2,17.6 C209.3,20.3 210,23.2 210.4,26.2 C210.6,27.9 210.7,29.6 210.7,31.4 C210.7,33.4 210.5,35.4 210.2,37.3 C208.4,49 201.2,59 191.2,64.7 C185.6,67.9 179.2,69.7 172.3,69.7 C171.4,69.7 170.5,69.7 169.6,69.6 C167.6,66.7 166,63.6 164.8,60.3 C163.1,55.7 162.2,50.8 162.2,45.6 C162.2,35.4 165.8,26.1 171.7,18.8 C171.8,18.9 180.5,24.2 196.5,21.4 Z" id="Shape" fill="#85F1B2"></path>
                <path d="M198.7,3.5 C202.8,7.4 206.1,12.2 208.2,17.6 C204.8,19.2 200.9,20.6 196.5,21.4 C195,16.5 192.5,11.2 188.3,6.5 C191.5,5.1 195,4.1 198.7,3.5 Z" id="Shape" fill="#6AD968"></path>
                <path d="M191.3,64.8 L191.5,65.1 C185.9,68.3 181.4,73.3 178.8,79.4 C177.2,78.2 175.7,76.8 174.4,75.4 C172.7,73.6 171.1,71.7 169.8,69.7 C170.7,69.8 171.6,69.8 172.5,69.8 C179.3,69.7 185.7,67.9 191.3,64.8 Z" id="Shape" fill="#13B6BE"></path>
                <path d="M188.2,6.5 C192.4,11.2 195,16.5 196.4,21.4 C180.4,24.2 171.7,18.8 171.7,18.8 C176.2,13.5 181.8,9.2 188.2,6.5 Z" id="Shape" fill="#6AD968"></path>
                <path d="M176.3,91.3 C176.3,93.7 176.6,95.9 177.1,98.1 C168.3,97.7 160.9,91.9 158.1,84 C170.7,85.4 174.4,75.3 174.4,75.3 C175.8,76.7 177.3,78.1 178.8,79.3 C177.2,83 176.3,87.1 176.3,91.3 Z" id="Shape" fill="#5FED76"></path>
                <path d="M169.7,69.7 C171.1,71.7 172.6,73.6 174.3,75.4 C174.3,75.4 170.6,85.5 158,84.1 C157.2,81.9 156.8,79.5 156.8,77.1 C156.8,73.7 157.6,70.6 159,67.7 C160.4,64.9 162.4,62.4 164.9,60.5 C166.1,63.7 167.7,66.8 169.7,69.7 Z" id="Shape" fill="#8D2AD4"></path>
                <g id="Group" fill="#122251">
                    <path d="M204.9,90.4 C194.8,90.4 185.4,87.1 177.4,81 C175.8,79.7 174.2,78.3 172.7,76.8 C170.9,75 169.3,72.9 167.8,70.8 C165.7,67.8 164,64.5 162.8,61 C161,56.1 160.1,50.9 160.1,45.6 C160.1,35.4 163.6,25.3 170.1,17.4 C174.7,11.7 180.6,7.3 187.3,4.4 C190.8,2.9 194.5,1.9 198.2,1.3 C200.4,1 202.6,0.8 204.8,0.8 C211.4,0.8 217.8,2.2 223.7,5 C227.7,6.9 231.3,9.3 234.6,12.2 C237.4,14.7 239.9,17.6 242,20.7 C246.9,28.1 249.5,36.7 249.5,45.5 C249.5,50.8 248.6,56 246.8,60.9 C245.7,63.9 244.2,66.9 242.5,69.6 C241.1,71.8 239.5,73.9 237.7,75.8 C236.8,76.8 235.8,77.8 234.7,78.8 C226.6,86.4 216,90.4 204.9,90.4 Z M204.9,5.2 C202.9,5.2 200.9,5.3 198.9,5.6 C195.5,6.1 192.2,7 189,8.4 C182.9,11 177.6,15 173.4,20.2 C167.6,27.4 164.4,36.4 164.4,45.7 C164.4,50.5 165.2,55.2 166.9,59.6 C168,62.7 169.6,65.7 171.4,68.4 C172.7,70.3 174.2,72.1 175.8,73.8 C177.1,75.2 178.5,76.4 180,77.6 C187.2,83.2 195.8,86.1 204.9,86.1 C214.9,86.1 224.5,82.4 232,75.7 C233,74.8 233.9,73.9 234.7,73 C236.3,71.3 237.8,69.4 239,67.4 C240.6,64.9 241.9,62.3 242.9,59.5 C244.5,55 245.4,50.4 245.4,45.6 C245.4,37.6 243,29.8 238.6,23.1 C236.7,20.3 234.5,17.7 231.9,15.4 C229,12.8 225.6,10.6 222.1,8.9 C216.7,6.5 210.9,5.2 204.9,5.2 Z" id="Shape"></path>
                    <path d="M156.1,84.7 C155.2,82.2 154.8,79.6 154.8,76.9 C154.8,73.3 155.6,69.8 157.2,66.6 C158.7,63.5 161,60.8 163.6,58.6 L166.2,61.9 C164,63.7 162.2,65.9 160.9,68.4 C159.6,71 158.9,73.9 158.9,76.8 C158.9,79 159.3,81.1 160,83.1 L156.1,84.7 Z" id="Shape"></path>
                    <path d="M231.8,100.3 L178,100.3 C177.7,100.3 177.3,100.3 177,100.3 C167.6,99.9 159.2,93.6 156.1,84.8 L160.1,83.4 C162.7,90.7 169.6,95.8 177.2,96.1 L178.1,96.1 L231.9,96.1 C233.2,96.1 234.5,96 235.7,95.7 C239.3,95 242.7,93.2 245.3,90.5 C248.3,87.5 250.2,83.6 250.7,79.5 C250.8,78.7 250.9,77.9 250.9,77.1 C250.9,71.3 248.3,65.8 243.6,62.2 L246.2,58.9 C251.8,63.4 255.1,70 255.1,77.2 C255.1,78.3 255,79.2 254.9,80.2 C254.3,85.2 251.9,90 248.3,93.7 C245.1,96.9 241,99.1 236.5,100.1 C235,100.1 233.4,100.3 231.8,100.3 Z" id="Shape"></path>
                    <path d="M198.5,40.8 C198.4,40.8 198.3,40.8 198.3,40.8 C197.1,40.7 196.3,39.6 196.4,38.5 C196.4,38.4 197.2,30.9 194.5,22.1 C192.8,16.7 190.2,11.9 186.7,8 C185.9,7.1 186,5.8 186.9,5 C187.8,4.2 189.1,4.3 189.9,5.2 C193.8,9.6 196.8,14.9 198.6,20.9 C201.5,30.5 200.7,38.6 200.6,39 C200.4,40 199.5,40.8 198.5,40.8 Z" id="Shape"></path>
                    <path d="M187.5,24.3 C176.8,24.3 171,20.8 170.7,20.6 L172.9,17 L171.8,18.8 L172.9,17 C173,17 181.2,21.9 196.1,19.3 C199.8,18.7 203.6,17.4 207.2,15.7 C215.9,11.5 221.3,5.7 221.3,5.6 L224.4,8.4 C224.2,8.7 218.4,14.9 209,19.4 C205,21.3 200.9,22.6 196.8,23.4 C193.4,24.1 190.3,24.3 187.5,24.3 Z" id="Shape"></path>
                    <path d="M172.4,71.8 C171.4,71.8 170.5,71.8 169.6,71.7 C168.4,71.6 167.6,70.6 167.6,69.4 C167.7,68.2 168.7,67.3 169.9,67.4 C170.7,67.5 171.6,67.5 172.4,67.5 C178.7,67.5 184.8,65.9 190.2,62.8 C199.9,57.3 206.4,47.9 208.1,36.9 C208.4,35.1 208.5,33.2 208.5,31.3 C208.5,29.7 208.4,28 208.2,26.4 C207.8,23.6 207.1,20.9 206.1,18.2 C204.2,13.2 201.1,8.7 197.2,5 L197.1,4.9 C196.3,4.2 196.2,2.9 196.8,2 C197.5,1.1 198.8,0.9 199.8,1.6 C199.8,1.6 199.9,1.7 199.9,1.7 L200,1.8 C204.4,5.9 207.9,11.1 210,16.7 C211.1,19.6 211.9,22.7 212.3,25.8 C212.5,27.6 212.7,29.4 212.7,31.2 C212.7,33.3 212.5,35.4 212.2,37.5 C210.3,49.7 203,60.3 192.2,66.4 C186.3,70 179.4,71.8 172.4,71.8 Z" id="Shape"></path>
                    <path d="M237.6,70.9 C232.7,70.9 227.8,69.7 223.4,67.3 C213.8,62.1 207.8,52.1 207.8,41.2 C207.8,39.8 207.9,38.5 208.1,37.1 C208.8,32.2 210.7,27.4 213.7,23.4 C218.4,17.1 225.2,13 232.9,11.8 C234.1,11.6 235.1,12.4 235.3,13.6 C235.5,14.8 234.7,15.8 233.5,16 C226.9,17 221.1,20.6 217.1,25.9 C214.5,29.3 212.9,33.4 212.3,37.6 C212.1,38.8 212.1,40 212.1,41.1 C212.1,50.4 217.2,59 225.4,63.5 C229.1,65.5 233.3,66.6 237.5,66.6 C238.5,66.6 239.4,66.5 240.4,66.4 C241.6,66.3 242.6,67.1 242.7,68.3 C242.8,69.5 242,70.5 240.8,70.6 C239.9,70.8 238.7,70.9 237.6,70.9 Z" id="Shape"></path>
                    <path d="M175.6,99.7 L175.1,99.3 L175,98.7 C174.5,96.3 174.2,93.9 174.2,91.4 C174.2,87 175.1,82.6 176.8,78.6 C179.6,72.2 184.4,66.8 190.4,63.3 C195.3,60.5 200.8,59 206.5,59 C212.7,59 218.7,60.8 223.9,64.1 C228.7,67.2 232.6,71.5 235.2,76.5 C237.6,81.1 238.8,86.2 238.8,91.4 C238.8,94 238.6,96 238.1,98.3 L234,97.3 C234.5,95.3 234.6,93.7 234.6,91.4 C234.6,86.8 233.5,82.5 231.5,78.5 C229.2,74.1 225.8,70.4 221.7,67.7 C217.2,64.8 211.9,63.3 206.5,63.3 C201.6,63.3 196.7,64.6 192.5,67 C187.3,70 183.1,74.7 180.7,80.3 C179.2,83.8 178.4,87.6 178.4,91.4 C178.4,93.3 178.6,95.3 179,97.1 L179.2,97.3 L179.2,98.2 L177.1,98.2 L175.6,99.7 Z" id="Shape"></path>
                    <path d="M249,82.2 C240.6,82.2 235,76.3 234.7,76 L237.8,73.1 C238.1,73.4 244.1,79.6 252.3,77.6 L252.5,77.5 L253.4,81.6 L253.2,81.6 C251.8,82.1 250.4,82.2 249,82.2 Z" id="Shape"></path>
                    <path d="M160.4,86.3 C159.6,86.3 158.7,86.3 157.8,86.1 L158,84 L158,81.9 L158.2,81.9 C168.9,83.1 172.1,75 172.2,74.6 L176.2,76.1 C175,79.8 170,86.3 160.4,86.3 Z" id="Shape"></path>
                    <path d="M228.1,28.6 C221.5,28.6 215.2,26.8 214.9,26.7 L216.1,22.6 C216.2,22.6 226,25.4 233.2,23.8 C235.8,23.2 237.6,22.2 238.7,20.7 C238.8,20.6 238.9,20.4 239,20.3 L242.6,22.5 C242.4,22.8 242.3,23 242.1,23.2 C240.4,25.6 237.7,27.1 234.1,27.9 C232.1,28.4 230.1,28.6 228.1,28.6 Z" id="Shape"></path>
                    <path d="M228.1,47.8 C227,47.8 226.1,47 226,45.9 C224.6,34.2 231.6,25 231.9,24.6 C232.6,23.7 233.9,23.5 234.9,24.2 C235.8,24.9 236,26.2 235.3,27.2 C235.2,27.3 229.1,35.5 230.3,45.4 C230.4,46.6 229.6,47.6 228.4,47.8 C228.3,47.8 228.2,47.8 228.1,47.8 Z" id="Shape"></path>
                    <path d="M242.2,43.5 C242.1,43.5 242.1,43.5 242,43.5 C240.8,43.4 240,42.4 240,41.2 C240,41 240,39.6 238.7,39.1 C237.6,38.6 236.7,39.7 236.5,39.9 C235.8,40.8 234.5,41.1 233.6,40.4 C232.7,39.7 232.4,38.4 233.1,37.5 C234.1,36.1 236.9,33.8 240.4,35.2 C243.7,36.6 244.4,39.8 244.3,41.5 C244.3,42.6 243.3,43.5 242.2,43.5 Z" id="Shape"></path>
                    <path d="M225.8,36.4 L221.7,35.4 L221.7,35.5 C221.7,35.4 221.8,34.5 220.8,33.4 C220,32.6 218.2,33 217.6,33.2 C216.5,33.6 215.3,33 214.9,31.9 C214.5,30.8 215,29.6 216.1,29.2 C217.9,28.5 221.4,28.1 223.8,30.4 C226.5,33.2 225.9,36.1 225.8,36.4 Z" id="Shape"></path>
                    <path d="M228.3,54.4 C227.9,54.4 227.5,54.4 227.1,54.3 C223.5,53.7 221.5,50.7 221.2,50.4 C220.6,49.4 220.8,48.1 221.8,47.5 C222.8,46.9 224.1,47.1 224.7,48.1 C224.7,48.2 225.9,49.9 227.8,50.2 C228.9,50.4 230.1,50 231.4,48.9 C232.3,48.2 233.7,48.3 234.4,49.3 C235.1,50.2 235,51.6 234,52.3 C232.1,53.6 230.2,54.4 228.3,54.4 Z" id="Shape"></path>
                    <path d="M177,37.3 C176.9,37.3 176.7,37.3 176.6,37.3 C175.5,37.1 174.7,36 174.9,34.9 C175.2,33.1 176.7,29.8 180.4,29.4 C183.8,29 186.2,31 187,32.2 C187.7,33.2 187.4,34.5 186.4,35.1 C185.4,35.8 184.1,35.5 183.5,34.5 C183.4,34.4 182.6,33.3 180.9,33.5 C179.5,33.7 179.1,35.5 179.1,35.6 C178.9,36.6 178,37.3 177,37.3 Z" id="Shape"></path>
                    <path d="M204.5,32.2 C204.4,32.2 204.4,32.2 204.3,32.2 C203.1,32.1 202.3,31.1 202.4,29.9 C202.4,29.5 202.8,25.7 205.6,24.2 C206.7,23.6 208.6,23.1 211.4,24.4 C211.5,24.5 211.6,24.5 211.8,24.6 L211.9,24.6 C212.9,25.1 213.3,26.4 212.8,27.5 C212.3,28.5 211,28.9 209.9,28.4 L209.8,28.4 C209.8,28.4 209.7,28.4 209.7,28.3 L209.6,28.3 C208.8,27.9 208.1,27.8 207.8,28 C207.2,28.3 206.8,29.6 206.8,30.4 C206.5,31.3 205.5,32.2 204.5,32.2 Z" id="Shape"></path>
                    <path d="M196.5,48.1 C192.7,48.1 189.5,46.6 189.3,46.4 C188.3,45.9 187.8,44.6 188.3,43.6 C188.8,42.6 190.1,42.1 191.1,42.6 C191.2,42.7 197.7,45.7 201.5,41.8 C202.3,41 203.7,40.9 204.5,41.8 C205.3,42.6 205.4,44 204.5,44.8 C202.1,47.3 199.2,48.1 196.5,48.1 Z" id="Shape"></path>
                    <path d="M190.2,75.7 C189.8,75.7 189.4,75.6 189,75.4 C188,74.8 187.7,73.4 188.4,72.5 C189.5,70.8 192.8,68.1 197.3,69.8 C198.4,70.2 199,71.4 198.6,72.5 C198.2,73.6 197,74.2 195.9,73.8 C193.3,72.9 192,74.8 192,74.9 C191.6,75.4 190.9,75.7 190.2,75.7 Z" id="Shape"></path>
                    <path d="M205.5,74.6 C204.4,74.6 203.5,73.8 203.4,72.7 C202.8,67.3 200.1,64.4 200.1,64.3 C199.3,63.4 199.4,62.1 200.2,61.3 C201.1,60.5 202.4,60.5 203.2,61.4 C203.3,61.6 206.9,65.4 207.6,72.2 C207.7,73.4 206.9,74.4 205.7,74.5 C205.7,74.6 205.6,74.6 205.5,74.6 Z" id="Shape"></path>
                    <path d="M212,71.4 C211.4,71.4 210.8,71.1 210.4,70.6 C209.7,69.7 209.8,68.4 210.7,67.6 C212.3,66.3 216.2,64.7 219.5,67.7 C220.4,68.5 220.4,69.8 219.6,70.7 C218.8,71.6 217.5,71.6 216.6,70.8 C216.4,70.7 215.1,69.5 213.4,70.9 C212.9,71.2 212.5,71.4 212,71.4 Z" id="Shape"></path>
                    <path d="M205.8,82.2 C203.5,82.2 201.5,81.7 201.1,81.6 C200,81.3 199.3,80.1 199.6,79 C199.9,77.9 201.1,77.2 202.2,77.5 C203.9,77.9 207.9,78.4 209.3,77.1 C210.2,76.3 211.5,76.4 212.3,77.2 C213.1,78.1 213,79.4 212.2,80.2 C210.4,81.8 208,82.2 205.8,82.2 Z" id="Shape"></path>
                    <path d="M204.9,112.6 C203.7,112.6 202.8,111.7 202.8,110.5 L202.8,99 C202.8,97.8 203.7,96.9 204.9,96.9 C206.1,96.9 207,97.8 207,99 L207,110.5 C207,111.6 206.1,112.6 204.9,112.6 Z" id="Shape"></path>
                    <path d="M2.8,116.3 L3.4,116.4 L8.3,116.4 L8.8,116.3 C10.5,116.7 11.4,117.5 11.4,118.9 C11.1,120.6 10.3,121.5 8.9,121.5 L8.4,121.5 L8.4,160.7 L9.2,160.7 C10.3,160.7 11.1,161.5 11.4,163.2 L11.4,163.3 C11.1,164.9 10.3,165.8 8.9,165.8 L2.7,165.8 C1.1,165.5 0.2,164.7 0.2,163.3 L0.2,163.2 C0.5,161.5 1.3,160.7 2.4,160.7 L3.2,160.7 L3.2,121.5 L2.7,121.5 C1.3,121.5 0.4,120.6 0.2,118.8 L0.2,118.7 C0.4,117.5 1.2,116.7 2.8,116.3 Z" id="Shape"></path>
                    <path d="M20.5,116.8 L21,116.8 C22.5,117.1 23.3,117.8 23.3,118.9 L23.3,160.8 L44.4,160.8 C45.8,160.8 46.6,161.7 46.9,163.5 C46.4,165 45.6,165.8 44.4,165.8 L20.8,165.8 C19.5,165.8 18.7,164.9 18.3,163.2 L18.3,119.7 C18.5,117.7 19.2,116.8 20.5,116.8 Z" id="Shape"></path>
                    <path d="M54.6,116.8 L55.1,116.8 C56.6,117.1 57.4,117.8 57.4,118.9 L57.4,160.8 L78.5,160.8 C79.9,160.8 80.7,161.7 81,163.5 C80.5,165 79.7,165.8 78.5,165.8 L54.9,165.8 C53.6,165.8 52.8,164.9 52.4,163.2 L52.4,119.7 C52.6,117.7 53.3,116.8 54.6,116.8 Z" id="Shape"></path>
                    <path d="M89.4,116.3 L90,116.4 L94.9,116.4 L95.4,116.3 C97.1,116.7 98,117.5 98,118.9 C97.7,120.6 96.9,121.5 95.5,121.5 L95,121.5 L95,160.7 L95.8,160.7 C96.9,160.7 97.7,161.5 98,163.2 L98,163.3 C97.7,164.9 96.9,165.8 95.5,165.8 L89.3,165.8 C87.7,165.5 86.8,164.7 86.8,163.3 L86.8,163.2 C87.1,161.5 87.9,160.7 89,160.7 L89.8,160.7 L89.8,121.5 L89.3,121.5 C87.9,121.5 87,120.6 86.8,118.8 L86.8,118.7 C86.9,117.5 87.7,116.7 89.4,116.3 Z" id="Shape"></path>
                    <path d="M129.8,116.7 C134.9,116.7 139.6,118.2 144,121.3 C144.3,122 144.5,122.5 144.5,122.8 L144.5,123.1 C144.5,124.6 143.6,125.4 141.8,125.6 L141.7,125.6 L137.2,123.3 C134.2,122.3 131.7,121.9 129.8,121.9 C123.7,121.9 118.4,124.7 113.9,130.3 C111.7,134.1 110.6,137.7 110.6,141.3 C110.6,148.5 114,154.2 120.7,158.4 C123.7,159.9 126.7,160.7 129.6,160.7 L130,160.7 C133.8,160.7 137.6,159.5 141.5,157.1 L142.3,157.1 C143.8,157.4 144.6,158.2 144.6,159.4 L144.6,159.8 C144.6,161.6 141.7,163.4 136,165.1 C134.2,165.6 132.3,165.9 130.3,165.9 L129.7,165.9 C121.6,165.9 114.8,162.2 109.4,154.7 C106.8,150.4 105.5,145.9 105.5,141.4 C105.5,132.9 109.4,126 117.1,120.6 C121.2,117.9 125.5,116.7 129.8,116.7 Z" id="Shape"></path>
                    <path d="M170.7,116.8 L171.2,116.8 C172.3,116.8 173.2,117.7 174,119.4 C175.3,120.8 184.6,132.8 202.1,155.3 C202.3,155.3 202.4,155.4 202.4,155.7 L202.5,155.8 L202.6,155.8 L202.6,119.1 C202.9,117.6 203.7,116.8 204.9,116.8 L205.3,116.8 C206.6,116.8 207.4,117.6 207.6,119.2 L207.6,163.1 C207.6,164.5 206.7,165.4 204.9,165.7 C203.9,165.7 202.4,164.2 200.4,161.2 L173.5,126.9 L173.5,163.3 C173.5,164.6 172.7,165.3 171,165.6 C169.7,165.6 168.9,164.7 168.5,163 L168.5,119.6 C168.7,117.8 169.5,116.8 170.7,116.8 Z" id="Shape"></path>
                    <path d="M231.4,116.9 C233,116.9 234.1,118.5 234.9,121.7 C245.2,148.6 250.5,162.4 250.6,163 L250.6,163.4 C250.6,164.7 249.8,165.4 248.2,165.7 L248.1,165.7 C246.6,165.7 245.5,164.2 244.9,161.3 L239.1,146.3 L224.1,146.3 L217.1,164.9 C216.4,165.4 215.8,165.7 215.3,165.7 L215,165.7 C213.4,165.4 212.6,164.6 212.6,163.3 L212.6,163.2 L217,151.4 C224.6,131.5 228.8,120.5 229.4,118.3 C229.9,117.4 230.7,116.9 231.4,116.9 Z M231.4,126.7 L226,141.3 L237,141.3 L237,141.2 L231.5,126.7 L231.4,126.7 Z" id="Shape"></path>
                    <path d="M256.7,116.7 L267.5,116.7 C272.1,116.7 275.8,119.1 278.7,123.9 C279.6,125.8 280.1,127.7 280.1,129.7 L280.1,130.2 C280.1,134.7 277.9,138.4 273.5,141.3 L272.2,141.9 C280,155.4 284,162.3 284,162.6 L284,163.2 C284,164.5 283.2,165.2 281.5,165.5 L281.4,165.5 C280.2,165.5 278.9,164 277.5,161.1 L266.9,143 L259.6,143 L259.6,163.2 C259.6,164.5 258.8,165.2 257.1,165.5 L257,165.5 C255.7,165.5 254.9,164.6 254.5,162.9 L254.5,119.3 C254.7,117.7 255.4,116.7 256.7,116.7 Z M259.6,121.6 L259.6,138.2 L266.9,138.2 C271,138.2 273.7,136 274.9,131.6 L275,130.5 L275,129.5 C275,126.3 273.2,123.8 269.6,122.1 C268.6,121.8 267,121.6 264.8,121.6 L259.6,121.6 Z" id="Shape"></path>
                    <path d="M290,116.7 L300.8,116.7 C305.4,116.7 309.1,119.1 312,123.9 C312.9,125.8 313.4,127.7 313.4,129.7 L313.4,130.2 C313.4,134.7 311.2,138.4 306.8,141.3 L305.5,141.9 C313.3,155.4 317.3,162.3 317.3,162.6 L317.3,163.2 C317.3,164.5 316.5,165.2 314.8,165.5 L314.7,165.5 C313.5,165.5 312.2,164 310.8,161.1 L300.2,143 L292.9,143 L292.9,163.2 C292.9,164.5 292.1,165.2 290.4,165.5 L290.3,165.5 C289,165.5 288.2,164.6 287.8,162.9 L287.8,119.3 C288.1,117.7 288.8,116.7 290,116.7 Z M292.9,121.6 L292.9,138.2 L300.2,138.2 C304.3,138.2 307,136 308.2,131.6 L308.3,130.5 L308.3,129.5 C308.3,126.3 306.5,123.8 302.9,122.1 C301.9,121.8 300.3,121.6 298.1,121.6 L292.9,121.6 Z" id="Shape"></path>
                    <path d="M338.8,116.9 C340.4,116.9 341.5,118.5 342.3,121.7 C352.6,148.6 357.9,162.4 358,163 L358,163.4 C358,164.7 357.2,165.4 355.6,165.7 L355.5,165.7 C354,165.7 352.9,164.2 352.3,161.3 L346.5,146.3 L331.5,146.3 L324.5,164.9 C323.8,165.4 323.2,165.7 322.7,165.7 L322.4,165.7 C320.8,165.4 320,164.6 320,163.3 L320,163.2 L324.4,151.4 C332,131.5 336.2,120.5 336.8,118.3 C337.3,117.4 338.1,116.9 338.8,116.9 Z M338.8,126.7 L333.4,141.3 L344.4,141.3 L344.4,141.2 L338.9,126.7 L338.8,126.7 Z" id="Shape"></path>
                    <path d="M364.1,116.7 L374.9,116.7 C379.5,116.7 383.2,119.1 386.1,123.9 C387,125.8 387.5,127.7 387.5,129.7 L387.5,130.2 C387.5,134.7 385.3,138.4 380.9,141.3 L379.6,141.9 C387.4,155.4 391.4,162.3 391.4,162.6 L391.4,163.2 C391.4,164.5 390.6,165.2 388.9,165.5 L388.8,165.5 C387.6,165.5 386.3,164 384.9,161.1 L374.3,143 L367,143 L367,163.2 C367,164.5 366.2,165.2 364.5,165.5 L364.4,165.5 C363.1,165.5 362.3,164.6 361.9,162.9 L361.9,119.3 C362.1,117.7 362.8,116.7 364.1,116.7 Z M367,121.6 L367,138.2 L374.3,138.2 C378.4,138.2 381.1,136 382.3,131.6 L382.4,130.5 L382.4,129.5 C382.4,126.3 380.6,123.8 377,122.1 C376,121.8 374.4,121.6 372.2,121.6 L367,121.6 Z" id="Shape"></path>
                    <path d="M398.4,116.5 L399,116.6 L424.4,116.6 L424.9,116.5 C426.4,116.5 427.2,117.4 427.5,119.3 C427.2,120.9 426.2,121.7 424.7,121.7 L401,121.7 L401,139.2 L416.5,139.2 L418.3,139.1 C419.5,139.1 420.2,140 420.6,141.7 C420.6,142.8 419.9,143.7 418.5,144.3 L415.9,144.2 L400.9,144.2 L400.9,160.8 L425.3,160.8 C426.5,160.8 427.2,161.7 427.5,163.5 C427,165 426.3,165.8 425.2,165.8 L398.3,165.8 C396.7,165.5 395.8,164.7 395.8,163.3 L395.8,119.1 C396,117.5 396.9,116.6 398.3,116.6 L398.3,116.5 L398.4,116.5 Z" id="Shape"></path>
                    <path d="M134.8,180.3 C134,180.3 133.4,179.7 133.4,178.9 C133.4,178.1 134,177.5 134.8,177.5 L153,177.5 C153.8,177.5 154.4,178.1 154.4,178.9 C154.4,179.7 153.8,180.3 153,180.3 L145.4,180.3 L145.4,205.3 C145.4,206.1 144.8,206.8 143.9,206.8 C143,206.8 142.4,206.2 142.4,205.3 L142.4,180.3 L134.8,180.3 Z" id="Shape"></path>
                    <path d="M158.6,206.5 C157.8,206.5 157.1,205.9 157.1,205 L157.1,179 C157.1,178.2 157.7,177.5 158.6,177.5 L172.4,177.5 C173.1,177.5 173.7,178.1 173.7,178.8 C173.7,179.5 173.1,180.1 172.4,180.1 L160.1,180.1 L160.1,190.4 L169.5,190.4 C170.2,190.4 170.8,191 170.8,191.7 C170.8,192.4 170.2,193 169.5,193 L160.1,193 L160.1,203.6 L172.9,203.6 C173.6,203.6 174.2,204.2 174.2,204.9 C174.2,205.6 173.6,206.2 172.9,206.2 L158.6,206.2 L158.6,206.5 Z" id="Shape"></path>
                    <path d="M183.2,205.3 C183.2,206.1 182.6,206.8 181.7,206.8 C180.8,206.8 180.2,206.2 180.2,205.3 L180.2,179 C180.2,178.2 180.8,177.5 181.7,177.5 L190.2,177.5 C195,177.5 198.4,181.1 198.4,185.7 C198.4,190.1 195.4,193.7 190.7,193.9 L198.6,204.4 C198.8,204.7 198.9,205 198.9,205.3 C198.9,206.1 198.3,206.8 197.4,206.8 C197,206.8 196.5,206.6 196.2,206.1 L187.5,193.9 L183.2,193.9 L183.2,205.3 Z M183.2,191.3 L190.4,191.3 C193.4,191.3 195.6,188.9 195.6,185.8 C195.6,182.6 193.4,180.3 190.3,180.3 L183.3,180.3 L183.3,191.3 L183.2,191.3 Z" id="Shape"></path>
                    <path d="M208.3,197.9 L205.2,205.8 C205,206.4 204.5,206.8 203.8,206.8 C203,206.8 202.3,206.1 202.3,205.3 C202.3,205.1 202.3,204.8 202.4,204.7 L212.9,178.2 C213.1,177.7 213.5,177.2 214.3,177.2 C215,177.2 215.5,177.7 215.7,178.2 L226.2,204.7 C226.3,204.9 226.3,205.2 226.3,205.3 C226.3,206.1 225.7,206.8 224.8,206.8 C224.1,206.8 223.6,206.4 223.4,205.8 L220.3,197.9 L208.3,197.9 Z M214.3,182.1 L209.2,195.2 L219.4,195.2 L214.3,182.1 Z" id="Shape"></path>
                    <path d="M234.7,205.3 C234.7,206.1 234.1,206.8 233.2,206.8 C232.4,206.8 231.7,206.2 231.7,205.3 L231.7,179 C231.7,178.2 232.3,177.5 233.2,177.5 L241.7,177.5 C246.3,177.5 249.9,180.2 249.9,185.9 C249.9,191.5 246.4,194.3 241.7,194.3 L234.6,194.3 L234.6,205.3 L234.7,205.3 Z M234.7,191.7 L241.4,191.7 C244.9,191.7 247.1,189.7 247.1,185.9 C247.1,182.1 244.9,180.2 241.4,180.2 L234.7,180.2 L234.7,191.7 Z" id="Shape"></path>
                    <path d="M257.2,205.3 C257.2,206.1 256.6,206.8 255.7,206.8 C254.9,206.8 254.2,206.1 254.2,205.3 L254.2,178.6 C254.2,177.8 254.8,177.1 255.7,177.1 C256.5,177.1 257.2,177.8 257.2,178.6 L257.2,205.3 Z" id="Shape"></path>
                    <path d="M267.8,197.9 L264.7,205.8 C264.5,206.4 264,206.8 263.3,206.8 C262.5,206.8 261.8,206.1 261.8,205.3 C261.8,205.1 261.8,204.8 261.9,204.7 L272.4,178.2 C272.6,177.7 273,177.2 273.8,177.2 C274.5,177.2 275,177.7 275.2,178.2 L285.7,204.7 C285.8,204.9 285.8,205.2 285.8,205.3 C285.8,206.1 285.2,206.8 284.3,206.8 C283.6,206.8 283.1,206.4 282.9,205.8 L279.8,197.9 L267.8,197.9 Z M273.8,182.1 L268.7,195.2 L278.9,195.2 L273.8,182.1 Z" id="Shape"></path>
                </g>
            </g>
        </g>
    </g>
</svg>