<?xml version="1.0" encoding="UTF-8"?>
<svg width="531px" height="93px" viewBox="0 0 531 93" version="1.1" xmlns="http://www.w3.org/2000/svg" xmlns:xlink="http://www.w3.org/1999/xlink">
    <!-- Generator: Sketch 49.3 (51167) - http://www.bohemiancoding.com/sketch -->
    <title>logo</title>
    <desc>Created with Sketch.</desc>
    <defs></defs>
    <g id="logo" stroke="none" stroke-width="1" fill="none" fill-rule="evenodd">
        <g fill-rule="nonzero">
            <g id="Layer_4">
                <g id="XMLID_1_">
                    <g id="Group" transform="translate(2.000000, 1.000000)">
                        <path d="M80.2,62.2 C80.2,63 80.2,63.7 80,64.4 C72,66.3 66.3,60.2 66.3,60.2 C67.7,58.7 69,57 70.1,55.3 C71.5,53.2 72.6,50.9 73.5,48.4 C77.6,51.7 80.2,56.7 80.2,62.2 Z" id="Shape" fill="#8D2AD4"></path>
                        <path d="M66.3,60.2 C66.3,60.2 72.1,66.3 80,64.4 C79.5,68.3 77.7,71.9 75,74.6 C72.6,77 69.6,78.7 66.1,79.4 C66.5,77.6 66.7,76 66.7,74.1 C66.7,69.9 65.7,66 63.9,62.6 C64.8,61.8 65.6,61 66.3,60.2 Z" id="Shape" fill="#5FED76"></path>
                        <path d="M64.1,19.9 C66.4,19.4 68.4,18.4 69.7,16.7 C73.5,22.3 75.6,29.1 75.6,36.3 C75.6,40.6 74.8,44.7 73.5,48.4 C72.6,50.8 71.5,53.1 70.1,55.3 L70,55.3 C69.2,55.4 68.3,55.4 67.4,55.4 C63.5,55.4 59.7,54.4 56.5,52.6 C49.4,48.7 44.5,41.2 44.5,32.5 C44.5,31.4 44.6,30.4 44.7,29.3 C45.2,25.4 46.8,21.8 49,18.8 C49.1,18.9 57.7,21.3 64.1,19.9 Z" id="Shape" fill="#5FE8B5"></path>
                        <path d="M70,55.3 C69,57.1 67.7,58.7 66.3,60.2 C65.6,61 64.8,61.8 63.9,62.5 C61.9,58.6 58.8,55.3 55.2,52.9 L56.5,52.6 C59.7,54.4 63.5,55.4 67.4,55.4 C68.3,55.4 69.2,55.4 70,55.3 Z" id="Shape" fill="#13B6BE"></path>
                        <path d="M66.8,74.1 C66.8,76.1 66.7,77.6 66.2,79.4 C65.1,79.6 63.9,79.8 62.7,79.8 L18.1,79.8 C17.8,79.8 17.6,79.8 17.3,79.8 C16.9,78 16.7,76.1 16.7,74.1 C16.7,70.6 17.4,67.2 18.7,64.2 C24.7,68.9 32.2,71.6 40.4,71.6 C49.5,71.6 57.7,68.2 64,62.6 C65.7,66 66.8,69.9 66.8,74.1 Z" id="Shape" fill="#25C8FE"></path>
                        <path d="M63.9,10 C66.1,12 68.1,14.2 69.7,16.7 C68.4,18.4 66.4,19.4 64.1,19.9 C57.7,21.3 49.1,18.9 49.1,18.9 C52.6,14.2 57.8,10.9 63.9,10 Z" id="Shape" fill="#8D2AD4"></path>
                        <path d="M55.2,53 C58.9,55.4 61.9,58.7 63.9,62.6 C57.6,68.2 49.4,71.6 40.3,71.6 C32.1,71.6 24.6,68.8 18.6,64.2 C20.8,59.2 24.5,55.1 29.1,52.4 C32.8,50.3 37,49.1 41.6,49.1 C46.7,49 51.3,50.5 55.2,53 Z" id="Shape" fill="#6AD968"></path>
                        <path d="M56.5,52.7 L55.2,53 C51.3,50.5 46.7,49.1 41.7,49.1 C37.2,49.1 32.9,50.3 29.2,52.4 L29,52.1 C37.2,47.4 43.2,39.1 44.7,29.4 C44.6,30.4 44.5,31.5 44.5,32.6 C44.6,41.3 49.4,48.8 56.5,52.7 Z" id="Shape" fill="#13B6BE"></path>
                        <path d="M44.9,20.2 C44.6,17.7 43.9,15.3 43.1,13 C50.7,9.3 55.4,4.3 55.4,4.3 C58.5,5.8 61.4,7.7 64,10 C58,10.9 52.7,14.2 49.3,18.9 C47,21.9 45.5,25.5 45,29.4 C45.2,27.8 45.4,26.2 45.4,24.5 C45.2,23.1 45.1,21.6 44.9,20.2 Z" id="Shape" fill="#13B6BE"></path>
                        <path d="M55.3,4.3 C55.3,4.3 50.7,9.4 43,13 C41.3,8.5 38.6,4.6 35.1,1.3 C36.8,1.1 38.5,0.9 40.3,0.9 C45.7,1 50.8,2.2 55.3,4.3 Z" id="Shape" fill="#6AD968"></path>
                        <path d="M33.4,16.2 C37,15.6 40.2,14.4 43.1,13.1 C44,15.4 44.6,17.8 44.9,20.3 C45.1,21.7 45.2,23.1 45.2,24.6 C45.2,26.3 45.1,27.9 44.8,29.5 C43.3,39.2 37.3,47.5 29.1,52.2 C24.5,54.8 19.2,56.3 13.5,56.3 C12.8,56.3 12,56.3 11.3,56.2 C9.7,53.8 8.3,51.2 7.3,48.5 C5.9,44.7 5.2,40.6 5.2,36.4 C5.2,28 8.2,20.2 13.1,14.2 C13,14.1 20.2,18.5 33.4,16.2 Z" id="Shape" fill="#85F1B2"></path>
                        <path d="M35.2,1.4 C38.6,4.6 41.3,8.6 43.1,13.1 C40.3,14.5 37,15.6 33.4,16.2 C32.2,12.1 30.1,7.8 26.6,3.8 C29.3,2.7 32.2,1.8 35.2,1.4 Z" id="Shape" fill="#6AD968"></path>
                        <path d="M29.1,52.1 L29.3,52.4 C24.6,55.1 20.9,59.2 18.8,64.2 C17.5,63.2 16.3,62.1 15.1,60.9 C13.7,59.4 12.4,57.9 11.3,56.2 C12,56.3 12.8,56.3 13.5,56.3 C19.1,56.2 24.5,54.7 29.1,52.1 Z" id="Shape" fill="#13B6BE"></path>
                        <path d="M26.6,3.8 C30.1,7.7 32.2,12.1 33.4,16.2 C20.2,18.5 13,14.1 13,14.1 C16.6,9.6 21.2,6.1 26.6,3.8 Z" id="Shape" fill="#6AD968"></path>
                        <path d="M16.7,74.1 C16.7,76 16.9,77.9 17.3,79.8 C10,79.5 3.9,74.7 1.5,68.1 C11.9,69.3 15,60.9 15,60.9 C16.1,62.1 17.4,63.2 18.7,64.2 C17.4,67.2 16.7,70.6 16.7,74.1 Z" id="Shape" fill="#5FED76"></path>
                        <path d="M11.2,56.2 C12.3,57.9 13.6,59.5 15,60.9 C15,60.9 11.9,69.3 1.5,68.1 C0.9,66.3 0.5,64.3 0.5,62.3 C0.5,59.5 1.2,56.9 2.3,54.5 C3.5,52.2 5.1,50.1 7.2,48.5 C8.2,51.2 9.6,53.8 11.2,56.2 Z" id="Shape" fill="#8D2AD4"></path>
                    </g>
                    <g id="Group" fill="#122251">
                        <path d="M42.4,74.4 C34.1,74.4 26.2,71.7 19.7,66.6 C18.3,65.5 17,64.4 15.8,63.1 C14.3,61.6 13,59.9 11.8,58.2 C10.1,55.7 8.7,53 7.6,50.1 C6.1,46 5.4,41.7 5.4,37.4 C5.4,28.9 8.3,20.6 13.7,14.1 C17.5,9.4 22.4,5.7 28,3.3 C30.9,2.1 33.9,1.2 37.1,0.7 C38.9,0.4 40.7,0.3 42.5,0.3 C48,0.3 53.3,1.5 58.2,3.8 C61.5,5.3 64.5,7.3 67.2,9.7 C69.5,11.8 71.6,14.2 73.3,16.8 C77.4,22.9 79.5,30 79.5,37.4 C79.5,41.8 78.7,46.1 77.2,50.1 C76.3,52.6 75.1,55.1 73.6,57.3 C72.4,59.1 71.1,60.9 69.6,62.4 C68.8,63.2 68,64.1 67.1,64.9 C60.3,71 51.5,74.4 42.4,74.4 Z M42.4,3.8 C40.8,3.8 39.1,3.9 37.5,4.2 C34.7,4.6 31.9,5.4 29.3,6.5 C24.3,8.6 19.8,12 16.4,16.2 C11.6,22.1 8.9,29.6 8.9,37.3 C8.9,41.3 9.6,45.1 10.9,48.8 C11.8,51.4 13.1,53.8 14.7,56.1 C15.8,57.7 17,59.2 18.4,60.6 C19.5,61.7 20.7,62.8 21.9,63.7 C27.8,68.3 34.9,70.8 42.5,70.8 C50.8,70.8 58.8,67.7 64.9,62.2 C65.7,61.5 66.5,60.7 67.1,60 C68.4,58.6 69.6,57 70.7,55.3 C72,53.3 73.1,51.1 73.9,48.8 C75.3,45.1 75.9,41.2 75.9,37.3 C75.9,30.6 73.9,24.2 70.2,18.7 C68.6,16.3 66.8,14.2 64.6,12.3 C62.2,10.1 59.4,8.3 56.4,6.9 C52.1,4.8 47.3,3.8 42.4,3.8 Z" id="Shape"></path>
                        <path d="M1.9,69.6 C1.2,67.5 0.8,65.4 0.8,63.2 C0.8,60.2 1.5,57.3 2.8,54.7 C4.1,52.2 5.9,49.9 8.1,48.1 L10.3,50.8 C8.5,52.3 7,54.1 5.9,56.2 C4.8,58.4 4.3,60.7 4.3,63.2 C4.3,65 4.6,66.8 5.2,68.5 L1.9,69.6 Z" id="Shape"></path>
                        <path d="M64.6,82.5 L20.1,82.5 C19.8,82.5 19.5,82.5 19.2,82.5 C11.4,82.2 4.5,77 1.9,69.6 L5.2,68.4 C7.3,74.4 13,78.6 19.4,78.9 C19.6,78.9 19.9,78.9 20.1,78.9 L64.7,78.9 C65.8,78.9 66.9,78.8 67.9,78.6 C70.9,78 73.7,76.5 75.9,74.3 C78.4,71.8 80,68.6 80.4,65.2 C80.5,64.5 80.5,63.9 80.5,63.2 C80.5,58.4 78.3,53.9 74.5,50.8 L76.7,48 C81.4,51.7 84,57.2 84,63.1 C84,64 83.9,64.8 83.8,65.6 C83.3,69.8 81.3,73.7 78.3,76.8 C75.6,79.5 72.2,81.3 68.6,82.1 C67.3,82.4 66,82.5 64.6,82.5 Z" id="Shape"></path>
                        <path d="M37,33.2 C36.9,33.2 36.9,33.2 36.8,33.2 C35.8,33.1 35.1,32.2 35.3,31.3 C35.3,31.2 36,25 33.7,17.7 C32.3,13.2 30.2,9.3 27.2,6 C26.6,5.3 26.6,4.2 27.3,3.5 C28,2.9 29.1,2.9 29.8,3.6 C33.1,7.3 35.5,11.6 37,16.6 C39.4,24.6 38.7,31.3 38.7,31.6 C38.6,32.6 37.9,33.2 37,33.2 Z" id="Shape"></path>
                        <path d="M28,19.6 C19.2,19.6 14.3,16.7 14.1,16.6 L15.9,13.6 L15,15.1 L15.9,13.6 C16,13.6 22.8,17.6 35.1,15.5 C38.2,15 41.3,14 44.3,12.5 C51.5,9 56,4.2 56,4.2 L58.6,6.6 C58.4,6.8 53.7,12 45.8,15.7 C42.5,17.3 39.1,18.4 35.7,19 C32.8,19.4 30.3,19.6 28,19.6 Z" id="Shape"></path>
                        <path d="M15.5,59 C14.7,59 13.9,59 13.1,58.9 C12.1,58.8 11.4,58 11.5,57 C11.6,56 12.4,55.3 13.4,55.4 C14.1,55.4 14.8,55.5 15.5,55.5 C20.7,55.5 25.8,54.2 30.3,51.6 C38.3,47 43.7,39.2 45.1,30.2 C45.3,28.7 45.5,27.1 45.5,25.6 C45.5,24.3 45.4,22.9 45.2,21.6 C44.9,19.3 44.3,17 43.5,14.8 C41.9,10.7 39.4,6.9 36.1,3.8 L36,3.7 C35.3,3.1 35.2,2.1 35.8,1.3 C36.4,0.5 37.5,0.4 38.3,1 C38.3,1 38.4,1.1 38.4,1.1 L38.5,1.2 C42.1,4.6 45,8.9 46.8,13.5 C47.7,15.9 48.4,18.5 48.7,21.1 C48.9,22.6 49,24.1 49,25.6 C49,27.3 48.9,29.1 48.6,30.8 C47,40.9 41,49.7 32,54.7 C26.9,57.5 21.2,59 15.5,59 Z" id="Shape"></path>
                        <path d="M69.4,58.2 C65.3,58.2 61.3,57.2 57.7,55.2 C49.8,50.9 44.8,42.6 44.8,33.6 C44.8,32.5 44.9,31.3 45,30.2 C45.6,26.1 47.2,22.2 49.7,18.9 C53.6,13.7 59.2,10.3 65.6,9.3 C66.6,9.2 67.5,9.8 67.6,10.8 C67.7,11.8 67.1,12.7 66.1,12.8 C60.6,13.7 55.8,16.6 52.5,21 C50.4,23.8 49,27.2 48.5,30.7 C48.4,31.7 48.3,32.7 48.3,33.6 C48.3,41.3 52.5,48.5 59.3,52.2 C62.4,53.9 65.8,54.7 69.4,54.7 C70.2,54.7 71,54.7 71.8,54.6 C72.8,54.5 73.6,55.2 73.7,56.2 C73.8,57.2 73.1,58 72.1,58.1 C71.3,58.1 70.4,58.2 69.4,58.2 Z" id="Shape"></path>
                        <path d="M18.1,82 L17.7,81.6 L17.6,81.1 C17.1,79.1 16.9,77.1 16.9,75.1 C16.9,71.4 17.6,67.8 19.1,64.5 C21.4,59.2 25.4,54.7 30.4,51.9 C34.4,49.6 39.1,48.3 43.7,48.3 C48.8,48.3 53.8,49.8 58.1,52.5 C62.1,55 65.3,58.6 67.5,62.7 C69.5,66.5 70.5,70.7 70.5,75 C70.5,77.2 70.3,78.8 69.9,80.7 L66.5,79.9 C66.9,78.3 67,76.9 67,75 C67,71.2 66.1,67.6 64.4,64.3 C62.5,60.7 59.7,57.6 56.3,55.4 C52.6,53 48.2,51.7 43.7,51.7 C39.6,51.7 35.6,52.8 32.1,54.8 C27.8,57.3 24.3,61.2 22.3,65.8 C21,68.7 20.4,71.8 20.4,75 C20.4,76.6 20.6,78.2 20.9,79.8 L21.1,79.9 L21.1,80.7 L19.3,80.7 L18.1,82 Z" id="Shape"></path>
                        <path d="M78.9,67.6 C72,67.6 67.3,62.7 67.1,62.4 L69.7,60 C69.9,60.2 74.9,65.4 81.7,63.7 L81.9,63.7 L82.6,67.1 L82.4,67.1 C81.2,67.5 80,67.6 78.9,67.6 Z" id="Shape"></path>
                        <path d="M5.5,70.9 C4.8,70.9 4.1,70.9 3.4,70.8 L3.6,69.1 L3.6,67.3 L3.8,67.3 C12.6,68.3 15.3,61.6 15.4,61.3 L18.7,62.5 C17.5,65.6 13.4,70.9 5.5,70.9 Z" id="Shape"></path>
                        <path d="M61.6,23.1 C56.1,23.1 50.9,21.6 50.7,21.6 L51.7,18.2 C51.8,18.2 59.9,20.5 65.8,19.2 C67.9,18.7 69.5,17.9 70.4,16.6 C70.5,16.5 70.6,16.4 70.6,16.3 L73.6,18.1 C73.5,18.3 73.3,18.5 73.2,18.7 C71.8,20.6 69.5,22 66.5,22.6 C64.9,23 63.2,23.1 61.6,23.1 Z" id="Shape"></path>
                        <path d="M61.6,39.1 C60.7,39.1 60,38.4 59.9,37.6 C58.8,27.9 64.5,20.3 64.8,19.9 C65.4,19.1 66.5,19 67.3,19.6 C68.1,20.2 68.2,21.3 67.6,22.1 C67.5,22.2 62.4,29 63.4,37.2 C63.5,38.2 62.8,39 61.9,39.1 C61.7,39.1 61.6,39.1 61.6,39.1 Z" id="Shape"></path>
                        <path d="M73.3,35.5 C73.3,35.5 73.2,35.5 73.2,35.5 C72.2,35.4 71.5,34.6 71.6,33.6 C71.6,33.4 71.6,32.3 70.5,31.8 C69.6,31.4 68.8,32.3 68.7,32.5 C68.1,33.3 67,33.5 66.3,32.9 C65.5,32.3 65.3,31.3 65.9,30.5 C66.7,29.3 69,27.4 71.9,28.6 C74.7,29.8 75.2,32.5 75.1,33.9 C74.9,34.8 74.2,35.5 73.3,35.5 Z" id="Shape"></path>
                        <path d="M59.7,29.6 L56.3,28.8 L56.3,28.9 C56.3,28.8 56.4,28 55.5,27.2 C54.8,26.5 53.3,26.9 52.9,27 C52,27.3 51,26.9 50.7,26 C50.4,25.1 50.8,24.1 51.7,23.8 C53.1,23.3 56.1,22.8 58.1,24.8 C60.2,27 59.7,29.4 59.7,29.6 Z" id="Shape"></path>
                        <path d="M61.7,44.5 C61.4,44.5 61,44.5 60.7,44.4 C57.7,43.9 56,41.4 55.8,41.2 C55.3,40.4 55.5,39.3 56.3,38.8 C57.1,38.3 58.2,38.5 58.7,39.3 C58.7,39.3 59.7,40.8 61.2,41 C62.1,41.1 63.1,40.8 64.2,40 C65,39.4 66.1,39.5 66.7,40.3 C67.3,41.1 67.2,42.2 66.4,42.8 C64.9,43.9 63.3,44.5 61.7,44.5 Z" id="Shape"></path>
                        <path d="M19.3,30.4 C19.2,30.4 19.1,30.4 19,30.4 C18.1,30.2 17.4,29.3 17.6,28.4 C17.9,26.9 19.1,24.2 22.2,23.8 C25,23.5 27,25.1 27.7,26.1 C28.2,26.9 28,28 27.2,28.5 C26.4,29 25.3,28.8 24.8,28 C24.7,27.9 24,27 22.7,27.2 C21.5,27.3 21.2,28.8 21.2,28.9 C20.8,29.8 20.1,30.4 19.3,30.4 Z" id="Shape"></path>
                        <path d="M42,26.1 C42,26.1 41.9,26.1 41.9,26.1 C40.9,26 40.2,25.2 40.3,24.2 C40.3,23.9 40.6,20.7 42.9,19.4 C43.8,18.9 45.4,18.5 47.7,19.6 C47.8,19.6 47.9,19.7 48,19.8 L48.1,19.8 C49,20.3 49.3,21.3 48.8,22.2 C48.3,23.1 47.3,23.4 46.4,22.9 L46.3,22.9 C46.3,22.9 46.2,22.9 46.2,22.8 L46.1,22.8 C45.4,22.5 44.9,22.4 44.6,22.5 C44.1,22.8 43.8,23.8 43.7,24.5 C43.6,25.4 42.9,26.1 42,26.1 Z" id="Shape"></path>
                        <path d="M35.4,39.3 C32.2,39.3 29.6,38 29.4,37.9 C28.5,37.5 28.2,36.4 28.6,35.5 C29,34.6 30.1,34.3 30.9,34.7 C31,34.7 36.4,37.3 39.5,34.1 C40.2,33.4 41.3,33.4 42,34.1 C42.7,34.8 42.7,35.9 42,36.6 C40,38.7 37.6,39.3 35.4,39.3 Z" id="Shape"></path>
                        <path d="M30.2,62.2 C29.9,62.2 29.5,62.1 29.2,61.9 C28.4,61.4 28.2,60.3 28.7,59.5 C29.6,58.1 32.3,55.9 36.1,57.3 C37,57.6 37.5,58.6 37.1,59.6 C36.8,60.5 35.8,61 34.8,60.6 C32.7,59.8 31.6,61.4 31.6,61.5 C31.3,61.9 30.8,62.2 30.2,62.2 Z" id="Shape"></path>
                        <path d="M42.9,61.2 C42,61.2 41.3,60.5 41.2,59.6 C40.7,55.2 38.5,52.7 38.4,52.7 C37.7,52 37.8,50.9 38.5,50.2 C39.2,49.5 40.3,49.6 41,50.3 C41.1,50.4 44,53.6 44.7,59.2 C44.8,60.2 44.1,61 43.2,61.1 C43,61.2 42.9,61.2 42.9,61.2 Z" id="Shape"></path>
                        <path d="M48.2,58.6 C47.7,58.6 47.2,58.4 46.8,58 C46.2,57.2 46.3,56.1 47.1,55.5 C48.4,54.4 51.6,53.1 54.4,55.6 C55.1,56.3 55.2,57.4 54.5,58.1 C53.8,58.8 52.7,58.9 52,58.2 C51.9,58.1 50.7,57.1 49.3,58.3 C49,58.4 48.6,58.6 48.2,58.6 Z" id="Shape"></path>
                        <path d="M43.1,67.6 C41.2,67.6 39.5,67.2 39.2,67.1 C38.3,66.9 37.7,65.9 37.9,65 C38.1,64.1 39.1,63.5 40,63.7 C41.4,64.1 44.7,64.4 45.9,63.3 C46.6,62.6 47.7,62.7 48.4,63.4 C49.1,64.1 49,65.2 48.3,65.9 C46.9,67.2 44.9,67.6 43.1,67.6 Z" id="Shape"></path>
                        <path d="M42.4,92.7 C41.4,92.7 40.6,91.9 40.6,90.9 L40.6,81.3 C40.6,80.3 41.4,79.5 42.4,79.5 C43.4,79.5 44.2,80.3 44.2,81.3 L44.2,90.9 C44.1,91.9 43.3,92.7 42.4,92.7 Z" id="Shape"></path>
                    </g>
                </g>
            </g>
            <g id="Layer_3" transform="translate(103.000000, 26.000000)" fill="#122251">
                <g id="Group">
                    <path d="M2.8,0.4 L3.4,0.5 L8.3,0.5 L8.8,0.4 C10.5,0.8 11.4,1.6 11.4,3 C11.1,4.7 10.3,5.6 8.9,5.6 L8.4,5.6 L8.4,44.8 L9.2,44.8 C10.3,44.8 11.1,45.6 11.4,47.3 L11.4,47.4 C11.1,49 10.3,49.9 8.9,49.9 L2.7,49.9 C1.1,49.6 0.2,48.8 0.2,47.4 L0.2,47.3 C0.5,45.6 1.3,44.8 2.4,44.8 L3.2,44.8 L3.2,5.6 L2.7,5.6 C1.3,5.6 0.4,4.7 0.2,2.9 L0.2,2.8 C0.4,1.6 1.2,0.9 2.8,0.4 Z" id="Shape"></path>
                    <path d="M20.5,0.9 L21,0.9 C22.5,1.2 23.3,1.9 23.3,3 L23.3,44.9 L44.4,44.9 C45.8,44.9 46.6,45.8 46.9,47.6 C46.4,49.1 45.6,49.9 44.4,49.9 L20.8,49.9 C19.5,49.9 18.7,49 18.3,47.3 L18.3,3.8 C18.5,1.8 19.2,0.9 20.5,0.9 Z" id="Shape"></path>
                    <path d="M54.6,0.9 L55.1,0.9 C56.6,1.2 57.4,1.9 57.4,3 L57.4,44.9 L78.5,44.9 C79.9,44.9 80.7,45.8 81,47.6 C80.5,49.1 79.7,49.9 78.5,49.9 L54.9,49.9 C53.6,49.9 52.8,49 52.4,47.3 L52.4,3.8 C52.6,1.8 53.3,0.9 54.6,0.9 Z" id="Shape"></path>
                    <path d="M89.4,0.4 L90,0.5 L94.9,0.5 L95.4,0.4 C97.1,0.8 98,1.6 98,3 C97.7,4.7 96.9,5.6 95.5,5.6 L95,5.6 L95,44.8 L95.8,44.8 C96.9,44.8 97.7,45.6 98,47.3 L98,47.4 C97.7,49 96.9,49.9 95.5,49.9 L89.3,49.9 C87.7,49.6 86.8,48.8 86.8,47.4 L86.8,47.3 C87.1,45.6 87.9,44.8 89,44.8 L89.8,44.8 L89.8,5.6 L89.3,5.6 C87.9,5.6 87,4.7 86.8,2.9 L86.8,2.8 C86.9,1.6 87.7,0.9 89.4,0.4 Z" id="Shape"></path>
                    <path d="M129.8,0.8 C134.9,0.8 139.6,2.3 144,5.4 C144.3,6.1 144.5,6.6 144.5,6.9 L144.5,7.2 C144.5,8.7 143.6,9.5 141.8,9.7 L141.7,9.7 L137.2,7.4 C134.2,6.4 131.7,6 129.8,6 C123.7,6 118.4,8.8 113.9,14.4 C111.7,18.2 110.6,21.8 110.6,25.4 C110.6,32.6 114,38.3 120.7,42.5 C123.7,44 126.7,44.8 129.6,44.8 L130,44.8 C133.8,44.8 137.6,43.6 141.5,41.2 L142.3,41.2 C143.8,41.5 144.6,42.3 144.6,43.5 L144.6,43.9 C144.6,45.7 141.7,47.5 136,49.2 C134.2,49.7 132.3,50 130.3,50 L129.7,50 C121.6,50 114.8,46.3 109.4,38.8 C106.8,34.5 105.5,30 105.5,25.5 C105.5,17 109.4,10.1 117.1,4.7 C121.2,2 125.5,0.8 129.8,0.8 Z" id="Shape"></path>
                    <path d="M170.7,1 L171.2,1 C172.3,1 173.2,1.9 174,3.6 C175.3,5 184.6,17 202.1,39.5 C202.3,39.5 202.4,39.6 202.4,39.9 L202.5,40 L202.6,40 L202.6,3.3 C202.9,1.8 203.7,1 204.9,1 L205.3,1 C206.6,1 207.4,1.8 207.6,3.4 L207.6,47.3 C207.6,48.7 206.7,49.6 204.9,49.9 C203.9,49.9 202.4,48.4 200.4,45.4 L173.5,11 L173.5,47.4 C173.5,48.7 172.7,49.4 171,49.7 C169.7,49.7 168.9,48.8 168.5,47.1 L168.5,3.7 C168.7,1.9 169.5,1 170.7,1 Z" id="Shape"></path>
                    <path d="M231.4,1.1 C233,1.1 234.1,2.7 234.9,5.9 C245.2,32.8 250.5,46.6 250.6,47.2 L250.6,47.6 C250.6,48.9 249.8,49.6 248.2,49.9 L248.1,49.9 C246.6,49.9 245.5,48.4 244.9,45.5 L239.1,30.5 L224.1,30.5 L217.1,49.1 C216.4,49.6 215.8,49.9 215.3,49.9 L215,49.9 C213.4,49.6 212.6,48.8 212.6,47.5 L212.6,47.4 L217,35.6 C224.6,15.7 228.8,4.7 229.4,2.5 C229.9,1.5 230.7,1.1 231.4,1.1 Z M231.4,10.8 L226,25.4 L237,25.4 L237,25.3 L231.5,10.8 L231.4,10.8 Z" id="Shape"></path>
                    <path d="M256.7,0.8 L267.5,0.8 C272.1,0.8 275.8,3.2 278.7,8 C279.6,9.9 280.1,11.8 280.1,13.8 L280.1,14.3 C280.1,18.8 277.9,22.5 273.5,25.4 L272.2,26 C280,39.5 284,46.4 284,46.7 L284,47.3 C284,48.6 283.2,49.3 281.5,49.6 L281.4,49.6 C280.2,49.6 278.9,48.1 277.5,45.2 L266.9,27.1 L259.6,27.1 L259.6,47.3 C259.6,48.6 258.8,49.3 257.1,49.6 L257,49.6 C255.7,49.6 254.9,48.7 254.5,47 L254.5,3.4 C254.7,1.8 255.4,0.8 256.7,0.8 Z M259.6,5.7 L259.6,22.3 L266.9,22.3 C271,22.3 273.7,20.1 274.9,15.7 L275,14.6 L275,13.6 C275,10.4 273.2,7.9 269.6,6.2 C268.6,5.9 267,5.7 264.8,5.7 L259.6,5.7 Z" id="Shape"></path>
                    <path d="M290,0.8 L300.8,0.8 C305.4,0.8 309.1,3.2 312,8 C312.9,9.9 313.4,11.8 313.4,13.8 L313.4,14.3 C313.4,18.8 311.2,22.5 306.8,25.4 L305.5,26 C313.3,39.5 317.3,46.4 317.3,46.7 L317.3,47.3 C317.3,48.6 316.5,49.3 314.8,49.6 L314.7,49.6 C313.5,49.6 312.2,48.1 310.8,45.2 L300.2,27.1 L292.9,27.1 L292.9,47.3 C292.9,48.6 292.1,49.3 290.4,49.6 L290.3,49.6 C289,49.6 288.2,48.7 287.8,47 L287.8,3.4 C288.1,1.8 288.8,0.8 290,0.8 Z M292.9,5.7 L292.9,22.3 L300.2,22.3 C304.3,22.3 307,20.1 308.2,15.7 L308.3,14.6 L308.3,13.6 C308.3,10.4 306.5,7.9 302.9,6.2 C301.9,5.9 300.3,5.7 298.1,5.7 L292.9,5.7 Z" id="Shape"></path>
                    <path d="M338.8,1.1 C340.4,1.1 341.5,2.7 342.3,5.9 C352.6,32.8 357.9,46.6 358,47.2 L358,47.6 C358,48.9 357.2,49.6 355.6,49.9 L355.5,49.9 C354,49.9 352.9,48.4 352.3,45.5 L346.5,30.5 L331.5,30.5 L324.5,49.1 C323.8,49.6 323.2,49.9 322.7,49.9 L322.4,49.9 C320.8,49.6 320,48.8 320,47.5 L320,47.4 L324.4,35.6 C332,15.7 336.2,4.7 336.8,2.5 C337.3,1.5 338.1,1.1 338.8,1.1 Z M338.8,10.8 L333.4,25.4 L344.4,25.4 L344.4,25.3 L338.9,10.8 L338.8,10.8 Z" id="Shape"></path>
                    <path d="M364.1,0.8 L374.9,0.8 C379.5,0.8 383.2,3.2 386.1,8 C387,9.9 387.5,11.8 387.5,13.8 L387.5,14.3 C387.5,18.8 385.3,22.5 380.9,25.4 L379.6,26 C387.4,39.5 391.4,46.4 391.4,46.7 L391.4,47.3 C391.4,48.6 390.6,49.3 388.9,49.6 L388.8,49.6 C387.6,49.6 386.3,48.1 384.9,45.2 L374.3,27.1 L367,27.1 L367,47.3 C367,48.6 366.2,49.3 364.5,49.6 L364.4,49.6 C363.1,49.6 362.3,48.7 361.9,47 L361.9,3.4 C362.1,1.8 362.8,0.8 364.1,0.8 Z M367,5.7 L367,22.3 L374.3,22.3 C378.4,22.3 381.1,20.1 382.3,15.7 L382.4,14.6 L382.4,13.6 C382.4,10.4 380.6,7.9 377,6.2 C376,5.9 374.4,5.7 372.2,5.7 L367,5.7 Z" id="Shape"></path>
                    <path d="M398.4,0.6 L399,0.7 L424.4,0.7 L424.9,0.6 C426.4,0.6 427.2,1.5 427.5,3.4 C427.2,5 426.2,5.8 424.7,5.8 L401,5.8 L401,23.3 L416.5,23.3 L418.3,23.2 C419.5,23.2 420.2,24.1 420.6,25.8 C420.6,26.9 419.9,27.8 418.5,28.4 L415.9,28.3 L400.9,28.3 L400.9,44.9 L425.3,44.9 C426.5,44.9 427.2,45.8 427.5,47.6 C427,49.1 426.3,49.9 425.2,49.9 L398.3,49.9 C396.7,49.6 395.8,48.8 395.8,47.4 L395.8,3.2 C396,1.6 396.9,0.7 398.3,0.7 L398.3,0.6 L398.4,0.6 Z" id="Shape"></path>
                </g>
            </g>
        </g>
    </g>
</svg>