<?xml version="1.0" encoding="utf-8"?>
<!-- Generator: Adobe Illustrator 21.0.2, SVG Export Plug-In . SVG Version: 6.00 Build 0)  -->
<svg version="1.1" xmlns="http://www.w3.org/2000/svg" xmlns:xlink="http://www.w3.org/1999/xlink" x="0px" y="0px"
	 viewBox="0 0 792 612" style="enable-background:new 0 0 792 612;" xml:space="preserve">
<style type="text/css">
	.st0{fill:#8D2AD4;}
	.st1{fill:#5FED76;}
	.st2{fill:#5FE8B5;}
	.st3{fill:#13B6BE;}
	.st4{fill:#25C8FE;}
	.st5{fill:#6AD968;}
	.st6{fill:#85F1B2;}
	.st7{fill:#122251;}
</style>
<g id="Layer_7">
</g>
<g id="Layer_4">
	<g>
		<g>
			<g>
				<g id="XMLID_1_">
					<g>
						<g>
							<path class="st0" d="M156.2,407.2c0,0.8,0,1.5-0.2,2.2c-8,1.9-13.7-4.2-13.7-4.2c1.4-1.5,2.7-3.2,3.8-4.9
								c1.4-2.1,2.5-4.4,3.4-6.9h0C153.6,396.7,156.2,401.7,156.2,407.2z"/>
						</g>
						<g>
							<path class="st1" d="M142.3,405.2c0,0,5.8,6.1,13.7,4.2c-0.5,3.9-2.3,7.5-5,10.2c-2.4,2.4-5.4,4.1-8.9,4.8
								c0.4-1.8,0.6-3.4,0.6-5.3c0-4.2-1-8.1-2.8-11.5C140.8,406.8,141.6,406,142.3,405.2z"/>
						</g>
						<g>
							<path class="st2" d="M140.1,364.9c2.3-0.5,4.3-1.5,5.6-3.2c3.8,5.6,5.9,12.4,5.9,19.6c0,4.3-0.8,8.4-2.1,12.1
								c-0.9,2.4-2,4.7-3.4,6.9l-0.1,0c-0.8,0.1-1.7,0.1-2.6,0.1c-3.9,0-7.7-1-10.9-2.8c-7.1-3.9-12-11.4-12-20.1
								c0-1.1,0.1-2.1,0.2-3.2c0.5-3.9,2.1-7.5,4.3-10.5C125.1,363.9,133.7,366.3,140.1,364.9z"/>
						</g>
						<g>
							<path class="st3" d="M146,400.3L146,400.3c-1,1.8-2.3,3.4-3.7,4.9c-0.7,0.8-1.5,1.6-2.4,2.3c-2-3.9-5.1-7.2-8.7-9.6l1.3-0.3
								c3.2,1.8,7,2.8,10.9,2.8C144.3,400.4,145.2,400.4,146,400.3z"/>
						</g>
						<g>
							<path class="st4" d="M142.8,419.1c0,2-0.1,3.5-0.6,5.3c-1.1,0.2-2.3,0.4-3.5,0.4H94.1c-0.3,0-0.5,0-0.8,0
								c-0.4-1.8-0.6-3.7-0.6-5.7c0-3.5,0.7-6.9,2-9.9c6,4.7,13.5,7.4,21.7,7.4c9.1,0,17.3-3.4,23.6-9
								C141.7,411,142.8,414.9,142.8,419.1z"/>
						</g>
						<g>
							<path class="st0" d="M139.9,355c2.2,2,4.2,4.2,5.8,6.7c-1.3,1.7-3.3,2.7-5.6,3.2c-6.4,1.4-15-1-15-1
								C128.6,359.2,133.8,355.9,139.9,355z"/>
						</g>
						<g>
							<path class="st5" d="M131.2,398c3.7,2.4,6.7,5.7,8.7,9.6c-6.3,5.6-14.5,9-23.6,9c-8.2,0-15.7-2.8-21.7-7.4
								c2.2-5,5.9-9.1,10.5-11.8c3.7-2.1,7.9-3.3,12.5-3.3C122.7,394,127.3,395.5,131.2,398z"/>
						</g>
						<g>
							<path class="st3" d="M132.5,397.7l-1.3,0.3c-3.9-2.5-8.5-3.9-13.5-3.9c-4.5,0-8.8,1.2-12.5,3.3l-0.2-0.3
								c8.2-4.7,14.2-13,15.7-22.7h0c-0.1,1-0.2,2.1-0.2,3.2C120.6,386.3,125.4,393.8,132.5,397.7z"/>
						</g>
						<g>
							<path class="st3" d="M120.9,365.2c-0.3-2.5-1-4.9-1.8-7.2c7.6-3.7,12.3-8.7,12.3-8.7c3.1,1.5,6,3.4,8.6,5.7
								c-6,0.9-11.3,4.2-14.7,8.9c-2.3,3-3.8,6.6-4.3,10.5h0c0.2-1.6,0.4-3.2,0.4-4.9C121.2,368.1,121.1,366.6,120.9,365.2z"/>
						</g>
						<g>
							<path class="st5" d="M131.3,349.3c0,0-4.6,5.1-12.3,8.7c-1.7-4.5-4.4-8.4-7.9-11.7c1.7-0.2,3.4-0.4,5.2-0.4
								C121.7,346,126.8,347.2,131.3,349.3z"/>
						</g>
						<g>
							<path class="st6" d="M109.4,361.2c3.6-0.6,6.8-1.8,9.7-3.1c0.9,2.3,1.5,4.7,1.8,7.2c0.2,1.4,0.3,2.8,0.3,4.3
								c0,1.7-0.1,3.3-0.4,4.9c-1.5,9.7-7.5,18-15.7,22.7c-4.6,2.6-9.9,4.1-15.6,4.1c-0.7,0-1.5,0-2.2-0.1l0,0c-1.6-2.4-3-5-4-7.7
								c-1.4-3.8-2.1-7.9-2.1-12.1c0-8.4,3-16.2,7.9-22.2C89,359.1,96.2,363.5,109.4,361.2z"/>
						</g>
						<g>
							<path class="st5" d="M111.2,346.4c3.4,3.2,6.1,7.2,7.9,11.7c-2.8,1.4-6.1,2.5-9.7,3.1c-1.2-4.1-3.3-8.4-6.8-12.4
								C105.3,347.7,108.2,346.8,111.2,346.4z"/>
						</g>
						<g>
							<path class="st3" d="M105.1,397.1l0.2,0.3c-4.7,2.7-8.4,6.8-10.5,11.8c-1.3-1-2.5-2.1-3.7-3.3c-1.4-1.5-2.7-3-3.8-4.7l0,0
								c0.7,0.1,1.5,0.1,2.2,0.1C95.1,401.2,100.5,399.7,105.1,397.1z"/>
						</g>
						<g>
							<path class="st5" d="M102.6,348.8c3.5,3.9,5.6,8.3,6.8,12.4c-13.2,2.3-20.4-2.1-20.4-2.1C92.6,354.6,97.2,351.1,102.6,348.8z
								"/>
						</g>
						<g>
							<path class="st1" d="M92.7,419.1c0,1.9,0.2,3.8,0.6,5.7c-7.3-0.3-13.4-5.1-15.8-11.7c10.4,1.2,13.5-7.2,13.5-7.2
								c1.1,1.2,2.4,2.3,3.7,3.3C93.4,412.2,92.7,415.6,92.7,419.1z"/>
						</g>
						<g>
							<path class="st0" d="M87.2,401.2c1.1,1.7,2.4,3.3,3.8,4.7c0,0-3.1,8.4-13.5,7.2h0c-0.6-1.8-1-3.8-1-5.8
								c0-2.8,0.7-5.4,1.8-7.8c1.2-2.3,2.8-4.4,4.9-6C84.2,396.2,85.6,398.8,87.2,401.2z"/>
						</g>
					</g>
					<g>
						<g>
							<path class="st7" d="M116.4,418.4c-8.3,0-16.2-2.7-22.7-7.8c-1.4-1.1-2.7-2.2-3.9-3.5c-1.5-1.5-2.8-3.2-4-4.9
								c-1.7-2.5-3.1-5.2-4.2-8.1c-1.5-4.1-2.2-8.4-2.2-12.7c0-8.5,2.9-16.8,8.3-23.3c3.8-4.7,8.7-8.4,14.3-10.8
								c2.9-1.2,5.9-2.1,9.1-2.6c1.8-0.3,3.6-0.4,5.4-0.4c5.5,0,10.8,1.2,15.7,3.5c3.3,1.5,6.3,3.5,9,5.9c2.3,2.1,4.4,4.5,6.1,7.1
								l0,0c4.1,6.1,6.2,13.2,6.2,20.6c0,4.4-0.8,8.7-2.3,12.7c-0.9,2.5-2.1,5-3.6,7.2c-1.2,1.8-2.5,3.6-4,5.1
								c-0.8,0.8-1.6,1.7-2.5,2.5C134.3,415,125.5,418.4,116.4,418.4z M116.4,347.8c-1.6,0-3.3,0.1-4.9,0.4
								c-2.8,0.4-5.6,1.2-8.2,2.3c-5,2.1-9.5,5.5-12.9,9.7c-4.8,5.9-7.5,13.4-7.5,21.1c0,4,0.7,7.8,2,11.5c0.9,2.6,2.2,5,3.8,7.3
								c1.1,1.6,2.3,3.1,3.7,4.5c1.1,1.1,2.3,2.2,3.5,3.1c5.9,4.6,13,7.1,20.6,7.1c8.3,0,16.3-3.1,22.4-8.6c0.8-0.7,1.6-1.5,2.2-2.2
								c1.3-1.4,2.5-3,3.6-4.7c1.3-2,2.4-4.2,3.2-6.5c1.4-3.7,2-7.6,2-11.5c0-6.7-2-13.1-5.7-18.6l0,0c-1.6-2.4-3.4-4.5-5.6-6.4
								c-2.4-2.2-5.2-4-8.2-5.4C126.1,348.8,121.3,347.8,116.4,347.8z"/>
						</g>
						<g>
							<path class="st7" d="M75.9,413.6c-0.7-2.1-1.1-4.2-1.1-6.4c0-3,0.7-5.9,2-8.5c1.3-2.5,3.1-4.8,5.3-6.6l2.2,2.7
								c-1.8,1.5-3.3,3.3-4.4,5.4c-1.1,2.2-1.6,4.5-1.6,7c0,1.8,0.3,3.6,0.9,5.3L75.9,413.6z"/>
						</g>
						<g>
							<path class="st7" d="M138.6,426.5H94.1c-0.3,0-0.6,0-0.9,0c-7.8-0.3-14.7-5.5-17.3-12.9l3.3-1.2c2.1,6,7.8,10.2,14.2,10.5
								c0.2,0,0.5,0,0.7,0h44.6c1.1,0,2.2-0.1,3.2-0.3c3-0.6,5.8-2.1,8-4.3c2.5-2.5,4.1-5.7,4.5-9.1c0.1-0.7,0.1-1.3,0.1-2
								c0-4.8-2.2-9.3-6-12.4l2.2-2.8c4.7,3.7,7.3,9.2,7.3,15.1c0,0.9-0.1,1.7-0.2,2.5c-0.5,4.2-2.5,8.1-5.5,11.2
								c-2.7,2.7-6.1,4.5-9.7,5.3C141.3,426.4,140,426.5,138.6,426.5z"/>
						</g>
						<g>
							<path class="st7" d="M111,377.2c-0.1,0-0.1,0-0.2,0c-1-0.1-1.7-1-1.5-1.9c0-0.1,0.7-6.3-1.6-13.6c-1.4-4.5-3.5-8.4-6.5-11.7
								c-0.6-0.7-0.6-1.8,0.1-2.5c0.7-0.6,1.8-0.6,2.5,0.1c3.3,3.7,5.7,8,7.2,13c2.4,8,1.7,14.7,1.7,15
								C112.6,376.6,111.9,377.2,111,377.2z"/>
						</g>
						<g>
							<path class="st7" d="M102,363.6c-8.8,0-13.7-2.9-13.9-3l1.8-3l-0.9,1.5l0.9-1.5c0.1,0,6.9,4,19.2,1.9c3.1-0.5,6.2-1.5,9.2-3
								c7.2-3.5,11.7-8.3,11.7-8.3l2.6,2.4c-0.2,0.2-4.9,5.4-12.8,9.1c-3.3,1.6-6.7,2.7-10.1,3.3C106.8,363.4,104.3,363.6,102,363.6
								z"/>
						</g>
						<g>
							<path class="st7" d="M89.5,403c-0.8,0-1.6,0-2.4-0.1c-1-0.1-1.7-0.9-1.6-1.9c0.1-1,0.9-1.7,1.9-1.6c0.7,0,1.4,0.1,2.1,0.1
								c5.2,0,10.3-1.3,14.8-3.9c8-4.6,13.4-12.4,14.8-21.4c0.2-1.5,0.4-3.1,0.4-4.6c0-1.3-0.1-2.7-0.3-4c-0.3-2.3-0.9-4.6-1.7-6.8
								c-1.6-4.1-4.1-7.9-7.4-11l-0.1-0.1c-0.7-0.6-0.8-1.6-0.2-2.4c0.6-0.8,1.7-0.9,2.5-0.3c0,0,0.1,0.1,0.1,0.1l0.1,0.1
								c3.6,3.4,6.5,7.7,8.3,12.3c0.9,2.4,1.6,5,1.9,7.6c0.2,1.5,0.3,3,0.3,4.5c0,1.7-0.1,3.5-0.4,5.2c-1.6,10.1-7.6,18.9-16.6,23.9
								C100.9,401.5,95.2,403,89.5,403z M109.9,347.6C109.9,347.6,109.9,347.6,109.9,347.6L109.9,347.6z"/>
						</g>
						<g>
							<path class="st7" d="M143.4,402.2c-4.1,0-8.1-1-11.7-3c-7.9-4.3-12.9-12.6-12.9-21.6c0-1.1,0.1-2.3,0.2-3.4
								c0.6-4.1,2.2-8,4.7-11.3c3.9-5.2,9.5-8.6,15.9-9.6c1-0.1,1.9,0.5,2,1.5c0.1,1-0.5,1.9-1.5,2c-5.5,0.9-10.3,3.8-13.6,8.2
								c-2.1,2.8-3.5,6.2-4,9.7c-0.1,1-0.2,2-0.2,2.9c0,7.7,4.2,14.9,11,18.6c3.1,1.7,6.5,2.5,10.1,2.5c0.8,0,1.6,0,2.4-0.1
								c1-0.1,1.8,0.6,1.9,1.6c0.1,1-0.6,1.8-1.6,1.9C145.3,402.1,144.4,402.2,143.4,402.2z"/>
						</g>
						<g>
							<path class="st7" d="M92.1,426l-0.4-0.4l-0.1-0.5c-0.5-2-0.7-4-0.7-6c0-3.7,0.7-7.3,2.2-10.6c2.3-5.3,6.3-9.8,11.3-12.6
								c4-2.3,8.7-3.6,13.3-3.6c5.1,0,10.1,1.5,14.4,4.2c4,2.5,7.2,6.1,9.4,10.2c2,3.8,3,8,3,12.3c0,2.2-0.2,3.8-0.6,5.7l-3.4-0.8
								c0.4-1.6,0.5-3,0.5-4.9c0-3.8-0.9-7.4-2.6-10.7c-1.9-3.6-4.7-6.7-8.1-8.9c-3.7-2.4-8.1-3.7-12.6-3.7c-4.1,0-8.1,1.1-11.6,3.1
								c-4.3,2.5-7.8,6.4-9.8,11c-1.3,2.9-1.9,6-1.9,9.2c0,1.6,0.2,3.2,0.5,4.8l0.2,0.1l0,0.8h-1.8L92.1,426z"/>
						</g>
						<g>
							<path class="st7" d="M152.9,411.6c-6.9,0-11.6-4.9-11.8-5.2l2.6-2.4c0.2,0.2,5.2,5.4,12,3.7l0.2,0l0.7,3.4l-0.2,0
								C155.2,411.5,154,411.6,152.9,411.6z"/>
						</g>
						<g>
							<path class="st7" d="M79.5,414.9c-0.7,0-1.4,0-2.1-0.1l0.2-1.7l0-1.8l0.2,0c8.8,1,11.5-5.7,11.6-6l3.3,1.2
								C91.5,409.6,87.4,414.9,79.5,414.9z"/>
						</g>
						<g>
							<path class="st7" d="M135.6,367.1c-5.5,0-10.7-1.5-10.9-1.5l1-3.4c0.1,0,8.2,2.3,14.1,1c2.1-0.5,3.7-1.3,4.6-2.6
								c0.1-0.1,0.2-0.2,0.2-0.3l3,1.8c-0.1,0.2-0.3,0.4-0.4,0.6c-1.4,1.9-3.7,3.3-6.7,3.9C138.9,367,137.2,367.1,135.6,367.1z"/>
						</g>
						<g>
							<path class="st7" d="M135.6,383.1c-0.9,0-1.6-0.7-1.7-1.5c-1.1-9.7,4.6-17.3,4.9-17.7c0.6-0.8,1.7-0.9,2.5-0.3
								c0.8,0.6,0.9,1.7,0.3,2.5l0,0c-0.1,0.1-5.2,6.9-4.2,15.1c0.1,1-0.6,1.8-1.5,1.9C135.7,383.1,135.6,383.1,135.6,383.1z"/>
						</g>
						<g>
							<path class="st7" d="M147.3,379.5c0,0-0.1,0-0.1,0c-1-0.1-1.7-0.9-1.6-1.9c0-0.2,0-1.3-1.1-1.8c-0.9-0.4-1.7,0.5-1.8,0.7
								c-0.6,0.8-1.7,1-2.4,0.4c-0.8-0.6-1-1.6-0.4-2.4c0.8-1.2,3.1-3.1,6-1.9c2.8,1.2,3.3,3.9,3.2,5.3
								C148.9,378.8,148.2,379.5,147.3,379.5z"/>
						</g>
						<g>
							<path class="st7" d="M133.7,373.6l-3.4-0.8l0,0.1c0-0.1,0.1-0.9-0.8-1.7c-0.7-0.7-2.2-0.3-2.6-0.2c-0.9,0.3-1.9-0.1-2.2-1
								s0.1-1.9,1-2.2c1.4-0.5,4.4-1,6.4,1C134.2,371,133.7,373.4,133.7,373.6z"/>
						</g>
						<g>
							<path class="st7" d="M135.7,388.5c-0.3,0-0.7,0-1-0.1c-3-0.5-4.7-3-4.9-3.2c-0.5-0.8-0.3-1.9,0.5-2.4
								c0.8-0.5,1.9-0.3,2.4,0.5c0,0,1,1.5,2.5,1.7c0.9,0.1,1.9-0.2,3-1c0.8-0.6,1.9-0.5,2.5,0.3c0.6,0.8,0.5,1.9-0.3,2.5
								C138.9,387.9,137.3,388.5,135.7,388.5z"/>
						</g>
						<g>
							<path class="st7" d="M93.3,374.4c-0.1,0-0.2,0-0.3,0c-0.9-0.2-1.6-1.1-1.4-2c0.3-1.5,1.5-4.2,4.6-4.6
								c2.8-0.3,4.8,1.3,5.5,2.3c0.5,0.8,0.3,1.9-0.5,2.4c-0.8,0.5-1.9,0.3-2.4-0.5c-0.1-0.1-0.8-1-2.1-0.8
								c-1.2,0.1-1.5,1.6-1.5,1.7C94.8,373.8,94.1,374.4,93.3,374.4z"/>
						</g>
						<g>
							<path class="st7" d="M116,370.1c0,0-0.1,0-0.1,0c-1-0.1-1.7-0.9-1.6-1.9c0-0.3,0.3-3.5,2.6-4.8c0.9-0.5,2.5-0.9,4.8,0.2
								c0.1,0,0.2,0.1,0.3,0.2l0.1,0c0.9,0.5,1.2,1.5,0.7,2.4c-0.5,0.9-1.5,1.2-2.4,0.7l-0.1,0c0,0-0.1,0-0.1-0.1l-0.1,0
								c-0.7-0.3-1.2-0.4-1.5-0.3c-0.5,0.3-0.8,1.3-0.9,2C117.6,369.4,116.9,370.1,116,370.1z"/>
						</g>
						<g>
							<path class="st7" d="M109.4,383.3c-3.2,0-5.8-1.3-6-1.4c-0.9-0.4-1.2-1.5-0.8-2.4c0.4-0.9,1.5-1.2,2.3-0.8
								c0.1,0,5.5,2.6,8.6-0.6c0.7-0.7,1.8-0.7,2.5,0c0.7,0.7,0.7,1.8,0,2.5C114,382.7,111.6,383.3,109.4,383.3z"/>
						</g>
						<g>
							<path class="st7" d="M104.2,406.2c-0.3,0-0.7-0.1-1-0.3c-0.8-0.5-1-1.6-0.5-2.4c0.9-1.4,3.6-3.6,7.4-2.2
								c0.9,0.3,1.4,1.3,1,2.3c-0.3,0.9-1.3,1.4-2.3,1c-2.1-0.8-3.2,0.8-3.2,0.9C105.3,405.9,104.8,406.2,104.2,406.2z"/>
						</g>
						<g>
							<path class="st7" d="M116.9,405.2c-0.9,0-1.6-0.7-1.7-1.6c-0.5-4.4-2.7-6.9-2.8-6.9c-0.7-0.7-0.6-1.8,0.1-2.5
								c0.7-0.7,1.8-0.6,2.5,0.1c0.1,0.1,3,3.3,3.7,8.9c0.1,1-0.6,1.8-1.5,1.9C117,405.2,116.9,405.2,116.9,405.2z"/>
						</g>
						<g>
							<path class="st7" d="M122.2,402.6c-0.5,0-1-0.2-1.4-0.6c-0.6-0.8-0.5-1.9,0.3-2.5c1.3-1.1,4.5-2.4,7.3,0.1
								c0.7,0.7,0.8,1.8,0.1,2.5c-0.7,0.7-1.8,0.8-2.5,0.1c-0.1-0.1-1.3-1.1-2.7,0.1C123,402.4,122.6,402.6,122.2,402.6z"/>
						</g>
						<g>
							<path class="st7" d="M117.1,411.6c-1.9,0-3.6-0.4-3.9-0.5c-0.9-0.2-1.5-1.2-1.3-2.1c0.2-0.9,1.2-1.5,2.1-1.3
								c1.4,0.4,4.7,0.7,5.9-0.4c0.7-0.7,1.8-0.6,2.5,0.1c0.7,0.7,0.6,1.8-0.1,2.5C120.9,411.2,118.9,411.6,117.1,411.6z"/>
						</g>
						<g>
							<path class="st7" d="M116.4,436.7c-1,0-1.8-0.8-1.8-1.8v-9.6c0-1,0.8-1.8,1.8-1.8s1.8,0.8,1.8,1.8v9.6
								C118.1,435.9,117.3,436.7,116.4,436.7z"/>
						</g>
					</g>
				</g>
			</g>
		</g>
	</g>
</g>
<g id="Layer_5">
</g>
<g id="Layer_3">
	<g>
		<path class="st7" d="M179.8,370.4l0.6,0.1h4.9l0.5-0.1c1.7,0.4,2.6,1.2,2.6,2.6c-0.3,1.7-1.1,2.6-2.5,2.6h-0.5v39.2h0.8
			c1.1,0,1.9,0.8,2.2,2.5v0.1c-0.3,1.6-1.1,2.5-2.5,2.5h-6.2c-1.6-0.3-2.5-1.1-2.5-2.5v-0.1c0.3-1.7,1.1-2.5,2.2-2.5h0.8v-39.2h-0.5
			c-1.4,0-2.3-0.9-2.5-2.7v-0.1C177.4,371.6,178.2,370.9,179.8,370.4z"/>
		<path class="st7" d="M197.5,370.9h0.5c1.5,0.3,2.3,1,2.3,2.1v41.9h21.1c1.4,0,2.2,0.9,2.5,2.7c-0.5,1.5-1.3,2.3-2.5,2.3h-23.6
			c-1.3,0-2.1-0.9-2.5-2.6v-43.5C195.5,371.8,196.2,370.9,197.5,370.9z"/>
		<path class="st7" d="M231.6,370.9h0.5c1.5,0.3,2.3,1,2.3,2.1v41.9h21.1c1.4,0,2.2,0.9,2.5,2.7c-0.5,1.5-1.3,2.3-2.5,2.3h-23.6
			c-1.3,0-2.1-0.9-2.5-2.6v-43.5C229.6,371.8,230.3,370.9,231.6,370.9z"/>
		<path class="st7" d="M266.4,370.4l0.6,0.1h4.9l0.5-0.1c1.7,0.4,2.6,1.2,2.6,2.6c-0.3,1.7-1.1,2.6-2.5,2.6H272v39.2h0.8
			c1.1,0,1.9,0.8,2.2,2.5v0.1c-0.3,1.6-1.1,2.5-2.5,2.5h-6.2c-1.6-0.3-2.5-1.1-2.5-2.5v-0.1c0.3-1.7,1.1-2.5,2.2-2.5h0.8v-39.2h-0.5
			c-1.4,0-2.3-0.9-2.5-2.7v-0.1C263.9,371.6,264.7,370.9,266.4,370.4z"/>
		<path class="st7" d="M306.8,370.8c5.1,0,9.8,1.5,14.2,4.6c0.3,0.7,0.5,1.2,0.5,1.5v0.3c0,1.5-0.9,2.3-2.7,2.5h-0.1l-4.5-2.3
			c-3-1-5.5-1.4-7.4-1.4c-6.1,0-11.4,2.8-15.9,8.4c-2.2,3.8-3.3,7.4-3.3,11c0,7.2,3.4,12.9,10.1,17.1c3,1.5,6,2.3,8.9,2.3h0.4
			c3.8,0,7.6-1.2,11.5-3.6h0.8c1.5,0.3,2.3,1.1,2.3,2.3v0.4c0,1.8-2.9,3.6-8.6,5.3c-1.8,0.5-3.7,0.8-5.7,0.8h-0.6
			c-8.1,0-14.9-3.7-20.3-11.2c-2.6-4.3-3.9-8.8-3.9-13.3c0-8.5,3.9-15.4,11.6-20.8C298.2,372,302.5,370.8,306.8,370.8z"/>
		<path class="st7" d="M347.7,371h0.5c1.1,0,2,0.9,2.8,2.6c1.3,1.4,10.6,13.4,28.1,35.9c0.2,0,0.3,0.1,0.3,0.4l0.1,0.1h0.1v-36.7
			c0.3-1.5,1.1-2.3,2.3-2.3h0.4c1.3,0,2.1,0.8,2.3,2.4v43.9c0,1.4-0.9,2.3-2.7,2.6c-1,0-2.5-1.5-4.5-4.5L350.5,381v36.4
			c0,1.3-0.8,2-2.5,2.3H348c-1.3,0-2.1-0.9-2.5-2.6v-43.4C345.7,371.9,346.5,371,347.7,371z"/>
		<path class="st7" d="M408.4,371.1c1.6,0,2.7,1.6,3.5,4.8c10.3,26.9,15.6,40.7,15.7,41.3v0.4c0,1.3-0.8,2-2.4,2.3h-0.1
			c-1.5,0-2.6-1.5-3.2-4.4l-5.8-15h-15l-7,18.6c-0.7,0.5-1.3,0.8-1.8,0.8h-0.3c-1.6-0.3-2.4-1.1-2.4-2.4v-0.1l4.4-11.8
			c7.6-19.9,11.8-30.9,12.4-33.1C406.9,371.5,407.7,371.1,408.4,371.1z M408.4,380.8l-5.4,14.6h11v-0.1l-5.5-14.5H408.4z"/>
		<path class="st7" d="M433.7,370.8h10.8c4.6,0,8.3,2.4,11.2,7.2c0.9,1.9,1.4,3.8,1.4,5.8v0.5c0,4.5-2.2,8.2-6.6,11.1l-1.3,0.6
			c7.8,13.5,11.8,20.4,11.8,20.7v0.6c0,1.3-0.8,2-2.5,2.3h-0.1c-1.2,0-2.5-1.5-3.9-4.4l-10.6-18.1h-7.3v20.2c0,1.3-0.8,2-2.5,2.3
			H434c-1.3,0-2.1-0.9-2.5-2.6v-43.6C431.7,371.8,432.4,370.8,433.7,370.8z M436.6,375.7v16.6h7.3c4.1,0,6.8-2.2,8-6.6l0.1-1.1v-1
			c0-3.2-1.8-5.7-5.4-7.4c-1-0.3-2.6-0.5-4.8-0.5H436.6z"/>
		<path class="st7" d="M467,370.8h10.8c4.6,0,8.3,2.4,11.2,7.2c0.9,1.9,1.4,3.8,1.4,5.8v0.5c0,4.5-2.2,8.2-6.6,11.1l-1.3,0.6
			c7.8,13.5,11.8,20.4,11.8,20.7v0.6c0,1.3-0.8,2-2.5,2.3h-0.1c-1.2,0-2.5-1.5-3.9-4.4l-10.6-18.1h-7.3v20.2c0,1.3-0.8,2-2.5,2.3
			h-0.1c-1.3,0-2.1-0.9-2.5-2.6v-43.6C465.1,371.8,465.8,370.8,467,370.8z M469.9,375.7v16.6h7.3c4.1,0,6.8-2.2,8-6.6l0.1-1.1v-1
			c0-3.2-1.8-5.7-5.4-7.4c-1-0.3-2.6-0.5-4.8-0.5H469.9z"/>
		<path class="st7" d="M515.8,371.1c1.6,0,2.7,1.6,3.5,4.8c10.3,26.9,15.6,40.7,15.7,41.3v0.4c0,1.3-0.8,2-2.4,2.3h-0.1
			c-1.5,0-2.6-1.5-3.2-4.4l-5.8-15h-15l-7,18.6c-0.7,0.5-1.3,0.8-1.8,0.8h-0.3c-1.6-0.3-2.4-1.1-2.4-2.4v-0.1l4.4-11.8
			c7.6-19.9,11.8-30.9,12.4-33.1C514.3,371.5,515.1,371.1,515.8,371.1z M515.8,380.8l-5.4,14.6h11v-0.1l-5.5-14.5H515.8z"/>
		<path class="st7" d="M541.1,370.8h10.8c4.6,0,8.3,2.4,11.2,7.2c0.9,1.9,1.4,3.8,1.4,5.8v0.5c0,4.5-2.2,8.2-6.6,11.1l-1.3,0.6
			c7.8,13.5,11.8,20.4,11.8,20.7v0.6c0,1.3-0.8,2-2.5,2.3h-0.1c-1.2,0-2.5-1.5-3.9-4.4l-10.6-18.1H544v20.2c0,1.3-0.8,2-2.5,2.3
			h-0.1c-1.3,0-2.1-0.9-2.5-2.6v-43.6C539.1,371.8,539.8,370.8,541.1,370.8z M544,375.7v16.6h7.3c4.1,0,6.8-2.2,8-6.6l0.1-1.1v-1
			c0-3.2-1.8-5.7-5.4-7.4c-1-0.3-2.6-0.5-4.8-0.5H544z"/>
		<path class="st7" d="M575.4,370.6l0.6,0.1h25.4l0.5-0.1c1.5,0,2.3,0.9,2.6,2.8c-0.3,1.6-1.3,2.4-2.8,2.4H578v17.5h15.5l1.8-0.1
			c1.2,0,1.9,0.9,2.3,2.6c0,1.1-0.7,2-2.1,2.6l-2.6-0.1h-15v16.6h24.4c1.2,0,1.9,0.9,2.2,2.7c-0.5,1.5-1.2,2.3-2.3,2.3h-26.9
			c-1.6-0.3-2.5-1.1-2.5-2.5v-44.2c0.2-1.6,1.1-2.5,2.5-2.5V370.6z"/>
	</g>
</g>
<g id="Layer_6">
</g>
</svg>
