<?xml version="1.0" encoding="utf-8"?>
<!-- Generator: Adobe Illustrator 21.0.2, SVG Export Plug-In . SVG Version: 6.00 Build 0)  -->
<svg version="1.1" xmlns="http://www.w3.org/2000/svg" xmlns:xlink="http://www.w3.org/1999/xlink" x="0px" y="0px"
	 viewBox="0 0 586.3 202.2" style="enable-background:new 0 0 586.3 202.2;" xml:space="preserve">
<style type="text/css">
	.st0{fill:none;stroke:#231F20;stroke-miterlimit:10;}
	.st1{fill:#FFFFFF;}
	.st2{fill:#8D2AD4;}
	.st3{fill:#5FED76;}
	.st4{fill:#5FE8B5;}
	.st5{fill:#13B6BE;}
	.st6{fill:#25C8FE;}
	.st7{fill:#6AD968;}
	.st8{fill:#85F1B2;}
	.st9{fill:#122251;}
</style>
<g id="Layer_4">
</g>
<g id="Layer_5">
	<g>
		<g>
			<g>
				<g>
					<path class="st0" d="M389.8,138.3"/>
				</g>
			</g>
			<g>
				<g>
					<g>
						<path class="st1" d="M350.2,56.3c-0.2-4.5-7.2-4.5-7,0c1.1,25.6,1.7,51.3,1.7,76.9c-9.2-24.7-17.8-49.5-25.8-74.6
							c-0.6-2-2.4-2.6-4-2.4c-1.8,0-3.6,1.1-3.6,3.4c-0.1,30.6,1.4,61.2,4.4,91.6c0.4,4.4,7.4,4.5,7,0c-2.3-23.7-3.7-47.5-4.2-71.3
							c7.9,23.8,16.4,47.4,25.4,70.9c0.4,1,1.1,1.7,1.9,2c2,1.6,5.8,0.8,5.9-2.6C352.1,119,351.6,87.7,350.2,56.3z"/>
						<path class="st1" d="M395.5,146.7c-1.7-7.8-3.4-15.6-5.1-23.4c0.3,0,0.5-0.1,0.8-0.1c4.4-0.5,4.5-7.5,0-7
							c-0.7,0.1-1.5,0.2-2.2,0.3c-4.3-19.8-8.7-39.6-13-59.4c-0.5-2.3-2.5-2.9-4.2-2.3c-1.5,0.2-3,1.3-3.3,3.3
							c-2.7,20.4-5.4,40.8-8.1,61.2c-0.2,0-0.3,0-0.5,0c-4.3,0.3-4.5,6.9-0.4,7c-1,7.6-2,15.2-3,22.8c-0.6,4.5,6.4,4.4,7,0
							c1-7.8,2-15.5,3.1-23.3c5.7-0.5,11.3-1,16.9-1.6c1.8,8.2,3.6,16.3,5.4,24.5C389.8,153,396.5,151.1,395.5,146.7z M367.4,118.6
							c1.9-14.1,3.7-28.2,5.6-42.3c3,13.6,6,27.3,8.9,40.9C377.1,117.8,372.3,118.2,367.4,118.6z"/>
						<path class="st1" d="M514.6,146.7c-1.7-7.8-3.4-15.6-5.1-23.4c0.3,0,0.5-0.1,0.8-0.1c4.4-0.5,4.5-7.5,0-7
							c-0.7,0.1-1.5,0.2-2.2,0.3c-4.3-19.8-8.7-39.6-13-59.4c-0.5-2.3-2.5-2.9-4.2-2.3c-1.5,0.2-3,1.3-3.3,3.3
							c-2.7,20.4-5.4,40.8-8.1,61.2c-0.2,0-0.3,0-0.5,0c-4.3,0.3-4.5,6.9-0.4,7c-1,7.6-2,15.2-3,22.8c-0.6,4.5,6.4,4.4,7,0
							c1-7.8,2-15.5,3.1-23.3c5.7-0.5,11.3-1,16.9-1.6c1.8,8.2,3.6,16.3,5.4,24.5C508.8,153,515.5,151.1,514.6,146.7z M486.4,118.6
							c1.9-14.1,3.7-28.2,5.6-42.3c3,13.6,6,27.3,8.9,40.9C496.1,117.8,491.3,118.2,486.4,118.6z"/>
						<path class="st1" d="M435,152.3c-6-12.6-11.7-25.3-16.9-38.3c8.2-12.6,16.4-26.7,13-42.3c-2.8-12.5-14.6-21.9-27.6-19.2
							c-0.3,0.1-0.6,0.2-0.8,0.3c-1.3,0.4-2.3,1.5-2.3,3.2c-0.5,31.9-0.3,63.8,0.7,95.7c0.1,4.5,7.1,4.5,7,0
							c-0.9-30.9-1.1-61.8-0.7-92.6c10.8-0.9,17.6,10.4,17.6,20.3c-0.1,12-7.1,22.5-13.5,32.1c-0.6,0.8-0.7,1.7-0.5,2.4
							c-0.1,0.5,0,1,0.2,1.6c5.5,13.6,11.5,27.1,17.8,40.4C430.9,159.9,436.9,156.4,435,152.3z"/>
						<path class="st1" d="M472.7,152.3c-6-12.6-11.7-25.3-16.9-38.3c8.2-12.6,16.4-26.7,13-42.3c-2.8-12.5-14.6-21.9-27.6-19.2
							c-0.3,0.1-0.6,0.2-0.8,0.3c-1.3,0.4-2.3,1.5-2.3,3.2c-0.5,31.9-0.3,63.8,0.7,95.7c0.1,4.5,7.1,4.5,7,0
							c-0.9-30.9-1.1-61.8-0.7-92.6c10.8-0.9,17.6,10.4,17.6,20.3c-0.1,12-7.1,22.5-13.5,32.1c-0.6,0.8-0.7,1.7-0.5,2.4
							c-0.1,0.5,0,1,0.2,1.6c5.5,13.6,11.5,27.1,17.8,40.4C468.6,159.9,474.6,156.4,472.7,152.3z"/>
						<path class="st1" d="M551.9,152.3c-6-12.6-11.7-25.3-16.9-38.3c8.2-12.6,16.4-26.7,13-42.3c-2.8-12.5-14.6-21.9-27.6-19.2
							c-0.3,0.1-0.6,0.2-0.8,0.3c-1.3,0.4-2.3,1.5-2.3,3.2c-0.5,31.9-0.3,63.8,0.7,95.7c0.1,4.5,7.1,4.5,7,0
							c-0.9-30.9-1.1-61.8-0.7-92.6c10.8-0.9,17.6,10.4,17.6,20.3c-0.1,12-7.1,22.5-13.5,32.1c-0.6,0.8-0.7,1.7-0.5,2.4
							c-0.1,0.5,0,1,0.2,1.6c5.5,13.6,11.5,27.1,17.8,40.4C547.8,159.9,553.9,156.4,551.9,152.3z"/>
						<path class="st1" d="M581.2,147.9c-5.8,0.7-11.7,0.9-17.5,0.6c-0.4-8.5-0.7-17.1-0.9-25.6c3.9-0.1,7.8-0.4,11.7-1
							c1.9-0.3,2.9-2.6,2.4-4.3c-0.5-2-2.4-2.7-4.3-2.4c-3.3,0.5-6.7,0.7-10.1,0.8c-0.5-17.8-0.8-35.6-0.9-53.4
							c6.5-0.5,13-0.7,19.6-0.4c4.5,0.2,4.5-6.8,0-7c-7.4-0.3-14.7-0.1-22,0.6c-0.2,0-0.5,0.1-0.7,0.1c-1.9-0.2-3.9,0.9-3.9,3.3
							c0.1,30.8,0.8,61.6,2.2,92.3c0.1,1.5,0.9,2.5,2,3c0.5,0.5,1.2,0.8,2.1,0.8c6.8,0.5,13.6,0.4,20.3-0.4
							C585.6,154.4,585.6,147.4,581.2,147.9z"/>
					</g>
					<g>
						<path class="st1" d="M16.7,151.3c-1.8-30.6-2.5-61.2-2.3-91.8c0.1,0,0.3,0,0.4-0.1c2.1-0.4,3.3-3,2.8-4.9
							c-0.6-2.2-2.8-3.2-4.9-2.8c-1.9,0.4-3.5,0.6-5.5,0.7c-2.1,0.2-4.1,1.7-4,4c0.1,1.8,1.4,3.7,3.2,4C6.2,90.8,7,121.1,8.7,151.4
							c-1.9,0.4-3.5,1.8-3.5,3.9c0,2,1.8,4.2,4,4c2.2-0.2,4.5-0.2,6.7-0.1c2.2,0.1,4-1.9,4-4C20,153.2,18.6,151.7,16.7,151.3z"/>
						<path class="st1" d="M105.5,151.3c-1.8-30.6-2.5-61.2-2.3-91.8c0.1,0,0.3,0,0.4-0.1c2.1-0.4,3.3-3,2.8-4.9
							c-0.6-2.2-2.8-3.2-4.9-2.8c-1.9,0.4-3.5,0.6-5.5,0.7c-2.1,0.2-4.1,1.7-4,4c0.1,1.8,1.4,3.7,3.2,4c-0.2,30.3,0.5,60.7,2.3,90.9
							c-1.9,0.4-3.5,1.8-3.5,3.9c0,2,1.8,4.2,4,4c2.2-0.2,4.5-0.2,6.7-0.1c2.2,0.1,4-1.9,4-4C108.8,153.2,107.3,151.7,105.5,151.3z"
							/>
						<path class="st1" d="M51.8,148.8c-4.4,0.5-8.8,0.9-13.2,1.1C36.1,118.5,35,87,35.1,55.5c0-5.1-8-5.2-8,0
							c-0.2,32.6,1.1,65.2,3.7,97.8c0,0.5,0.2,0.9,0.3,1.3c0.1,1.9,1.4,3.6,3.8,3.5c5.6-0.2,11.2-0.6,16.8-1.2
							C56.8,156.2,56.9,148.2,51.8,148.8z"/>
						<path class="st1" d="M85.3,148.8c-4.4,0.5-8.8,0.9-13.2,1.1c-2.5-31.4-3.6-62.9-3.5-94.4c0-5.1-8-5.2-8,0
							c-0.2,32.6,1.1,65.2,3.7,97.8c0,0.5,0.2,0.9,0.3,1.3c0.1,1.9,1.4,3.6,3.8,3.5c5.6-0.2,11.2-0.6,16.8-1.2
							C90.3,156.2,90.4,148.2,85.3,148.8z"/>
						<path class="st1" d="M153.4,150.5c-8.1,1.2-17.4-0.6-22.7-7.3c-6.1-7.7-6.4-19.8-6.4-29.2c0-10.1,1.5-20.2,4.5-29.8
							c2.4-7.5,8-24.6,18.2-23.8c5.1,0.4,5.1-7.6,0-8c-12.3-1-19.7,13.3-23.6,22.9c-5.1,12.8-7.4,26.8-7.2,40.5
							c0.2,11.7,1.4,26.2,10.4,34.8c7.7,7.4,18.7,9.1,28.9,7.6C160.6,157.4,158.5,149.7,153.4,150.5z"/>
					</g>
				</g>
				<g>
					<g id="XMLID_1_">
						<g>
							<g>
								<path class="st2" d="M298.7,110.2c0,1.3-0.1,2.6-0.3,3.8c-13.6,3.3-23.5-7.2-23.5-7.2c2.4-2.6,4.6-5.4,6.5-8.4
									c2.3-3.7,4.3-7.6,5.8-11.7h0C294.2,92.2,298.7,100.8,298.7,110.2z"/>
							</g>
							<g>
								<path class="st3" d="M275,106.9c0,0,9.8,10.5,23.5,7.2c-0.9,6.7-4,12.8-8.6,17.4c-4.1,4.1-9.3,7-15.1,8.2
									c0.7-3.1,1-5.7,1-9.1c0-7.1-1.7-13.8-4.8-19.7C272.3,109.6,273.7,108.3,275,106.9z"/>
							</g>
							<g>
								<path class="st4" d="M271.2,38c3.9-0.9,7.4-2.5,9.6-5.5c6.4,9.6,10.2,21.1,10.2,33.5c0,7.3-1.3,14.3-3.7,20.8
									c-1.5,4.2-3.5,8.1-5.8,11.7l-0.1-0.1c-1.5,0.2-2.9,0.2-4.4,0.2c-6.7,0-13.1-1.7-18.6-4.7c-12.2-6.6-20.4-19.5-20.4-34.4
									c0-1.8,0.1-3.6,0.4-5.4c0.9-6.7,3.5-12.8,7.4-18C245.6,36.2,260.1,40.4,271.2,38z"/>
							</g>
							<g>
								<path class="st5" d="M281.3,98.4l0.1,0.1c-1.9,3-4.1,5.8-6.5,8.4c-1.3,1.4-2.6,2.7-4,4c-3.5-6.7-8.6-12.3-15-16.4l2.3-0.5
									c5.5,3,11.9,4.7,18.6,4.7C278.4,98.7,279.8,98.6,281.3,98.4z"/>
							</g>
							<g>
								<path class="st6" d="M275.7,130.6c0,3.3-0.2,6-1,9.1c-2,0.4-4,0.6-6.1,0.6h-76.2c-0.4,0-0.9,0-1.3,0
									c-0.7-3.1-1.1-6.3-1.1-9.7c0-6,1.2-11.8,3.5-16.9c10.2,8,23.1,12.7,37,12.7c15.5,0,29.6-5.8,40.3-15.5
									C274,116.8,275.7,123.5,275.7,130.6z"/>
							</g>
							<g>
								<path class="st2" d="M270.8,21c3.8,3.4,7.2,7.2,10,11.5c-2.2,3-5.7,4.7-9.6,5.5c-11,2.4-25.6-1.8-25.6-1.8
									C251.5,28.2,260.5,22.6,270.8,21z"/>
							</g>
							<g>
								<path class="st7" d="M256,94.5c6.3,4.1,11.5,9.7,15,16.4c-10.7,9.6-24.8,15.5-40.3,15.5c-14,0-26.8-4.7-37-12.7
									c3.7-8.5,10-15.6,18-20.2c6.3-3.6,13.6-5.7,21.3-5.7C241.4,87.8,249.3,90.2,256,94.5z"/>
							</g>
							<g>
								<path class="st5" d="M258.2,93.9l-2.3,0.5c-6.7-4.3-14.6-6.7-23.1-6.7c-7.8,0-15,2.1-21.3,5.7l-0.3-0.5
									c14.1-8,24.2-22.1,26.8-38.8h0c-0.2,1.8-0.4,3.6-0.4,5.4C237.8,74.4,246.1,87.3,258.2,93.9z"/>
							</g>
							<g>
								<path class="st5" d="M238.3,38.5c-0.6-4.2-1.6-8.3-3.2-12.2c13.1-6.2,21-14.9,21-14.9c5.4,2.5,10.3,5.8,14.7,9.7
									c-10.3,1.6-19.3,7.2-25.2,15.2c-3.9,5.1-6.5,11.3-7.4,18h0c0.4-2.7,0.6-5.5,0.6-8.4C238.8,43.3,238.6,40.9,238.3,38.5z"/>
							</g>
							<g>
								<path class="st7" d="M256.1,11.3c0,0-7.9,8.7-21,14.9c-2.9-7.6-7.6-14.4-13.4-20c2.9-0.4,5.8-0.6,8.9-0.6
									C239.7,5.7,248.4,7.7,256.1,11.3z"/>
							</g>
							<g>
								<path class="st8" d="M218.7,31.6c6.1-1.1,11.7-3,16.5-5.4c1.5,3.9,2.6,8,3.2,12.2c0.3,2.4,0.5,4.8,0.5,7.3
									c0,2.9-0.2,5.7-0.6,8.4C235.6,70.8,225.4,85,211.3,93c-7.9,4.5-17,7-26.7,7c-1.3,0-2.6,0-3.8-0.1l-0.1,0
									c-2.8-4.1-5.1-8.5-6.8-13.2c-2.4-6.5-3.7-13.5-3.7-20.8c0-14.4,5.1-27.6,13.5-38C183.7,28,196.1,35.5,218.7,31.6z"/>
							</g>
							<g>
								<path class="st7" d="M221.7,6.3c5.9,5.5,10.5,12.3,13.4,20c-4.8,2.3-10.4,4.3-16.5,5.4c-2.1-6.9-5.7-14.4-11.7-21.2
									C211.6,8.5,216.6,7.1,221.7,6.3z"/>
							</g>
							<g>
								<path class="st5" d="M211.3,93l0.3,0.5c-8,4.6-14.3,11.7-18,20.2c-2.2-1.7-4.3-3.6-6.3-5.6c-2.4-2.5-4.6-5.2-6.6-8.1l0.1,0
									c1.3,0.1,2.5,0.1,3.8,0.1C194.3,100,203.4,97.4,211.3,93z"/>
							</g>
							<g>
								<path class="st7" d="M207,10.4c6,6.7,9.6,14.2,11.7,21.2c-22.6,3.9-34.9-3.6-34.9-3.6C189.9,20.4,197.9,14.3,207,10.4z"/>
							</g>
							<g>
								<path class="st3" d="M190.1,130.6c0,3.3,0.4,6.6,1.1,9.7c-12.4-0.6-23-8.8-26.9-20c17.8,2,23-12.2,23-12.2
									c1.9,2,4,3.9,6.3,5.6C191.3,118.8,190.1,124.5,190.1,130.6z"/>
							</g>
							<g>
								<path class="st2" d="M180.7,99.9c2,2.9,4.2,5.6,6.6,8.1c0,0-5.2,14.3-23,12.2h0c-1.1-3.1-1.7-6.5-1.7-10
									c0-4.8,1.1-9.2,3.1-13.2c2-4,4.8-7.5,8.3-10.3C175.6,91.4,177.9,95.9,180.7,99.9z"/>
							</g>
						</g>
						<g>
							<g>
								<path class="st9" d="M230.6,129.3c-14.2,0-27.7-4.6-38.9-13.3c-2.3-1.8-4.5-3.8-6.6-5.9c-2.5-2.6-4.9-5.5-6.9-8.5
									c-2.9-4.3-5.3-9-7.1-13.8c-2.5-7-3.8-14.3-3.8-21.8c0-14.5,5-28.7,14.2-39.9c6.5-8,14.9-14.4,24.4-18.4
									c5-2.1,10.2-3.6,15.5-4.4c3.1-0.4,6.2-0.7,9.3-0.7c9.4,0,18.4,2,26.8,5.9c5.6,2.6,10.8,6,15.4,10.2c4,3.6,7.5,7.6,10.5,12.1
									l0,0c7,10.4,10.7,22.6,10.7,35.2c0,7.5-1.3,14.8-3.9,21.8c-1.6,4.3-3.6,8.5-6.1,12.3c-2,3.1-4.3,6.1-6.8,8.8
									c-1.3,1.4-2.7,2.9-4.3,4.2C261.3,123.6,246.2,129.3,230.6,129.3z M230.6,8.6c-2.8,0-5.6,0.2-8.4,0.6c-4.8,0.7-9.5,2-14,4
									c-8.6,3.6-16.2,9.4-22.1,16.7c-8.3,10.2-12.8,23-12.8,36.1c0,6.8,1.2,13.4,3.5,19.7c1.6,4.4,3.8,8.6,6.4,12.5
									c1.8,2.7,4,5.3,6.3,7.7c1.9,1.9,3.9,3.7,6,5.4c10.1,7.9,22.3,12.1,35.2,12.1c14.2,0,27.8-5.2,38.3-14.7
									c1.4-1.2,2.7-2.5,3.8-3.8c2.3-2.5,4.3-5.1,6.1-8c2.2-3.5,4.1-7.2,5.5-11.2c2.3-6.3,3.5-13,3.5-19.7
									c0-11.4-3.3-22.4-9.7-31.9l0,0c-2.7-4-5.9-7.7-9.5-10.9c-4.2-3.7-8.9-6.8-13.9-9.2C247.2,10.5,239.1,8.6,230.6,8.6z"/>
							</g>
							<g>
								<path class="st9" d="M161.4,121.2c-1.3-3.5-1.9-7.2-1.9-11c0-5.1,1.1-10,3.4-14.6c2.2-4.3,5.3-8.2,9.1-11.3l3.7,4.7
									c-3.1,2.5-5.7,5.7-7.5,9.2c-1.8,3.7-2.8,7.7-2.8,11.9c0,3.1,0.5,6.1,1.5,9L161.4,121.2z"/>
							</g>
							<g>
								<path class="st9" d="M268.7,143.2h-76.2c-0.5,0-1,0-1.5,0c-13.3-0.6-25.2-9.4-29.6-22l5.7-2c3.6,10.3,13.4,17.5,24.2,18
									c0.4,0,0.8,0,1.2,0h76.2c1.8,0,3.7-0.2,5.4-0.6c5.1-1.1,9.9-3.6,13.6-7.4c4.2-4.2,7-9.8,7.7-15.6c0.2-1.1,0.2-2.2,0.2-3.4
									c0-8.3-3.7-16-10.3-21.1l3.7-4.7c8,6.3,12.5,15.7,12.5,25.9c0,1.5-0.1,2.9-0.3,4.2c-0.9,7.1-4.2,13.9-9.4,19.1
									c-4.6,4.6-10.4,7.7-16.6,9C273.2,143,270.9,143.2,268.7,143.2z"/>
							</g>
							<g>
								<path class="st9" d="M221.4,59c-0.1,0-0.2,0-0.3,0c-1.6-0.2-2.8-1.7-2.6-3.3c0-0.1,1.1-10.8-2.7-23.2
									c-2.3-7.7-6.1-14.4-11-20c-1.1-1.2-1-3.1,0.2-4.2c1.2-1.1,3.1-1,4.2,0.2c5.6,6.2,9.7,13.7,12.3,22.3
									c4.2,13.6,2.9,25.1,2.9,25.6C224.2,57.9,222.9,59,221.4,59z"/>
							</g>
							<g>
								<path class="st9" d="M206,35.7c-15.1,0-23.4-4.9-23.8-5.2l3.1-5.1l-1.6,2.6l1.6-2.6c0.1,0.1,11.8,6.9,32.9,3.2
									c5.3-0.9,10.6-2.6,15.7-5.1c12.3-5.9,20-14.2,20-14.3l4.4,4c-0.3,0.4-8.5,9.2-21.9,15.6c-5.6,2.7-11.5,4.6-17.3,5.6
									C214.3,35.4,209.9,35.7,206,35.7z"/>
							</g>
							<g>
								<path class="st9" d="M184.6,103c-1.4,0-2.8,0-4-0.1c-1.7-0.1-2.9-1.6-2.8-3.2c0.1-1.7,1.5-2.9,3.2-2.8
									c1.1,0.1,2.4,0.1,3.6,0.1c8.9,0,17.6-2.3,25.2-6.6c13.7-7.8,22.9-21.1,25.4-36.6c0.4-2.6,0.6-5.3,0.6-7.9
									c0-2.3-0.2-4.6-0.5-6.9c-0.5-3.9-1.5-7.8-3-11.5c-2.7-7-7.1-13.5-12.6-18.8l-0.2-0.2c-1.2-1-1.4-2.8-0.4-4.1
									c1-1.3,2.9-1.6,4.2-0.6c0.1,0,0.1,0.1,0.2,0.2l0.1,0.1C230,10,234.9,17.3,238,25.2c1.6,4.2,2.7,8.5,3.3,12.9
									c0.3,2.6,0.5,5.2,0.5,7.7c0,3-0.2,5.9-0.7,8.9c-2.7,17.3-13,32.2-28.3,40.9C204.2,100.4,194.5,103,184.6,103z M219.6,8.4
									C219.6,8.4,219.6,8.4,219.6,8.4L219.6,8.4z"/>
							</g>
							<g>
								<path class="st9" d="M276.9,101.7c-7,0-13.9-1.8-20.1-5.1c-13.6-7.4-22-21.6-22-37c0-1.9,0.1-3.9,0.4-5.8
									c1-7,3.7-13.7,8-19.4c6.6-8.9,16.3-14.7,27.1-16.4c1.6-0.3,3.2,0.9,3.4,2.5c0.3,1.6-0.9,3.2-2.5,3.4
									c-9.3,1.5-17.6,6.5-23.3,14.1c-3.6,4.9-6,10.6-6.8,16.6c-0.2,1.7-0.3,3.3-0.3,5c0,13.2,7.2,25.4,18.9,31.7
									c5.2,2.8,11.2,4.3,17.2,4.3c1.4,0,2.8-0.1,4.1-0.2c1.6-0.2,3.1,1,3.3,2.7c0.2,1.6-1,3.1-2.7,3.3
									C280.1,101.6,278.5,101.7,276.9,101.7z"/>
							</g>
							<g>
								<path class="st9" d="M188.9,142.2l-0.5-0.6l-0.2-0.8c-0.8-3.4-1.2-6.9-1.2-10.3c0-6.3,1.3-12.4,3.7-18.1
									c3.9-9,10.7-16.7,19.3-21.6c6.9-4,14.8-6.1,22.8-6.1c8.8,0,17.3,2.5,24.7,7.2c6.8,4.4,12.3,10.4,16,17.5
									c3.4,6.5,5.1,13.8,5.1,21.1c0,3.7-0.3,6.5-1,9.7l-5.8-1.4c0.6-2.8,0.9-5.1,0.9-8.4c0-6.5-1.5-12.6-4.5-18.3
									c-3.2-6.2-8-11.4-13.9-15.2c-6.4-4.1-13.8-6.3-21.5-6.3c-7,0-13.8,1.8-19.8,5.3c-7.4,4.3-13.4,10.9-16.8,18.8
									c-2.1,5-3.2,10.3-3.2,15.8c0,2.8,0.3,5.5,0.8,8.2l0.2,0.3l0,1.2h-3L188.9,142.2z"/>
							</g>
							<g>
								<path class="st9" d="M293,117.7c-11.8,0-19.9-8.4-20.2-8.8l4.4-4.1c0.4,0.4,8.9,9.2,20.6,6.3l0.3-0.1l1.3,5.9l-0.3,0.1
									C297,117.5,294.9,117.7,293,117.7z"/>
							</g>
							<g>
								<path class="st9" d="M167.6,123.4c-1.2,0-2.4-0.1-3.7-0.2l0.3-2.9l0-3l0.4,0c15.1,1.7,19.7-9.8,19.9-10.3l5.6,2.1
									C188.2,114.3,181.1,123.4,167.6,123.4z"/>
							</g>
							<g>
								<path class="st9" d="M263.4,41.7c-9.4,0-18.2-2.5-18.7-2.6l1.6-5.8c0.1,0,14,3.9,24.2,1.7c3.6-0.8,6.3-2.3,7.8-4.4
									c0.1-0.2,0.3-0.4,0.4-0.6l5.1,3.1c-0.2,0.4-0.4,0.7-0.7,1c-2.5,3.3-6.3,5.6-11.4,6.7C269.1,41.5,266.3,41.7,263.4,41.7z"/>
							</g>
							<g>
								<path class="st9" d="M263.4,69c-1.5,0-2.8-1.1-3-2.6c-2-16.5,7.9-29.6,8.3-30.2c1-1.3,2.9-1.6,4.2-0.6
									c1.3,1,1.6,2.9,0.6,4.2l0,0c-0.1,0.1-8.8,11.8-7.1,25.8c0.2,1.6-1,3.1-2.6,3.3C263.7,69,263.5,69,263.4,69z"/>
							</g>
							<g>
								<path class="st9" d="M283.4,62.8c-0.1,0-0.2,0-0.2,0c-1.7-0.1-2.9-1.6-2.8-3.2c0-0.3,0-2.2-1.8-3c-1.6-0.7-2.8,0.8-3.1,1.1
									c-1,1.3-2.8,1.6-4.2,0.7s-1.7-2.8-0.7-4.1c1.4-2,5.4-5.3,10.3-3.2c4.7,2,5.7,6.6,5.5,9C286.3,61.6,285,62.8,283.4,62.8z"/>
							</g>
							<g>
								<path class="st9" d="M260.2,52.9l-5.8-1.4l0,0.1c0-0.1,0.2-1.5-1.3-3c-1.2-1.2-3.7-0.6-4.5-0.3c-1.5,0.6-3.3-0.2-3.8-1.8
									c-0.6-1.5,0.2-3.3,1.7-3.8c2.5-0.9,7.6-1.6,10.9,1.7C261.1,48.3,260.3,52.4,260.2,52.9z"/>
							</g>
							<g>
								<path class="st9" d="M263.7,78.3c-0.6,0-1.2,0-1.8-0.1c-5.1-0.8-8-5.1-8.3-5.5c-0.9-1.4-0.5-3.2,0.9-4.2
									c1.4-0.9,3.2-0.5,4.1,0.8c0.1,0.1,1.8,2.5,4.3,2.9c1.6,0.3,3.3-0.4,5.2-1.8c1.3-1,3.2-0.8,4.2,0.5c1,1.3,0.8,3.2-0.5,4.2
									C269.1,77.2,266.4,78.3,263.7,78.3z"/>
							</g>
							<g>
								<path class="st9" d="M191.1,54.2c-0.2,0-0.4,0-0.5-0.1c-1.6-0.3-2.7-1.8-2.4-3.4c0.5-2.6,2.6-7.2,7.8-7.8
									c4.9-0.6,8.1,2.3,9.3,4c0.9,1.4,0.6,3.2-0.8,4.2c-1.4,0.9-3.2,0.6-4.2-0.8c-0.1-0.1-1.3-1.7-3.7-1.4c-2,0.2-2.5,2.8-2.6,2.9
									C193.8,53.1,192.5,54.2,191.1,54.2z"/>
							</g>
							<g>
								<path class="st9" d="M229.9,46.8c-0.1,0-0.2,0-0.2,0c-1.7-0.1-2.9-1.6-2.8-3.2c0-0.6,0.6-5.9,4.5-8.1
									c1.6-0.9,4.3-1.6,8.2,0.3c0.2,0.1,0.3,0.2,0.5,0.3l0.1,0.1c1.5,0.8,2,2.6,1.2,4.1c-0.8,1.5-2.6,2-4.1,1.2l-0.1-0.1
									c-0.1,0-0.1-0.1-0.2-0.1l-0.1-0.1c-1.2-0.6-2.1-0.8-2.6-0.5c-0.8,0.5-1.4,2.4-1.5,3.4C232.8,45.6,231.5,46.8,229.9,46.8z"/>
							</g>
							<g>
								<path class="st9" d="M218.7,69.4c-5.4,0-9.9-2.2-10.2-2.3c-1.5-0.7-2.1-2.5-1.4-4c0.7-1.5,2.5-2.1,4-1.4
									c0.2,0.1,9.3,4.4,14.7-1.1c1.2-1.2,3.1-1.2,4.2,0c1.2,1.2,1.2,3.1,0,4.2C226.6,68.3,222.4,69.4,218.7,69.4z"/>
							</g>
							<g>
								<path class="st9" d="M209.8,108.5c-0.6,0-1.1-0.2-1.6-0.5c-1.4-0.9-1.8-2.8-0.9-4.2c1.5-2.4,6.2-6.2,12.6-3.8
									c1.6,0.6,2.4,2.3,1.8,3.8c-0.6,1.6-2.3,2.4-3.8,1.8c-3.6-1.3-5.5,1.4-5.5,1.5C211.7,108,210.8,108.5,209.8,108.5z"/>
							</g>
							<g>
								<path class="st9" d="M231.4,106.9c-1.5,0-2.8-1.1-3-2.7c-0.9-7.6-4.7-11.8-4.7-11.9c-1.1-1.2-1-3.1,0.2-4.2
									c1.2-1.1,3.1-1.1,4.2,0.1c0.2,0.2,5.2,5.6,6.3,15.3c0.2,1.6-1,3.1-2.6,3.3C231.7,106.9,231.5,106.9,231.4,106.9z"/>
							</g>
							<g>
								<path class="st9" d="M240.6,102.3c-0.9,0-1.7-0.4-2.3-1.1c-1-1.3-0.9-3.2,0.4-4.2c2.3-1.8,7.7-4.2,12.4,0.1
									c1.2,1.1,1.3,3,0.2,4.2c-1.1,1.2-3,1.3-4.2,0.2c-0.2-0.2-2.2-1.9-4.6,0.1C241.9,102.1,241.3,102.3,240.6,102.3z"/>
							</g>
							<g>
								<path class="st9" d="M231.8,117.7c-3.3,0-6.1-0.7-6.6-0.8c-1.6-0.4-2.6-2.1-2.1-3.7c0.4-1.6,2.1-2.6,3.7-2.1
									c2.4,0.6,8,1.3,10.1-0.6c1.2-1.1,3.1-1.1,4.2,0.2c1.1,1.2,1.1,3.1-0.2,4.2C238.4,117.1,234.9,117.7,231.8,117.7z"/>
							</g>
							<g>
								<path class="st9" d="M230.6,160.7c-1.7,0-3-1.3-3-3v-16.3c0-1.7,1.3-3,3-3s3,1.3,3,3v16.3
									C233.6,159.3,232.2,160.7,230.6,160.7z"/>
							</g>
						</g>
					</g>
				</g>
			</g>
		</g>
		<path class="st1" d="M75.8,169.5c-5.6-0.1-11.1,0.1-16.7,0.6c-3.8,0.4-3.8,6.4,0,6c1.8-0.2,3.5-0.3,5.3-0.4
			c-0.3,6.8-0.3,13.5,0.2,20.3c0.3,3.8,6.3,3.9,6,0c-0.5-6.8-0.5-13.7-0.2-20.5c1.8,0,3.6,0,5.4,0C79.7,175.6,79.7,169.6,75.8,169.5
			z"/>
		<path class="st1" d="M98.2,193c-1.7,0-3.8,0.3-5.6,0.2c-0.2-1.7-0.2-3.5-0.1-5.3c2,0,3.9-0.3,5.8-0.8c3.7-1,2.2-6.8-1.6-5.8
			c-1.3,0.3-2.7,0.5-4,0.6c0-2.6,0.1-5.3,0.1-7.9l4.3,0.5c1.6,0.2,3-1.5,3-3c0-1.8-1.4-2.8-3-3c-2.2-0.3-4.4-0.5-6.7-0.8
			c-1.1-0.1-2.1,0.6-2.6,1.6c-0.6,0.5-1,1.2-1,2.2c-0.2,7.5-0.8,15.3-0.2,22.8c0.5,6.4,6.3,4.9,11.4,4.9C102,199,102,193,98.2,193z"
			/>
		<path class="st1" d="M134.7,194.2c-2.2-3.1-4.3-6.2-6.5-9.3c3.5-2.3,5.7-5.7,4-10.2c-2.6-7.2-11.4-10.3-17.2-4.8
			c-0.1,0.1-0.2,0.2-0.3,0.3c-0.6,0.5-1,1.2-0.9,2.2c0.1,8,0.2,16,0.3,24c0.1,3.9,6.1,3.9,6,0c0-2.7-0.1-5.5-0.1-8.2
			c0.9-0.2,1.8-0.4,2.7-0.7c2.3,3.3,4.6,6.5,6.8,9.8C131.8,200.3,137,197.3,134.7,194.2z M119.9,182.1c0-2.8-0.1-5.7-0.1-8.5
			c2.6-1.7,6.6,0.3,6.9,3.5C127,179.7,122.8,181.4,119.9,182.1z"/>
		<path class="st1" d="M507.4,194.2c-2.2-3.1-4.3-6.2-6.5-9.3c3.5-2.3,5.7-5.7,4-10.2c-2.6-7.2-11.4-10.3-17.2-4.8
			c-0.1,0.1-0.2,0.2-0.3,0.3c-0.6,0.5-1,1.2-0.9,2.2c0.1,8,0.2,16,0.3,24c0.1,3.9,6.1,3.9,6,0c0-2.7-0.1-5.5-0.1-8.2
			c0.9-0.2,1.8-0.4,2.7-0.7c2.3,3.3,4.6,6.5,6.8,9.8C504.4,200.3,509.6,197.3,507.4,194.2z M492.6,182.1c0-2.8-0.1-5.7-0.1-8.5
			c2.6-1.7,6.6,0.3,6.9,3.5C499.7,179.7,495.5,181.4,492.6,182.1z"/>
		<path class="st1" d="M169.4,194.4c-3.2-7.6-5.8-16.3-10.3-23.3c-1.1-1.7-4.2-2.2-5.2,0c-3.5,8-7,16-10.5,23.9
			c-1.5,3.5,3.6,6.6,5.2,3l2.7-6.1c3.2-0.5,6.4-0.7,9.6-0.6c0.3,0,0.6,0,0.8-0.1c0.6,1.6,1.2,3.2,1.9,4.7
			C165,199.5,170.8,198,169.4,194.4z M154,185.6c0.9-2.1,1.8-4.1,2.7-6.2c0.9,1.9,1.8,3.9,2.6,6C157.6,185.3,155.8,185.4,154,185.6z
			"/>
		<path class="st1" d="M343,194.1c-3.2-7.6-5.8-16.3-10.3-23.3c-1.1-1.7-4.2-2.2-5.2,0c-3.5,8-7,16-10.5,23.9
			c-1.5,3.5,3.6,6.6,5.2,3l2.7-6.1c3.2-0.5,6.4-0.7,9.6-0.6c0.3,0,0.6,0,0.8-0.1c0.6,1.6,1.2,3.2,1.9,4.7
			C338.7,199.2,344.5,197.6,343,194.1z M327.7,185.2c0.9-2.1,1.8-4.1,2.7-6.2c0.9,1.9,1.8,3.9,2.6,6
			C331.3,185,329.5,185.1,327.7,185.2z"/>
		<path class="st1" d="M477.4,194.1c-3.2-7.6-5.8-16.3-10.3-23.3c-1.1-1.7-4.2-2.2-5.2,0c-3.5,8-7,16-10.5,23.9
			c-1.5,3.5,3.6,6.6,5.2,3l2.7-6.1c3.2-0.5,6.4-0.7,9.6-0.6c0.3,0,0.6,0,0.8-0.1c0.6,1.6,1.2,3.2,1.9,4.7
			C473,199.2,478.8,197.6,477.4,194.1z M462,185.2c0.9-2.1,1.8-4.1,2.7-6.2c0.9,1.9,1.8,3.9,2.6,6C465.6,185,463.8,185.1,462,185.2z
			"/>
		<path class="st1" d="M196.6,176.4c-0.4-3.3-3.4-5.7-6.3-6.9c-3-1.3-6.1-1.1-8.7,0.6c-1.3,0.2-2.5,1.1-2.5,2.9
			c0.1,7.3,0,14.7-0.3,22c-0.2,3.9,5.8,3.9,6,0c0.1-2.3,0.2-4.5,0.2-6.8C190.7,187.5,197.3,182.8,196.6,176.4z M189.9,178.9
			c-1.1,1.8-2.9,2.9-4.9,3.3c0-2.4,0-4.8,0-7.2c1.2-0.7,2.6-0.2,3.7,0.5C190.3,176.4,190.9,177.3,189.9,178.9z"/>
		<path class="st1" d="M213.9,172c0.1-3.9-5.9-3.9-6,0c-0.2,7.3-0.1,14.7,0.3,22c0.2,3.8,6.2,3.9,6,0
			C213.8,186.7,213.7,179.3,213.9,172z"/>
		<path class="st1" d="M252.4,194c-3.4-8-7.4-15.7-11.8-23.2c-1.2-1.9-4-1.9-5.2,0c-4.7,7.8-8.3,16.1-10.9,24.8
			c-1.1,3.7,4.7,5.3,5.8,1.6c0.7-2.3,1.5-4.6,2.3-6.8c3.8-0.2,7.6-0.4,11.3-0.6c1.1,2.4,2.3,4.8,3.3,7.3
			C248.8,200.5,253.9,197.5,252.4,194z M235.2,184.2c0.9-2,1.9-3.9,2.9-5.9c1,1.8,2,3.7,3,5.6C239.1,184,237.1,184.1,235.2,184.2z"
			/>
		<path class="st1" d="M299.1,175.3h6.7c3.9,0,3.9-6,0-6h-9.3c-1.1,0-1.8,0.5-2.3,1.1c-0.6,0.5-1,1.2-1,2.2c-0.3,7.7,0,15.3,0.7,23
			c0.4,3.8,6.4,3.8,6,0c-0.3-2.9-0.5-5.8-0.6-8.7c1.9-0.1,3.7-0.2,5.6-0.3c3.8-0.2,3.9-6.2,0-6c-1.9,0.1-3.8,0.2-5.8,0.3
			C299.1,179.1,299.1,177.2,299.1,175.3z"/>
		<path class="st1" d="M378.8,173.5c-0.4-1.7-1.7-2.3-3-2.1c-1-0.2-2.1,0.2-2.8,1.5c-2.4,4.5-4.8,8.9-7.2,13.4
			c-2-4.5-3.8-9.1-5.5-13.7c-0.3-0.8-0.8-1.3-1.3-1.6c-1.5-1.4-4.4-1.4-4.9,1.2c-1.7,8.2-3,16.5-3.8,24.8c-0.4,3.8,5.6,3.8,6,0
			c0.5-4.6,1.1-9.2,1.9-13.8c1.5,3.7,3.1,7.4,4.8,11c0.8,1.8,2.5,1.9,3.8,1.1c0.7-0.1,1.4-0.6,1.9-1.4c2-3.7,4-7.5,6-11.2
			c0.8,4.9,1.3,9.9,1.4,15c0.1,3.9,6.1,3.9,6,0C381.7,189.5,380.7,181.5,378.8,173.5z"/>
		<path class="st1" d="M398.1,172c-0.3-3.8-6.3-3.9-6,0c0.5,7.6,0.7,15.1,0.4,22.7c-0.2,3.9,5.8,3.9,6,0
			C398.7,187.1,398.6,179.5,398.1,172z"/>
		<path class="st1" d="M423.9,191.5c-2.7,0.2-5.4,0.4-8.1,0.6c-0.3-6.5-0.3-13-0.1-19.5c0.1-3.9-5.9-3.9-6,0
			c-0.2,7.6-0.1,15.2,0.3,22.7c0.1,1.5,1.3,3.1,3,3l11-0.9C427.7,197.2,427.7,191.2,423.9,191.5z"/>
		<path class="st1" d="M440.8,173c-0.2-3.8-6.2-3.9-6,0c0.4,7.2,0.5,14.4,0.3,21.7c-0.1,3.9,5.9,3.9,6,0
			C441.3,187.4,441.2,180.2,440.8,173z"/>
	</g>
</g>
</svg>
