<?xml version="1.0" encoding="utf-8"?>
<!-- Generator: Adobe Illustrator 21.0.2, SVG Export Plug-In . SVG Version: 6.00 Build 0)  -->
<svg version="1.1" id="Layer_1" xmlns="http://www.w3.org/2000/svg" xmlns:xlink="http://www.w3.org/1999/xlink" x="0px" y="0px"
	 viewBox="0 0 590 162.7" style="enable-background:new 0 0 590 162.7;" xml:space="preserve">
<style type="text/css">
	.st0{fill:none;stroke:#231F20;stroke-miterlimit:10;}
	.st1{fill:#122251;}
	.st2{fill:#8D2AD4;}
	.st3{fill:#5FED76;}
	.st4{fill:#5FE8B5;}
	.st5{fill:#13B6BE;}
	.st6{fill:#25C8FE;}
	.st7{fill:#6AD968;}
	.st8{fill:#85F1B2;}
	.st9{fill:none;stroke:#122251;stroke-width:6;stroke-miterlimit:10;}
	.st10{fill:none;stroke:#122251;stroke-width:6;stroke-linecap:round;stroke-miterlimit:10;}
</style>
<g id="Layer_4">
	<g>
		<g>
			<g>
				<path class="st0" d="M390.6,137.3"/>
			</g>
		</g>
		<g>
			<g>
				<g>
					<path class="st1" d="M351,55.3c-0.2-4.5-7.2-4.5-7,0c1.1,25.6,1.7,51.3,1.7,76.9c-9.2-24.7-17.8-49.5-25.8-74.6
						c-0.6-2-2.4-2.6-4-2.4c-1.8,0-3.6,1.1-3.6,3.4c-0.1,30.6,1.4,61.2,4.4,91.6c0.4,4.4,7.4,4.5,7,0c-2.3-23.7-3.7-47.5-4.2-71.3
						c7.9,23.8,16.4,47.4,25.4,70.9c0.4,1,1.1,1.7,1.9,2c2,1.6,5.8,0.8,5.9-2.6C352.9,118,352.4,86.7,351,55.3z"/>
					<path class="st1" d="M396.3,145.7c-1.7-7.8-3.4-15.6-5.1-23.4c0.3,0,0.5-0.1,0.8-0.1c4.4-0.5,4.5-7.5,0-7
						c-0.7,0.1-1.5,0.2-2.2,0.3c-4.3-19.8-8.7-39.6-13-59.4c-0.5-2.3-2.5-2.9-4.2-2.3c-1.5,0.2-3,1.3-3.3,3.3
						c-2.7,20.4-5.4,40.8-8.1,61.2c-0.2,0-0.3,0-0.5,0c-4.3,0.3-4.5,6.9-0.4,7c-1,7.6-2,15.2-3,22.8c-0.6,4.5,6.4,4.4,7,0
						c1-7.8,2-15.5,3.1-23.3c5.7-0.5,11.3-1,16.9-1.6c1.8,8.2,3.6,16.3,5.4,24.5C390.5,152,397.3,150.1,396.3,145.7z M368.2,117.6
						c1.9-14.1,3.7-28.2,5.6-42.3c3,13.6,6,27.3,8.9,40.9C377.9,116.8,373.1,117.2,368.2,117.6z"/>
					<path class="st1" d="M515.3,145.7c-1.7-7.8-3.4-15.6-5.1-23.4c0.3,0,0.5-0.1,0.8-0.1c4.4-0.5,4.5-7.5,0-7
						c-0.7,0.1-1.5,0.2-2.2,0.3c-4.3-19.8-8.7-39.6-13-59.4c-0.5-2.3-2.5-2.9-4.2-2.3c-1.5,0.2-3,1.3-3.3,3.3
						c-2.7,20.4-5.4,40.8-8.1,61.2c-0.2,0-0.3,0-0.5,0c-4.3,0.3-4.5,6.9-0.4,7c-1,7.6-2,15.2-3,22.8c-0.6,4.5,6.4,4.4,7,0
						c1-7.8,2-15.5,3.1-23.3c5.7-0.5,11.3-1,16.9-1.6c1.8,8.2,3.6,16.3,5.4,24.5C509.6,152,516.3,150.1,515.3,145.7z M487.2,117.6
						c1.9-14.1,3.7-28.2,5.6-42.3c3,13.6,6,27.3,8.9,40.9C496.9,116.8,492.1,117.2,487.2,117.6z"/>
					<path class="st1" d="M435.8,151.3c-6-12.6-11.7-25.3-16.9-38.3c8.2-12.6,16.4-26.7,13-42.3c-2.8-12.5-14.6-21.9-27.6-19.2
						c-0.3,0.1-0.6,0.2-0.8,0.3c-1.3,0.4-2.3,1.5-2.3,3.2c-0.5,31.9-0.3,63.8,0.7,95.7c0.1,4.5,7.1,4.5,7,0
						c-0.9-30.9-1.1-61.8-0.7-92.6c10.8-0.9,17.6,10.4,17.6,20.3c-0.1,12-7.1,22.5-13.5,32.1c-0.6,0.8-0.7,1.7-0.5,2.4
						c-0.1,0.5,0,1,0.2,1.6c5.5,13.6,11.5,27.1,17.8,40.4C431.7,158.9,437.7,155.4,435.8,151.3z"/>
					<path class="st1" d="M473.5,151.3c-6-12.6-11.7-25.3-16.9-38.3c8.2-12.6,16.4-26.7,13-42.3C466.8,58.2,455,48.8,442,51.5
						c-0.3,0.1-0.6,0.2-0.8,0.3c-1.3,0.4-2.3,1.5-2.3,3.2c-0.5,31.9-0.3,63.8,0.7,95.7c0.1,4.5,7.1,4.5,7,0
						c-0.9-30.9-1.1-61.8-0.7-92.6c10.8-0.9,17.6,10.4,17.6,20.3c-0.1,12-7.1,22.5-13.5,32.1c-0.6,0.8-0.7,1.7-0.5,2.4
						c-0.1,0.5,0,1,0.2,1.6c5.5,13.6,11.5,27.1,17.8,40.4C469.4,158.9,475.4,155.4,473.5,151.3z"/>
					<path class="st1" d="M552.7,151.3c-6-12.6-11.7-25.3-16.9-38.3c8.2-12.6,16.4-26.7,13-42.3c-2.8-12.5-14.6-21.9-27.6-19.2
						c-0.3,0.1-0.6,0.2-0.8,0.3c-1.3,0.4-2.3,1.5-2.3,3.2c-0.5,31.9-0.3,63.8,0.7,95.7c0.1,4.5,7.1,4.5,7,0
						c-0.9-30.9-1.1-61.8-0.7-92.6c10.8-0.9,17.6,10.4,17.6,20.3c-0.1,12-7.1,22.5-13.5,32.1c-0.6,0.8-0.7,1.7-0.5,2.4
						c-0.1,0.5,0,1,0.2,1.6c5.5,13.6,11.5,27.1,17.8,40.4C548.6,158.9,554.7,155.4,552.7,151.3z"/>
					<path class="st1" d="M582,146.9c-5.8,0.7-11.7,0.9-17.5,0.6c-0.4-8.5-0.7-17.1-0.9-25.6c3.9-0.1,7.8-0.4,11.7-1
						c1.9-0.3,2.9-2.6,2.4-4.3c-0.5-2-2.4-2.7-4.3-2.4c-3.3,0.5-6.7,0.7-10.1,0.8c-0.5-17.8-0.8-35.6-0.9-53.4
						c6.5-0.5,13-0.7,19.6-0.4c4.5,0.2,4.5-6.8,0-7c-7.4-0.3-14.7-0.1-22,0.6c-0.2,0-0.5,0.1-0.7,0.1c-1.9-0.2-3.9,0.9-3.9,3.3
						c0.1,30.8,0.8,61.6,2.2,92.3c0.1,1.5,0.9,2.5,2,3c0.5,0.5,1.2,0.8,2.1,0.8c6.8,0.5,13.6,0.4,20.3-0.4
						C586.4,153.4,586.4,146.4,582,146.9z"/>
				</g>
				<g>
					<path class="st1" d="M17.5,150.3c-1.8-30.6-2.5-61.2-2.3-91.8c0.1,0,0.3,0,0.4-0.1c2.1-0.4,3.3-3,2.8-4.9
						c-0.6-2.2-2.8-3.2-4.9-2.8c-1.9,0.4-3.5,0.6-5.5,0.7c-2.1,0.2-4.1,1.7-4,4c0.1,1.8,1.4,3.7,3.2,4C7,89.7,7.7,120.1,9.5,150.3
						c-1.9,0.4-3.5,1.8-3.5,3.9c0,2,1.8,4.2,4,4s4.5-0.2,6.7-0.1s4-1.9,4-4C20.8,152.2,19.4,150.7,17.5,150.3z"/>
					<path class="st1" d="M106.3,150.3c-1.8-30.6-2.5-61.2-2.3-91.8c0.1,0,0.3,0,0.4-0.1c2.1-0.4,3.3-3,2.8-4.9
						c-0.6-2.2-2.8-3.2-4.9-2.8c-1.9,0.4-3.5,0.6-5.5,0.7c-2.1,0.2-4.1,1.7-4,4c0.1,1.8,1.4,3.7,3.2,4c-0.2,30.3,0.5,60.7,2.3,90.9
						c-1.9,0.4-3.5,1.8-3.5,3.9c0,2,1.8,4.2,4,4s4.5-0.2,6.7-0.1s4-1.9,4-4C109.6,152.2,108.1,150.7,106.3,150.3z"/>
					<path class="st1" d="M52.6,147.8c-4.4,0.5-8.8,0.9-13.2,1.1c-2.5-31.4-3.6-62.9-3.5-94.4c0-5.1-8-5.2-8,0
						c-0.2,32.6,1.1,65.2,3.7,97.8c0,0.5,0.2,0.9,0.3,1.3c0.1,1.9,1.4,3.6,3.8,3.5c5.6-0.2,11.2-0.6,16.8-1.2
						C57.6,155.2,57.7,147.2,52.6,147.8z"/>
					<path class="st1" d="M86.1,147.8c-4.4,0.5-8.8,0.9-13.2,1.1c-2.5-31.4-3.6-62.9-3.5-94.4c0-5.1-8-5.2-8,0
						c-0.2,32.6,1.1,65.2,3.7,97.8c0,0.5,0.2,0.9,0.3,1.3c0.1,1.9,1.4,3.6,3.8,3.5c5.6-0.2,11.2-0.6,16.8-1.2
						C91.1,155.2,91.2,147.2,86.1,147.8z"/>
					<path class="st1" d="M154.2,149.5c-8.1,1.2-17.4-0.6-22.7-7.3c-6.1-7.7-6.4-19.8-6.4-29.2c0-10.1,1.5-20.2,4.5-29.8
						c2.4-7.5,8-24.6,18.2-23.8c5.1,0.4,5.1-7.6,0-8c-12.3-1-19.7,13.3-23.6,22.9c-5.1,12.8-7.4,26.8-7.2,40.5
						c0.2,11.7,1.4,26.2,10.4,34.8c7.7,7.4,18.7,9.1,28.9,7.6C161.4,156.4,159.3,148.7,154.2,149.5z"/>
				</g>
			</g>
			<g>
				<g id="XMLID_1_">
					<g>
						<path class="st2" d="M299.5,109.2c0,1.3-0.1,2.6-0.3,3.8c-13.6,3.3-23.5-7.2-23.5-7.2c2.4-2.6,4.6-5.4,6.5-8.4
							c2.3-3.7,4.3-7.6,5.8-11.7l0,0C295,91.2,299.5,99.8,299.5,109.2z"/>
						<path class="st3" d="M275.8,105.9c0,0,9.8,10.5,23.5,7.2c-0.9,6.7-4,12.8-8.6,17.4c-4.1,4.1-9.3,7-15.1,8.2
							c0.7-3.1,1-5.7,1-9.1c0-7.1-1.7-13.8-4.8-19.7C273.1,108.6,274.5,107.3,275.8,105.9z"/>
						<path class="st4" d="M272,37c3.9-0.9,7.4-2.5,9.6-5.5c6.4,9.6,10.2,21.1,10.2,33.5c0,7.3-1.3,14.3-3.7,20.8
							c-1.5,4.1-3.5,8.1-5.8,11.7l-0.1-0.1c-1.5,0.2-2.9,0.2-4.4,0.2c-6.7,0-13.1-1.7-18.6-4.7c-12.2-6.6-20.4-19.5-20.4-34.4
							c0-1.8,0.1-3.6,0.4-5.4c0.9-6.7,3.5-12.8,7.4-18C246.3,35.2,260.9,39.4,272,37z"/>
						<path class="st5" d="M282.1,97.4l0.1,0.1c-1.9,3-4.1,5.8-6.5,8.4c-1.3,1.4-2.6,2.7-4,4c-3.5-6.7-8.6-12.3-15-16.4L259,93
							c5.5,3,11.9,4.7,18.6,4.7C279.2,97.6,280.6,97.6,282.1,97.4z"/>
						<path class="st6" d="M276.5,129.6c0,3.3-0.2,6-1,9.1c-2,0.4-4,0.6-6.1,0.6h-76.1c-0.5,0-0.9,0-1.3,0c-0.7-3.1-1.1-6.3-1.1-9.7
							c0-6,1.2-11.8,3.5-16.9c10.2,8,23.1,12.7,37,12.7c15.5,0,29.6-5.9,40.3-15.5C274.8,115.8,276.5,122.5,276.5,129.6z"/>
						<path class="st2" d="M271.6,20c3.8,3.4,7.2,7.2,10,11.5c-2.2,3-5.7,4.7-9.6,5.5c-11,2.4-25.6-1.8-25.6-1.8
							C252.3,27.2,261.3,21.6,271.6,20z"/>
						<path class="st7" d="M256.8,93.5c6.3,4.1,11.5,9.7,15,16.4c-10.7,9.6-24.8,15.5-40.3,15.5c-14,0-26.8-4.7-37-12.7
							c3.7-8.5,10-15.6,18-20.2c6.3-3.6,13.5-5.7,21.3-5.7C242.2,86.8,250.1,89.2,256.8,93.5z"/>
						<path class="st5" d="M259,92.9l-2.3,0.5c-6.7-4.3-14.6-6.7-23.1-6.7c-7.8,0-15,2.1-21.3,5.7l-0.3-0.5
							c14.1-8,24.2-22.1,26.8-38.8l0,0c-0.2,1.8-0.4,3.6-0.4,5.4C238.6,73.4,246.9,86.3,259,92.9z"/>
						<path class="st5" d="M239.1,37.5c-0.6-4.2-1.6-8.3-3.1-12.2c13.1-6.2,21-14.9,21-14.9c5.4,2.5,10.3,5.8,14.7,9.7
							c-10.3,1.6-19.2,7.2-25.2,15.2c-3.9,5.1-6.5,11.3-7.4,18l0,0c0.4-2.7,0.6-5.5,0.6-8.4C239.6,42.3,239.4,39.9,239.1,37.5z"/>
						<path class="st7" d="M256.9,10.3c0,0-7.9,8.7-21,14.9c-2.9-7.6-7.6-14.4-13.4-20c2.9-0.4,5.9-0.6,8.9-0.6
							C240.5,4.6,249.2,6.7,256.9,10.3z"/>
						<path class="st8" d="M219.4,30.6c6.1-1.1,11.7-3,16.5-5.4c1.5,3.9,2.6,8,3.1,12.2c0.3,2.4,0.5,4.8,0.5,7.3
							c0,2.9-0.2,5.7-0.6,8.4c-2.6,16.6-12.8,30.8-26.8,38.8c-7.9,4.5-17,7-26.7,7c-1.3,0-2.6,0-3.8-0.1l-0.1,0.1
							c-2.8-4.1-5.1-8.5-6.8-13.2c-2.4-6.5-3.7-13.5-3.7-20.8c0-14.4,5-27.6,13.5-38C184.5,27,196.9,34.5,219.4,30.6z"/>
						<path class="st7" d="M222.5,5.3c5.9,5.5,10.5,12.3,13.4,20c-4.8,2.3-10.4,4.3-16.5,5.4c-2.1-6.9-5.7-14.4-11.7-21.2
							C212.4,7.5,217.4,6.1,222.5,5.3z"/>
						<path class="st5" d="M212.1,92l0.3,0.5c-8,4.6-14.3,11.7-18,20.2c-2.2-1.7-4.3-3.6-6.3-5.6c-2.4-2.5-4.6-5.2-6.6-8.1l0.1-0.1
							c1.3,0.1,2.5,0.1,3.8,0.1C195.1,99,204.2,96.4,212.1,92z"/>
						<path class="st7" d="M207.8,9.4c6,6.7,9.6,14.2,11.7,21.2c-22.6,3.9-34.9-3.6-34.9-3.6C190.7,19.4,198.7,13.3,207.8,9.4z"/>
						<path class="st3" d="M190.9,129.6c0,3.3,0.4,6.6,1.1,9.7c-12.4-0.5-23-8.8-26.9-20c17.8,2,23-12.2,23-12.2
							c2,2,4.1,3.9,6.3,5.6C192.1,117.8,190.9,123.5,190.9,129.6z"/>
						<path class="st2" d="M181.5,98.9c2,2.9,4.2,5.6,6.6,8.1c0,0-5.2,14.3-23,12.2l0,0c-1.1-3.1-1.7-6.5-1.7-10
							c0-4.8,1.1-9.2,3.1-13.2s4.8-7.5,8.3-10.3C176.4,90.4,178.7,94.9,181.5,98.9z"/>
					</g>
					<g>
						<path class="st9" d="M281.5,31.5c6.4,9.6,10.2,21.1,10.2,33.5c0,7.3-1.3,14.3-3.7,20.8c-1.5,4.1-3.5,8.1-5.8,11.7
							c-1.9,3-4.1,5.8-6.5,8.4c-1.3,1.4-2.6,2.7-4,4c-10.7,9.6-24.8,15.5-40.3,15.5c-14,0-26.8-4.7-37-12.7
							c-2.2-1.7-4.3-3.6-6.3-5.6c-2.4-2.5-4.6-5.2-6.6-8.1c-2.8-4.1-5.1-8.5-6.8-13.2c-2.4-6.5-3.7-13.5-3.7-20.8
							c0-14.4,5-27.6,13.5-38c6.1-7.6,14.1-13.6,23.2-17.5c4.6-2,9.6-3.4,14.8-4.2c2.9-0.4,5.9-0.6,8.9-0.6c9.1,0,17.8,2,25.5,5.7
							c5.4,2.5,10.3,5.8,14.7,9.7C275.4,23.4,278.7,27.2,281.5,31.5z"/>
						<path class="st9" d="M165,119.2c-1.1-3.1-1.7-6.5-1.7-10c0-4.8,1.1-9.2,3.1-13.2s4.8-7.5,8.3-10.3"/>
						<path class="st9" d="M288.1,85.8c6.9,5.5,11.4,14,11.4,23.5c0,1.3-0.1,2.6-0.3,3.8c-0.9,6.7-4,12.8-8.6,17.4
							c-4.1,4.1-9.3,7-15.1,8.2c-2,0.4-4,0.6-6.1,0.6h-76.1c-0.5,0-0.9,0-1.3,0c-12.4-0.5-23-8.8-26.9-20"/>
						<path class="st10" d="M222.2,55c0,0,1.3-11.2-2.8-24.4c-2.1-6.9-5.7-14.4-11.7-21.2"/>
						<path class="st9" d="M184.5,27c0,0,12.3,7.5,34.9,3.6c6.1-1.1,11.7-3,16.5-5.4c13.1-6.2,21-14.9,21-14.9"/>
						<path class="st10" d="M222.4,5.2l0.1,0.1c5.9,5.5,10.5,12.3,13.4,20c1.5,3.9,2.6,8,3.1,12.2c0.3,2.4,0.5,4.8,0.5,7.3
							c0,2.9-0.2,5.7-0.6,8.4C236.3,69.8,226.1,84,212.1,92c-7.9,4.5-17,7-26.7,7c-1.3,0-2.6,0-3.8-0.1"/>
						<path class="st10" d="M282.1,97.4c-1.5,0.2-2.9,0.2-4.4,0.2c-6.7,0-13.1-1.7-18.6-4.7c-12.2-6.6-20.4-19.5-20.4-34.4
							c0-1.8,0.1-3.6,0.4-5.4c0.9-6.7,3.5-12.8,7.4-18c6-8,14.9-13.6,25.2-15.2"/>
						<path class="st9" d="M192,139.2L192,139.2c-0.7-3.1-1.1-6.4-1.1-9.7c0-6,1.2-11.8,3.5-16.9c3.7-8.5,10-15.6,18-20.2
							c6.3-3.6,13.5-5.7,21.3-5.7c8.5,0,16.4,2.5,23.1,6.7c6.3,4.1,11.5,9.7,15,16.4c3.1,5.9,4.8,12.6,4.8,19.7c0,3.3-0.2,6-1,9.1"
							/>
						<path class="st9" d="M275.8,105.9c0,0,9.8,10.5,23.5,7.2c0.1,0,0.2,0,0.3-0.1"/>
						<path class="st9" d="M188.1,107c0,0-5.2,14.3-23,12.2l0,0"/>
						<path class="st9" d="M246.3,35.2c0,0,14.6,4.2,25.6,1.8c3.9-0.9,7.4-2.5,9.6-5.5c0.2-0.3,0.4-0.5,0.5-0.8"/>
						<path class="st10" d="M272,37c0,0-9.6,12.5-7.7,28"/>
						<path class="st10" d="M273.9,55c0,0,2.7-3.8,6.7-2.2c4,1.7,3.7,6,3.7,6"/>
						<path class="st10" d="M248.2,44.5c0,0,4.9-1.8,7.7,1c2.8,2.8,2.1,5.7,2.1,5.7"/>
						<path class="st10" d="M256.9,70c0,0,5.5,8.3,13.8,1.8"/>
						<path class="st10" d="M191.9,50.2c0,0,0.8-4.8,5.2-5.3s6.5,2.7,6.5,2.7"/>
						<path class="st10" d="M230.7,42.8c0,0,0.7-9.1,8.4-5.4c0.2,0.1,0.3,0.2,0.5,0.2"/>
						<path class="st10" d="M210.6,63.3c0,0,11.2,5.5,18.2-1.7"/>
						<path class="st10" d="M210.6,104.5c0,0,3.2-4.8,9.1-2.7"/>
						<path class="st10" d="M226.7,89.3c0,0,4.5,4.8,5.5,13.6"/>
						<path class="st10" d="M241.4,98.3c0,0,4.5-3.7,8.5,0"/>
						<path class="st10" d="M226.7,113c0,0,8.9,2.3,12.9-1.3"/>
						<line class="st10" x1="231.4" y1="156.7" x2="231.4" y2="140.3"/>
					</g>
				</g>
			</g>
		</g>
	</g>
</g>
<g id="Layer_5">
</g>
</svg>
