<?xml version="1.0" encoding="utf-8"?>
<!-- Generator: Adobe Illustrator 21.0.2, SVG Export Plug-In . SVG Version: 6.00 Build 0)  -->
<svg version="1.1" id="Layer_1" xmlns="http://www.w3.org/2000/svg" xmlns:xlink="http://www.w3.org/1999/xlink" x="0px" y="0px"
	 viewBox="0 0 587.3 200" style="enable-background:new 0 0 587.3 200;" xml:space="preserve">
<style type="text/css">
	.st0{fill:#FFFFFF;}
	.st1{fill:none;stroke:#FFFFFF;stroke-miterlimit:10;}
	.st2{fill:#8D2AD4;}
	.st3{fill:#5FED76;}
	.st4{fill:#5FE8B5;}
	.st5{fill:#13B6BE;}
	.st6{fill:#25C8FE;}
	.st7{fill:#6AD968;}
	.st8{fill:#85F1B2;}
	.st9{fill:none;stroke:#122251;stroke-width:6;stroke-miterlimit:10;}
	.st10{fill:none;stroke:#122251;stroke-width:6;stroke-linecap:round;stroke-miterlimit:10;}
</style>
<g id="Layer_4">
	<g>
		<g>
			<path class="st0" d="M390.3,138.3"/>
			<g>
				<path class="st1" d="M390.3,138.3"/>
			</g>
		</g>
		<g>
			<g>
				<g>
					<path class="st0" d="M350.7,56.3c-0.2-4.5-7.2-4.5-7,0c1.1,25.6,1.7,51.3,1.7,76.9c-9.2-24.7-17.8-49.5-25.8-74.6
						c-0.6-2-2.4-2.6-4-2.4c-1.8,0-3.6,1.1-3.6,3.4c-0.1,30.6,1.4,61.2,4.4,91.6c0.4,4.4,7.4,4.5,7,0c-2.3-23.7-3.7-47.5-4.2-71.3
						c7.9,23.8,16.4,47.4,25.4,70.9c0.4,1,1.1,1.7,1.9,2c2,1.6,5.8,0.8,5.9-2.6C352.6,119,352.1,87.7,350.7,56.3z"/>
					<path class="st0" d="M396,146.7c-1.7-7.8-3.4-15.6-5.1-23.4c0.3,0,0.5-0.1,0.8-0.1c4.4-0.5,4.5-7.5,0-7
						c-0.7,0.1-1.5,0.2-2.2,0.3c-4.3-19.8-8.7-39.6-13-59.4c-0.5-2.3-2.5-2.9-4.2-2.3c-1.5,0.2-3,1.3-3.3,3.3
						c-2.7,20.4-5.4,40.8-8.1,61.2c-0.2,0-0.3,0-0.5,0c-4.3,0.3-4.5,6.9-0.4,7c-1,7.6-2,15.2-3,22.8c-0.6,4.5,6.4,4.4,7,0
						c1-7.8,2-15.5,3.1-23.3c5.7-0.5,11.3-1,16.9-1.6c1.8,8.2,3.6,16.3,5.4,24.5C390.2,153,397,151.1,396,146.7z M367.9,118.6
						c1.9-14.1,3.7-28.2,5.6-42.3c3,13.6,6,27.3,8.9,40.9C377.6,117.8,372.8,118.2,367.9,118.6z"/>
					<path class="st0" d="M515,146.7c-1.7-7.8-3.4-15.6-5.1-23.4c0.3,0,0.5-0.1,0.8-0.1c4.4-0.5,4.5-7.5,0-7
						c-0.7,0.1-1.5,0.2-2.2,0.3c-4.3-19.8-8.7-39.6-13-59.4c-0.5-2.3-2.5-2.9-4.2-2.3c-1.5,0.2-3,1.3-3.3,3.3
						c-2.7,20.4-5.4,40.8-8.1,61.2c-0.2,0-0.3,0-0.5,0c-4.3,0.3-4.5,6.9-0.4,7c-1,7.6-2,15.2-3,22.8c-0.6,4.5,6.4,4.4,7,0
						c1-7.8,2-15.5,3.1-23.3c5.7-0.5,11.3-1,16.9-1.6c1.8,8.2,3.6,16.3,5.4,24.5C509.3,153,516,151.1,515,146.7z M486.9,118.6
						c1.9-14.1,3.7-28.2,5.6-42.3c3,13.6,6,27.3,8.9,40.9C496.6,117.8,491.8,118.2,486.9,118.6z"/>
					<path class="st0" d="M435.5,152.3c-6-12.6-11.7-25.3-16.9-38.3c8.2-12.6,16.4-26.7,13-42.3C428.8,59.2,417,49.8,404,52.5
						c-0.3,0.1-0.6,0.2-0.8,0.3c-1.3,0.4-2.3,1.5-2.3,3.2c-0.5,31.9-0.3,63.8,0.7,95.7c0.1,4.5,7.1,4.5,7,0
						c-0.9-30.9-1.1-61.8-0.7-92.6c10.8-0.9,17.6,10.4,17.6,20.3c-0.1,12-7.1,22.5-13.5,32.1c-0.6,0.8-0.7,1.7-0.5,2.4
						c-0.1,0.5,0,1,0.2,1.6c5.5,13.6,11.5,27.1,17.8,40.4C431.4,159.9,437.4,156.4,435.5,152.3z"/>
					<path class="st0" d="M473.2,152.3c-6-12.6-11.7-25.3-16.9-38.3c8.2-12.6,16.4-26.7,13-42.3c-2.8-12.5-14.6-21.9-27.6-19.2
						c-0.3,0.1-0.6,0.2-0.8,0.3c-1.3,0.4-2.3,1.5-2.3,3.2c-0.5,31.9-0.3,63.8,0.7,95.7c0.1,4.5,7.1,4.5,7,0
						c-0.9-30.9-1.1-61.8-0.7-92.6c10.8-0.9,17.6,10.4,17.6,20.3c-0.1,12-7.1,22.5-13.5,32.1c-0.6,0.8-0.7,1.7-0.5,2.4
						c-0.1,0.5,0,1,0.2,1.6c5.5,13.6,11.5,27.1,17.8,40.4C469.1,159.9,475.1,156.4,473.2,152.3z"/>
					<path class="st0" d="M552.4,152.3c-6-12.6-11.7-25.3-16.9-38.3c8.2-12.6,16.4-26.7,13-42.3c-2.8-12.5-14.6-21.9-27.6-19.2
						c-0.3,0.1-0.6,0.2-0.8,0.3c-1.3,0.4-2.3,1.5-2.3,3.2c-0.5,31.9-0.3,63.8,0.7,95.7c0.1,4.5,7.1,4.5,7,0
						c-0.9-30.9-1.1-61.8-0.7-92.6c10.8-0.9,17.6,10.4,17.6,20.3c-0.1,12-7.1,22.5-13.5,32.1c-0.6,0.8-0.7,1.7-0.5,2.4
						c-0.1,0.5,0,1,0.2,1.6c5.5,13.6,11.5,27.1,17.8,40.4C548.3,159.9,554.4,156.4,552.4,152.3z"/>
					<path class="st0" d="M581.7,147.9c-5.8,0.7-11.7,0.9-17.5,0.6c-0.4-8.5-0.7-17.1-0.9-25.6c3.9-0.1,7.8-0.4,11.7-1
						c1.9-0.3,2.9-2.6,2.4-4.3c-0.5-2-2.4-2.7-4.3-2.4c-3.3,0.5-6.7,0.7-10.1,0.8c-0.5-17.8-0.8-35.6-0.9-53.4
						c6.5-0.5,13-0.7,19.6-0.4c4.5,0.2,4.5-6.8,0-7c-7.4-0.3-14.7-0.1-22,0.6c-0.2,0-0.5,0.1-0.7,0.1c-1.9-0.2-3.9,0.9-3.9,3.3
						c0.1,30.8,0.8,61.6,2.2,92.3c0.1,1.5,0.9,2.5,2,3c0.5,0.5,1.2,0.8,2.1,0.8c6.8,0.5,13.6,0.4,20.3-0.4
						C586.1,154.4,586.1,147.4,581.7,147.9z"/>
				</g>
				<g>
					<path class="st0" d="M17.2,151.3c-1.8-30.6-2.5-61.2-2.3-91.8c0.1,0,0.3,0,0.4-0.1c2.1-0.4,3.3-3,2.8-4.9
						c-0.6-2.2-2.8-3.2-4.9-2.8c-1.9,0.4-3.5,0.6-5.5,0.7c-2.1,0.2-4.1,1.7-4,4c0.1,1.8,1.4,3.7,3.2,4c-0.2,30.3,0.5,60.7,2.3,90.9
						c-1.9,0.4-3.5,1.8-3.5,3.9c0,2,1.8,4.2,4,4s4.5-0.2,6.7-0.1s4-1.9,4-4C20.5,153.2,19.1,151.7,17.2,151.3z"/>
					<path class="st0" d="M106,151.3c-1.8-30.6-2.5-61.2-2.3-91.8c0.1,0,0.3,0,0.4-0.1c2.1-0.4,3.3-3,2.8-4.9
						c-0.6-2.2-2.8-3.2-4.9-2.8c-1.9,0.4-3.5,0.6-5.5,0.7c-2.1,0.2-4.1,1.7-4,4c0.1,1.8,1.4,3.7,3.2,4c-0.2,30.3,0.5,60.7,2.3,90.9
						c-1.9,0.4-3.5,1.8-3.5,3.9c0,2,1.8,4.2,4,4s4.5-0.2,6.7-0.1s4-1.9,4-4C109.3,153.2,107.8,151.7,106,151.3z"/>
					<path class="st0" d="M52.3,148.8c-4.4,0.5-8.8,0.9-13.2,1.1c-2.5-31.4-3.6-62.9-3.5-94.4c0-5.1-8-5.2-8,0
						c-0.2,32.6,1.1,65.2,3.7,97.8c0,0.5,0.2,0.9,0.3,1.3c0.1,1.9,1.4,3.6,3.8,3.5c5.6-0.2,11.2-0.6,16.8-1.2
						C57.3,156.2,57.4,148.2,52.3,148.8z"/>
					<path class="st0" d="M85.8,148.8c-4.4,0.5-8.8,0.9-13.2,1.1C70.1,118.5,69,87,69.1,55.5c0-5.1-8-5.2-8,0
						c-0.2,32.6,1.1,65.2,3.7,97.8c0,0.5,0.2,0.9,0.3,1.3c0.1,1.9,1.4,3.6,3.8,3.5c5.6-0.2,11.2-0.6,16.8-1.2
						C90.8,156.2,90.9,148.2,85.8,148.8z"/>
					<path class="st0" d="M153.9,150.5c-8.1,1.2-17.4-0.6-22.7-7.3c-6.1-7.7-6.4-19.8-6.4-29.2c0-10.1,1.5-20.2,4.5-29.8
						c2.4-7.5,8-24.6,18.2-23.8c5.1,0.4,5.1-7.6,0-8c-12.3-1-19.7,13.3-23.6,22.9c-5.1,12.8-7.4,26.8-7.2,40.5
						c0.2,11.7,1.4,26.2,10.4,34.8c7.7,7.4,18.7,9.1,28.9,7.6C161.1,157.4,159,149.7,153.9,150.5z"/>
				</g>
			</g>
			<g>
				<g id="XMLID_1_">
					<g>
						<path class="st2" d="M299.2,110.2c0,1.3-0.1,2.6-0.3,3.8c-13.6,3.3-23.5-7.2-23.5-7.2c2.4-2.6,4.6-5.4,6.5-8.4
							c2.3-3.7,4.3-7.6,5.8-11.7l0,0C294.7,92.2,299.2,100.8,299.2,110.2z"/>
						<path class="st3" d="M275.5,106.9c0,0,9.8,10.5,23.5,7.2c-0.9,6.7-4,12.8-8.6,17.4c-4.1,4.1-9.3,7-15.1,8.2
							c0.7-3.1,1-5.7,1-9.1c0-7.1-1.7-13.8-4.8-19.7C272.8,109.6,274.2,108.3,275.5,106.9z"/>
						<path class="st4" d="M271.7,38c3.9-0.9,7.4-2.5,9.6-5.5c6.4,9.6,10.2,21.1,10.2,33.5c0,7.3-1.3,14.3-3.7,20.8
							c-1.5,4.1-3.5,8.1-5.8,11.7l-0.1-0.1c-1.5,0.2-2.9,0.2-4.4,0.2c-6.7,0-13.1-1.7-18.6-4.7c-12.2-6.6-20.4-19.5-20.4-34.4
							c0-1.8,0.1-3.6,0.4-5.4c0.9-6.7,3.5-12.8,7.4-18C246,36.2,260.6,40.4,271.7,38z"/>
						<path class="st5" d="M281.8,98.4l0.1,0.1c-1.9,3-4.1,5.8-6.5,8.4c-1.3,1.4-2.6,2.7-4,4c-3.5-6.7-8.6-12.3-15-16.4l2.3-0.5
							c5.5,3,11.9,4.7,18.6,4.7C278.9,98.6,280.3,98.6,281.8,98.4z"/>
						<path class="st6" d="M276.2,130.6c0,3.3-0.2,6-1,9.1c-2,0.4-4,0.6-6.1,0.6H193c-0.5,0-0.9,0-1.3,0c-0.7-3.1-1.1-6.3-1.1-9.7
							c0-6,1.2-11.8,3.5-16.9c10.2,8,23.1,12.7,37,12.7c15.5,0,29.6-5.9,40.3-15.5C274.5,116.8,276.2,123.5,276.2,130.6z"/>
						<path class="st2" d="M271.3,21c3.8,3.4,7.2,7.2,10,11.5c-2.2,3-5.7,4.7-9.6,5.5c-11,2.4-25.6-1.8-25.6-1.8
							C252,28.2,261,22.6,271.3,21z"/>
						<path class="st7" d="M256.5,94.5c6.3,4.1,11.5,9.7,15,16.4c-10.7,9.6-24.8,15.5-40.3,15.5c-14,0-26.8-4.7-37-12.7
							c3.7-8.5,10-15.6,18-20.2c6.3-3.6,13.5-5.7,21.3-5.7C241.9,87.8,249.8,90.2,256.5,94.5z"/>
						<path class="st5" d="M258.7,93.9l-2.3,0.5c-6.7-4.3-14.6-6.7-23.1-6.7c-7.8,0-15,2.1-21.3,5.7l-0.3-0.5
							c14.1-8,24.2-22.1,26.8-38.8l0,0c-0.2,1.8-0.4,3.6-0.4,5.4C238.3,74.4,246.6,87.3,258.7,93.9z"/>
						<path class="st5" d="M238.8,38.5c-0.6-4.2-1.6-8.3-3.1-12.2c13.1-6.2,21-14.9,21-14.9c5.4,2.5,10.3,5.8,14.7,9.7
							c-10.3,1.6-19.2,7.2-25.2,15.2c-3.9,5.1-6.5,11.3-7.4,18l0,0c0.4-2.7,0.6-5.5,0.6-8.4C239.3,43.3,239.1,40.9,238.8,38.5z"/>
						<path class="st7" d="M256.6,11.3c0,0-7.9,8.7-21,14.9c-2.9-7.6-7.6-14.4-13.4-20c2.9-0.4,5.9-0.6,8.9-0.6
							C240.2,5.6,248.9,7.7,256.6,11.3z"/>
						<path class="st8" d="M219.1,31.6c6.1-1.1,11.7-3,16.5-5.4c1.5,3.9,2.6,8,3.1,12.2c0.3,2.4,0.5,4.8,0.5,7.3
							c0,2.9-0.2,5.7-0.6,8.4c-2.6,16.6-12.8,30.8-26.8,38.8c-7.9,4.5-17,7-26.7,7c-1.3,0-2.6,0-3.8-0.1l-0.1,0.1
							c-2.8-4.1-5.1-8.5-6.8-13.2c-2.4-6.5-3.7-13.5-3.7-20.8c0-14.4,5-27.6,13.5-38C184.2,28,196.6,35.5,219.1,31.6z"/>
						<path class="st7" d="M222.2,6.3c5.9,5.5,10.5,12.3,13.4,20c-4.8,2.3-10.4,4.3-16.5,5.4c-2.1-6.9-5.7-14.4-11.7-21.2
							C212.1,8.5,217.1,7.1,222.2,6.3z"/>
						<path class="st5" d="M211.8,93l0.3,0.5c-8,4.6-14.3,11.7-18,20.2c-2.2-1.7-4.3-3.6-6.3-5.6c-2.4-2.5-4.6-5.2-6.6-8.1l0.1-0.1
							c1.3,0.1,2.5,0.1,3.8,0.1C194.8,100,203.9,97.4,211.8,93z"/>
						<path class="st7" d="M207.5,10.4c6,6.7,9.6,14.2,11.7,21.2c-22.6,3.9-34.9-3.6-34.9-3.6C190.4,20.4,198.4,14.3,207.5,10.4z"/>
						<path class="st3" d="M190.6,130.6c0,3.3,0.4,6.6,1.1,9.7c-12.4-0.5-23-8.8-26.9-20c17.8,2,23-12.2,23-12.2
							c2,2,4.1,3.9,6.3,5.6C191.8,118.8,190.6,124.5,190.6,130.6z"/>
						<path class="st2" d="M181.2,99.9c2,2.9,4.2,5.6,6.6,8.1c0,0-5.2,14.3-23,12.2l0,0c-1.1-3.1-1.7-6.5-1.7-10
							c0-4.8,1.1-9.2,3.1-13.2s4.8-7.5,8.3-10.3C176.1,91.4,178.4,95.9,181.2,99.9z"/>
					</g>
					<g>
						<path class="st9" d="M281.2,32.5c6.4,9.6,10.2,21.1,10.2,33.5c0,7.3-1.3,14.3-3.7,20.8c-1.5,4.1-3.5,8.1-5.8,11.7
							c-1.9,3-4.1,5.8-6.5,8.4c-1.3,1.4-2.6,2.7-4,4c-10.7,9.6-24.8,15.5-40.3,15.5c-14,0-26.8-4.7-37-12.7
							c-2.2-1.7-4.3-3.6-6.3-5.6c-2.4-2.5-4.6-5.2-6.6-8.1c-2.8-4.1-5.1-8.5-6.8-13.2c-2.4-6.5-3.7-13.5-3.7-20.8
							c0-14.4,5-27.6,13.5-38c6.1-7.6,14.1-13.6,23.2-17.5c4.6-2,9.6-3.4,14.8-4.2c2.9-0.4,5.9-0.6,8.9-0.6c9.1,0,17.8,2,25.5,5.7
							c5.4,2.5,10.3,5.8,14.7,9.7C275.1,24.4,278.4,28.2,281.2,32.5z"/>
						<path class="st9" d="M164.7,120.2c-1.1-3.1-1.7-6.5-1.7-10c0-4.8,1.1-9.2,3.1-13.2s4.8-7.5,8.3-10.3"/>
						<path class="st9" d="M287.8,86.8c6.9,5.5,11.4,14,11.4,23.5c0,1.3-0.1,2.6-0.3,3.8c-0.9,6.7-4,12.8-8.6,17.4
							c-4.1,4.1-9.3,7-15.1,8.2c-2,0.4-4,0.6-6.1,0.6H193c-0.5,0-0.9,0-1.3,0c-12.4-0.5-23-8.8-26.9-20"/>
						<path class="st10" d="M221.9,56c0,0,1.3-11.2-2.8-24.4c-2.1-6.9-5.7-14.4-11.7-21.2"/>
						<path class="st9" d="M184.2,28c0,0,12.3,7.5,34.9,3.6c6.1-1.1,11.7-3,16.5-5.4c13.1-6.2,21-14.9,21-14.9"/>
						<path class="st10" d="M222.1,6.2l0.1,0.1c5.9,5.5,10.5,12.3,13.4,20c1.5,3.9,2.6,8,3.1,12.2c0.3,2.4,0.5,4.8,0.5,7.3
							c0,2.9-0.2,5.7-0.6,8.4C236,70.8,225.8,85,211.8,93c-7.9,4.5-17,7-26.7,7c-1.3,0-2.6,0-3.8-0.1"/>
						<path class="st10" d="M281.8,98.4c-1.5,0.2-2.9,0.2-4.4,0.2c-6.7,0-13.1-1.7-18.6-4.7c-12.2-6.6-20.4-19.5-20.4-34.4
							c0-1.8,0.1-3.6,0.4-5.4c0.9-6.7,3.5-12.8,7.4-18c6-8,14.9-13.6,25.2-15.2"/>
						<path class="st9" d="M191.7,140.2L191.7,140.2c-0.7-3.1-1.1-6.4-1.1-9.7c0-6,1.2-11.8,3.5-16.9c3.7-8.5,10-15.6,18-20.2
							c6.3-3.6,13.5-5.7,21.3-5.7c8.5,0,16.4,2.5,23.1,6.7c6.3,4.1,11.5,9.7,15,16.4c3.1,5.9,4.8,12.6,4.8,19.7c0,3.3-0.2,6-1,9.1"
							/>
						<path class="st9" d="M275.5,106.9c0,0,9.8,10.5,23.5,7.2c0.1,0,0.2,0,0.3-0.1"/>
						<path class="st9" d="M187.8,108c0,0-5.2,14.3-23,12.2l0,0"/>
						<path class="st9" d="M246,36.2c0,0,14.6,4.2,25.6,1.8c3.9-0.9,7.4-2.5,9.6-5.5c0.2-0.3,0.4-0.5,0.5-0.8"/>
						<path class="st10" d="M271.7,38c0,0-9.6,12.5-7.7,28"/>
						<path class="st10" d="M273.6,56c0,0,2.7-3.8,6.7-2.2c4,1.7,3.7,6,3.7,6"/>
						<path class="st10" d="M247.9,45.5c0,0,4.9-1.8,7.7,1s2.1,5.7,2.1,5.7"/>
						<path class="st10" d="M256.6,71c0,0,5.5,8.3,13.8,1.8"/>
						<path class="st10" d="M191.6,51.2c0,0,0.8-4.8,5.2-5.3s6.5,2.7,6.5,2.7"/>
						<path class="st10" d="M230.4,43.8c0,0,0.7-9.1,8.4-5.4c0.2,0.1,0.3,0.2,0.5,0.2"/>
						<path class="st10" d="M210.3,64.3c0,0,11.2,5.5,18.2-1.7"/>
						<path class="st10" d="M210.3,105.5c0,0,3.2-4.8,9.1-2.7"/>
						<path class="st10" d="M226.4,90.3c0,0,4.5,4.8,5.5,13.6"/>
						<path class="st10" d="M241.1,99.3c0,0,4.5-3.7,8.5,0"/>
						<path class="st10" d="M226.4,114c0,0,8.9,2.3,12.9-1.3"/>
						<line class="st10" x1="231.1" y1="157.7" x2="231.1" y2="141.3"/>
					</g>
				</g>
			</g>
		</g>
	</g>
</g>
<g id="Layer_5">
	<path class="st0" d="M76.3,169.5c-5.6-0.1-11.1,0.1-16.7,0.6c-3.8,0.4-3.8,6.4,0,6c1.8-0.2,3.5-0.3,5.3-0.4
		c-0.3,6.8-0.3,13.5,0.2,20.3c0.3,3.8,6.3,3.9,6,0c-0.5-6.8-0.5-13.7-0.2-20.5c1.8,0,3.6,0,5.4,0C80.2,175.6,80.2,169.6,76.3,169.5z
		"/>
	<path class="st0" d="M98.7,193c-1.7,0-3.8,0.3-5.6,0.2c-0.2-1.7-0.2-3.5-0.1-5.3c2,0,3.9-0.3,5.8-0.8c3.7-1,2.2-6.8-1.6-5.8
		c-1.3,0.3-2.7,0.5-4,0.6c0-2.6,0.1-5.3,0.1-7.9l4.3,0.5c1.6,0.2,3-1.5,3-3c0-1.8-1.4-2.8-3-3c-2.2-0.3-4.4-0.5-6.7-0.8
		c-1.1-0.1-2.1,0.6-2.6,1.6c-0.6,0.5-1,1.2-1,2.2c-0.2,7.5-0.8,15.3-0.2,22.8c0.5,6.4,6.3,4.9,11.4,4.9
		C102.5,199,102.5,193,98.7,193z"/>
	<path class="st0" d="M135.2,194.2c-2.2-3.1-4.3-6.2-6.5-9.3c3.5-2.3,5.7-5.7,4-10.2c-2.6-7.2-11.4-10.3-17.2-4.8
		c-0.1,0.1-0.2,0.2-0.3,0.3c-0.6,0.5-1,1.2-0.9,2.2c0.1,8,0.2,16,0.3,24c0.1,3.9,6.1,3.9,6,0c0-2.7-0.1-5.5-0.1-8.2
		c0.9-0.2,1.8-0.4,2.7-0.7c2.3,3.3,4.6,6.5,6.8,9.8C132.2,200.3,137.5,197.3,135.2,194.2z M120.4,182.1c0-2.8-0.1-5.7-0.1-8.5
		c2.6-1.7,6.6,0.3,6.9,3.5C127.5,179.7,123.3,181.4,120.4,182.1z"/>
	<path class="st0" d="M507.9,194.2c-2.2-3.1-4.3-6.2-6.5-9.3c3.5-2.3,5.7-5.7,4-10.2c-2.6-7.2-11.4-10.3-17.2-4.8
		c-0.1,0.1-0.2,0.2-0.3,0.3c-0.6,0.5-1,1.2-0.9,2.2c0.1,8,0.2,16,0.3,24c0.1,3.9,6.1,3.9,6,0c0-2.7-0.1-5.5-0.1-8.2
		c0.9-0.2,1.8-0.4,2.7-0.7c2.3,3.3,4.6,6.5,6.8,9.8C504.9,200.3,510.1,197.3,507.9,194.2z M493.1,182.1c0-2.8-0.1-5.7-0.1-8.5
		c2.6-1.7,6.6,0.3,6.9,3.5C500.2,179.7,496,181.4,493.1,182.1z"/>
	<path class="st0" d="M169.8,194.4c-3.2-7.6-5.8-16.3-10.3-23.3c-1.1-1.7-4.2-2.2-5.2,0c-3.5,8-7,16-10.5,23.9
		c-1.5,3.5,3.6,6.6,5.2,3l2.7-6.1c3.2-0.5,6.4-0.7,9.6-0.6c0.3,0,0.6,0,0.8-0.1c0.6,1.6,1.2,3.2,1.9,4.7
		C165.5,199.5,171.3,198,169.8,194.4z M154.5,185.6c0.9-2.1,1.8-4.1,2.7-6.2c0.9,1.9,1.8,3.9,2.6,6
		C158.1,185.3,156.3,185.4,154.5,185.6z"/>
	<path class="st0" d="M343.5,194.1c-3.2-7.6-5.8-16.3-10.3-23.3c-1.1-1.7-4.2-2.2-5.2,0c-3.5,8-7,16-10.5,23.9
		c-1.5,3.5,3.6,6.6,5.2,3l2.7-6.1c3.2-0.5,6.4-0.7,9.6-0.6c0.3,0,0.6,0,0.8-0.1c0.6,1.6,1.2,3.2,1.9,4.7
		C339.2,199.2,345,197.6,343.5,194.1z M328.2,185.2c0.9-2.1,1.8-4.1,2.7-6.2c0.9,1.9,1.8,3.9,2.6,6C331.7,185,330,185.1,328.2,185.2
		z"/>
	<path class="st0" d="M477.8,194.1c-3.2-7.6-5.8-16.3-10.3-23.3c-1.1-1.7-4.2-2.2-5.2,0c-3.5,8-7,16-10.5,23.9
		c-1.5,3.5,3.6,6.6,5.2,3l2.7-6.1c3.2-0.5,6.4-0.7,9.6-0.6c0.3,0,0.6,0,0.8-0.1c0.6,1.6,1.2,3.2,1.9,4.7
		C473.5,199.2,479.3,197.6,477.8,194.1z M462.5,185.2c0.9-2.1,1.8-4.1,2.7-6.2c0.9,1.9,1.8,3.9,2.6,6
		C466.1,185,464.3,185.1,462.5,185.2z"/>
	<path class="st0" d="M197.1,176.4c-0.4-3.3-3.4-5.7-6.3-6.9c-3-1.3-6.1-1.1-8.7,0.6c-1.3,0.2-2.5,1.1-2.5,2.9
		c0.1,7.3,0,14.7-0.3,22c-0.2,3.9,5.8,3.9,6,0c0.1-2.3,0.2-4.5,0.2-6.8C191.2,187.5,197.8,182.8,197.1,176.4z M190.4,178.9
		c-1.1,1.8-2.9,2.9-4.9,3.3c0-2.4,0-4.8,0-7.2c1.2-0.7,2.6-0.2,3.7,0.5C190.8,176.4,191.4,177.3,190.4,178.9z"/>
	<path class="st0" d="M214.4,172c0.1-3.9-5.9-3.9-6,0c-0.2,7.3-0.1,14.7,0.3,22c0.2,3.8,6.2,3.9,6,0
		C214.3,186.7,214.2,179.3,214.4,172z"/>
	<path class="st0" d="M252.9,194c-3.4-8-7.4-15.7-11.8-23.2c-1.2-1.9-4-1.9-5.2,0c-4.7,7.8-8.3,16.1-10.9,24.8
		c-1.1,3.7,4.7,5.3,5.8,1.6c0.7-2.3,1.5-4.6,2.3-6.8c3.8-0.2,7.6-0.4,11.3-0.6c1.1,2.4,2.3,4.8,3.3,7.3
		C249.3,200.5,254.4,197.5,252.9,194z M235.7,184.2c0.9-2,1.9-3.9,2.9-5.9c1,1.8,2,3.7,3,5.6C239.6,184,237.6,184.1,235.7,184.2z"/>
	<path class="st0" d="M299.6,175.3h6.7c3.9,0,3.9-6,0-6H297c-1.1,0-1.8,0.5-2.3,1.1c-0.6,0.5-1,1.2-1,2.2c-0.3,7.7,0,15.3,0.7,23
		c0.4,3.8,6.4,3.8,6,0c-0.3-2.9-0.5-5.8-0.6-8.7c1.9-0.1,3.7-0.2,5.6-0.3c3.8-0.2,3.9-6.2,0-6c-1.9,0.1-3.8,0.2-5.8,0.3
		C299.5,179.1,299.6,177.2,299.6,175.3z"/>
	<path class="st0" d="M379.3,173.5c-0.4-1.7-1.7-2.3-3-2.1c-1-0.2-2.1,0.2-2.8,1.5c-2.4,4.5-4.8,8.9-7.2,13.4
		c-2-4.5-3.8-9.1-5.5-13.7c-0.3-0.8-0.8-1.3-1.3-1.6c-1.5-1.4-4.4-1.4-4.9,1.2c-1.7,8.2-3,16.5-3.8,24.8c-0.4,3.8,5.6,3.8,6,0
		c0.5-4.6,1.1-9.2,1.9-13.8c1.5,3.7,3.1,7.4,4.8,11c0.8,1.8,2.5,1.9,3.8,1.1c0.7-0.1,1.4-0.6,1.9-1.4c2-3.7,4-7.5,6-11.2
		c0.8,4.9,1.3,9.9,1.4,15c0.1,3.9,6.1,3.9,6,0C382.2,189.5,381.2,181.5,379.3,173.5z"/>
	<path class="st0" d="M398.6,172c-0.3-3.8-6.3-3.9-6,0c0.5,7.6,0.7,15.1,0.4,22.7c-0.2,3.9,5.8,3.9,6,0
		C399.2,187.1,399.1,179.5,398.6,172z"/>
	<path class="st0" d="M424.4,191.5c-2.7,0.2-5.4,0.4-8.1,0.6c-0.3-6.5-0.3-13-0.1-19.5c0.1-3.9-5.9-3.9-6,0
		c-0.2,7.6-0.1,15.2,0.3,22.7c0.1,1.5,1.3,3.1,3,3l11-0.9C428.2,197.2,428.2,191.2,424.4,191.5z"/>
	<path class="st0" d="M441.3,173c-0.2-3.8-6.2-3.9-6,0c0.4,7.2,0.5,14.4,0.3,21.7c-0.1,3.9,5.9,3.9,6,0
		C441.8,187.4,441.7,180.2,441.3,173z"/>
</g>
</svg>
