<?xml version="1.0" encoding="utf-8"?>
<!-- Generator: Adobe Illustrator 21.0.2, SVG Export Plug-In . SVG Version: 6.00 Build 0)  -->
<svg version="1.1" xmlns="http://www.w3.org/2000/svg" xmlns:xlink="http://www.w3.org/1999/xlink" x="0px" y="0px"
	 viewBox="0 0 792 612" style="enable-background:new 0 0 792 612;" xml:space="preserve">
<style type="text/css">
	.st0{fill:#FFFFFF;}
	.st1{fill:none;stroke:#FFFFFF;stroke-miterlimit:10;}
	.st2{fill:#8D2AD4;}
	.st3{fill:#5FED76;}
	.st4{fill:#5FE8B5;}
	.st5{fill:#13B6BE;}
	.st6{fill:#25C8FE;}
	.st7{fill:#6AD968;}
	.st8{fill:#85F1B2;}
	.st9{fill:none;stroke:#122251;stroke-width:6;stroke-miterlimit:10;}
	.st10{fill:none;stroke:#122251;stroke-width:6;stroke-linecap:round;stroke-miterlimit:10;}
</style>
<g id="Layer_4">
	<g>
		<g>
			<path class="st0" d="M491.3,344.3"/>
			<g>
				<path class="st1" d="M491.3,344.3"/>
			</g>
		</g>
		<g>
			<g>
				<g>
					<path class="st0" d="M451.7,262.3c-0.2-4.5-7.2-4.5-7,0c1.1,25.6,1.7,51.3,1.7,76.9c-9.2-24.7-17.8-49.5-25.8-74.6
						c-0.6-2-2.4-2.6-4-2.4c-1.8,0-3.6,1.1-3.6,3.4c-0.1,30.6,1.4,61.2,4.4,91.6c0.4,4.4,7.4,4.5,7,0c-2.3-23.7-3.7-47.5-4.2-71.3
						c7.9,23.8,16.4,47.4,25.4,70.9c0.4,1,1.1,1.7,1.9,2c2,1.6,5.8,0.8,5.9-2.6C453.6,325,453.1,293.7,451.7,262.3z"/>
					<path class="st0" d="M497,352.7c-1.7-7.8-3.4-15.6-5.1-23.4c0.3,0,0.5-0.1,0.8-0.1c4.4-0.5,4.5-7.5,0-7
						c-0.7,0.1-1.5,0.2-2.2,0.3c-4.3-19.8-8.7-39.6-13-59.4c-0.5-2.3-2.5-2.9-4.2-2.3c-1.5,0.2-3,1.3-3.3,3.3
						c-2.7,20.4-5.4,40.8-8.1,61.2c-0.2,0-0.3,0-0.5,0c-4.3,0.3-4.5,6.9-0.4,7c-1,7.6-2,15.2-3,22.8c-0.6,4.5,6.4,4.4,7,0
						c1-7.8,2-15.5,3.1-23.3c5.7-0.5,11.3-1,16.9-1.6c1.8,8.2,3.6,16.3,5.4,24.5C491.2,359,498,357.1,497,352.7z M468.9,324.6
						c1.9-14.1,3.7-28.2,5.6-42.3c3,13.6,6,27.3,8.9,40.9C478.6,323.8,473.8,324.2,468.9,324.6z"/>
					<path class="st0" d="M616,352.7c-1.7-7.8-3.4-15.6-5.1-23.4c0.3,0,0.5-0.1,0.8-0.1c4.4-0.5,4.5-7.5,0-7
						c-0.7,0.1-1.5,0.2-2.2,0.3c-4.3-19.8-8.7-39.6-13-59.4c-0.5-2.3-2.5-2.9-4.2-2.3c-1.5,0.2-3,1.3-3.3,3.3
						c-2.7,20.4-5.4,40.8-8.1,61.2c-0.2,0-0.3,0-0.5,0c-4.3,0.3-4.5,6.9-0.4,7c-1,7.6-2,15.2-3,22.8c-0.6,4.5,6.4,4.4,7,0
						c1-7.8,2-15.5,3.1-23.3c5.7-0.5,11.3-1,16.9-1.6c1.8,8.2,3.6,16.3,5.4,24.5C610.3,359,617,357.1,616,352.7z M587.9,324.6
						c1.9-14.1,3.7-28.2,5.6-42.3c3,13.6,6,27.3,8.9,40.9C597.6,323.8,592.8,324.2,587.9,324.6z"/>
					<path class="st0" d="M536.5,358.3c-6-12.6-11.7-25.3-16.9-38.3c8.2-12.6,16.4-26.7,13-42.3c-2.8-12.5-14.6-21.9-27.6-19.2
						c-0.3,0.1-0.6,0.2-0.8,0.3c-1.3,0.4-2.3,1.5-2.3,3.2c-0.5,31.9-0.3,63.8,0.7,95.7c0.1,4.5,7.1,4.5,7,0
						c-0.9-30.9-1.1-61.8-0.7-92.6c10.8-0.9,17.6,10.4,17.6,20.3c-0.1,12-7.1,22.5-13.5,32.1c-0.6,0.8-0.7,1.7-0.5,2.4
						c-0.1,0.5,0,1,0.2,1.6c5.5,13.6,11.5,27.1,17.8,40.4C532.4,365.9,538.4,362.4,536.5,358.3z"/>
					<path class="st0" d="M574.2,358.3c-6-12.6-11.7-25.3-16.9-38.3c8.2-12.6,16.4-26.7,13-42.3c-2.8-12.5-14.6-21.9-27.6-19.2
						c-0.3,0.1-0.6,0.2-0.8,0.3c-1.3,0.4-2.3,1.5-2.3,3.2c-0.5,31.9-0.3,63.8,0.7,95.7c0.1,4.5,7.1,4.5,7,0
						c-0.9-30.9-1.1-61.8-0.7-92.6c10.8-0.9,17.6,10.4,17.6,20.3c-0.1,12-7.1,22.5-13.5,32.1c-0.6,0.8-0.7,1.7-0.5,2.4
						c-0.1,0.5,0,1,0.2,1.6c5.5,13.6,11.5,27.1,17.8,40.4C570.1,365.9,576.1,362.4,574.2,358.3z"/>
					<path class="st0" d="M653.4,358.3c-6-12.6-11.7-25.3-16.9-38.3c8.2-12.6,16.4-26.7,13-42.3c-2.8-12.5-14.6-21.9-27.6-19.2
						c-0.3,0.1-0.6,0.2-0.8,0.3c-1.3,0.4-2.3,1.5-2.3,3.2c-0.5,31.9-0.3,63.8,0.7,95.7c0.1,4.5,7.1,4.5,7,0
						c-0.9-30.9-1.1-61.8-0.7-92.6c10.8-0.9,17.6,10.4,17.6,20.3c-0.1,12-7.1,22.5-13.5,32.1c-0.6,0.8-0.7,1.7-0.5,2.4
						c-0.1,0.5,0,1,0.2,1.6c5.5,13.6,11.5,27.1,17.8,40.4C649.3,365.9,655.4,362.4,653.4,358.3z"/>
					<path class="st0" d="M682.7,353.9c-5.8,0.7-11.7,0.9-17.5,0.6c-0.4-8.5-0.7-17.1-0.9-25.6c3.9-0.1,7.8-0.4,11.7-1
						c1.9-0.3,2.9-2.6,2.4-4.3c-0.5-2-2.4-2.7-4.3-2.4c-3.3,0.5-6.7,0.7-10.1,0.8c-0.5-17.8-0.8-35.6-0.9-53.4
						c6.5-0.5,13-0.7,19.6-0.4c4.5,0.2,4.5-6.8,0-7c-7.4-0.3-14.7-0.1-22,0.6c-0.2,0-0.5,0.1-0.7,0.1c-1.9-0.2-3.9,0.9-3.9,3.3
						c0.1,30.8,0.8,61.6,2.2,92.3c0.1,1.5,0.9,2.5,2,3c0.5,0.5,1.2,0.8,2.1,0.8c6.8,0.5,13.6,0.4,20.3-0.4
						C687.1,360.4,687.1,353.4,682.7,353.9z"/>
				</g>
				<g>
					<path class="st0" d="M118.2,357.3c-1.8-30.6-2.5-61.2-2.3-91.8c0.1,0,0.3,0,0.4-0.1c2.1-0.4,3.3-3,2.8-4.9
						c-0.6-2.2-2.8-3.2-4.9-2.8c-1.9,0.4-3.5,0.6-5.5,0.7c-2.1,0.2-4.1,1.7-4,4c0.1,1.8,1.4,3.7,3.2,4c-0.2,30.3,0.5,60.7,2.3,90.9
						c-1.9,0.4-3.5,1.8-3.5,3.9c0,2,1.8,4.2,4,4c2.2-0.2,4.5-0.2,6.7-0.1c2.2,0.1,4-1.9,4-4C121.5,359.2,120.1,357.7,118.2,357.3z"
						/>
					<path class="st0" d="M207,357.3c-1.8-30.6-2.5-61.2-2.3-91.8c0.1,0,0.3,0,0.4-0.1c2.1-0.4,3.3-3,2.8-4.9
						c-0.6-2.2-2.8-3.2-4.9-2.8c-1.9,0.4-3.5,0.6-5.5,0.7c-2.1,0.2-4.1,1.7-4,4c0.1,1.8,1.4,3.7,3.2,4c-0.2,30.3,0.5,60.7,2.3,90.9
						c-1.9,0.4-3.5,1.8-3.5,3.9c0,2,1.8,4.2,4,4c2.2-0.2,4.5-0.2,6.7-0.1c2.2,0.1,4-1.9,4-4C210.3,359.2,208.8,357.7,207,357.3z"/>
					<path class="st0" d="M153.3,354.8c-4.4,0.5-8.8,0.9-13.2,1.1c-2.5-31.4-3.6-62.9-3.5-94.4c0-5.1-8-5.2-8,0
						c-0.2,32.6,1.1,65.2,3.7,97.8c0,0.5,0.2,0.9,0.3,1.3c0.1,1.9,1.4,3.6,3.8,3.5c5.6-0.2,11.2-0.6,16.8-1.2
						C158.3,362.2,158.4,354.2,153.3,354.8z"/>
					<path class="st0" d="M186.8,354.8c-4.4,0.5-8.8,0.9-13.2,1.1c-2.5-31.4-3.6-62.9-3.5-94.4c0-5.1-8-5.2-8,0
						c-0.2,32.6,1.1,65.2,3.7,97.8c0,0.5,0.2,0.9,0.3,1.3c0.1,1.9,1.4,3.6,3.8,3.5c5.6-0.2,11.2-0.6,16.8-1.2
						C191.8,362.2,191.9,354.2,186.8,354.8z"/>
					<path class="st0" d="M254.9,356.5c-8.1,1.2-17.4-0.6-22.7-7.3c-6.1-7.7-6.4-19.8-6.4-29.2c0-10.1,1.5-20.2,4.5-29.8
						c2.4-7.5,8-24.6,18.2-23.8c5.1,0.4,5.1-7.6,0-8c-12.3-1-19.7,13.3-23.6,22.9c-5.1,12.8-7.4,26.8-7.2,40.5
						c0.2,11.7,1.4,26.2,10.4,34.8c7.7,7.4,18.7,9.1,28.9,7.6C262.1,363.4,260,355.7,254.9,356.5z"/>
				</g>
			</g>
			<g>
				<g id="XMLID_1_">
					<g>
						<path class="st2" d="M400.2,316.2c0,1.3-0.1,2.6-0.3,3.8c-13.6,3.3-23.5-7.2-23.5-7.2c2.4-2.6,4.6-5.4,6.5-8.4
							c2.3-3.7,4.3-7.6,5.8-11.7h0C395.7,298.2,400.2,306.8,400.2,316.2z"/>
						<path class="st3" d="M376.5,312.9c0,0,9.8,10.5,23.5,7.2c-0.9,6.7-4,12.8-8.6,17.4c-4.1,4.1-9.3,7-15.1,8.2
							c0.7-3.1,1-5.7,1-9.1c0-7.1-1.7-13.8-4.8-19.7C373.8,315.6,375.2,314.3,376.5,312.9z"/>
						<path class="st4" d="M372.7,244c3.9-0.9,7.4-2.5,9.6-5.5c6.4,9.6,10.2,21.1,10.2,33.5c0,7.3-1.3,14.3-3.7,20.8
							c-1.5,4.1-3.5,8.1-5.8,11.7l-0.1-0.1c-1.5,0.2-2.9,0.2-4.4,0.2c-6.7,0-13.1-1.7-18.6-4.7c-12.2-6.6-20.4-19.5-20.4-34.4
							c0-1.8,0.1-3.6,0.4-5.4c0.9-6.7,3.5-12.8,7.4-18C347,242.2,361.6,246.4,372.7,244z"/>
						<path class="st5" d="M382.8,304.4l0.1,0.1c-1.9,3-4.1,5.8-6.5,8.4c-1.3,1.4-2.6,2.7-4,4c-3.5-6.7-8.6-12.3-15-16.4l2.3-0.5
							c5.5,3,11.9,4.7,18.6,4.7C379.9,304.6,381.3,304.6,382.8,304.4z"/>
						<path class="st6" d="M377.2,336.6c0,3.3-0.2,6-1,9.1c-2,0.4-4,0.6-6.1,0.6H294c-0.5,0-0.9,0-1.3,0c-0.7-3.1-1.1-6.3-1.1-9.7
							c0-6,1.2-11.8,3.5-16.9c10.2,8,23.1,12.7,37,12.7c15.5,0,29.6-5.9,40.3-15.5C375.5,322.8,377.2,329.5,377.2,336.6z"/>
						<path class="st2" d="M372.3,227c3.8,3.4,7.2,7.2,10,11.5c-2.2,3-5.7,4.7-9.6,5.5c-11,2.4-25.6-1.8-25.6-1.8
							C353,234.2,362,228.6,372.3,227z"/>
						<path class="st7" d="M357.5,300.5c6.3,4.1,11.5,9.7,15,16.4c-10.7,9.6-24.8,15.5-40.3,15.5c-14,0-26.8-4.7-37-12.7
							c3.7-8.5,10-15.6,18-20.2c6.3-3.6,13.5-5.7,21.3-5.7C342.9,293.8,350.8,296.2,357.5,300.5z"/>
						<path class="st5" d="M359.7,299.9l-2.3,0.5c-6.7-4.3-14.6-6.7-23.1-6.7c-7.8,0-15,2.1-21.3,5.7l-0.3-0.5
							c14.1-8,24.2-22.1,26.8-38.8h0c-0.2,1.8-0.4,3.6-0.4,5.4C339.3,280.4,347.6,293.3,359.7,299.9z"/>
						<path class="st5" d="M339.8,244.5c-0.6-4.2-1.6-8.3-3.1-12.2c13.1-6.2,21-14.9,21-14.9c5.4,2.5,10.3,5.8,14.7,9.7
							c-10.3,1.6-19.2,7.2-25.2,15.2c-3.9,5.1-6.5,11.3-7.4,18h0c0.4-2.7,0.6-5.5,0.6-8.4C340.3,249.3,340.1,246.9,339.8,244.5z"/>
						<path class="st7" d="M357.6,217.3c0,0-7.9,8.7-21,14.9c-2.9-7.6-7.6-14.4-13.4-20c2.9-0.4,5.9-0.6,8.9-0.6
							C341.2,211.6,349.9,213.7,357.6,217.3z"/>
						<path class="st8" d="M320.1,237.6c6.1-1.1,11.7-3,16.5-5.4c1.5,3.9,2.6,8,3.1,12.2c0.3,2.4,0.5,4.8,0.5,7.3
							c0,2.9-0.2,5.7-0.6,8.4c-2.6,16.6-12.8,30.8-26.8,38.8c-7.9,4.5-17,7-26.7,7c-1.3,0-2.6,0-3.8-0.1l-0.1,0.1
							c-2.8-4.1-5.1-8.5-6.8-13.2c-2.4-6.5-3.7-13.5-3.7-20.8c0-14.4,5-27.6,13.5-38C285.2,234,297.6,241.5,320.1,237.6z"/>
						<path class="st7" d="M323.2,212.3c5.9,5.5,10.5,12.3,13.4,20c-4.8,2.3-10.4,4.3-16.5,5.4c-2.1-6.9-5.7-14.4-11.7-21.2
							C313.1,214.5,318.1,213.1,323.2,212.3z"/>
						<path class="st5" d="M312.8,299l0.3,0.5c-8,4.6-14.3,11.7-18,20.2c-2.2-1.7-4.3-3.6-6.3-5.6c-2.4-2.5-4.6-5.2-6.6-8.1l0.1-0.1
							c1.3,0.1,2.5,0.1,3.8,0.1C295.8,306,304.9,303.4,312.8,299z"/>
						<path class="st7" d="M308.5,216.4c6,6.7,9.6,14.2,11.7,21.2c-22.6,3.9-34.9-3.6-34.9-3.6C291.4,226.4,299.4,220.3,308.5,216.4
							z"/>
						<path class="st3" d="M291.6,336.6c0,3.3,0.4,6.6,1.1,9.7c-12.4-0.5-23-8.8-26.9-20c17.8,2,23-12.2,23-12.2
							c2,2,4.1,3.9,6.3,5.6C292.8,324.8,291.6,330.5,291.6,336.6z"/>
						<path class="st2" d="M282.2,305.9c2,2.9,4.2,5.6,6.6,8.1c0,0-5.2,14.3-23,12.2h0c-1.1-3.1-1.7-6.5-1.7-10
							c0-4.8,1.1-9.2,3.1-13.2c2-4,4.8-7.5,8.3-10.3C277.1,297.4,279.4,301.9,282.2,305.9z"/>
					</g>
					<g>
						<path class="st9" d="M382.2,238.5c6.4,9.6,10.2,21.1,10.2,33.5c0,7.3-1.3,14.3-3.7,20.8c-1.5,4.1-3.5,8.1-5.8,11.7
							c-1.9,3-4.1,5.8-6.5,8.4c-1.3,1.4-2.6,2.7-4,4c-10.7,9.6-24.8,15.5-40.3,15.5c-14,0-26.8-4.7-37-12.7
							c-2.2-1.7-4.3-3.6-6.3-5.6c-2.4-2.5-4.6-5.2-6.6-8.1c-2.8-4.1-5.1-8.5-6.8-13.2c-2.4-6.5-3.7-13.5-3.7-20.8
							c0-14.4,5-27.6,13.5-38c6.1-7.6,14.1-13.6,23.2-17.5c4.6-2,9.6-3.4,14.8-4.2c2.9-0.4,5.9-0.6,8.9-0.6c9.1,0,17.8,2,25.5,5.7
							c5.4,2.5,10.3,5.8,14.7,9.7C376.1,230.4,379.4,234.2,382.2,238.5z"/>
						<path class="st9" d="M265.7,326.2c-1.1-3.1-1.7-6.5-1.7-10c0-4.8,1.1-9.2,3.1-13.2c2-4,4.8-7.5,8.3-10.3"/>
						<path class="st9" d="M388.8,292.8c6.9,5.5,11.4,14,11.4,23.5c0,1.3-0.1,2.6-0.3,3.8c-0.9,6.7-4,12.8-8.6,17.4
							c-4.1,4.1-9.3,7-15.1,8.2c-2,0.4-4,0.6-6.1,0.6H294c-0.5,0-0.9,0-1.3,0c-12.4-0.5-23-8.8-26.9-20"/>
						<path class="st10" d="M322.9,262c0,0,1.3-11.2-2.8-24.4c-2.1-6.9-5.7-14.4-11.7-21.2"/>
						<path class="st9" d="M285.2,234c0,0,12.3,7.5,34.9,3.6c6.1-1.1,11.7-3,16.5-5.4c13.1-6.2,21-14.9,21-14.9"/>
						<path class="st10" d="M323.1,212.2c0,0,0.1,0.1,0.1,0.1c5.9,5.5,10.5,12.3,13.4,20c1.5,3.9,2.6,8,3.1,12.2
							c0.3,2.4,0.5,4.8,0.5,7.3c0,2.9-0.2,5.7-0.6,8.4c-2.6,16.6-12.8,30.8-26.8,38.8c-7.9,4.5-17,7-26.7,7c-1.3,0-2.6,0-3.8-0.1"/>
						<path class="st10" d="M382.8,304.4c-1.5,0.2-2.9,0.2-4.4,0.2c-6.7,0-13.1-1.7-18.6-4.7c-12.2-6.6-20.4-19.5-20.4-34.4
							c0-1.8,0.1-3.6,0.4-5.4c0.9-6.7,3.5-12.8,7.4-18c6-8,14.9-13.6,25.2-15.2"/>
						<path class="st9" d="M292.7,346.2C292.7,346.2,292.7,346.2,292.7,346.2c-0.7-3.1-1.1-6.4-1.1-9.7c0-6,1.2-11.8,3.5-16.9
							c3.7-8.5,10-15.6,18-20.2c6.3-3.6,13.5-5.7,21.3-5.7c8.5,0,16.4,2.5,23.1,6.7c6.3,4.1,11.5,9.7,15,16.4
							c3.1,5.9,4.8,12.6,4.8,19.7c0,3.3-0.2,6-1,9.1"/>
						<path class="st9" d="M376.5,312.9c0,0,9.8,10.5,23.5,7.2c0.1,0,0.2,0,0.3-0.1"/>
						<path class="st9" d="M288.8,314c0,0-5.2,14.3-23,12.2h0"/>
						<path class="st9" d="M347,242.2c0,0,14.6,4.2,25.6,1.8c3.9-0.9,7.4-2.5,9.6-5.5c0.2-0.3,0.4-0.5,0.5-0.8"/>
						<path class="st10" d="M372.7,244c0,0-9.6,12.5-7.7,28"/>
						<path class="st10" d="M374.6,262c0,0,2.7-3.8,6.7-2.2c4,1.7,3.7,6,3.7,6"/>
						<path class="st10" d="M348.9,251.5c0,0,4.9-1.8,7.7,1s2.1,5.7,2.1,5.7"/>
						<path class="st10" d="M357.6,277c0,0,5.5,8.3,13.8,1.8"/>
						<path class="st10" d="M292.6,257.2c0,0,0.8-4.8,5.2-5.3s6.5,2.7,6.5,2.7"/>
						<path class="st10" d="M331.4,249.8c0,0,0.7-9.1,8.4-5.4c0.2,0.1,0.3,0.2,0.5,0.2"/>
						<path class="st10" d="M311.3,270.3c0,0,11.2,5.5,18.2-1.7"/>
						<path class="st10" d="M311.3,311.5c0,0,3.2-4.8,9.1-2.7"/>
						<path class="st10" d="M327.4,296.3c0,0,4.5,4.8,5.5,13.6"/>
						<path class="st10" d="M342.1,305.3c0,0,4.5-3.7,8.5,0"/>
						<path class="st10" d="M327.4,320c0,0,8.9,2.3,12.9-1.3"/>
						<line class="st10" x1="332.1" y1="363.7" x2="332.1" y2="347.3"/>
					</g>
				</g>
			</g>
		</g>
	</g>
</g>
<g id="Layer_5">
	<path class="st0" d="M177.3,375.5c-5.6-0.1-11.1,0.1-16.7,0.6c-3.8,0.4-3.8,6.4,0,6c1.8-0.2,3.5-0.3,5.3-0.4
		c-0.3,6.8-0.3,13.5,0.2,20.3c0.3,3.8,6.3,3.9,6,0c-0.5-6.8-0.5-13.7-0.2-20.5c1.8,0,3.6,0,5.4,0
		C181.2,381.6,181.2,375.6,177.3,375.5z"/>
	<path class="st0" d="M199.7,399c-1.7,0-3.8,0.3-5.6,0.2c-0.2-1.7-0.2-3.5-0.1-5.3c2,0,3.9-0.3,5.8-0.8c3.7-1,2.2-6.8-1.6-5.8
		c-1.3,0.3-2.7,0.5-4,0.6c0-2.6,0.1-5.3,0.1-7.9l4.3,0.5c1.6,0.2,3-1.5,3-3c0-1.8-1.4-2.8-3-3c-2.2-0.3-4.4-0.5-6.7-0.8
		c-1.1-0.1-2.1,0.6-2.6,1.6c-0.6,0.5-1,1.2-1,2.2c-0.2,7.5-0.8,15.3-0.2,22.8c0.5,6.4,6.3,4.9,11.4,4.9
		C203.5,405,203.5,399,199.7,399z"/>
	<path class="st0" d="M236.2,400.2c-2.2-3.1-4.3-6.2-6.5-9.3c3.5-2.3,5.7-5.7,4-10.2c-2.6-7.2-11.4-10.3-17.2-4.8
		c-0.1,0.1-0.2,0.2-0.3,0.3c-0.6,0.5-1,1.2-0.9,2.2c0.1,8,0.2,16,0.3,24c0.1,3.9,6.1,3.9,6,0c0-2.7-0.1-5.5-0.1-8.2
		c0.9-0.2,1.8-0.4,2.7-0.7c2.3,3.3,4.6,6.5,6.8,9.8C233.2,406.3,238.5,403.3,236.2,400.2z M221.4,388.1c0-2.8-0.1-5.7-0.1-8.5
		c2.6-1.7,6.6,0.3,6.9,3.5C228.5,385.7,224.3,387.4,221.4,388.1z"/>
	<path class="st0" d="M608.9,400.2c-2.2-3.1-4.3-6.2-6.5-9.3c3.5-2.3,5.7-5.7,4-10.2c-2.6-7.2-11.4-10.3-17.2-4.8
		c-0.1,0.1-0.2,0.2-0.3,0.3c-0.6,0.5-1,1.2-0.9,2.2c0.1,8,0.2,16,0.3,24c0.1,3.9,6.1,3.9,6,0c0-2.7-0.1-5.5-0.1-8.2
		c0.9-0.2,1.8-0.4,2.7-0.7c2.3,3.3,4.6,6.5,6.8,9.8C605.9,406.3,611.1,403.3,608.9,400.2z M594.1,388.1c0-2.8-0.1-5.7-0.1-8.5
		c2.6-1.7,6.6,0.3,6.9,3.5C601.2,385.7,597,387.4,594.1,388.1z"/>
	<path class="st0" d="M270.8,400.4c-3.2-7.6-5.8-16.3-10.3-23.3c-1.1-1.7-4.2-2.2-5.2,0c-3.5,8-7,16-10.5,23.9
		c-1.5,3.5,3.6,6.6,5.2,3l2.7-6.1c3.2-0.5,6.4-0.7,9.6-0.6c0.3,0,0.6,0,0.8-0.1c0.6,1.6,1.2,3.2,1.9,4.7
		C266.5,405.5,272.3,404,270.8,400.4z M255.5,391.6c0.9-2.1,1.8-4.1,2.7-6.2c0.9,1.9,1.8,3.9,2.6,6
		C259.1,391.3,257.3,391.4,255.5,391.6z"/>
	<path class="st0" d="M444.5,400.1c-3.2-7.6-5.8-16.3-10.3-23.3c-1.1-1.7-4.2-2.2-5.2,0c-3.5,8-7,16-10.5,23.9
		c-1.5,3.5,3.6,6.6,5.2,3l2.7-6.1c3.2-0.5,6.4-0.7,9.6-0.6c0.3,0,0.6,0,0.8-0.1c0.6,1.6,1.2,3.2,1.9,4.7
		C440.2,405.2,446,403.6,444.5,400.1z M429.2,391.2c0.9-2.1,1.8-4.1,2.7-6.2c0.9,1.9,1.8,3.9,2.6,6C432.7,391,431,391.1,429.2,391.2
		z"/>
	<path class="st0" d="M578.8,400.1c-3.2-7.6-5.8-16.3-10.3-23.3c-1.1-1.7-4.2-2.2-5.2,0c-3.5,8-7,16-10.5,23.9
		c-1.5,3.5,3.6,6.6,5.2,3l2.7-6.1c3.2-0.5,6.4-0.7,9.6-0.6c0.3,0,0.6,0,0.8-0.1c0.6,1.6,1.2,3.2,1.9,4.7
		C574.5,405.2,580.3,403.6,578.8,400.1z M563.5,391.2c0.9-2.1,1.8-4.1,2.7-6.2c0.9,1.9,1.8,3.9,2.6,6
		C567.1,391,565.3,391.1,563.5,391.2z"/>
	<path class="st0" d="M298.1,382.4c-0.4-3.3-3.4-5.7-6.3-6.9c-3-1.3-6.1-1.1-8.7,0.6c-1.3,0.2-2.5,1.1-2.5,2.9
		c0.1,7.3,0,14.7-0.3,22c-0.2,3.9,5.8,3.9,6,0c0.1-2.3,0.2-4.5,0.2-6.8C292.2,393.5,298.8,388.8,298.1,382.4z M291.4,384.9
		c-1.1,1.8-2.9,2.9-4.9,3.3c0-2.4,0-4.8,0-7.2c1.2-0.7,2.6-0.2,3.7,0.5C291.8,382.4,292.4,383.3,291.4,384.9z"/>
	<path class="st0" d="M315.4,378c0.1-3.9-5.9-3.9-6,0c-0.2,7.3-0.1,14.7,0.3,22c0.2,3.8,6.2,3.9,6,0
		C315.3,392.7,315.2,385.3,315.4,378z"/>
	<path class="st0" d="M353.9,400c-3.4-8-7.4-15.7-11.8-23.2c-1.2-1.9-4-1.9-5.2,0c-4.7,7.8-8.3,16.1-10.9,24.8
		c-1.1,3.7,4.7,5.3,5.8,1.6c0.7-2.3,1.5-4.6,2.3-6.8c3.8-0.2,7.6-0.4,11.3-0.6c1.1,2.4,2.3,4.8,3.3,7.3
		C350.3,406.5,355.4,403.5,353.9,400z M336.7,390.2c0.9-2,1.9-3.9,2.9-5.9c1,1.8,2,3.7,3,5.6C340.6,390,338.6,390.1,336.7,390.2z"/>
	<path class="st0" d="M400.6,381.3h6.7c3.9,0,3.9-6,0-6H398c-1.1,0-1.8,0.5-2.3,1.1c-0.6,0.5-1,1.2-1,2.2c-0.3,7.7,0,15.3,0.7,23
		c0.4,3.8,6.4,3.8,6,0c-0.3-2.9-0.5-5.8-0.6-8.7c1.9-0.1,3.7-0.2,5.6-0.3c3.8-0.2,3.9-6.2,0-6c-1.9,0.1-3.8,0.2-5.8,0.3
		C400.5,385.1,400.6,383.2,400.6,381.3z"/>
	<path class="st0" d="M480.3,379.5c-0.4-1.7-1.7-2.3-3-2.1c-1-0.2-2.1,0.2-2.8,1.5c-2.4,4.5-4.8,8.9-7.2,13.4
		c-2-4.5-3.8-9.1-5.5-13.7c-0.3-0.8-0.8-1.3-1.3-1.6c-1.5-1.4-4.4-1.4-4.9,1.2c-1.7,8.2-3,16.5-3.8,24.8c-0.4,3.8,5.6,3.8,6,0
		c0.5-4.6,1.1-9.2,1.9-13.8c1.5,3.7,3.1,7.4,4.8,11c0.8,1.8,2.5,1.9,3.8,1.1c0.7-0.1,1.4-0.6,1.9-1.4c2-3.7,4-7.5,6-11.2
		c0.8,4.9,1.3,9.9,1.4,15c0.1,3.9,6.1,3.9,6,0C483.2,395.5,482.2,387.5,480.3,379.5z"/>
	<path class="st0" d="M499.6,378c-0.3-3.8-6.3-3.9-6,0c0.5,7.6,0.7,15.1,0.4,22.7c-0.2,3.9,5.8,3.9,6,0
		C500.2,393.1,500.1,385.5,499.6,378z"/>
	<path class="st0" d="M525.4,397.5c-2.7,0.2-5.4,0.4-8.1,0.6c-0.3-6.5-0.3-13-0.1-19.5c0.1-3.9-5.9-3.9-6,0
		c-0.2,7.6-0.1,15.2,0.3,22.7c0.1,1.5,1.3,3.1,3,3l11-0.9C529.2,403.2,529.2,397.2,525.4,397.5z"/>
	<path class="st0" d="M542.3,379c-0.2-3.8-6.2-3.9-6,0c0.4,7.2,0.5,14.4,0.3,21.7c-0.1,3.9,5.9,3.9,6,0
		C542.8,393.4,542.7,386.2,542.3,379z"/>
</g>
</svg>
