<?xml version="1.0" encoding="utf-8"?>
<!-- Generator: Adobe Illustrator 21.0.2, SVG Export Plug-In . SVG Version: 6.00 Build 0)  -->
<svg version="1.1" id="Layer_1" xmlns="http://www.w3.org/2000/svg" xmlns:xlink="http://www.w3.org/1999/xlink" x="0px" y="0px"
	 viewBox="0 0 256 256" style="enable-background:new 0 0 256 256;" xml:space="preserve">
<style type="text/css">
	.st0{fill:#F44545;}
	.st1{fill:#A82727;}
</style>
<path class="st0" d="M216.3,96.7c0-50.3-40.7-91-91-91s-91,40.7-91,91c0,21.5,7.5,41.3,20,56.9l-0.1,0l71.1,99.1l71.1-99.1l-0.1,0
	C208.8,138,216.3,118.2,216.3,96.7z M125.3,122.7c-14.4,0-26-11.6-26-26c0-14.4,11.6-26,26-26s26,11.6,26,26
	C151.3,111,139.7,122.7,125.3,122.7z"/>
<path class="st1" d="M125.3,44.7c-28.7,0-52,23.3-52,52s23.3,52,52,52s52-23.3,52-52S154.1,44.7,125.3,44.7z M125.3,122.7
	c-14.4,0-26-11.6-26-26c0-14.4,11.6-26,26-26s26,11.6,26,26C151.3,111,139.7,122.7,125.3,122.7z"/>
</svg>
