<?xml version="1.0" encoding="utf-8"?>
<!-- Generator: Adobe Illustrator 21.0.2, SVG Export Plug-In . SVG Version: 6.00 Build 0)  -->
<svg version="1.1" id="Layer_1" xmlns="http://www.w3.org/2000/svg" xmlns:xlink="http://www.w3.org/1999/xlink" x="0px" y="0px"
	 viewBox="0 0 256 256" style="enable-background:new 0 0 256 256;" xml:space="preserve">
<style type="text/css">
	.st0{fill:#6CCBA8;}
</style>
<g id="Layer_4">
	<g>
		<path class="st0" d="M69,105.3c-1.9,0.1-3.6,1.6-3.6,3.6v4.4c0,1.9,1.6,3.7,3.6,3.6c1.9-0.1,3.6-1.6,3.6-3.6v-4.4
			C72.6,107,70.9,105.2,69,105.3z"/>
		<path class="st0" d="M102.5,104.9c-2,0.1-3.5,1.6-3.6,3.6c-0.1,1.9-0.2,3.7-0.3,5.6c-0.1,1.9,1.7,3.7,3.6,3.6
			c2-0.1,3.5-1.6,3.6-3.6c0.1-1.9,0.2-3.7,0.3-5.6C106.2,106.6,104.4,104.8,102.5,104.9z"/>
		<path class="st0" d="M120.7,110.4c-0.4-4.5-7.5-4.6-7.1,0c0.5,6.3,0.4,12.6-0.3,18.9c-0.6,4.6,6.6,4.5,7.1,0
			C121.1,123,121.2,116.7,120.7,110.4z"/>
		<path class="st0" d="M117.4,87.6H113c-1.9,0-3.7,1.6-3.6,3.6c0.1,1.9,1.6,3.6,3.6,3.6h4.4c1.9,0,3.7-1.6,3.6-3.6
			S119.4,87.6,117.4,87.6z"/>
		<path class="st0" d="M118.3,78.9c-2.1-6.9-7.4-12.3-14.3-14.4c-4.4-1.4-6.3,5.5-1.9,6.9c4.5,1.4,7.9,4.9,9.3,9.4
			C112.8,85.2,119.7,83.3,118.3,78.9z"/>
		<path class="st0" d="M89.2,79.1c-5.2,11.1-19,15.7-30.5,15.1c-4.6-0.2-4.6,6.9,0,7.1c13.8,0.6,30.5-5.4,36.7-18.7
			C97.3,78.6,91.2,74.9,89.2,79.1z"/>
		<path class="st0" d="M92,55.8C80.3,49.4,61.5,51,50.4,58c-13.2,8.4-17.2,24.2-15.7,38.9c0.4,4.5,7.6,4.6,7.1,0
			C40.6,84.8,42.9,71.1,54,64.2c8.9-5.6,25-7.4,34.4-2.2C92.4,64.2,96,58,92,55.8z"/>
		<path class="st0" d="M63.1,143.9c-5.8-2.7-7-9.3-8.6-14.9c-0.1-2-1.8-4.2-4.5-3.8c-9,1.3-7.8-13.5-2.2-12.8c4.5,0.6,4.5-6.6,0-7.1
			c-7.7-1-12.2,9.2-11.5,15.6c0.7,6.6,5.8,10.7,11.7,11.3c2.1,7.1,4.3,14.6,11.5,18C63.6,151.9,67.2,145.8,63.1,143.9z"/>
		<path class="st0" d="M26.3,104.4c-3.9,5.9-5.2,14.3-0.1,19.9c3.1,3.4,8.1-1.7,5.1-5.1c-2.8-3.1-0.6-8.3,1.3-11.2
			C35,104.1,28.9,100.6,26.3,104.4z"/>
		<path class="st0" d="M48,170.5c-10.1,4.2-20.9-1.3-25.4-10.9c-4.4-9.4-0.9-19.8,6.9-26.2c3.5-2.9-1.5-8-5.1-5.1
			c-10.3,8.5-13.9,23.1-7.8,35.2c6,11.9,20.5,19.2,33.3,13.9C54.1,175.6,52.3,168.7,48,170.5z"/>
		<path class="st0" d="M67.1,158.5c-1.4-1.3-3.7-1.4-5.1,0c-0.7,0.8-1.5,1.5-2.3,2.2c-0.2,0.2-0.4,0.3-0.6,0.5c0,0-0.3,0.2-0.4,0.3
			c-0.1,0.1-0.3,0.3-0.4,0.3c-0.3,0.2-0.5,0.4-0.8,0.5c-1.5,1.1-2.4,3.2-1.3,4.9c1,1.5,3.2,2.4,4.9,1.3c2.1-1.5,4.1-3.1,5.9-4.9
			C68.5,162.2,68.6,159.8,67.1,158.5z"/>
		<path class="st0" d="M104.3,140.7c-2.2,5.2-9.7,7.3-14.8,8.2c-6,1.1-11.9,0.4-17.7-1.5c-4.4-1.4-6.3,5.5-1.9,6.9
			c7.6,2.5,15.5,2.9,23.3,1.1c6.4-1.5,14.5-4.6,17.3-11.1C112.3,140.2,106.1,136.5,104.3,140.7z"/>
		<path class="st0" d="M93.6,125.9c-3.6,2-9.8,3.3-13-0.1c-3.1-3.4-8.1,1.7-5.1,5.1c5.4,5.9,15.2,4.8,21.6,1.3
			C101.3,129.8,97.7,123.7,93.6,125.9z"/>
		<path class="st0" d="M129.5,171.7c-5.3-6.5-11.6-12-18.7-16.5c-3.9-2.4-7.5,3.7-3.6,6.2c6.6,4.1,12.3,9.3,17.2,15.4
			C127.4,180.3,132.4,175.2,129.5,171.7z"/>
		<path class="st0" d="M115.6,176.5c-3.4-3.1-8.5,1.9-5.1,5.1c2,1.8,4,3.8,5.2,6.3c2,4.2-0.2,5.8-2.1,9.1c-2.1,3.7-1,8.5-0.9,12.7
			c0.1,4.6,7.3,4.6,7.1,0c-0.1-2.3-0.1-4.6-0.2-6.9c-0.2-3.3-0.9-1,0.9-2.9s3-4.6,3.2-7.1C124.4,186.3,120,180.6,115.6,176.5z"/>
		<path class="st0" d="M73.1,211.3c-1.9-5.9-3.7-11.8-5.4-17.7c-1.3-4.4-8.2-2.5-6.9,1.9c1.7,5.9,3.5,11.8,5.4,17.7
			C67.6,217.5,74.5,215.7,73.1,211.3z"/>
		<path class="st0" d="M54.7,218.2c-5.7-7.5-3.7-22.2-2.5-31c0.6-4.5-6.6-4.5-7.1,0c-1.3,10.2-3.1,25.9,3.5,34.6
			C51.3,225.4,57.5,221.9,54.7,218.2z"/>
		<path class="st0" d="M113.9,221c-12.6,3.9-25.5,4.6-38.4,1.8c-4.5-1-6.4,5.9-1.9,6.9c14.1,3,28.4,2.5,42.2-1.8
			C120.2,226.5,118.3,219.6,113.9,221z"/>
		<path class="st0" d="M160.2,168.4c-0.2-1.1-0.3-2.9-0.1-3.9c0.3-1.8-0.5-3.9-2.5-4.4c-1.7-0.4-4.1,0.5-4.4,2.5
			c-0.4,2.6-0.4,5.1,0.1,7.7c0.4,1.8,2.6,3.1,4.4,2.5C159.6,172.2,160.7,170.4,160.2,168.4z"/>
		<path class="st0" d="M187.1,163.2c0-1.9-1.6-3.7-3.6-3.6c-1.9,0.1-3.6,1.6-3.6,3.6s0.1,4,0.1,5.9s1.6,3.7,3.6,3.6
			c1.9-0.1,3.6-1.6,3.6-3.6C187.2,167.1,187.1,165.2,187.1,163.2z"/>
		<path class="st0" d="M174.4,176c-2.9,0.9-5.7,1-8.6,0.1c-4.4-1.2-6.3,5.7-1.9,6.9c4.1,1.1,8.3,1.1,12.4-0.1
			C180.7,181.6,178.8,174.7,174.4,176z"/>
		<path class="st0" d="M197.1,147.2c-12.5-14.7-33.5-15.9-48.2-3.7c-3.5,2.9,1.5,8,5.1,5.1c11.8-9.8,28.3-7.8,38.1,3.7
			C195,155.7,200.1,150.7,197.1,147.2z"/>
		<path class="st0" d="M153.1,195c-13.2-8.5-12-25.5-5.9-38.1c2-4.1-4.1-7.7-6.2-3.6c-7.9,16.2-8.3,37.1,8.4,47.8
			C153.4,203.6,157,197.5,153.1,195z"/>
		<path class="st0" d="M203.6,159.7c-1.7-4.2-8.6-2.4-6.9,1.9c5,12.6,2.4,25.9-7.4,35.4c-3.3,3.2,1.7,8.2,5.1,5.1
			C205.8,190.9,209.5,174.6,203.6,159.7z"/>
		<path class="st0" d="M179.7,209.5c-6.4,2.7-13.4,2.1-18.9-2.3c-3.5-2.9-8.6,2.1-5.1,5.1c7.3,6,17,7.9,25.8,4.2
			C185.8,214.7,184,207.8,179.7,209.5z"/>
		<path class="st0" d="M142.3,202.1c-6.7,3.5-12.1,9.1-15.3,15.9c-2,4.1,4.2,7.8,6.2,3.6c2.8-5.8,7-10.3,12.7-13.3
			C150,206.1,146.4,199.9,142.3,202.1z"/>
		<path class="st0" d="M129.3,224.6c-1.7-0.5-4.1,0.6-4.4,2.5c-0.4,2.4-0.7,4.8-0.7,7.3c-0.1,1.9,1.7,3.6,3.6,3.6
			c2,0,3.5-1.6,3.6-3.6c0-1.8,0.2-3.6,0.5-5.4C132.1,227.1,131.3,225.2,129.3,224.6z"/>
		<path class="st0" d="M207.9,219.1c-0.3,5.4-7.6,5.5-10.8,2.8c-3.7-3.1-2.5-8.8,1.9-10.4c4.3-1.5,2.5-8.4-1.9-6.9
			c-9.8,3.5-12.9,16.1-4.4,22.9c8.1,6.5,21.7,2.8,22.3-8.4C215.4,214.5,208.2,214.6,207.9,219.1z"/>
		<path class="st0" d="M218.6,210.1c-2.4-4.6-6.2-8.4-10.7-10.9c-4-2.2-7.7,4-3.6,6.2c3.6,1.9,6.3,4.7,8.2,8.3
			C214.5,217.8,220.7,214.2,218.6,210.1z"/>
		<path class="st0" d="M234.2,167.8c-2,11.5-6.4,22-13.2,31.5c-2.7,3.8,3.5,7.3,6.2,3.6c7.1-10,11.8-21.2,13.9-33.2
			C241.9,165.2,235,163.2,234.2,167.8z"/>
		<path class="st0" d="M239,154.5c-3.8-18.1-12.2-34.7-24.2-48.8c-3-3.5-8,1.6-5.1,5.1c11.3,13.1,18.8,28.7,22.4,45.6
			C233,160.9,239.9,159,239,154.5z"/>
		<path class="st0" d="M121.8,132.3c-4.5,0.6-4.5,7.8,0,7.1c6.2-0.8,9.7,7,8.3,12.1c-1.2,4.4,5.7,6.3,6.9,1.9
			C139.5,144.3,132.6,130.8,121.8,132.3z"/>
		<path class="st0" d="M136.2,109c-4.3,4.9-7.6,10.3-10.1,16.3c-0.7,1.8,0.8,3.9,2.5,4.4c2,0.6,3.7-0.7,4.4-2.5
			c2-4.8,4.9-9.3,8.3-13.2C144.3,110.6,139.3,105.6,136.2,109z"/>
		<path class="st0" d="M152.8,70c-0.4-2.2-0.3-4.4-0.1-6.6c0.2-1.9-1.8-3.6-3.6-3.6c-2.1,0-3.4,1.6-3.6,3.6
			c-0.3,2.9-0.1,5.7,0.3,8.5c0.3,1.9,2.7,3,4.4,2.5C152.3,73.8,153.1,71.9,152.8,70z"/>
		<path class="st0" d="M186.1,64c-0.4-1.9-2.6-3-4.4-2.5c-1.9,0.5-2.9,2.5-2.5,4.4c0.3,1.4,0.4,2.9,0.1,4.3
			c-0.4,1.9,0.6,3.9,2.5,4.4c1.8,0.5,4-0.6,4.4-2.5C186.7,69.4,186.7,66.7,186.1,64z"/>
		<path class="st0" d="M171.4,79.9c-3.1,1.2-9.1,2.7-11.6-0.4c-2.9-3.6-7.9,1.5-5.1,5.1c4.1,5.2,13.1,4.4,18.6,2.2
			C177.5,85.2,175.7,78.3,171.4,79.9z"/>
		<path class="st0" d="M221.5,63.9c-3-9.3-15.1-11.6-20.5-3.3c-2.5,3.9,3.7,7.4,6.2,3.6c2.1-3.2,6.2-1.6,7.4,1.5
			c1,2.4-1,10.8-5.1,8.9s-7.8,4.2-3.6,6.2C215.8,85.5,224.4,73.1,221.5,63.9z"/>
		<path class="st0" d="M213.7,41.8c-1-1.7-3.2-2.2-4.9-1.3c-2.5,1.4-4.8,3.1-6.9,5.1c-1.4,1.3-1.3,3.7,0,5.1c1.4,1.4,3.7,1.3,5.1,0
			c1.7-1.6,3.3-2.8,5.4-4C214.1,45.7,214.7,43.4,213.7,41.8z"/>
		<path class="st0" d="M198.7,41.7c-5.8-7.8-17.4-9.7-26.6-10.8c-11.1-1.3-22.4,0.8-31.7,7.1c-3.8,2.6-0.2,8.8,3.6,6.2
			c7.2-4.9,15.3-6.8,23.9-6.5c6.7,0.3,20.1,1.6,24.6,7.6C195.2,49,201.4,45.4,198.7,41.7z"/>
		<path class="st0" d="M204.4,31.8c-12.6-16.9-39.2-18.2-57.6-11.8c-4.3,1.5-2.5,8.4,1.9,6.9c14.9-5.2,38.9-5.7,49.5,8.5
			C201,39.1,207.2,35.5,204.4,31.8z"/>
		<path class="st0" d="M132.7,52.4c-3.3,11.8-3.7,23.8-1.2,35.8c0.9,4.5,7.8,2.6,6.9-1.9c-2.2-10.8-1.7-21.4,1.2-32
			C140.8,49.8,133.9,47.9,132.7,52.4z"/>
		<path class="st0" d="M184.1,101.6c-13.3,9-29.9,6.8-40.4-5.4c-3-3.5-8,1.6-5.1,5.1c12.4,14.5,33.3,17.2,49,6.6
			C191.5,105.2,187.9,99,184.1,101.6z"/>
		<path class="st0" d="M202,84.3c-2-0.6-3.7,0.7-4.4,2.5c-1.1,2.9-2.8,5.4-5,7.6c-3.3,3.2,1.8,8.3,5.1,5.1c3.1-3.1,5.3-6.7,6.9-10.7
			C205.2,86.9,203.8,84.8,202,84.3z"/>
	</g>
</g>
</svg>
