<?xml version="1.0" encoding="utf-8"?>
<!-- Generator: Adobe Illustrator 21.0.2, SVG Export Plug-In . SVG Version: 6.00 Build 0)  -->
<svg version="1.1" id="Layer_1" xmlns="http://www.w3.org/2000/svg" xmlns:xlink="http://www.w3.org/1999/xlink" x="0px" y="0px"
	 viewBox="0 0 229.7 240" style="enable-background:new 0 0 229.7 240;" xml:space="preserve">
<style type="text/css">
	.st0{display:none;}
	.st1{display:inline;}
	.st2{fill:#82BDEB;}
	.st3{fill:#C564EB;}
	.st4{fill:#EBBE78;}
</style>
<g id="Layer_1_1_" class="st0">
	<g class="st1">
		<path class="st2" d="M112.1,44.3c-1.2,11.3-11.3,18.9-22.4,18.2c-10.3-0.7-20-8.5-19.2-19.4c0.4-4.6-6.8-4.6-7.1,0
			C62.2,58,75.8,68.9,89.7,69.7c15.3,0.8,28-10.3,29.5-25.4C119.7,39.7,112.6,39.8,112.1,44.3z"/>
		<path class="st2" d="M104.4,37.8c-1-3.9-6.4-2.9-7,0.4c-1.5,1.1-4.9,1.5-6.2,1.5c-2.4-0.1-4.5-1-5.8-3.1c-2.5-3.9-8.7-0.3-6.2,3.6
			c3.1,4.9,8.5,7.2,14.3,6.5C97.9,46,105.8,43.5,104.4,37.8z"/>
		<path class="st2" d="M114,12.4C96,3.2,74.2,10,65.4,28.5c-2,4.1,4.2,7.8,6.2,3.6c7-14.9,23.9-21.1,38.8-13.5
			C114.4,20.7,118.1,14.5,114,12.4z"/>
		<path class="st2" d="M117.1,3.4c-4.3,1.5-2.5,8.4,1.9,6.9c14.2-4.9,35.3,5.4,35.6,21.8c0.1,4.6,7.2,4.6,7.1,0
			C161.3,11.2,135.8-3,117.1,3.4z"/>
		<path class="st2" d="M147.8,34c-5.3-8-14.3-12.7-23.9-11.9c-4.5,0.4-4.6,7.5,0,7.1c7.1-0.6,13.8,2.3,17.7,8.3
			C144.2,41.5,150.4,37.9,147.8,34z"/>
		<path class="st2" d="M158.7,38.2c-3.2,6.4-7.2,11.4-14.2,13.6c-6.5,2-13.4,1.2-20-0.1c-4.5-0.9-6.4,6-1.9,6.9
			c17.7,3.5,33.6,0.4,42.3-16.8C166.9,37.7,160.7,34.1,158.7,38.2z"/>
		<path class="st2" d="M172.3,36.8c-0.1,0.2-0.2,0.3-0.3,0.5c-0.4,0.7-0.5,1.4-0.5,2c-1.1,4.1-3.3,7.5-6.5,10.3
			c-3.5,3,1.6,8.1,5.1,5.1c4.5-4,7.6-9.3,8.7-15.2C179.6,35.8,174.4,33.1,172.3,36.8z"/>
		<path class="st2" d="M162.9,64.1c-0.2,6.1-0.3,12.2-0.5,18.2c-0.1,4.6,7,4.6,7.1,0c0.2-6.1,0.3-12.2,0.5-18.2
			C170.2,59.5,163,59.5,162.9,64.1z"/>
		<path class="st2" d="M60.2,50.5c-2.3-3-2.7-7.3-1-10.7c2-4.1-4.2-7.7-6.2-3.6c-3.2,6.6-2.3,13.7,2.1,19.4
			C58,59.2,63,54.1,60.2,50.5z"/>
		<path class="st2" d="M66.8,63.4c-0.3-4.6-7.4-4.6-7.1,0c0.4,6.6,0.7,13.2,1.1,19.8c0.3,4.6,7.4,4.6,7.1,0
			C67.6,76.6,67.2,70,66.8,63.4z"/>
		<path class="st2" d="M177.7,78.6c-4-2.2-7.7,4-3.6,6.2c10.9,5.8,9.5,24.5-3.1,27c-4.5,0.9-2.6,7.8,1.9,6.9
			C191.6,114.9,193.8,87.3,177.7,78.6z"/>
		<path class="st2" d="M176.3,96.7c0-1.9-1.6-3.7-3.6-3.6c-1.9,0.1-3.6,1.6-3.6,3.6c0,1.6,0,3.2,0,4.8c0,1.9,1.6,3.7,3.6,3.6
			c1.9-0.1,3.6-1.6,3.6-3.6C176.3,99.8,176.3,98.3,176.3,96.7z"/>
		<path class="st2" d="M59.4,114.8c-14.9-2.1-20.1-25.8-4-30.3c4.4-1.2,2.5-8.1-1.9-6.9c-22.5,6.2-18.3,41,4,44
			C62,122.4,63.9,115.5,59.4,114.8z"/>
		<path class="st2" d="M61.3,100.5c0-0.2-0.1-0.3-0.1-0.4s0-0.1,0-0.2c0-0.4-0.1-0.8-0.1-1.2c0-0.8,0-1.6,0.1-2.4
			c0.2-1.9-1.8-3.7-3.6-3.6c-2.1,0.1-3.4,1.6-3.6,3.6c-0.2,2.1,0,4.1,0.3,6.1c0.3,1.8,2.7,3,4.4,2.5
			C60.8,104.3,61.7,102.5,61.3,100.5z"/>
		<path class="st2" d="M87.5,83.2c-6.7,0.2-12.2,3.8-13.1,10.7c-0.6,4.5,6.6,4.5,7.1,0c0.6-4.6,12-5.2,12-0.4
			c-0.1,4.6,7.1,4.6,7.1,0C100.7,86.3,93.9,83,87.5,83.2z"/>
		<path class="st2" d="M155.9,92.4c-0.7-6.1-5.3-10.8-11.7-10.6c-6.3,0.2-11,5.4-12.5,11.2c-1.1,4.5,5.8,6.4,6.9,1.9
			c0.6-2.5,2.1-5.2,4.8-5.8c2.4-0.6,5,0.8,5.3,3.3C149.2,96.9,156.4,96.9,155.9,92.4z"/>
		<path class="st2" d="M120.8,96.7c-0.2-4.6-7.3-4.6-7.1,0c0.2,3.4,0.3,6.9,0.5,10.3c0.2,4.6,7.3,4.6,7.1,0
			C121.1,103.5,120.9,100.1,120.8,96.7z"/>
		<path class="st2" d="M121.3,123.5c-0.6-0.1-2,0.1-2.1,0.1c-1,0-2.1,0-3.1,0c-2.4,0-4.7-0.2-7.1-0.5c-4.5-0.6-6.4,6.3-1.9,6.9
			c4.4,0.6,8.9,0.9,13.3,0.7c3.1-0.2,7.2-0.7,7-4.7C127.3,122.6,123.2,121.8,121.3,123.5z"/>
		<path class="st2" d="M112,141.1c-14.4,0.5-28-3.9-39.5-12.6c-3.7-2.8-7.2,3.4-3.6,6.2c12.4,9.4,27.5,14.1,43.1,13.6
			C116.6,148.1,116.7,141,112,141.1z"/>
		<path class="st2" d="M159.2,127.9c-9.7,8.9-22.1,13.3-35.2,12.9c-4.6-0.1-4.6,7,0,7.1c15,0.5,29.2-4.9,40.3-15
			C167.6,129.9,162.6,124.8,159.2,127.9z"/>
		<path class="st2" d="M134.3,162.4c-11,4.4-22.7,3.8-33-2.2c-4-2.3-7.6,3.9-3.6,6.2c11.8,6.8,25.8,8,38.5,2.9
			C140.4,167.6,138.6,160.7,134.3,162.4z"/>
		<path class="st2" d="M81.8,159.7c-8.6,2.7-19,5.7-26,11.6c-7.3,6.2-11,17.1-13.1,26.1c-1.1,4.5,5.8,6.4,6.9,1.9
			c1.8-7.8,4.9-18,11.6-23.1c6.3-4.8,15-7.2,22.5-9.6C88,165.2,86.2,158.3,81.8,159.7z"/>
		<path class="st2" d="M61.4,205c-3.2,0-7,0-9.5-2.3c-3.3-3.1-8.4,1.9-5.1,5.1c4,3.8,9.3,4.3,14.5,4.4C66,212.2,66,205.1,61.4,205z"
			/>
		<path class="st2" d="M67.3,201.9c-1.2,10.6-1.9,21.2-2.2,31.8c-0.1,4.6,7,4.6,7.1,0c0.3-10.6,1-21.3,2.2-31.8
			C75,197.4,67.8,197.4,67.3,201.9z"/>
		<path class="st2" d="M50,218.3c0.1-4.6-7-4.6-7.1,0c-0.1,3.6,0,7.1,0.3,10.7c0.3,4.6,7.5,4.6,7.1,0C50.1,225.4,50,221.9,50,218.3z
			"/>
		<path class="st2" d="M151.4,159.7c8.6,2.7,19,5.7,26,11.6c7.3,6.2,11,17.1,13.1,26.1c1.1,4.5-5.8,6.4-6.9,1.9
			c-1.8-7.8-4.9-18-11.6-23.1c-6.3-4.8-15-7.2-22.5-9.6C145.2,165.2,147,158.3,151.4,159.7z"/>
		<path class="st2" d="M171.8,205c3.2,0,7,0,9.5-2.3c3.3-3.1,8.4,1.9,5.1,5.1c-4,3.8-9.3,4.3-14.5,4.4
			C167.3,212.2,167.3,205.1,171.8,205z"/>
		<path class="st2" d="M165.9,201.9c1.2,10.6,1.9,21.2,2.2,31.8c0.1,4.6-7,4.6-7.1,0c-0.3-10.6-1-21.3-2.2-31.8
			C158.2,197.4,165.4,197.4,165.9,201.9z"/>
		<path class="st2" d="M183.2,218.3c-0.1-4.6,7-4.6,7.1,0c0.1,3.6,0,7.1-0.3,10.7c-0.3,4.6-7.5,4.6-7.1,0
			C183.1,225.4,183.2,221.9,183.2,218.3z"/>
	</g>
</g>
<g id="Layer_2" class="st0">
	<g class="st1">
		<path class="st3" d="M51.8,81.7c-4.4-4.4-11.5-4.4-16.1-0.2c-3.4,3.1,1.7,8.2,5.1,5.1c1.7-1.6,4.4-1.4,6,0.2
			C50,90,55.1,84.9,51.8,81.7z"/>
		<path class="st3" d="M83.3,79.6c-4.8-5.4-12.7-4.3-16.8,1.2c-1.2,1.5-0.2,4,1.3,4.9c1.8,1.1,3.7,0.3,4.9-1.3
			c1.5-2,4.2-1.4,5.6,0.3C81.4,88.1,86.4,83,83.3,79.6z"/>
		<path class="st3" d="M66.6,98.5c-3.7,1.9-8,2.1-11.8,0.4c-4.2-1.9-7.8,4.3-3.6,6.2c6.3,2.8,12.9,2.7,19-0.4
			C74.3,102.6,70.7,96.4,66.6,98.5z"/>
		<path class="st3" d="M88.2,93.5c-0.1-4.6-7.3-4.6-7.1,0c0.1,4.1-0.1,8.1-0.6,12.2c-0.3,1.9,1.8,3.6,3.6,3.6c2.1,0,3.3-1.7,3.6-3.6
			C88.1,101.6,88.3,97.6,88.2,93.5z"/>
		<path class="st3" d="M86,38.7c-6-9.4-17.5-8.1-27-6.2c-11,2.3-21.7,6.8-30.8,13.4c-7.3,5.3-15.8,12.9-10.8,22.6
			c2.1,4.1,8.2,0.5,6.2-3.6c-3.3-6.5,8.9-13.5,13.1-16.1c5.8-3.6,12.1-6.3,18.7-8.1c6-1.7,13.9-3.9,20-1.9c8.9,3,8.2,15.3,3.3,21.4
			c-2.8,3.6,2.2,8.6,5.1,5.1C89.6,57.8,91.4,47.2,86,38.7z"/>
		<path class="st3" d="M43.7,64.1c0.6,0.8-0.1-0.1-0.2-0.3c-0.1-0.2-0.3-0.5-0.4-0.7c0-0.1-0.1-0.2-0.1-0.2c-0.1-0.3-0.2-0.6-0.3-1
			c-0.4-1.8-2.6-3.1-4.4-2.5c-1.9,0.6-2.9,2.4-2.5,4.4c0.5,2,1.5,3.8,2.8,5.4c0.5,0.7,1.7,1,2.5,1c0.9,0,1.9-0.4,2.5-1
			c0.6-0.7,1.1-1.6,1-2.5C44.7,65.7,44.3,64.9,43.7,64.1z"/>
		<path class="st3" d="M55,61.9c0-0.1-0.2-0.5-0.3-0.7c-0.1-0.2-0.2-0.4-0.2-0.6c-0.2-0.6-0.4-1.3-0.6-2c-0.5-1.8-2.6-3.1-4.4-2.5
			c-1.9,0.6-3,2.5-2.5,4.4c0.4,1.7,1.1,3.4,1.9,5c0.8,1.7,3.3,2.3,4.9,1.3C55.4,65.7,55.9,63.7,55,61.9z"/>
		<path class="st3" d="M67.2,60.7c0.3,0.6-0.1-0.2-0.1-0.4c-0.1-0.4-0.2-0.7-0.3-1.1c-0.2-0.7-0.3-1.4-0.4-2.1
			c-0.3-1.9-2.7-3-4.4-2.5c-2,0.7-2.8,2.4-2.5,4.4c0.3,1.9,0.9,3.6,1.6,5.3c0.7,1.7,3.4,2.2,4.9,1.3C67.7,64.4,68,62.5,67.2,60.7z"
			/>
		<path class="st3" d="M24.7,96.5c-3.3,1.6-7.2,0.1-8.1-3.6c-0.4-1.5-0.1-3,0.4-4.5c0.2-0.6,2.1-4.5,2.9-4.4c4.5,1,6.4-5.9,1.9-6.9
			C13.4,75.3,7.9,87.2,9.5,94.2c1.9,8.6,11.2,12,18.7,8.3C32.4,100.7,28.8,94.5,24.7,96.5z"/>
		<path class="st3" d="M74.8,111.3c-6.4,3-13.3,4.5-20.3,4.1c-6.2-0.4-15.2-1.8-18.6-7.6c-2.3-4-8.5-0.4-6.2,3.6
			c9.1,15.5,35.2,12.5,48.7,6.1C82.6,115.5,79,109.4,74.8,111.3z"/>
		<path class="st3" d="M64.9,128.3c-6,1.3-15,2.4-19.5-2.8c-3-3.5-8,1.6-5.1,5.1c6.2,7.3,18,6.5,26.4,4.6
			C71.3,134.2,69.4,127.3,64.9,128.3z"/>
		<path class="st3" d="M30.8,153.4c-5.7-0.3-16.5-4.3-12.5-11.5c2.8-5,8.4-9.3,12.9-12.8c3.6-2.8-1.5-7.8-5.1-5.1
			c-4.3,3.3-8.2,7-11.7,11.2c-2.5,3.1-6.5,7.1-5.3,11.4c2.5,8.7,13.5,13.3,21.6,13.8C35.4,160.9,35.3,153.7,30.8,153.4z"/>
		<path class="st3" d="M82.7,136.3c-1.1-4.5-8-2.6-6.9,1.9c3.2,13,6.2,26.3,2.4,39.5c-1.3,4.4,5.6,6.3,6.9,1.9
			C89.2,165.1,86.1,150.5,82.7,136.3z"/>
		<path class="st3" d="M75.1,184.9c-8.6,1-17.5,1.5-26.2,0.5c-4.7-0.5-11.5-1.3-13.5-6.1c-1.6-3.7-1.1-9.3-0.7-13.2
			c0.4-4.6-6.8-4.6-7.1,0c-0.4,5.3-0.4,11.5,1.4,16.7c1.5,4.3,5.2,6.3,9.3,7.7c11.5,4,25.1,3,36.9,1.7
			C79.7,191.6,79.7,184.4,75.1,184.9z"/>
		<path class="st3" d="M34.7,225.9c-1.8-9.6-2.1-19.1-1.1-28.8c0.5-4.6-6.7-4.5-7.1,0c-1.1,10.3-0.5,20.5,1.4,30.7
			C28.7,232.3,35.6,230.4,34.7,225.9z"/>
		<path class="st3" d="M63.5,200.8c-2.6,1.8-5.2,3.6-7.7,5.4c-1.4,1-1.9,2.3-1.6,4c1.1,6.6-1.2,13.2-0.6,19.8c0.4,4.5,7.5,4.6,7.1,0
			c-0.5-6.4,1.1-12.7,0.7-19c1.9-1.4,3.8-2.7,5.8-4.1C70.8,204.4,67.3,198.2,63.5,200.8z"/>
		<path class="st3" d="M85.1,196c-1-4.5-7.9-2.6-6.9,1.9c2.3,9.7,1.6,19.5,0.9,29.4c-0.3,4.6,6.8,4.6,7.1,0
			C87,216.7,87.5,206.3,85.1,196z"/>
		<path class="st3" d="M21.5,184.4c-9.8-4.3-10.3-14.1-5.9-22.8c2.1-4.1-4.1-7.7-6.2-3.6c-6,11.8-5,26.7,8.5,32.6
			C22.1,192.4,25.7,186.2,21.5,184.4z"/>
		<path class="st3" d="M97.7,143.4c-1.9-6.5-5.5-12.4-10.5-17c-3.4-3.1-8.4,1.9-5.1,5.1c4.1,3.8,7.1,8.4,8.7,13.8
			C92.1,149.7,99,147.8,97.7,143.4z"/>
		<path class="st3" d="M100.7,164.6c-0.6-4.5-7.7-4.6-7.1,0c0.5,4.2,0.7,8.3-1.1,12.2c-1.5,3.2-3.9,5.8-6.2,8.5
			c-3,3.5,2,8.5,5.1,5.1C98,182.4,102,175.3,100.7,164.6z"/>
		<path class="st3" d="M131,12.8c-2-4.7-7-7.1-12.1-6.3c-3.7,0.6-6.6,2.7-8.7,5.4c-2.2-3.3-5.2-5.8-9.8-6.3C94,4.9,88,8.8,86.1,15.1
			c-2.1,6.9,2,13.7,7.1,18.1c4,3.4,13.3,9.4,18.8,8.8c1.6-0.2,2.7-1,3.2-2.2C125.4,35.1,136.3,25,131,12.8z M124.7,21.6
			c-1.7,6.3-7.7,10-13.4,12.2c-0.5,0.2-0.9,0.5-1.2,0.8c-2.6-0.7-5.8-2.8-7.6-3.8c-3-1.7-6-3.9-7.9-6.8c-2.4-3.7-2.5-9.4,2.5-11
			s7.8,3,9.4,6.9c1.3,3.1,5.6,2.9,6.8,0.7c0.3-0.3,0.6-0.7,0.8-1.1c1.2-2.7,3.7-6.3,7.2-5.9C125.2,14,125.5,18.5,124.7,21.6z"/>
		<path class="st3" d="M182.1,109.7c-4.9,7.1-13.2,10.3-21.5,11c-7.9,0.6-18.5,0.6-25.4-4c-6.8-4.6-8-13.8-8.3-21.3
			c-0.3-8.5,0.7-16.9,2.8-25.1c3,2.7,7.1,4.4,11.7,5.3c4.5,0.9,6.4-6,1.9-6.9c-5.6-1.1-10.7-2.6-11.4-9.2
			c-0.7-6.2,2.7-11.5,9.1-12.4c4.5-0.6,2.6-7.5-1.9-6.9c-9.4,1.3-15,10.2-14.3,19.3c0.1,1.8,0.5,3.3,0.9,4.8c-1.1,0.2-2.1,1-2.5,2.4
			c-4.5,16.8-8.8,47.1,10,57.1c8.6,4.6,20.8,5,30.3,3.7c10-1.3,18.9-5.8,24.7-14.2C190.8,109.5,184.7,105.9,182.1,109.7z"/>
		<path class="st3" d="M161.7,66.2c-5.3,0-9.9-3.2-10.6-8.7c-0.7-5.2,2.6-8.7,6.4-11.8c3.5-2.9-1.5-8-5.1-5.1
			c-6.2,5.1-10.3,12.3-7.9,20.6c2.3,7.6,9.4,12.1,17.2,12.1C166.3,73.4,166.3,66.2,161.7,66.2z"/>
		<path class="st3" d="M178.9,67.8c-4.3-2.6-8.7-6.3-8.7-11.8c0-5.2,3.5-9.3,7.4-12.3c3.6-2.9-1.5-7.9-5.1-5.1
			c-5.9,4.6-10.1,11.4-9.4,19.1c0.7,7.3,6.1,12.6,12.1,16.2C179.3,76.4,182.9,70.2,178.9,67.8z"/>
		<path class="st3" d="M220.7,84.8c-15.6-2.8-8.4-20.9-14.6-31c-5.8-9.5-17.8-10.7-27.5-7.4c-4.3,1.5-2.5,8.4,1.9,6.9
			c6-2.1,13.1-2.6,17.9,2.2c4.7,4.7,3.6,12.1,4.4,18.1c1.2,9.2,6.7,16.4,16.1,18.1C223.3,92.5,225.2,85.6,220.7,84.8z"/>
		<path class="st3" d="M215.7,96.1c-1.6,3.9-6.2,6.2-10.3,5.4c-4.5-0.9-6.4,6-1.9,6.9c8.2,1.6,15.9-2.7,19.1-10.4
			C224.4,93.8,217.5,91.9,215.7,96.1z"/>
		<path class="st3" d="M202.3,92.2c-1.9-6.8-9.2-10.4-15.7-8.2c-4.3,1.5-2.5,8.4,1.9,6.9c2.8-0.9,6.2,0,6.9,3.3
			c0.7,3.1-3.9,3.8-6,4.2c-4.5,1-2.6,7.9,1.9,6.9C197.6,103.8,204.4,99.8,202.3,92.2z"/>
		<path class="st3" d="M139.7,88.6c-2.1-0.7-4.4-1-6.6-0.9c-1.9,0.1-3.7,1.6-3.6,3.6c0.1,1.9,1.6,3.7,3.6,3.6
			c1.9-0.1,2.9,0.1,4.7,0.7s4-0.7,4.4-2.5C142.7,91,141.6,89.3,139.7,88.6z"/>
		<path class="st3" d="M175,90.8c-2.7-4-9.1-2.9-13.1-2.1c-4.5,1-2.6,7.9,1.9,6.9c1.2-0.3,2.3-0.4,3.5-0.4c0.6,0,1.7-0.1,2.3,0
			C172.4,97.5,177.3,94.2,175,90.8z"/>
		<path class="st3" d="M158.1,105.7c-0.5-1.7-2.6-3.2-4.4-2.5c-2.4,1-4.6,1.3-7.1,0.6c-4.4-1.2-6.3,5.7-1.9,6.9
			c3.6,1,7.5,0.9,10.9-0.6C157.3,109.4,158.6,107.8,158.1,105.7z"/>
		<path class="st3" d="M173,129.8c-6.9,2.8-13.9,3.3-21.1,1.4c-4.4-1.2-6.3,5.7-1.9,6.9c8.3,2.2,16.9,1.8,24.9-1.4
			C179.1,135,177.3,128,173,129.8z"/>
		<path class="st3" d="M186.4,155.9c-0.7-4.5-7.6-2.6-6.9,1.9c1.4,9.1,2.3,18.3,2.7,27.4c-0.1,0-0.2,0-0.3,0.1
			c-8,3.2-16.4,5.1-25.1,4.4c-4.4-0.4-8.9-1.5-12.9-3.3c-1.7-0.8-3.5-1.6-5-2.8c-3.4-2.7-2.1-4.5-1.2-8c1.5-5.5,5.5-10.8,1.8-16
			c-2.9-4.1-7.3-6.3-5.2-12.2c1.3-3.6,5.1-6.8,7.4-9.9c2.7-3.7-3.5-7.3-6.2-3.6c-5.2,7.1-12.7,14-7.2,23.3c1.1,1.9,2.7,3.3,4,5
			c2,2.9,0.7,4.5-0.3,7.6c-1.3,3.9-3.6,9.8-2.2,14c2.5,7.6,15.4,11.3,22.3,12.5c10.8,1.9,21.6-0.1,31.7-4c0.9-0.4,1.5-0.9,1.9-1.6
			c1.9,0.2,3.9-1,3.8-3.4C189,176.7,188,166.3,186.4,155.9z"/>
		<path class="st3" d="M198.9,145.5c-2.4-6.9-6.6-12.5-12.5-16.8c-3.7-2.7-7.3,3.5-3.6,6.2c4.3,3.1,7.5,7.5,9.2,12.5
			C193.5,151.8,200.4,149.9,198.9,145.5z"/>
		<path class="st3" d="M200.6,152.9c-1.6-4.3-8.5-2.4-6.9,1.9c3.5,9.4,4.5,19.1,2.7,29.1c-0.8,4.5,6.1,6.4,6.9,1.9
			C205.4,174.6,204.6,163.5,200.6,152.9z"/>
		<path class="st3" d="M200.2,191.7c-2-0.5-3.7,0.7-4.4,2.5c-0.3,0.8-1,1.8-2,2c-0.4,0.1-1.4-0.1-1.4-0.7c-0.4-4.5-7.5-4.6-7.1,0
			c0.4,4.4,3.8,7.9,8.4,7.8c4.4,0,7.6-3.4,9-7.2C203.3,194.3,201.9,192.2,200.2,191.7z"/>
		<path class="st3" d="M194.7,227c-1-6.2-2-12.5-3-18.7c-0.7-4.5-7.6-2.6-6.9,1.9c1,6.2,2,12.5,3,18.7
			C188.5,233.4,195.4,231.5,194.7,227z"/>
		<path class="st3" d="M129.9,193.1c-5.8,11.1-9.2,23-10.3,35.5c-0.4,4.6,6.7,4.6,7.1,0c1-11.2,4.1-21.9,9.3-31.9
			C138.2,192.6,132.1,189,129.9,193.1z"/>
		<path class="st3" d="M120.3,160.6c-3.3,9.9-5.5,23-0.5,32.7c2.1,4.1,8.3,0.5,6.2-3.6c-4-7.8-1.4-19.4,1.3-27.2
			C128.7,158.2,121.8,156.3,120.3,160.6z"/>
	</g>
</g>
<g id="Layer_3" class="st0">
	<g class="st1">
		<path class="st4" d="M89,72.9c-4.1-0.7-8.1,1.7-8.8,5.9c-0.7,3.8,1,8.2,4.7,9.8c0.9,0.4,1.9,0.6,2.8,0.6c0.7,0.1,1.3,0,2-0.1
			c3.9-0.7,6.7-4.2,6.6-8.2C96.1,76.9,93,73.6,89,72.9z"/>
		<path class="st4" d="M142.8,72.9c-4.1-0.7-8.1,1.7-8.8,5.9c-0.7,3.8,1,8.2,4.7,9.8c0.9,0.4,1.9,0.6,2.8,0.6c0.7,0.1,1.3,0,2-0.1
			c3.9-0.7,6.7-4.2,6.6-8.2C149.9,76.9,146.8,73.6,142.8,72.9z"/>
		<path class="st4" d="M122.3,92.3c-3.6,3.9-11.2,1.3-14.9-1c-3.9-2.5-7.5,3.7-3.6,6.2c6.5,4.1,17.7,6.2,23.6-0.1
			C130.5,94,125.5,88.9,122.3,92.3z"/>
		<path class="st4" d="M91.6,37.2c-1.7,7.3-5.5,13.4-11.2,18.2c-3.5,2.9,1.5,8,5.1,5.1c6.6-5.5,11.2-12.9,13.1-21.3
			C99.5,34.6,92.6,32.7,91.6,37.2z"/>
		<path class="st4" d="M108.4,37.2c-1.7,7.3-5.5,13.4-11.2,18.2c-3.5,2.9,1.5,8,5.1,5.1c6.6-5.5,11.2-12.9,13.1-21.3
			C116.3,34.6,109.4,32.7,108.4,37.2z"/>
		<path class="st4" d="M126.7,38.6c-1.7,7.3-5.5,13.4-11.2,18.2c-3.5,2.9,1.5,8,5.1,5.1c6.6-5.5,11.2-12.9,13.1-21.3
			C134.6,36,127.7,34.1,126.7,38.6z"/>
		<path class="st4" d="M144.3,38.6c-1.7,7.3-5.5,13.4-11.2,18.2c-3.5,2.9,1.5,8,5.1,5.1c6.6-5.5,11.2-12.9,13.1-21.3
			C152.2,36,145.3,34.1,144.3,38.6z"/>
		<path class="st4" d="M169.2,45.4c-2.1-4.1-8.3-0.5-6.2,3.6c1.4,2.7,1.8,5.6,1.2,8.6c-0.9,4.5,5.9,6.4,6.9,1.9
			C172.2,54.6,171.6,49.8,169.2,45.4z"/>
		<path class="st4" d="M59.9,46.9c-0.8,4.1-0.8,8.1-0.2,12.2c0.3,1.9,2.7,3,4.4,2.5c2-0.6,2.8-2.5,2.5-4.4c-0.4-2.8-0.3-5.7,0.2-8.4
			C67.7,44.3,60.8,42.4,59.9,46.9z"/>
		<path class="st4" d="M161.3,26.1C152.8,9.2,134.3,0.9,116,1C97.8,1.1,75.4,7.3,66.7,24.8c-2,4.1,4.1,7.7,6.2,3.6
			c7.6-15.3,27.4-20.2,43.2-20.3c16-0.1,31.7,6.8,39.1,21.5C157.2,33.8,163.3,30.2,161.3,26.1z"/>
		<path class="st4" d="M199.3,23.5c-7-12.3-23.2-21.5-37.2-16.1c-4.2,1.6-2.4,8.6,1.9,6.9c11.1-4.3,23.6,3.1,29.1,12.8
			c5.9,10.4,3.5,23.3-5.2,31.2c-3.4,3.1,1.7,8.2,5.1,5.1C204,53.2,206.7,36.5,199.3,23.5z"/>
		<path class="st4" d="M189.5,70.6c-4.6,2.8-11.9,3.9-14.8-1.8c-2.1-4.1-8.3-0.5-6.2,3.6c4.7,9.1,16.7,9.2,24.5,4.3
			C197.1,74.4,193.5,68.2,189.5,70.6z"/>
		<path class="st4" d="M67.1,7.8C52.8,4.6,34.8,13.7,29,27.1c-5.5,12.6-4.2,30.1,7.1,39.1c3.6,2.8,8.6-2.2,5.1-5.1
			c-8.7-7-9.9-20-6.1-29.9c4.1-10.7,18.8-19,30.2-16.5C69.6,15.7,71.6,8.9,67.1,7.8z"/>
		<path class="st4" d="M55.9,69.6c-4.2,6.6-12.2,6.8-18.6,3.5c-4.1-2.1-7.7,4.1-3.6,6.2c10,5.1,22.1,3.9,28.4-6.1
			C64.6,69.3,58.4,65.8,55.9,69.6z"/>
		<path class="st4" d="M164.1,69.2c-0.2-4.6-7.3-4.6-7.1,0c0.5,12.1,2.3,28.9-7.1,38.2c-9,9-24.2,11.3-36.5,11.4
			c-12.1,0.1-24.4-3.1-32.9-12C70,96,72.9,82.1,72.4,68.4c-0.2-4.6-7.3-4.6-7.1,0c0.6,15.7-1.9,30.3,9.6,42.9
			c9.8,10.7,24.4,14.9,38.6,14.8c14.2-0.1,31.1-3.1,41.5-13.5C165.9,101.5,164.7,83.6,164.1,69.2z"/>
		<path class="st4" d="M133.2,129.5c-1-4.5-7.9-2.6-6.9,1.9c1.8,7.5-6.7,11.8-13,11.2c-7.2-0.7-10.1-6.3-11.4-12.7
			c-0.9-4.5-7.8-2.6-6.9,1.9c2.2,11,9.9,19.1,21.7,18C127,148.7,135.7,140.2,133.2,129.5z"/>
		<path class="st4" d="M156.5,158.9c-2.4-10.6-6.3-20.8-7.5-31.7c-0.5-4.5-7.7-4.6-7.1,0c1.1,10.1,4.2,19.6,6.8,29.4
			c2.8,10.8,3.1,21.2,2.8,32.2c-9.2,7.4-20.7,11.2-32.5,11.9c-11.3,0.7-25.2-0.2-35-6.7c-10.4-6.9-7-24.5-4.3-34.8
			c2.7-10.6,6.7-20.7,7.2-31.8c0.2-4.6-6.9-4.6-7.1,0c-0.7,14.6-7.7,27.9-9.2,42.4c-1.3,12.5-0.2,24.8,11.6,31.5
			c11.2,6.3,26.3,7.5,38.9,6.4c13.3-1.2,25.6-5.7,35.9-14.2c0.5-0.4,0.8-0.8,1-1.3c0.3-0.5,0.5-1.1,0.5-1.8
			C158.8,179.7,158.8,169.3,156.5,158.9z"/>
		<path class="st4" d="M75.5,125.9c3.2-3.3-1.8-8.3-5.1-5.1c-11.6,11.8-16.8,27.8-14.9,44.1c-3.1,3.9-4.7,9-2.4,13.8
			c2.3,4.8,7.7,7,12.7,5.4c4.4-1.4,2.5-8.3-1.9-6.9c-4.7,1.5-5.4-3.8-3.7-6.9c1-1.9,2.2-2.2,2.6-4.3c0.3-2.1-0.6-4.9-0.7-7.1
			c0-2.2,0.1-4.5,0.4-6.7C63.8,142.2,68.4,133.1,75.5,125.9z"/>
		<path class="st4" d="M153.7,125.9c-3.2-3.3,1.8-8.3,5.1-5.1c11.6,11.8,16.8,27.8,14.9,44.1c3.1,3.9,4.7,9,2.4,13.8
			s-7.7,7-12.7,5.4c-4.4-1.4-2.5-8.3,1.9-6.9c4.7,1.5,5.4-3.8,3.7-6.9c-1-1.9-2.2-2.2-2.6-4.3c-0.3-2.1,0.6-4.9,0.7-7.1
			c0-2.2-0.1-4.5-0.4-6.7C165.4,142.2,160.8,133.1,153.7,125.9z"/>
		<path class="st4" d="M100.2,211.1c-0.5-4.5-7.6-4.6-7.1,0c0.6,5.4,0.7,10.9-0.3,16.3c-0.5,2.9-0.6,3.1-3.6,3.4
			c-1.6,0.2-6.9,0.2-8-1.5c-0.7-1.1,1.1-3.7,1.5-4.9c0.6-2.1,0.6-2.8,0.1-4.9c-1.4-5.3-3.1-9.2-2.1-14.9c0.7-4.5-6.2-6.4-6.9-1.9
			c-0.6,3.9-0.8,7.5-0.2,11.4c0.6,3.7,2.2,6.4,1.6,10c-1.3,6.6-1.5,10.2,5.8,12.8c4.8,1.7,13.2,2.3,16.9-2
			C102.2,229.5,100.9,217.3,100.2,211.1z"/>
		<path class="st4" d="M128.5,211.1c0.5-4.5,7.6-4.6,7.1,0c-0.6,5.4-0.7,10.9,0.3,16.3c0.5,2.9,0.6,3.1,3.6,3.4
			c1.6,0.2,6.9,0.2,8-1.5c0.7-1.1-1.1-3.7-1.5-4.9c-0.6-2.1-0.6-2.8-0.1-4.9c1.4-5.3,3.1-9.2,2.1-14.9c-0.7-4.5,6.2-6.4,6.9-1.9
			c0.6,3.9,0.8,7.5,0.2,11.4c-0.6,3.7-2.2,6.4-1.6,10c1.3,6.6,1.5,10.2-5.8,12.8c-4.8,1.7-13.2,2.3-16.9-2
			C126.6,229.5,127.8,217.3,128.5,211.1z"/>
	</g>
</g>
<g id="Layer_3_1_">
	<g>
		<path class="st4" d="M89.2,73.6c-4.1-0.7-8.1,1.7-8.8,5.9c-0.7,3.8,1,8.2,4.7,9.8c0.9,0.4,1.9,0.6,2.8,0.6c0.7,0.1,1.3,0,2-0.1
			c3.9-0.7,6.7-4.2,6.6-8.2C96.3,77.6,93.2,74.3,89.2,73.6z"/>
		<path class="st4" d="M143,73.6c-4.1-0.7-8.1,1.7-8.8,5.9c-0.7,3.8,1,8.2,4.7,9.8c0.9,0.4,1.9,0.6,2.8,0.6c0.7,0.1,1.3,0,2-0.1
			c3.9-0.7,6.7-4.2,6.6-8.2C150.1,77.6,147,74.3,143,73.6z"/>
		<path class="st4" d="M122.5,93c-3.6,3.9-11.2,1.3-14.9-1c-3.9-2.5-7.5,3.7-3.6,6.2c6.5,4.1,17.7,6.2,23.6-0.1
			C130.7,94.7,125.7,89.6,122.5,93z"/>
		<path class="st4" d="M91.8,37.9c-1.7,7.3-5.5,13.4-11.2,18.2c-3.5,2.9,1.5,8,5.1,5.1c6.6-5.5,11.2-12.9,13.1-21.3
			C99.7,35.3,92.8,33.4,91.8,37.9z"/>
		<path class="st4" d="M108.6,37.9c-1.7,7.3-5.5,13.4-11.2,18.2c-3.5,2.9,1.5,8,5.1,5.1c6.6-5.5,11.2-12.9,13.1-21.3
			C116.5,35.3,109.6,33.4,108.6,37.9z"/>
		<path class="st4" d="M126.9,39.3c-1.7,7.3-5.5,13.4-11.2,18.2c-3.5,2.9,1.5,8,5.1,5.1c6.6-5.5,11.2-12.9,13.1-21.3
			C134.8,36.7,127.9,34.8,126.9,39.3z"/>
		<path class="st4" d="M144.5,39.3c-1.7,7.3-5.5,13.4-11.2,18.2c-3.5,2.9,1.5,8,5.1,5.1c6.6-5.5,11.2-12.9,13.1-21.3
			C152.4,36.7,145.5,34.8,144.5,39.3z"/>
		<path class="st4" d="M169.4,46.1c-2.1-4.1-8.3-0.5-6.2,3.6c1.4,2.7,1.8,5.6,1.2,8.6c-0.9,4.5,5.9,6.4,6.9,1.9
			C172.4,55.3,171.8,50.5,169.4,46.1z"/>
		<path class="st4" d="M60.1,47.6c-0.8,4.1-0.8,8.1-0.2,12.2c0.3,1.9,2.7,3,4.4,2.5c2-0.6,2.8-2.5,2.5-4.4c-0.4-2.8-0.3-5.7,0.2-8.4
			C67.9,45,61,43.1,60.1,47.6z"/>
		<path class="st4" d="M161.5,26.8c-8.5-16.9-27-25.2-45.3-25.1C98,1.8,75.6,8,66.9,25.5c-2,4.1,4.1,7.7,6.2,3.6
			c7.6-15.3,27.4-20.2,43.2-20.3c16-0.1,31.7,6.8,39.1,21.5C157.4,34.5,163.5,30.9,161.5,26.8z"/>
		<path class="st4" d="M199.5,24.2c-7-12.3-23.2-21.5-37.2-16.1c-4.2,1.6-2.4,8.6,1.9,6.9c11.1-4.3,23.6,3.1,29.1,12.8
			c5.9,10.4,3.5,23.3-5.2,31.2c-3.4,3.1,1.7,8.2,5.1,5.1C204.2,53.9,206.9,37.2,199.5,24.2z"/>
		<path class="st4" d="M189.7,71.3c-4.6,2.8-11.9,3.9-14.8-1.8c-2.1-4.1-8.3-0.5-6.2,3.6c4.7,9.1,16.7,9.2,24.5,4.3
			C197.3,75.1,193.7,68.9,189.7,71.3z"/>
		<path class="st4" d="M67.3,8.5C53,5.3,35,14.4,29.2,27.8c-5.5,12.6-4.2,30.1,7.1,39.1c3.6,2.8,8.6-2.2,5.1-5.1
			c-8.7-7-9.9-20-6.1-29.9c4.1-10.7,18.8-19,30.2-16.5C69.8,16.4,71.8,9.6,67.3,8.5z"/>
		<path class="st4" d="M56.1,70.3c-4.2,6.6-12.2,6.8-18.6,3.5c-4.1-2.1-7.7,4.1-3.6,6.2c10,5.1,22.1,3.9,28.4-6.1
			C64.8,70,58.6,66.5,56.1,70.3z"/>
		<path class="st4" d="M164.3,69.9c-0.2-4.6-7.3-4.6-7.1,0c0.5,12.1,2.3,28.9-7.1,38.2c-9,9-24.2,11.3-36.5,11.4
			c-12.1,0.1-24.4-3.1-32.9-12c-10.5-10.8-7.6-24.7-8.1-38.4c-0.2-4.6-7.3-4.6-7.1,0c0.6,15.7-1.9,30.3,9.6,42.9
			c9.8,10.7,24.4,14.9,38.6,14.8c14.2-0.1,31.1-3.1,41.5-13.5C166.1,102.2,164.9,84.3,164.3,69.9z"/>
		<path class="st4" d="M133.4,130.2c-1-4.5-7.9-2.6-6.9,1.9c1.8,7.5-6.7,11.8-13,11.2c-7.2-0.7-10.1-6.3-11.4-12.7
			c-0.9-4.5-7.8-2.6-6.9,1.9c2.2,11,9.9,19.1,21.7,18C127.2,149.4,135.9,140.9,133.4,130.2z"/>
		<path class="st4" d="M156.7,159.6c-2.4-10.6-6.3-20.8-7.5-31.7c-0.5-4.5-7.7-4.6-7.1,0c1.1,10.1,4.2,19.6,6.8,29.4
			c2.8,10.8,3.1,21.2,2.8,32.2c-9.2,7.4-20.7,11.2-32.5,11.9c-11.3,0.7-25.2-0.2-35-6.7c-10.4-6.9-7-24.5-4.3-34.8
			c2.7-10.6,6.7-20.7,7.2-31.8c0.2-4.6-6.9-4.6-7.1,0c-0.7,14.6-7.7,27.9-9.2,42.4c-1.3,12.5-0.2,24.8,11.6,31.5
			c11.2,6.3,26.3,7.5,38.9,6.4c13.3-1.2,25.6-5.7,35.9-14.2c0.5-0.4,0.8-0.8,1-1.3c0.3-0.5,0.5-1.1,0.5-1.8
			C159,180.4,159,170,156.7,159.6z"/>
		<path class="st4" d="M75.7,126.6c3.2-3.3-1.8-8.3-5.1-5.1c-11.6,11.8-16.8,27.8-14.9,44.1c-3.1,3.9-4.7,9-2.4,13.8
			c2.3,4.8,7.7,7,12.7,5.4c4.4-1.4,2.5-8.3-1.9-6.9c-4.7,1.5-5.4-3.8-3.7-6.9c1-1.9,2.2-2.2,2.6-4.3c0.3-2.1-0.6-4.9-0.7-7.1
			c0-2.2,0.1-4.5,0.4-6.7C64,142.9,68.6,133.8,75.7,126.6z"/>
		<path class="st4" d="M153.9,126.6c-3.2-3.3,1.8-8.3,5.1-5.1c11.6,11.8,16.8,27.8,14.9,44.1c3.1,3.9,4.7,9,2.4,13.8
			s-7.7,7-12.7,5.4c-4.4-1.4-2.5-8.3,1.9-6.9c4.7,1.5,5.4-3.8,3.7-6.9c-1-1.9-2.2-2.2-2.6-4.3c-0.3-2.1,0.6-4.9,0.7-7.1
			c0-2.2-0.1-4.5-0.4-6.7C165.6,142.9,161,133.8,153.9,126.6z"/>
		<path class="st4" d="M100.4,211.8c-0.5-4.5-7.6-4.6-7.1,0c0.6,5.4,0.7,10.9-0.3,16.3c-0.5,2.9-0.6,3.1-3.6,3.4
			c-1.6,0.2-6.9,0.2-8-1.5c-0.7-1.1,1.1-3.7,1.5-4.9c0.6-2.1,0.6-2.8,0.1-4.9c-1.4-5.3-3.1-9.2-2.1-14.9c0.7-4.5-6.2-6.4-6.9-1.9
			c-0.6,3.9-0.8,7.5-0.2,11.4c0.6,3.7,2.2,6.4,1.6,10c-1.3,6.6-1.5,10.2,5.8,12.8c4.8,1.7,13.2,2.3,16.9-2
			C102.4,230.2,101.1,218,100.4,211.8z"/>
		<path class="st4" d="M128.7,211.8c0.5-4.5,7.6-4.6,7.1,0c-0.6,5.4-0.7,10.9,0.3,16.3c0.5,2.9,0.6,3.1,3.6,3.4
			c1.6,0.2,6.9,0.2,8-1.5c0.7-1.1-1.1-3.7-1.5-4.9c-0.6-2.1-0.6-2.8-0.1-4.9c1.4-5.3,3.1-9.2,2.1-14.9c-0.7-4.5,6.2-6.4,6.9-1.9
			c0.6,3.9,0.8,7.5,0.2,11.4c-0.6,3.7-2.2,6.4-1.6,10c1.3,6.6,1.5,10.2-5.8,12.8c-4.8,1.7-13.2,2.3-16.9-2
			C126.8,230.2,128,218,128.7,211.8z"/>
	</g>
</g>
</svg>
