<?xml version="1.0" encoding="utf-8"?>
<!-- Generator: Adobe Illustrator 21.0.2, SVG Export Plug-In . SVG Version: 6.00 Build 0)  -->
<svg version="1.1" id="Layer_1" xmlns="http://www.w3.org/2000/svg" xmlns:xlink="http://www.w3.org/1999/xlink" x="0px" y="0px"
	 viewBox="0 0 256 256" style="enable-background:new 0 0 256 256;" xml:space="preserve">
<style type="text/css">
	.st0{fill:#C564EB;}
</style>
<g id="Layer_2_1_">
	<g>
		<path class="st0" d="M64.6,89.4C60.2,85,53.1,85,48.5,89.2c-3.4,3.1,1.7,8.2,5.1,5.1c1.7-1.6,4.4-1.4,6,0.2
			C62.8,97.7,67.9,92.6,64.6,89.4z"/>
		<path class="st0" d="M96.1,87.3c-4.8-5.4-12.7-4.3-16.8,1.2c-1.2,1.5-0.2,4,1.3,4.9c1.8,1.1,3.7,0.3,4.9-1.3
			c1.5-2,4.2-1.4,5.6,0.3C94.2,95.8,99.2,90.7,96.1,87.3z"/>
		<path class="st0" d="M79.4,106.2c-3.7,1.9-8,2.1-11.8,0.4c-4.2-1.9-7.8,4.3-3.6,6.2c6.3,2.8,12.9,2.7,19-0.4
			C87.1,110.3,83.5,104.1,79.4,106.2z"/>
		<path class="st0" d="M101,101.2c-0.1-4.6-7.3-4.6-7.1,0c0.1,4.1-0.1,8.1-0.6,12.2c-0.3,1.9,1.8,3.6,3.6,3.6c2.1,0,3.3-1.7,3.6-3.6
			C100.9,109.3,101.1,105.3,101,101.2z"/>
		<path class="st0" d="M98.8,46.4c-6-9.4-17.5-8.1-27-6.2C60.8,42.5,50.1,47,41,53.6c-7.3,5.3-15.8,12.9-10.8,22.6
			c2.1,4.1,8.2,0.5,6.2-3.6c-3.3-6.5,8.9-13.5,13.1-16.1c5.8-3.6,12.1-6.3,18.7-8.1c6-1.7,13.9-3.9,20-1.9c8.9,3,8.2,15.3,3.3,21.4
			c-2.8,3.6,2.2,8.6,5.1,5.1C102.4,65.5,104.2,54.9,98.8,46.4z"/>
		<path class="st0" d="M56.5,71.8c0.6,0.8-0.1-0.1-0.2-0.3c-0.1-0.2-0.3-0.5-0.4-0.7c0-0.1-0.1-0.2-0.1-0.2c-0.1-0.3-0.2-0.6-0.3-1
			c-0.4-1.8-2.6-3.1-4.4-2.5c-1.9,0.6-2.9,2.4-2.5,4.4c0.5,2,1.5,3.8,2.8,5.4c0.5,0.7,1.7,1,2.5,1c0.9,0,1.9-0.4,2.5-1
			c0.6-0.7,1.1-1.6,1-2.5C57.5,73.4,57.1,72.6,56.5,71.8z"/>
		<path class="st0" d="M67.8,69.6c0-0.1-0.2-0.5-0.3-0.7c-0.1-0.2-0.2-0.4-0.2-0.6c-0.2-0.6-0.4-1.3-0.6-2c-0.5-1.8-2.6-3.1-4.4-2.5
			c-1.9,0.6-3,2.5-2.5,4.4c0.4,1.7,1.1,3.4,1.9,5c0.8,1.7,3.3,2.3,4.9,1.3C68.2,73.4,68.7,71.4,67.8,69.6z"/>
		<path class="st0" d="M80,68.4c0.3,0.6-0.1-0.2-0.1-0.4c-0.1-0.4-0.2-0.7-0.3-1.1c-0.2-0.7-0.3-1.4-0.4-2.1c-0.3-1.9-2.7-3-4.4-2.5
			c-2,0.7-2.8,2.4-2.5,4.4c0.3,1.9,0.9,3.6,1.6,5.3c0.7,1.7,3.4,2.2,4.9,1.3C80.5,72.1,80.8,70.2,80,68.4z"/>
		<path class="st0" d="M37.5,104.2c-3.3,1.6-7.2,0.1-8.1-3.6c-0.4-1.5-0.1-3,0.4-4.5c0.2-0.6,2.1-4.5,2.9-4.4c4.5,1,6.4-5.9,1.9-6.9
			c-8.4-1.8-13.9,10.1-12.3,17.1c1.9,8.6,11.2,12,18.7,8.3C45.2,108.4,41.6,102.2,37.5,104.2z"/>
		<path class="st0" d="M87.6,119c-6.4,3-13.3,4.5-20.3,4.1c-6.2-0.4-15.2-1.8-18.6-7.6c-2.3-4-8.5-0.4-6.2,3.6
			c9.1,15.5,35.2,12.5,48.7,6.1C95.4,123.2,91.8,117.1,87.6,119z"/>
		<path class="st0" d="M77.7,136c-6,1.3-15,2.4-19.5-2.8c-3-3.5-8,1.6-5.1,5.1c6.2,7.3,18,6.5,26.4,4.6
			C84.1,141.9,82.2,135,77.7,136z"/>
		<path class="st0" d="M43.6,161.1c-5.7-0.3-16.5-4.3-12.5-11.5c2.8-5,8.4-9.3,12.9-12.8c3.6-2.8-1.5-7.8-5.1-5.1
			c-4.3,3.3-8.2,7-11.7,11.2c-2.5,3.1-6.5,7.1-5.3,11.4c2.5,8.7,13.5,13.3,21.6,13.8C48.2,168.6,48.1,161.4,43.6,161.1z"/>
		<path class="st0" d="M95.5,144c-1.1-4.5-8-2.6-6.9,1.9c3.2,13,6.2,26.3,2.4,39.5c-1.3,4.4,5.6,6.3,6.9,1.9
			C102,172.8,98.9,158.2,95.5,144z"/>
		<path class="st0" d="M87.9,192.6c-8.6,1-17.5,1.5-26.2,0.5c-4.7-0.5-11.5-1.3-13.5-6.1c-1.6-3.7-1.1-9.3-0.7-13.2
			c0.4-4.6-6.8-4.6-7.1,0c-0.4,5.3-0.4,11.5,1.4,16.7c1.5,4.3,5.2,6.3,9.3,7.7c11.5,4,25.1,3,36.9,1.7
			C92.5,199.3,92.5,192.1,87.9,192.6z"/>
		<path class="st0" d="M47.5,233.6c-1.8-9.6-2.1-19.1-1.1-28.8c0.5-4.6-6.7-4.5-7.1,0c-1.1,10.3-0.5,20.5,1.4,30.7
			C41.5,240,48.4,238.1,47.5,233.6z"/>
		<path class="st0" d="M76.3,208.5c-2.6,1.8-5.2,3.6-7.7,5.4c-1.4,1-1.9,2.3-1.6,4c1.1,6.6-1.2,13.2-0.6,19.8c0.4,4.5,7.5,4.6,7.1,0
			c-0.5-6.4,1.1-12.7,0.7-19c1.9-1.4,3.8-2.7,5.8-4.1C83.6,212.1,80.1,205.9,76.3,208.5z"/>
		<path class="st0" d="M97.9,203.7c-1-4.5-7.9-2.6-6.9,1.9c2.3,9.7,1.6,19.5,0.9,29.4c-0.3,4.6,6.8,4.6,7.1,0
			C99.8,224.4,100.3,214,97.9,203.7z"/>
		<path class="st0" d="M34.3,192.1c-9.8-4.3-10.3-14.1-5.9-22.8c2.1-4.1-4.1-7.7-6.2-3.6c-6,11.8-5,26.7,8.5,32.6
			C34.9,200.1,38.5,193.9,34.3,192.1z"/>
		<path class="st0" d="M110.5,151.1c-1.9-6.5-5.5-12.4-10.5-17c-3.4-3.1-8.4,1.9-5.1,5.1c4.1,3.8,7.1,8.4,8.7,13.8
			C104.9,157.4,111.8,155.5,110.5,151.1z"/>
		<path class="st0" d="M113.5,172.3c-0.6-4.5-7.7-4.6-7.1,0c0.5,4.2,0.7,8.3-1.1,12.2c-1.5,3.2-3.9,5.8-6.2,8.5
			c-3,3.5,2,8.5,5.1,5.1C110.8,190.1,114.8,183,113.5,172.3z"/>
		<path class="st0" d="M143.8,20.5c-2-4.7-7-7.1-12.1-6.3c-3.7,0.6-6.6,2.7-8.7,5.4c-2.2-3.3-5.2-5.8-9.8-6.3
			c-6.4-0.7-12.4,3.2-14.3,9.5c-2.1,6.9,2,13.7,7.1,18.1c4,3.4,13.3,9.4,18.8,8.8c1.6-0.2,2.7-1,3.2-2.2
			C138.2,42.8,149.1,32.7,143.8,20.5z M137.5,29.3c-1.7,6.3-7.7,10-13.4,12.2c-0.5,0.2-0.9,0.5-1.2,0.8c-2.6-0.7-5.8-2.8-7.6-3.8
			c-3-1.7-6-3.9-7.9-6.8c-2.4-3.7-2.5-9.4,2.5-11s7.8,3,9.4,6.9c1.3,3.1,5.6,2.9,6.8,0.7c0.3-0.3,0.6-0.7,0.8-1.1
			c1.2-2.7,3.7-6.3,7.2-5.9C138,21.7,138.3,26.2,137.5,29.3z"/>
		<path class="st0" d="M194.9,117.4c-4.9,7.1-13.2,10.3-21.5,11c-7.9,0.6-18.5,0.6-25.4-4c-6.8-4.6-8-13.8-8.3-21.3
			c-0.3-8.5,0.7-16.9,2.8-25.1c3,2.7,7.1,4.4,11.7,5.3c4.5,0.9,6.4-6,1.9-6.9c-5.6-1.1-10.7-2.6-11.4-9.2
			c-0.7-6.2,2.7-11.5,9.1-12.4c4.5-0.6,2.6-7.5-1.9-6.9c-9.4,1.3-15,10.2-14.3,19.3c0.1,1.8,0.5,3.3,0.9,4.8c-1.1,0.2-2.1,1-2.5,2.4
			c-4.5,16.8-8.8,47.1,10,57.1c8.6,4.6,20.8,5,30.3,3.7c10-1.3,18.9-5.8,24.7-14.2C203.6,117.2,197.5,113.6,194.9,117.4z"/>
		<path class="st0" d="M174.5,73.9c-5.3,0-9.9-3.2-10.6-8.7c-0.7-5.2,2.6-8.7,6.4-11.8c3.5-2.9-1.5-8-5.1-5.1
			c-6.2,5.1-10.3,12.3-7.9,20.6c2.3,7.6,9.4,12.1,17.2,12.1C179.1,81.1,179.1,73.9,174.5,73.9z"/>
		<path class="st0" d="M191.7,75.5c-4.3-2.6-8.7-6.3-8.7-11.8c0-5.2,3.5-9.3,7.4-12.3c3.6-2.9-1.5-7.9-5.1-5.1
			c-5.9,4.6-10.1,11.4-9.4,19.1c0.7,7.3,6.1,12.6,12.1,16.2C192.1,84.1,195.7,77.9,191.7,75.5z"/>
		<path class="st0" d="M233.5,92.5c-15.6-2.8-8.4-20.9-14.6-31c-5.8-9.5-17.8-10.7-27.5-7.4c-4.3,1.5-2.5,8.4,1.9,6.9
			c6-2.1,13.1-2.6,17.9,2.2c4.7,4.7,3.6,12.1,4.4,18.1c1.2,9.2,6.7,16.4,16.1,18.1C236.1,100.2,238,93.3,233.5,92.5z"/>
		<path class="st0" d="M228.5,103.8c-1.6,3.9-6.2,6.2-10.3,5.4c-4.5-0.9-6.4,6-1.9,6.9c8.2,1.6,15.9-2.7,19.1-10.4
			C237.2,101.5,230.3,99.6,228.5,103.8z"/>
		<path class="st0" d="M215.1,99.9c-1.9-6.8-9.2-10.4-15.7-8.2c-4.3,1.5-2.5,8.4,1.9,6.9c2.8-0.9,6.2,0,6.9,3.3
			c0.7,3.1-3.9,3.8-6,4.2c-4.5,1-2.6,7.9,1.9,6.9C210.4,111.5,217.2,107.5,215.1,99.9z"/>
		<path class="st0" d="M152.5,96.3c-2.1-0.7-4.4-1-6.6-0.9c-1.9,0.1-3.7,1.6-3.6,3.6c0.1,1.9,1.6,3.7,3.6,3.6
			c1.9-0.1,2.9,0.1,4.7,0.7s4-0.7,4.4-2.5C155.5,98.7,154.4,97,152.5,96.3z"/>
		<path class="st0" d="M187.8,98.5c-2.7-4-9.1-2.9-13.1-2.1c-4.5,1-2.6,7.9,1.9,6.9c1.2-0.3,2.3-0.4,3.5-0.4c0.6,0,1.7-0.1,2.3,0
			C185.2,105.2,190.1,101.9,187.8,98.5z"/>
		<path class="st0" d="M170.9,113.4c-0.5-1.7-2.6-3.2-4.4-2.5c-2.4,1-4.6,1.3-7.1,0.6c-4.4-1.2-6.3,5.7-1.9,6.9
			c3.6,1,7.5,0.9,10.9-0.6C170.1,117.1,171.4,115.5,170.9,113.4z"/>
		<path class="st0" d="M185.8,137.5c-6.9,2.8-13.9,3.3-21.1,1.4c-4.4-1.2-6.3,5.7-1.9,6.9c8.3,2.2,16.9,1.8,24.9-1.4
			C191.9,142.7,190.1,135.7,185.8,137.5z"/>
		<path class="st0" d="M199.2,163.6c-0.7-4.5-7.6-2.6-6.9,1.9c1.4,9.1,2.3,18.3,2.7,27.4c-0.1,0-0.2,0-0.3,0.1
			c-8,3.2-16.4,5.1-25.1,4.4c-4.4-0.4-8.9-1.5-12.9-3.3c-1.7-0.8-3.5-1.6-5-2.8c-3.4-2.7-2.1-4.5-1.2-8c1.5-5.5,5.5-10.8,1.8-16
			c-2.9-4.1-7.3-6.3-5.2-12.2c1.3-3.6,5.1-6.8,7.4-9.9c2.7-3.7-3.5-7.3-6.2-3.6c-5.2,7.1-12.7,14-7.2,23.3c1.1,1.9,2.7,3.3,4,5
			c2,2.9,0.7,4.5-0.3,7.6c-1.3,3.9-3.6,9.8-2.2,14c2.5,7.6,15.4,11.3,22.3,12.5c10.8,1.9,21.6-0.1,31.7-4c0.9-0.4,1.5-0.9,1.9-1.6
			c1.9,0.2,3.9-1,3.8-3.4C201.8,184.4,200.8,174,199.2,163.6z"/>
		<path class="st0" d="M211.7,153.2c-2.4-6.9-6.6-12.5-12.5-16.8c-3.7-2.7-7.3,3.5-3.6,6.2c4.3,3.1,7.5,7.5,9.2,12.5
			C206.3,159.5,213.2,157.6,211.7,153.2z"/>
		<path class="st0" d="M213.4,160.6c-1.6-4.3-8.5-2.4-6.9,1.9c3.5,9.4,4.5,19.1,2.7,29.1c-0.8,4.5,6.1,6.4,6.9,1.9
			C218.2,182.3,217.4,171.2,213.4,160.6z"/>
		<path class="st0" d="M213,199.4c-2-0.5-3.7,0.7-4.4,2.5c-0.3,0.8-1,1.8-2,2c-0.4,0.1-1.4-0.1-1.4-0.7c-0.4-4.5-7.5-4.6-7.1,0
			c0.4,4.4,3.8,7.9,8.4,7.8c4.4,0,7.6-3.4,9-7.2C216.1,202,214.7,199.9,213,199.4z"/>
		<path class="st0" d="M207.5,234.7c-1-6.2-2-12.5-3-18.7c-0.7-4.5-7.6-2.6-6.9,1.9c1,6.2,2,12.5,3,18.7
			C201.3,241.1,208.2,239.2,207.5,234.7z"/>
		<path class="st0" d="M142.7,200.8c-5.8,11.1-9.2,23-10.3,35.5c-0.4,4.6,6.7,4.6,7.1,0c1-11.2,4.1-21.9,9.3-31.9
			C151,200.3,144.9,196.7,142.7,200.8z"/>
		<path class="st0" d="M133.1,168.3c-3.3,9.9-5.5,23-0.5,32.7c2.1,4.1,8.3,0.5,6.2-3.6c-4-7.8-1.4-19.4,1.3-27.2
			C141.5,165.9,134.6,164,133.1,168.3z"/>
	</g>
</g>
</svg>
