<?xml version="1.0" encoding="utf-8"?>
<!-- Generator: Adobe Illustrator 21.0.2, SVG Export Plug-In . SVG Version: 6.00 Build 0)  -->
<svg version="1.1" id="Layer_1" xmlns="http://www.w3.org/2000/svg" xmlns:xlink="http://www.w3.org/1999/xlink" x="0px" y="0px"
	 viewBox="0 0 256 256" style="enable-background:new 0 0 256 256;" xml:space="preserve">
<style type="text/css">
	.st0{fill:#82BDEB;}
</style>
<g>
	<g id="Layer_1_2_">
		<g>
			<path class="st0" d="M124.9,52c-1.2,11.3-11.3,18.9-22.4,18.2c-10.3-0.7-20-8.5-19.2-19.4c0.4-4.6-6.8-4.6-7.1,0
				C75,65.7,88.6,76.6,102.5,77.4c15.3,0.8,28-10.3,29.5-25.4C132.5,47.4,125.4,47.5,124.9,52z"/>
			<path class="st0" d="M117.2,45.5c-1-3.9-6.4-2.9-7,0.4c-1.5,1.1-4.9,1.5-6.2,1.5c-2.4-0.1-4.5-1-5.8-3.1
				c-2.5-3.9-8.7-0.3-6.2,3.6c3.1,4.9,8.5,7.2,14.3,6.5C110.7,53.7,118.6,51.2,117.2,45.5z"/>
			<path class="st0" d="M126.8,20.1c-18-9.2-39.8-2.4-48.6,16.1c-2,4.1,4.2,7.8,6.2,3.6c7-14.9,23.9-21.1,38.8-13.5
				C127.2,28.4,130.9,22.2,126.8,20.1z"/>
			<path class="st0" d="M129.9,11.1c-4.3,1.5-2.5,8.4,1.9,6.9c14.2-4.9,35.3,5.4,35.6,21.8c0.1,4.6,7.2,4.6,7.1,0
				C174.1,18.9,148.6,4.7,129.9,11.1z"/>
			<path class="st0" d="M160.6,41.7c-5.3-8-14.3-12.7-23.9-11.9c-4.5,0.4-4.6,7.5,0,7.1c7.1-0.6,13.8,2.3,17.7,8.3
				C157,49.2,163.2,45.6,160.6,41.7z"/>
			<path class="st0" d="M171.5,45.9c-3.2,6.4-7.2,11.4-14.2,13.6c-6.5,2-13.4,1.2-20-0.1c-4.5-0.9-6.4,6-1.9,6.9
				c17.7,3.5,33.6,0.4,42.3-16.8C179.7,45.4,173.5,41.8,171.5,45.9z"/>
			<path class="st0" d="M185.1,44.5c-0.1,0.2-0.2,0.3-0.3,0.5c-0.4,0.7-0.5,1.4-0.5,2c-1.1,4.1-3.3,7.5-6.5,10.3
				c-3.5,3,1.6,8.1,5.1,5.1c4.5-4,7.6-9.3,8.7-15.2C192.4,43.5,187.2,40.8,185.1,44.5z"/>
			<path class="st0" d="M175.7,71.8c-0.2,6.1-0.3,12.2-0.5,18.2c-0.1,4.6,7,4.6,7.1,0c0.2-6.1,0.3-12.2,0.5-18.2
				C183,67.2,175.8,67.2,175.7,71.8z"/>
			<path class="st0" d="M73,58.2c-2.3-3-2.7-7.3-1-10.7c2-4.1-4.2-7.7-6.2-3.6c-3.2,6.6-2.3,13.7,2.1,19.4
				C70.8,66.9,75.8,61.8,73,58.2z"/>
			<path class="st0" d="M79.6,71.1c-0.3-4.6-7.4-4.6-7.1,0c0.4,6.6,0.7,13.2,1.1,19.8c0.3,4.6,7.4,4.6,7.1,0
				C80.4,84.3,80,77.7,79.6,71.1z"/>
			<path class="st0" d="M190.5,86.3c-4-2.2-7.7,4-3.6,6.2c10.9,5.8,9.5,24.5-3.1,27c-4.5,0.9-2.6,7.8,1.9,6.9
				C204.4,122.6,206.6,95,190.5,86.3z"/>
			<path class="st0" d="M189.1,104.4c0-1.9-1.6-3.7-3.6-3.6c-1.9,0.1-3.6,1.6-3.6,3.6c0,1.6,0,3.2,0,4.8c0,1.9,1.6,3.7,3.6,3.6
				c1.9-0.1,3.6-1.6,3.6-3.6C189.1,107.5,189.1,106,189.1,104.4z"/>
			<path class="st0" d="M72.2,122.5c-14.9-2.1-20.1-25.8-4-30.3c4.4-1.2,2.5-8.1-1.9-6.9c-22.5,6.2-18.3,41,4,44
				C74.8,130.1,76.7,123.2,72.2,122.5z"/>
			<path class="st0" d="M74.1,108.2c0-0.2-0.1-0.3-0.1-0.4s0-0.1,0-0.2c0-0.4-0.1-0.8-0.1-1.2c0-0.8,0-1.6,0.1-2.4
				c0.2-1.9-1.8-3.7-3.6-3.6c-2.1,0.1-3.4,1.6-3.6,3.6c-0.2,2.1,0,4.1,0.3,6.1c0.3,1.8,2.7,3,4.4,2.5
				C73.6,112,74.5,110.2,74.1,108.2z"/>
			<path class="st0" d="M100.3,90.9c-6.7,0.2-12.2,3.8-13.1,10.7c-0.6,4.5,6.6,4.5,7.1,0c0.6-4.6,12-5.2,12-0.4
				c-0.1,4.6,7.1,4.6,7.1,0C113.5,94,106.7,90.7,100.3,90.9z"/>
			<path class="st0" d="M168.7,100.1C168,94,163.4,89.3,157,89.5c-6.3,0.2-11,5.4-12.5,11.2c-1.1,4.5,5.8,6.4,6.9,1.9
				c0.6-2.5,2.1-5.2,4.8-5.8c2.4-0.6,5,0.8,5.3,3.3C162,104.6,169.2,104.6,168.7,100.1z"/>
			<path class="st0" d="M133.6,104.4c-0.2-4.6-7.3-4.6-7.1,0c0.2,3.4,0.3,6.9,0.5,10.3c0.2,4.6,7.3,4.6,7.1,0
				C133.9,111.2,133.7,107.8,133.6,104.4z"/>
			<path class="st0" d="M134.1,131.2c-0.6-0.1-2,0.1-2.1,0.1c-1,0-2.1,0-3.1,0c-2.4,0-4.7-0.2-7.1-0.5c-4.5-0.6-6.4,6.3-1.9,6.9
				c4.4,0.6,8.9,0.9,13.3,0.7c3.1-0.2,7.2-0.7,7-4.7C140.1,130.3,136,129.5,134.1,131.2z"/>
			<path class="st0" d="M124.8,148.8c-14.4,0.5-28-3.9-39.5-12.6c-3.7-2.8-7.2,3.4-3.6,6.2c12.4,9.4,27.5,14.1,43.1,13.6
				C129.4,155.8,129.5,148.7,124.8,148.8z"/>
			<path class="st0" d="M172,135.6c-9.7,8.9-22.1,13.3-35.2,12.9c-4.6-0.1-4.6,7,0,7.1c15,0.5,29.2-4.9,40.3-15
				C180.4,137.6,175.4,132.5,172,135.6z"/>
			<path class="st0" d="M147.1,170.1c-11,4.4-22.7,3.8-33-2.2c-4-2.3-7.6,3.9-3.6,6.2c11.8,6.8,25.8,8,38.5,2.9
				C153.2,175.3,151.4,168.4,147.1,170.1z"/>
			<path class="st0" d="M94.6,167.4c-8.6,2.7-19,5.7-26,11.6c-7.3,6.2-11,17.1-13.1,26.1c-1.1,4.5,5.8,6.4,6.9,1.9
				c1.8-7.8,4.9-18,11.6-23.1c6.3-4.8,15-7.2,22.5-9.6C100.8,172.9,99,166,94.6,167.4z"/>
			<path class="st0" d="M74.2,212.7c-3.2,0-7,0-9.5-2.3c-3.3-3.1-8.4,1.9-5.1,5.1c4,3.8,9.3,4.3,14.5,4.4
				C78.8,219.9,78.8,212.8,74.2,212.7z"/>
			<path class="st0" d="M80.1,209.6c-1.2,10.6-1.9,21.2-2.2,31.8c-0.1,4.6,7,4.6,7.1,0c0.3-10.6,1-21.3,2.2-31.8
				C87.8,205.1,80.6,205.1,80.1,209.6z"/>
			<path class="st0" d="M62.8,226c0.1-4.6-7-4.6-7.1,0c-0.1,3.6,0,7.1,0.3,10.7c0.3,4.6,7.5,4.6,7.1,0
				C62.9,233.1,62.8,229.6,62.8,226z"/>
			<path class="st0" d="M164.2,167.4c8.6,2.7,19,5.7,26,11.6c7.3,6.2,11,17.1,13.1,26.1c1.1,4.5-5.8,6.4-6.9,1.9
				c-1.8-7.8-4.9-18-11.6-23.1c-6.3-4.8-15-7.2-22.5-9.6C158,172.9,159.8,166,164.2,167.4z"/>
			<path class="st0" d="M184.6,212.7c3.2,0,7,0,9.5-2.3c3.3-3.1,8.4,1.9,5.1,5.1c-4,3.8-9.3,4.3-14.5,4.4
				C180.1,219.9,180.1,212.8,184.6,212.7z"/>
			<path class="st0" d="M178.7,209.6c1.2,10.6,1.9,21.2,2.2,31.8c0.1,4.6-7,4.6-7.1,0c-0.3-10.6-1-21.3-2.2-31.8
				C171,205.1,178.2,205.1,178.7,209.6z"/>
			<path class="st0" d="M196,226c-0.1-4.6,7-4.6,7.1,0c0.1,3.6,0,7.1-0.3,10.7c-0.3,4.6-7.5,4.6-7.1,0
				C195.9,233.1,196,229.6,196,226z"/>
		</g>
	</g>
</g>
</svg>
