<?xml version="1.0" encoding="utf-8"?>
<!-- Generator: Adobe Illustrator 21.0.2, SVG Export Plug-In . SVG Version: 6.00 Build 0)  -->
<svg version="1.1" id="Layer_1" xmlns="http://www.w3.org/2000/svg" xmlns:xlink="http://www.w3.org/1999/xlink" x="0px" y="0px"
	 viewBox="0 0 256 256" style="enable-background:new 0 0 256 256;" xml:space="preserve">
<style type="text/css">
	.st0{fill:#EBBE78;}
</style>
<g id="Layer_3_1_">
	<g>
		<path class="st0" d="M101.7,80.5c-4.1-0.7-8.1,1.7-8.8,5.9c-0.7,3.8,1,8.2,4.7,9.8c0.9,0.4,1.9,0.6,2.8,0.6c0.7,0.1,1.3,0,2-0.1
			c3.9-0.7,6.7-4.2,6.6-8.2C108.8,84.5,105.7,81.2,101.7,80.5z"/>
		<path class="st0" d="M155.5,80.5c-4.1-0.7-8.1,1.7-8.8,5.9c-0.7,3.8,1,8.2,4.7,9.8c0.9,0.4,1.9,0.6,2.8,0.6c0.7,0.1,1.3,0,2-0.1
			c3.9-0.7,6.7-4.2,6.6-8.2C162.6,84.5,159.5,81.2,155.5,80.5z"/>
		<path class="st0" d="M135,99.9c-3.6,3.9-11.2,1.3-14.9-1c-3.9-2.5-7.5,3.7-3.6,6.2c6.5,4.1,17.7,6.2,23.6-0.1
			C143.2,101.6,138.2,96.5,135,99.9z"/>
		<path class="st0" d="M104.3,44.8c-1.7,7.3-5.5,13.4-11.2,18.2c-3.5,2.9,1.5,8,5.1,5.1c6.6-5.5,11.2-12.9,13.1-21.3
			C112.2,42.2,105.3,40.3,104.3,44.8z"/>
		<path class="st0" d="M121.1,44.8c-1.7,7.3-5.5,13.4-11.2,18.2c-3.5,2.9,1.5,8,5.1,5.1c6.6-5.5,11.2-12.9,13.1-21.3
			C129,42.2,122.1,40.3,121.1,44.8z"/>
		<path class="st0" d="M139.4,46.2c-1.7,7.3-5.5,13.4-11.2,18.2c-3.5,2.9,1.5,8,5.1,5.1c6.6-5.5,11.2-12.9,13.1-21.3
			C147.3,43.6,140.4,41.7,139.4,46.2z"/>
		<path class="st0" d="M157,46.2c-1.7,7.3-5.5,13.4-11.2,18.2c-3.5,2.9,1.5,8,5.1,5.1c6.6-5.5,11.2-12.9,13.1-21.3
			C164.9,43.6,158,41.7,157,46.2z"/>
		<path class="st0" d="M181.9,53c-2.1-4.1-8.3-0.5-6.2,3.6c1.4,2.7,1.8,5.6,1.2,8.6c-0.9,4.5,5.9,6.4,6.9,1.9
			C184.9,62.2,184.3,57.4,181.9,53z"/>
		<path class="st0" d="M72.6,54.5c-0.8,4.1-0.8,8.1-0.2,12.2c0.3,1.9,2.7,3,4.4,2.5c2-0.6,2.8-2.5,2.5-4.4c-0.4-2.8-0.3-5.7,0.2-8.4
			C80.4,51.9,73.5,50,72.6,54.5z"/>
		<path class="st0" d="M174,33.7c-8.5-16.9-27-25.2-45.3-25.1c-18.2,0.1-40.6,6.3-49.3,23.8c-2,4.1,4.1,7.7,6.2,3.6
			c7.6-15.3,27.4-20.2,43.2-20.3c16-0.1,31.7,6.8,39.1,21.5C169.9,41.4,176,37.8,174,33.7z"/>
		<path class="st0" d="M212,31.1c-7-12.3-23.2-21.5-37.2-16.1c-4.2,1.6-2.4,8.6,1.9,6.9c11.1-4.3,23.6,3.1,29.1,12.8
			c5.9,10.4,3.5,23.3-5.2,31.2c-3.4,3.1,1.7,8.2,5.1,5.1C216.7,60.8,219.4,44.1,212,31.1z"/>
		<path class="st0" d="M202.2,78.2c-4.6,2.8-11.9,3.9-14.8-1.8c-2.1-4.1-8.3-0.5-6.2,3.6c4.7,9.1,16.7,9.2,24.5,4.3
			C209.8,82,206.2,75.8,202.2,78.2z"/>
		<path class="st0" d="M79.8,15.4c-14.3-3.2-32.3,5.9-38.1,19.3c-5.5,12.6-4.2,30.1,7.1,39.1c3.6,2.8,8.6-2.2,5.1-5.1
			c-8.7-7-9.9-20-6.1-29.9c4.1-10.7,18.8-19,30.2-16.5C82.3,23.3,84.3,16.5,79.8,15.4z"/>
		<path class="st0" d="M68.6,77.2C64.4,83.8,56.4,84,50,80.7c-4.1-2.1-7.7,4.1-3.6,6.2c10,5.1,22.1,3.9,28.4-6.1
			C77.3,76.9,71.1,73.4,68.6,77.2z"/>
		<path class="st0" d="M176.8,76.8c-0.2-4.6-7.3-4.6-7.1,0c0.5,12.1,2.3,28.9-7.1,38.2c-9,9-24.2,11.3-36.5,11.4
			c-12.1,0.1-24.4-3.1-32.9-12c-10.5-10.8-7.6-24.7-8.1-38.4c-0.2-4.6-7.3-4.6-7.1,0c0.6,15.7-1.9,30.3,9.6,42.9
			c9.8,10.7,24.4,14.9,38.6,14.8s31.1-3.1,41.5-13.5C178.6,109.1,177.4,91.2,176.8,76.8z"/>
		<path class="st0" d="M145.9,137.1c-1-4.5-7.9-2.6-6.9,1.9c1.8,7.5-6.7,11.8-13,11.2c-7.2-0.7-10.1-6.3-11.4-12.7
			c-0.9-4.5-7.8-2.6-6.9,1.9c2.2,11,9.9,19.1,21.7,18C139.7,156.3,148.4,147.8,145.9,137.1z"/>
		<path class="st0" d="M169.2,166.5c-2.4-10.6-6.3-20.8-7.5-31.7c-0.5-4.5-7.7-4.6-7.1,0c1.1,10.1,4.2,19.6,6.8,29.4
			c2.8,10.8,3.1,21.2,2.8,32.2c-9.2,7.4-20.7,11.2-32.5,11.9c-11.3,0.7-25.2-0.2-35-6.7c-10.4-6.9-7-24.5-4.3-34.8
			c2.7-10.6,6.7-20.7,7.2-31.8c0.2-4.6-6.9-4.6-7.1,0c-0.7,14.6-7.7,27.9-9.2,42.4c-1.3,12.5-0.2,24.8,11.6,31.5
			c11.2,6.3,26.3,7.5,38.9,6.4c13.3-1.2,25.6-5.7,35.9-14.2c0.5-0.4,0.8-0.8,1-1.3c0.3-0.5,0.5-1.1,0.5-1.8
			C171.5,187.3,171.5,176.9,169.2,166.5z"/>
		<path class="st0" d="M88.2,133.5c3.2-3.3-1.8-8.3-5.1-5.1c-11.6,11.8-16.8,27.8-14.9,44.1c-3.1,3.9-4.7,9-2.4,13.8
			c2.3,4.8,7.7,7,12.7,5.4c4.4-1.4,2.5-8.3-1.9-6.9c-4.7,1.5-5.4-3.8-3.7-6.9c1-1.9,2.2-2.2,2.6-4.3c0.3-2.1-0.6-4.9-0.7-7.1
			c0-2.2,0.1-4.5,0.4-6.7C76.5,149.8,81.1,140.7,88.2,133.5z"/>
		<path class="st0" d="M166.4,133.5c-3.2-3.3,1.8-8.3,5.1-5.1c11.6,11.8,16.8,27.8,14.9,44.1c3.1,3.9,4.7,9,2.4,13.8
			c-2.3,4.8-7.7,7-12.7,5.4c-4.4-1.4-2.5-8.3,1.9-6.9c4.7,1.5,5.4-3.8,3.7-6.9c-1-1.9-2.2-2.2-2.6-4.3c-0.3-2.1,0.6-4.9,0.7-7.1
			c0-2.2-0.1-4.5-0.4-6.7C178.1,149.8,173.5,140.7,166.4,133.5z"/>
		<path class="st0" d="M112.9,218.7c-0.5-4.5-7.6-4.6-7.1,0c0.6,5.4,0.7,10.9-0.3,16.3c-0.5,2.9-0.6,3.1-3.6,3.4
			c-1.6,0.2-6.9,0.2-8-1.5c-0.7-1.1,1.1-3.7,1.5-4.9c0.6-2.1,0.6-2.8,0.1-4.9c-1.4-5.3-3.1-9.2-2.1-14.9c0.7-4.5-6.2-6.4-6.9-1.9
			c-0.6,3.9-0.8,7.5-0.2,11.4c0.6,3.7,2.2,6.4,1.6,10c-1.3,6.6-1.5,10.2,5.8,12.8c4.8,1.7,13.2,2.3,16.9-2
			C114.9,237.1,113.6,224.9,112.9,218.7z"/>
		<path class="st0" d="M141.2,218.7c0.5-4.5,7.6-4.6,7.1,0c-0.6,5.4-0.7,10.9,0.3,16.3c0.5,2.9,0.6,3.1,3.6,3.4
			c1.6,0.2,6.9,0.2,8-1.5c0.7-1.1-1.1-3.7-1.5-4.9c-0.6-2.1-0.6-2.8-0.1-4.9c1.4-5.3,3.1-9.2,2.1-14.9c-0.7-4.5,6.2-6.4,6.9-1.9
			c0.6,3.9,0.8,7.5,0.2,11.4c-0.6,3.7-2.2,6.4-1.6,10c1.3,6.6,1.5,10.2-5.8,12.8c-4.8,1.7-13.2,2.3-16.9-2
			C139.3,237.1,140.5,224.9,141.2,218.7z"/>
	</g>
</g>
</svg>
