<svg version="1" xmlns="http://www.w3.org/2000/svg" width="341.333" height="341.333" viewBox="0 0 256.000000 256.000000"><path d="M119 4.7c-11.5.6-29.2 5.8-41.4 12.1-30.9 15.9-52.1 43.7-59.1 77.7-3.1 15.1-2.3 38.2 1.8 51.6l1.4 4.6-4.4 5.3C7.1 168.4 3.2 179 3.2 194.5c0 5.9.4 12.1 1 13.8 5.8 18.6 15.1 30.1 30.8 38.4 11.2 6 8.5 5.8 94 5.8h78.5l6.8-2.3c16.7-5.8 30.5-19.6 36.5-36.6 3.6-10 3.8-26.2.4-37.1-1.9-6.1-7.1-15.2-11.7-20.3-3.4-3.7-4.5-5.7-4-7 .4-.9.9-2.8 1.1-4.2.3-1.4.9-4.1 1.4-6 2-8 3-28.9 1.6-35.5-.2-1.1-.7-4-1-6.5-3-19.6-14.4-42.2-29-57.8-12.9-13.6-34.2-26.3-52.1-30.9-11.7-3-25.5-4.2-38.5-3.6z"/></svg>